G04*
G04 #@! TF.GenerationSoftware,Altium Limited,Altium Designer,18.1.9 (240)*
G04*
G04 Layer_Color=8421504*
%FSLAX24Y24*%
%MOIN*%
G70*
G01*
G75*
%ADD10C,0.0500*%
%ADD11R,0.0600X0.0900*%
%ADD12R,0.0900X0.0600*%
%ADD13R,0.0640X0.0640*%
%ADD14R,0.0350X0.0310*%
%ADD15R,0.0700X0.0500*%
%ADD16R,0.0500X0.0700*%
%ADD17R,0.0640X0.0640*%
%ADD18R,0.0340X0.0340*%
G04:AMPARAMS|DCode=19|XSize=60mil|YSize=70mil|CornerRadius=15mil|HoleSize=0mil|Usage=FLASHONLY|Rotation=90.000|XOffset=0mil|YOffset=0mil|HoleType=Round|Shape=RoundedRectangle|*
%AMROUNDEDRECTD19*
21,1,0.0600,0.0400,0,0,90.0*
21,1,0.0300,0.0700,0,0,90.0*
1,1,0.0300,0.0200,0.0150*
1,1,0.0300,0.0200,-0.0150*
1,1,0.0300,-0.0200,-0.0150*
1,1,0.0300,-0.0200,0.0150*
%
%ADD19ROUNDEDRECTD19*%
%ADD20R,0.0260X0.0800*%
%ADD21R,0.0900X0.0900*%
%ADD22R,0.0600X0.0700*%
%ADD23R,0.0700X0.0280*%
%ADD24O,0.0740X0.0240*%
D10*
X1250Y1250D02*
D03*
X87000D02*
D03*
Y109200D02*
D03*
X1250D02*
D03*
D11*
X6975Y29425D02*
D03*
X5625D02*
D03*
X48675D02*
D03*
X47325D02*
D03*
X6975Y64625D02*
D03*
X5625D02*
D03*
X48675D02*
D03*
X47325D02*
D03*
X6975Y99825D02*
D03*
X5625D02*
D03*
X48675D02*
D03*
X47325D02*
D03*
D12*
X9275Y5675D02*
D03*
Y4325D02*
D03*
X8275Y30025D02*
D03*
Y31375D02*
D03*
X42025Y10075D02*
D03*
Y8725D02*
D03*
Y24725D02*
D03*
Y23375D02*
D03*
X4525Y27775D02*
D03*
Y26425D02*
D03*
X50975Y5675D02*
D03*
Y4325D02*
D03*
X49975Y30025D02*
D03*
Y31375D02*
D03*
X83725Y10075D02*
D03*
Y8725D02*
D03*
Y24725D02*
D03*
Y23375D02*
D03*
X46225Y27775D02*
D03*
Y26425D02*
D03*
X9275Y40875D02*
D03*
Y39525D02*
D03*
X8275Y65225D02*
D03*
Y66575D02*
D03*
X42025Y45275D02*
D03*
Y43925D02*
D03*
Y59925D02*
D03*
Y58575D02*
D03*
X4525Y62975D02*
D03*
Y61625D02*
D03*
X50975Y40875D02*
D03*
Y39525D02*
D03*
X49975Y65225D02*
D03*
Y66575D02*
D03*
X83725Y45275D02*
D03*
Y43925D02*
D03*
Y59925D02*
D03*
Y58575D02*
D03*
X46225Y62975D02*
D03*
Y61625D02*
D03*
X9275Y76075D02*
D03*
Y74725D02*
D03*
X8275Y100425D02*
D03*
Y101775D02*
D03*
X42025Y80475D02*
D03*
Y79125D02*
D03*
Y95125D02*
D03*
Y93775D02*
D03*
X4525Y98175D02*
D03*
Y96825D02*
D03*
X50975Y76075D02*
D03*
Y74725D02*
D03*
X49975Y100425D02*
D03*
Y101775D02*
D03*
X83725Y80475D02*
D03*
Y79125D02*
D03*
Y95125D02*
D03*
Y93775D02*
D03*
X46225Y98175D02*
D03*
Y96825D02*
D03*
D13*
X11525Y5025D02*
D03*
Y6365D02*
D03*
X17775Y24275D02*
D03*
Y25615D02*
D03*
X8525Y8275D02*
D03*
Y9615D02*
D03*
X41775Y35175D02*
D03*
Y33475D02*
D03*
X29025Y35275D02*
D03*
Y33575D02*
D03*
X53225Y5025D02*
D03*
Y6365D02*
D03*
X59475Y24275D02*
D03*
Y25615D02*
D03*
X50225Y8275D02*
D03*
Y9615D02*
D03*
X83475Y35175D02*
D03*
Y33475D02*
D03*
X70725Y35275D02*
D03*
Y33575D02*
D03*
X11525Y40225D02*
D03*
Y41565D02*
D03*
X17775Y59475D02*
D03*
Y60815D02*
D03*
X8525Y43475D02*
D03*
Y44815D02*
D03*
X41775Y70375D02*
D03*
Y68675D02*
D03*
X29025Y70475D02*
D03*
Y68775D02*
D03*
X53225Y40225D02*
D03*
Y41565D02*
D03*
X59475Y59475D02*
D03*
Y60815D02*
D03*
X50225Y43475D02*
D03*
Y44815D02*
D03*
X83475Y70375D02*
D03*
Y68675D02*
D03*
X70725Y70475D02*
D03*
Y68775D02*
D03*
X11525Y75425D02*
D03*
Y76765D02*
D03*
X17775Y94675D02*
D03*
Y96015D02*
D03*
X8525Y78675D02*
D03*
Y80015D02*
D03*
X41775Y105575D02*
D03*
Y103875D02*
D03*
X29025Y105675D02*
D03*
Y103975D02*
D03*
X53225Y75425D02*
D03*
Y76765D02*
D03*
X59475Y94675D02*
D03*
Y96015D02*
D03*
X50225Y78675D02*
D03*
Y80015D02*
D03*
X83475Y105575D02*
D03*
Y103875D02*
D03*
X70725Y105675D02*
D03*
Y103975D02*
D03*
D14*
X21495Y7765D02*
D03*
X21125Y6975D02*
D03*
X20755Y7765D02*
D03*
X63195D02*
D03*
X62825Y6975D02*
D03*
X62455Y7765D02*
D03*
X21495Y42965D02*
D03*
X21125Y42175D02*
D03*
X20755Y42965D02*
D03*
X63195D02*
D03*
X62825Y42175D02*
D03*
X62455Y42965D02*
D03*
X21495Y78165D02*
D03*
X21125Y77375D02*
D03*
X20755Y78165D02*
D03*
X63195D02*
D03*
X62825Y77375D02*
D03*
X62455Y78165D02*
D03*
D15*
X21675Y28275D02*
D03*
Y26775D02*
D03*
X27025Y4275D02*
D03*
Y5775D02*
D03*
Y7275D02*
D03*
Y8775D02*
D03*
X21075Y24275D02*
D03*
Y22775D02*
D03*
X11525Y21025D02*
D03*
Y19525D02*
D03*
X4075Y24725D02*
D03*
Y23225D02*
D03*
X11775Y11025D02*
D03*
Y9525D02*
D03*
X63375Y28275D02*
D03*
Y26775D02*
D03*
X68725Y4275D02*
D03*
Y5775D02*
D03*
Y7275D02*
D03*
Y8775D02*
D03*
X62775Y24275D02*
D03*
Y22775D02*
D03*
X53225Y21025D02*
D03*
Y19525D02*
D03*
X45775Y24725D02*
D03*
Y23225D02*
D03*
X53475Y11025D02*
D03*
Y9525D02*
D03*
X21675Y63475D02*
D03*
Y61975D02*
D03*
X27025Y39475D02*
D03*
Y40975D02*
D03*
Y42475D02*
D03*
Y43975D02*
D03*
X21075Y59475D02*
D03*
Y57975D02*
D03*
X11525Y56225D02*
D03*
Y54725D02*
D03*
X4075Y59925D02*
D03*
Y58425D02*
D03*
X11775Y46225D02*
D03*
Y44725D02*
D03*
X63375Y63475D02*
D03*
Y61975D02*
D03*
X68725Y39475D02*
D03*
Y40975D02*
D03*
Y42475D02*
D03*
Y43975D02*
D03*
X62775Y59475D02*
D03*
Y57975D02*
D03*
X53225Y56225D02*
D03*
Y54725D02*
D03*
X45775Y59925D02*
D03*
Y58425D02*
D03*
X53475Y46225D02*
D03*
Y44725D02*
D03*
X21675Y98675D02*
D03*
Y97175D02*
D03*
X27025Y74675D02*
D03*
Y76175D02*
D03*
Y77675D02*
D03*
Y79175D02*
D03*
X21075Y94675D02*
D03*
Y93175D02*
D03*
X11525Y91425D02*
D03*
Y89925D02*
D03*
X4075Y95125D02*
D03*
Y93625D02*
D03*
X11775Y81425D02*
D03*
Y79925D02*
D03*
X63375Y98675D02*
D03*
Y97175D02*
D03*
X68725Y74675D02*
D03*
Y76175D02*
D03*
Y77675D02*
D03*
Y79175D02*
D03*
X62775Y94675D02*
D03*
Y93175D02*
D03*
X53225Y91425D02*
D03*
Y89925D02*
D03*
X45775Y95125D02*
D03*
Y93625D02*
D03*
X53475Y81425D02*
D03*
Y79925D02*
D03*
D16*
X9525Y14275D02*
D03*
X11025D02*
D03*
X9525Y16775D02*
D03*
X11025D02*
D03*
X10775Y25525D02*
D03*
X9275D02*
D03*
Y28525D02*
D03*
X10775D02*
D03*
X27275Y16275D02*
D03*
X25775D02*
D03*
X10775Y24025D02*
D03*
X9275D02*
D03*
X27275Y18275D02*
D03*
X25775D02*
D03*
X37525Y3775D02*
D03*
X39025D02*
D03*
X25825Y23425D02*
D03*
X24325D02*
D03*
X17725Y14075D02*
D03*
X16225D02*
D03*
X15525Y16775D02*
D03*
X17025D02*
D03*
X20275Y20025D02*
D03*
X18775D02*
D03*
X16775Y28275D02*
D03*
X18275D02*
D03*
X18775Y21525D02*
D03*
X20275D02*
D03*
X15525Y18275D02*
D03*
X17025D02*
D03*
X17625Y11025D02*
D03*
X19125D02*
D03*
X51225Y14275D02*
D03*
X52725D02*
D03*
X51225Y16775D02*
D03*
X52725D02*
D03*
X52475Y25525D02*
D03*
X50975D02*
D03*
Y28525D02*
D03*
X52475D02*
D03*
X68975Y16275D02*
D03*
X67475D02*
D03*
X52475Y24025D02*
D03*
X50975D02*
D03*
X68975Y18275D02*
D03*
X67475D02*
D03*
X79225Y3775D02*
D03*
X80725D02*
D03*
X67525Y23425D02*
D03*
X66025D02*
D03*
X59425Y14075D02*
D03*
X57925D02*
D03*
X57225Y16775D02*
D03*
X58725D02*
D03*
X61975Y20025D02*
D03*
X60475D02*
D03*
X58475Y28275D02*
D03*
X59975D02*
D03*
X60475Y21525D02*
D03*
X61975D02*
D03*
X57225Y18275D02*
D03*
X58725D02*
D03*
X59325Y11025D02*
D03*
X60825D02*
D03*
X9525Y49475D02*
D03*
X11025D02*
D03*
X9525Y51975D02*
D03*
X11025D02*
D03*
X10775Y60725D02*
D03*
X9275D02*
D03*
Y63725D02*
D03*
X10775D02*
D03*
X27275Y51475D02*
D03*
X25775D02*
D03*
X10775Y59225D02*
D03*
X9275D02*
D03*
X27275Y53475D02*
D03*
X25775D02*
D03*
X37525Y38975D02*
D03*
X39025D02*
D03*
X25825Y58625D02*
D03*
X24325D02*
D03*
X17725Y49275D02*
D03*
X16225D02*
D03*
X15525Y51975D02*
D03*
X17025D02*
D03*
X20275Y55225D02*
D03*
X18775D02*
D03*
X16775Y63475D02*
D03*
X18275D02*
D03*
X18775Y56725D02*
D03*
X20275D02*
D03*
X15525Y53475D02*
D03*
X17025D02*
D03*
X17625Y46225D02*
D03*
X19125D02*
D03*
X51225Y49475D02*
D03*
X52725D02*
D03*
X51225Y51975D02*
D03*
X52725D02*
D03*
X52475Y60725D02*
D03*
X50975D02*
D03*
Y63725D02*
D03*
X52475D02*
D03*
X68975Y51475D02*
D03*
X67475D02*
D03*
X52475Y59225D02*
D03*
X50975D02*
D03*
X68975Y53475D02*
D03*
X67475D02*
D03*
X79225Y38975D02*
D03*
X80725D02*
D03*
X67525Y58625D02*
D03*
X66025D02*
D03*
X59425Y49275D02*
D03*
X57925D02*
D03*
X57225Y51975D02*
D03*
X58725D02*
D03*
X61975Y55225D02*
D03*
X60475D02*
D03*
X58475Y63475D02*
D03*
X59975D02*
D03*
X60475Y56725D02*
D03*
X61975D02*
D03*
X57225Y53475D02*
D03*
X58725D02*
D03*
X59325Y46225D02*
D03*
X60825D02*
D03*
X9525Y84675D02*
D03*
X11025D02*
D03*
X9525Y87175D02*
D03*
X11025D02*
D03*
X10775Y95925D02*
D03*
X9275D02*
D03*
Y98925D02*
D03*
X10775D02*
D03*
X27275Y86675D02*
D03*
X25775D02*
D03*
X10775Y94425D02*
D03*
X9275D02*
D03*
X27275Y88675D02*
D03*
X25775D02*
D03*
X37525Y74175D02*
D03*
X39025D02*
D03*
X25825Y93825D02*
D03*
X24325D02*
D03*
X17725Y84475D02*
D03*
X16225D02*
D03*
X15525Y87175D02*
D03*
X17025D02*
D03*
X20275Y90425D02*
D03*
X18775D02*
D03*
X16775Y98675D02*
D03*
X18275D02*
D03*
X18775Y91925D02*
D03*
X20275D02*
D03*
X15525Y88675D02*
D03*
X17025D02*
D03*
X17625Y81425D02*
D03*
X19125D02*
D03*
X51225Y84675D02*
D03*
X52725D02*
D03*
X51225Y87175D02*
D03*
X52725D02*
D03*
X52475Y95925D02*
D03*
X50975D02*
D03*
Y98925D02*
D03*
X52475D02*
D03*
X68975Y86675D02*
D03*
X67475D02*
D03*
X52475Y94425D02*
D03*
X50975D02*
D03*
X68975Y88675D02*
D03*
X67475D02*
D03*
X79225Y74175D02*
D03*
X80725D02*
D03*
X67525Y93825D02*
D03*
X66025D02*
D03*
X59425Y84475D02*
D03*
X57925D02*
D03*
X57225Y87175D02*
D03*
X58725D02*
D03*
X61975Y90425D02*
D03*
X60475D02*
D03*
X58475Y98675D02*
D03*
X59975D02*
D03*
X60475Y91925D02*
D03*
X61975D02*
D03*
X57225Y88675D02*
D03*
X58725D02*
D03*
X59325Y81425D02*
D03*
X60825D02*
D03*
D17*
X9275Y22775D02*
D03*
X10615D02*
D03*
X12525Y12525D02*
D03*
X13865D02*
D03*
X22275Y3775D02*
D03*
X20575D02*
D03*
X20525Y5525D02*
D03*
X22225D02*
D03*
X23775Y7775D02*
D03*
X22435D02*
D03*
X35525Y17275D02*
D03*
X37225D02*
D03*
X35525Y14025D02*
D03*
X37225D02*
D03*
X17275Y3775D02*
D03*
X18615D02*
D03*
X16275Y12775D02*
D03*
X17615D02*
D03*
X50975Y22775D02*
D03*
X52315D02*
D03*
X54225Y12525D02*
D03*
X55565D02*
D03*
X63975Y3775D02*
D03*
X62275D02*
D03*
X62225Y5525D02*
D03*
X63925D02*
D03*
X65475Y7775D02*
D03*
X64135D02*
D03*
X77225Y17275D02*
D03*
X78925D02*
D03*
X77225Y14025D02*
D03*
X78925D02*
D03*
X58975Y3775D02*
D03*
X60315D02*
D03*
X57975Y12775D02*
D03*
X59315D02*
D03*
X9275Y57975D02*
D03*
X10615D02*
D03*
X12525Y47725D02*
D03*
X13865D02*
D03*
X22275Y38975D02*
D03*
X20575D02*
D03*
X20525Y40725D02*
D03*
X22225D02*
D03*
X23775Y42975D02*
D03*
X22435D02*
D03*
X35525Y52475D02*
D03*
X37225D02*
D03*
X35525Y49225D02*
D03*
X37225D02*
D03*
X17275Y38975D02*
D03*
X18615D02*
D03*
X16275Y47975D02*
D03*
X17615D02*
D03*
X50975Y57975D02*
D03*
X52315D02*
D03*
X54225Y47725D02*
D03*
X55565D02*
D03*
X63975Y38975D02*
D03*
X62275D02*
D03*
X62225Y40725D02*
D03*
X63925D02*
D03*
X65475Y42975D02*
D03*
X64135D02*
D03*
X77225Y52475D02*
D03*
X78925D02*
D03*
X77225Y49225D02*
D03*
X78925D02*
D03*
X58975Y38975D02*
D03*
X60315D02*
D03*
X57975Y47975D02*
D03*
X59315D02*
D03*
X9275Y93175D02*
D03*
X10615D02*
D03*
X12525Y82925D02*
D03*
X13865D02*
D03*
X22275Y74175D02*
D03*
X20575D02*
D03*
X20525Y75925D02*
D03*
X22225D02*
D03*
X23775Y78175D02*
D03*
X22435D02*
D03*
X35525Y87675D02*
D03*
X37225D02*
D03*
X35525Y84425D02*
D03*
X37225D02*
D03*
X17275Y74175D02*
D03*
X18615D02*
D03*
X16275Y83175D02*
D03*
X17615D02*
D03*
X50975Y93175D02*
D03*
X52315D02*
D03*
X54225Y82925D02*
D03*
X55565D02*
D03*
X63975Y74175D02*
D03*
X62275D02*
D03*
X62225Y75925D02*
D03*
X63925D02*
D03*
X65475Y78175D02*
D03*
X64135D02*
D03*
X77225Y87675D02*
D03*
X78925D02*
D03*
X77225Y84425D02*
D03*
X78925D02*
D03*
X58975Y74175D02*
D03*
X60315D02*
D03*
X57975Y83175D02*
D03*
X59315D02*
D03*
D18*
X25775Y34575D02*
D03*
X26575D02*
D03*
X26175Y35445D02*
D03*
X38525Y34175D02*
D03*
X39325D02*
D03*
X38925Y35045D02*
D03*
X10025Y19025D02*
D03*
X9225D02*
D03*
X9625Y18155D02*
D03*
X67475Y34575D02*
D03*
X68275D02*
D03*
X67875Y35445D02*
D03*
X80225Y34175D02*
D03*
X81025D02*
D03*
X80625Y35045D02*
D03*
X51725Y19025D02*
D03*
X50925D02*
D03*
X51325Y18155D02*
D03*
X25775Y69775D02*
D03*
X26575D02*
D03*
X26175Y70645D02*
D03*
X38525Y69375D02*
D03*
X39325D02*
D03*
X38925Y70245D02*
D03*
X10025Y54225D02*
D03*
X9225D02*
D03*
X9625Y53355D02*
D03*
X67475Y69775D02*
D03*
X68275D02*
D03*
X67875Y70645D02*
D03*
X80225Y69375D02*
D03*
X81025D02*
D03*
X80625Y70245D02*
D03*
X51725Y54225D02*
D03*
X50925D02*
D03*
X51325Y53355D02*
D03*
X25775Y104975D02*
D03*
X26575D02*
D03*
X26175Y105845D02*
D03*
X38525Y104575D02*
D03*
X39325D02*
D03*
X38925Y105445D02*
D03*
X10025Y89425D02*
D03*
X9225D02*
D03*
X9625Y88555D02*
D03*
X67475Y104975D02*
D03*
X68275D02*
D03*
X67875Y105845D02*
D03*
X80225Y104575D02*
D03*
X81025D02*
D03*
X80625Y105445D02*
D03*
X51725Y89425D02*
D03*
X50925D02*
D03*
X51325Y88555D02*
D03*
D19*
X4825Y17775D02*
D03*
Y21525D02*
D03*
X3825Y17775D02*
D03*
Y21525D02*
D03*
X46525Y17775D02*
D03*
Y21525D02*
D03*
X45525Y17775D02*
D03*
Y21525D02*
D03*
X4825Y52975D02*
D03*
Y56725D02*
D03*
X3825Y52975D02*
D03*
Y56725D02*
D03*
X46525Y52975D02*
D03*
Y56725D02*
D03*
X45525Y52975D02*
D03*
Y56725D02*
D03*
X4825Y88175D02*
D03*
Y91925D02*
D03*
X3825Y88175D02*
D03*
Y91925D02*
D03*
X46525Y88175D02*
D03*
Y91925D02*
D03*
X45525Y88175D02*
D03*
Y91925D02*
D03*
D20*
X14025Y5925D02*
D03*
X13525D02*
D03*
X14525D02*
D03*
X13025D02*
D03*
Y4025D02*
D03*
X13525D02*
D03*
X14025D02*
D03*
X14525D02*
D03*
X55725Y5925D02*
D03*
X55225D02*
D03*
X56225D02*
D03*
X54725D02*
D03*
Y4025D02*
D03*
X55225D02*
D03*
X55725D02*
D03*
X56225D02*
D03*
X14025Y41125D02*
D03*
X13525D02*
D03*
X14525D02*
D03*
X13025D02*
D03*
Y39225D02*
D03*
X13525D02*
D03*
X14025D02*
D03*
X14525D02*
D03*
X55725Y41125D02*
D03*
X55225D02*
D03*
X56225D02*
D03*
X54725D02*
D03*
Y39225D02*
D03*
X55225D02*
D03*
X55725D02*
D03*
X56225D02*
D03*
X14025Y76325D02*
D03*
X13525D02*
D03*
X14525D02*
D03*
X13025D02*
D03*
Y74425D02*
D03*
X13525D02*
D03*
X14025D02*
D03*
X14525D02*
D03*
X55725Y76325D02*
D03*
X55225D02*
D03*
X56225D02*
D03*
X54725D02*
D03*
Y74425D02*
D03*
X55225D02*
D03*
X55725D02*
D03*
X56225D02*
D03*
D21*
X10275Y9525D02*
D03*
Y8175D02*
D03*
X51975Y9525D02*
D03*
Y8175D02*
D03*
X10275Y44725D02*
D03*
Y43375D02*
D03*
X51975Y44725D02*
D03*
Y43375D02*
D03*
X10275Y79925D02*
D03*
Y78575D02*
D03*
X51975Y79925D02*
D03*
Y78575D02*
D03*
D22*
X20275Y16275D02*
D03*
Y15275D02*
D03*
Y18275D02*
D03*
Y17275D02*
D03*
X23525Y15275D02*
D03*
Y16275D02*
D03*
Y17275D02*
D03*
Y18275D02*
D03*
Y12025D02*
D03*
Y13025D02*
D03*
Y10025D02*
D03*
Y11025D02*
D03*
X20275Y13025D02*
D03*
Y12025D02*
D03*
Y11025D02*
D03*
Y10025D02*
D03*
X61975Y16275D02*
D03*
Y15275D02*
D03*
Y18275D02*
D03*
Y17275D02*
D03*
X65225Y15275D02*
D03*
Y16275D02*
D03*
Y17275D02*
D03*
Y18275D02*
D03*
Y12025D02*
D03*
Y13025D02*
D03*
Y10025D02*
D03*
Y11025D02*
D03*
X61975Y13025D02*
D03*
Y12025D02*
D03*
Y11025D02*
D03*
Y10025D02*
D03*
X20275Y51475D02*
D03*
Y50475D02*
D03*
Y53475D02*
D03*
Y52475D02*
D03*
X23525Y50475D02*
D03*
Y51475D02*
D03*
Y52475D02*
D03*
Y53475D02*
D03*
Y47225D02*
D03*
Y48225D02*
D03*
Y45225D02*
D03*
Y46225D02*
D03*
X20275Y48225D02*
D03*
Y47225D02*
D03*
Y46225D02*
D03*
Y45225D02*
D03*
X61975Y51475D02*
D03*
Y50475D02*
D03*
Y53475D02*
D03*
Y52475D02*
D03*
X65225Y50475D02*
D03*
Y51475D02*
D03*
Y52475D02*
D03*
Y53475D02*
D03*
Y47225D02*
D03*
Y48225D02*
D03*
Y45225D02*
D03*
Y46225D02*
D03*
X61975Y48225D02*
D03*
Y47225D02*
D03*
Y46225D02*
D03*
Y45225D02*
D03*
X20275Y86675D02*
D03*
Y85675D02*
D03*
Y88675D02*
D03*
Y87675D02*
D03*
X23525Y85675D02*
D03*
Y86675D02*
D03*
Y87675D02*
D03*
Y88675D02*
D03*
Y82425D02*
D03*
Y83425D02*
D03*
Y80425D02*
D03*
Y81425D02*
D03*
X20275Y83425D02*
D03*
Y82425D02*
D03*
Y81425D02*
D03*
Y80425D02*
D03*
X61975Y86675D02*
D03*
Y85675D02*
D03*
Y88675D02*
D03*
Y87675D02*
D03*
X65225Y85675D02*
D03*
Y86675D02*
D03*
Y87675D02*
D03*
Y88675D02*
D03*
Y82425D02*
D03*
Y83425D02*
D03*
Y80425D02*
D03*
Y81425D02*
D03*
X61975Y83425D02*
D03*
Y82425D02*
D03*
Y81425D02*
D03*
Y80425D02*
D03*
D23*
X32775Y15025D02*
D03*
Y13525D02*
D03*
Y14025D02*
D03*
Y14525D02*
D03*
X30925Y15025D02*
D03*
Y14025D02*
D03*
Y13525D02*
D03*
Y14525D02*
D03*
X32775Y18275D02*
D03*
Y16775D02*
D03*
Y17275D02*
D03*
Y17775D02*
D03*
X30925Y18275D02*
D03*
Y17275D02*
D03*
Y16775D02*
D03*
Y17775D02*
D03*
X74475Y15025D02*
D03*
Y13525D02*
D03*
Y14025D02*
D03*
Y14525D02*
D03*
X72625Y15025D02*
D03*
Y14025D02*
D03*
Y13525D02*
D03*
Y14525D02*
D03*
X74475Y18275D02*
D03*
Y16775D02*
D03*
Y17275D02*
D03*
Y17775D02*
D03*
X72625Y18275D02*
D03*
Y17275D02*
D03*
Y16775D02*
D03*
Y17775D02*
D03*
X32775Y50225D02*
D03*
Y48725D02*
D03*
Y49225D02*
D03*
Y49725D02*
D03*
X30925Y50225D02*
D03*
Y49225D02*
D03*
Y48725D02*
D03*
Y49725D02*
D03*
X32775Y53475D02*
D03*
Y51975D02*
D03*
Y52475D02*
D03*
Y52975D02*
D03*
X30925Y53475D02*
D03*
Y52475D02*
D03*
Y51975D02*
D03*
Y52975D02*
D03*
X74475Y50225D02*
D03*
Y48725D02*
D03*
Y49225D02*
D03*
Y49725D02*
D03*
X72625Y50225D02*
D03*
Y49225D02*
D03*
Y48725D02*
D03*
Y49725D02*
D03*
X74475Y53475D02*
D03*
Y51975D02*
D03*
Y52475D02*
D03*
Y52975D02*
D03*
X72625Y53475D02*
D03*
Y52475D02*
D03*
Y51975D02*
D03*
Y52975D02*
D03*
X32775Y85425D02*
D03*
Y83925D02*
D03*
Y84425D02*
D03*
Y84925D02*
D03*
X30925Y85425D02*
D03*
Y84425D02*
D03*
Y83925D02*
D03*
Y84925D02*
D03*
X32775Y88675D02*
D03*
Y87175D02*
D03*
Y87675D02*
D03*
Y88175D02*
D03*
X30925Y88675D02*
D03*
Y87675D02*
D03*
Y87175D02*
D03*
Y88175D02*
D03*
X74475Y85425D02*
D03*
Y83925D02*
D03*
Y84425D02*
D03*
Y84925D02*
D03*
X72625Y85425D02*
D03*
Y84425D02*
D03*
Y83925D02*
D03*
Y84925D02*
D03*
X74475Y88675D02*
D03*
Y87175D02*
D03*
Y87675D02*
D03*
Y88175D02*
D03*
X72625Y88675D02*
D03*
Y87675D02*
D03*
Y87175D02*
D03*
Y88175D02*
D03*
D24*
X12395Y26275D02*
D03*
X16155D02*
D03*
X12395Y24275D02*
D03*
Y24775D02*
D03*
Y25275D02*
D03*
X16155Y24275D02*
D03*
Y24775D02*
D03*
Y25275D02*
D03*
X12395Y23775D02*
D03*
Y23275D02*
D03*
Y22775D02*
D03*
Y22275D02*
D03*
X16155Y23775D02*
D03*
Y23275D02*
D03*
Y22775D02*
D03*
Y22275D02*
D03*
Y25775D02*
D03*
X12395D02*
D03*
X54095Y26275D02*
D03*
X57855D02*
D03*
X54095Y24275D02*
D03*
Y24775D02*
D03*
Y25275D02*
D03*
X57855Y24275D02*
D03*
Y24775D02*
D03*
Y25275D02*
D03*
X54095Y23775D02*
D03*
Y23275D02*
D03*
Y22775D02*
D03*
Y22275D02*
D03*
X57855Y23775D02*
D03*
Y23275D02*
D03*
Y22775D02*
D03*
Y22275D02*
D03*
Y25775D02*
D03*
X54095D02*
D03*
X12395Y61475D02*
D03*
X16155D02*
D03*
X12395Y59475D02*
D03*
Y59975D02*
D03*
Y60475D02*
D03*
X16155Y59475D02*
D03*
Y59975D02*
D03*
Y60475D02*
D03*
X12395Y58975D02*
D03*
Y58475D02*
D03*
Y57975D02*
D03*
Y57475D02*
D03*
X16155Y58975D02*
D03*
Y58475D02*
D03*
Y57975D02*
D03*
Y57475D02*
D03*
Y60975D02*
D03*
X12395D02*
D03*
X54095Y61475D02*
D03*
X57855D02*
D03*
X54095Y59475D02*
D03*
Y59975D02*
D03*
Y60475D02*
D03*
X57855Y59475D02*
D03*
Y59975D02*
D03*
Y60475D02*
D03*
X54095Y58975D02*
D03*
Y58475D02*
D03*
Y57975D02*
D03*
Y57475D02*
D03*
X57855Y58975D02*
D03*
Y58475D02*
D03*
Y57975D02*
D03*
Y57475D02*
D03*
Y60975D02*
D03*
X54095D02*
D03*
X12395Y96675D02*
D03*
X16155D02*
D03*
X12395Y94675D02*
D03*
Y95175D02*
D03*
Y95675D02*
D03*
X16155Y94675D02*
D03*
Y95175D02*
D03*
Y95675D02*
D03*
X12395Y94175D02*
D03*
Y93675D02*
D03*
Y93175D02*
D03*
Y92675D02*
D03*
X16155Y94175D02*
D03*
Y93675D02*
D03*
Y93175D02*
D03*
Y92675D02*
D03*
Y96175D02*
D03*
X12395D02*
D03*
X54095Y96675D02*
D03*
X57855D02*
D03*
X54095Y94675D02*
D03*
Y95175D02*
D03*
Y95675D02*
D03*
X57855Y94675D02*
D03*
Y95175D02*
D03*
Y95675D02*
D03*
X54095Y94175D02*
D03*
Y93675D02*
D03*
Y93175D02*
D03*
Y92675D02*
D03*
X57855Y94175D02*
D03*
Y93675D02*
D03*
Y93175D02*
D03*
Y92675D02*
D03*
Y96175D02*
D03*
X54095D02*
D03*
M02*
