G04*
G04 #@! TF.GenerationSoftware,Altium Limited,Altium Designer,18.1.9 (240)*
G04*
G04 Layer_Color=8388736*
%FSLAX24Y24*%
%MOIN*%
G70*
G01*
G75*
%ADD55C,0.1500*%
%ADD56R,0.0680X0.0980*%
%ADD57R,0.0980X0.0680*%
%ADD58R,0.0720X0.0720*%
%ADD59R,0.0430X0.0390*%
%ADD60R,0.0780X0.0580*%
%ADD61R,0.0580X0.0780*%
%ADD62R,0.0720X0.0720*%
%ADD63R,0.0420X0.0420*%
G04:AMPARAMS|DCode=64|XSize=68mil|YSize=78mil|CornerRadius=19mil|HoleSize=0mil|Usage=FLASHONLY|Rotation=90.000|XOffset=0mil|YOffset=0mil|HoleType=Round|Shape=RoundedRectangle|*
%AMROUNDEDRECTD64*
21,1,0.0680,0.0400,0,0,90.0*
21,1,0.0300,0.0780,0,0,90.0*
1,1,0.0380,0.0200,0.0150*
1,1,0.0380,0.0200,-0.0150*
1,1,0.0380,-0.0200,-0.0150*
1,1,0.0380,-0.0200,0.0150*
%
%ADD64ROUNDEDRECTD64*%
%ADD65R,0.0340X0.0880*%
%ADD66R,0.0980X0.0980*%
%ADD67R,0.0680X0.0780*%
%ADD68R,0.0780X0.0360*%
%ADD69O,0.0820X0.0320*%
%ADD70C,0.0780*%
%ADD71C,0.0680*%
%ADD72C,0.2280*%
%ADD73R,0.0730X0.0730*%
%ADD74O,0.1780X0.1980*%
%ADD75R,0.0680X0.0680*%
%ADD76C,0.1680*%
%ADD77R,0.0680X0.0680*%
%ADD78C,0.1180*%
G04:AMPARAMS|DCode=79|XSize=108mil|YSize=108mil|CornerRadius=29mil|HoleSize=0mil|Usage=FLASHONLY|Rotation=270.000|XOffset=0mil|YOffset=0mil|HoleType=Round|Shape=RoundedRectangle|*
%AMROUNDEDRECTD79*
21,1,0.1080,0.0500,0,0,270.0*
21,1,0.0500,0.1080,0,0,270.0*
1,1,0.0580,-0.0250,-0.0250*
1,1,0.0580,-0.0250,0.0250*
1,1,0.0580,0.0250,0.0250*
1,1,0.0580,0.0250,-0.0250*
%
%ADD79ROUNDEDRECTD79*%
G04:AMPARAMS|DCode=80|XSize=118mil|YSize=118mil|CornerRadius=31.5mil|HoleSize=0mil|Usage=FLASHONLY|Rotation=180.000|XOffset=0mil|YOffset=0mil|HoleType=Round|Shape=RoundedRectangle|*
%AMROUNDEDRECTD80*
21,1,0.1180,0.0550,0,0,180.0*
21,1,0.0550,0.1180,0,0,180.0*
1,1,0.0630,-0.0275,0.0275*
1,1,0.0630,0.0275,0.0275*
1,1,0.0630,0.0275,-0.0275*
1,1,0.0630,-0.0275,-0.0275*
%
%ADD80ROUNDEDRECTD80*%
G04:AMPARAMS|DCode=81|XSize=118mil|YSize=118mil|CornerRadius=31.5mil|HoleSize=0mil|Usage=FLASHONLY|Rotation=270.000|XOffset=0mil|YOffset=0mil|HoleType=Round|Shape=RoundedRectangle|*
%AMROUNDEDRECTD81*
21,1,0.1180,0.0550,0,0,270.0*
21,1,0.0550,0.1180,0,0,270.0*
1,1,0.0630,-0.0275,-0.0275*
1,1,0.0630,-0.0275,0.0275*
1,1,0.0630,0.0275,0.0275*
1,1,0.0630,0.0275,-0.0275*
%
%ADD81ROUNDEDRECTD81*%
%ADD82C,0.0380*%
%ADD83C,0.0720*%
%ADD84C,0.0580*%
D55*
X1250Y1250D02*
D03*
X87000D02*
D03*
Y109200D02*
D03*
X1250D02*
D03*
D56*
X6975Y29425D02*
D03*
X5625D02*
D03*
X48675D02*
D03*
X47325D02*
D03*
X6975Y64625D02*
D03*
X5625D02*
D03*
X48675D02*
D03*
X47325D02*
D03*
X6975Y99825D02*
D03*
X5625D02*
D03*
X48675D02*
D03*
X47325D02*
D03*
D57*
X9275Y5675D02*
D03*
Y4325D02*
D03*
X8275Y30025D02*
D03*
Y31375D02*
D03*
X42025Y10075D02*
D03*
Y8725D02*
D03*
Y24725D02*
D03*
Y23375D02*
D03*
X4525Y27775D02*
D03*
Y26425D02*
D03*
X50975Y5675D02*
D03*
Y4325D02*
D03*
X49975Y30025D02*
D03*
Y31375D02*
D03*
X83725Y10075D02*
D03*
Y8725D02*
D03*
Y24725D02*
D03*
Y23375D02*
D03*
X46225Y27775D02*
D03*
Y26425D02*
D03*
X9275Y40875D02*
D03*
Y39525D02*
D03*
X8275Y65225D02*
D03*
Y66575D02*
D03*
X42025Y45275D02*
D03*
Y43925D02*
D03*
Y59925D02*
D03*
Y58575D02*
D03*
X4525Y62975D02*
D03*
Y61625D02*
D03*
X50975Y40875D02*
D03*
Y39525D02*
D03*
X49975Y65225D02*
D03*
Y66575D02*
D03*
X83725Y45275D02*
D03*
Y43925D02*
D03*
Y59925D02*
D03*
Y58575D02*
D03*
X46225Y62975D02*
D03*
Y61625D02*
D03*
X9275Y76075D02*
D03*
Y74725D02*
D03*
X8275Y100425D02*
D03*
Y101775D02*
D03*
X42025Y80475D02*
D03*
Y79125D02*
D03*
Y95125D02*
D03*
Y93775D02*
D03*
X4525Y98175D02*
D03*
Y96825D02*
D03*
X50975Y76075D02*
D03*
Y74725D02*
D03*
X49975Y100425D02*
D03*
Y101775D02*
D03*
X83725Y80475D02*
D03*
Y79125D02*
D03*
Y95125D02*
D03*
Y93775D02*
D03*
X46225Y98175D02*
D03*
Y96825D02*
D03*
D58*
X11525Y5025D02*
D03*
Y6365D02*
D03*
X17775Y24275D02*
D03*
Y25615D02*
D03*
X8525Y8275D02*
D03*
Y9615D02*
D03*
X41775Y35175D02*
D03*
Y33475D02*
D03*
X29025Y35275D02*
D03*
Y33575D02*
D03*
X53225Y5025D02*
D03*
Y6365D02*
D03*
X59475Y24275D02*
D03*
Y25615D02*
D03*
X50225Y8275D02*
D03*
Y9615D02*
D03*
X83475Y35175D02*
D03*
Y33475D02*
D03*
X70725Y35275D02*
D03*
Y33575D02*
D03*
X11525Y40225D02*
D03*
Y41565D02*
D03*
X17775Y59475D02*
D03*
Y60815D02*
D03*
X8525Y43475D02*
D03*
Y44815D02*
D03*
X41775Y70375D02*
D03*
Y68675D02*
D03*
X29025Y70475D02*
D03*
Y68775D02*
D03*
X53225Y40225D02*
D03*
Y41565D02*
D03*
X59475Y59475D02*
D03*
Y60815D02*
D03*
X50225Y43475D02*
D03*
Y44815D02*
D03*
X83475Y70375D02*
D03*
Y68675D02*
D03*
X70725Y70475D02*
D03*
Y68775D02*
D03*
X11525Y75425D02*
D03*
Y76765D02*
D03*
X17775Y94675D02*
D03*
Y96015D02*
D03*
X8525Y78675D02*
D03*
Y80015D02*
D03*
X41775Y105575D02*
D03*
Y103875D02*
D03*
X29025Y105675D02*
D03*
Y103975D02*
D03*
X53225Y75425D02*
D03*
Y76765D02*
D03*
X59475Y94675D02*
D03*
Y96015D02*
D03*
X50225Y78675D02*
D03*
Y80015D02*
D03*
X83475Y105575D02*
D03*
Y103875D02*
D03*
X70725Y105675D02*
D03*
Y103975D02*
D03*
D59*
X21495Y7765D02*
D03*
X21125Y6975D02*
D03*
X20755Y7765D02*
D03*
X63195D02*
D03*
X62825Y6975D02*
D03*
X62455Y7765D02*
D03*
X21495Y42965D02*
D03*
X21125Y42175D02*
D03*
X20755Y42965D02*
D03*
X63195D02*
D03*
X62825Y42175D02*
D03*
X62455Y42965D02*
D03*
X21495Y78165D02*
D03*
X21125Y77375D02*
D03*
X20755Y78165D02*
D03*
X63195D02*
D03*
X62825Y77375D02*
D03*
X62455Y78165D02*
D03*
D60*
X21675Y28275D02*
D03*
Y26775D02*
D03*
X27025Y4275D02*
D03*
Y5775D02*
D03*
Y7275D02*
D03*
Y8775D02*
D03*
X21075Y24275D02*
D03*
Y22775D02*
D03*
X11525Y21025D02*
D03*
Y19525D02*
D03*
X4075Y24725D02*
D03*
Y23225D02*
D03*
X11775Y11025D02*
D03*
Y9525D02*
D03*
X63375Y28275D02*
D03*
Y26775D02*
D03*
X68725Y4275D02*
D03*
Y5775D02*
D03*
Y7275D02*
D03*
Y8775D02*
D03*
X62775Y24275D02*
D03*
Y22775D02*
D03*
X53225Y21025D02*
D03*
Y19525D02*
D03*
X45775Y24725D02*
D03*
Y23225D02*
D03*
X53475Y11025D02*
D03*
Y9525D02*
D03*
X21675Y63475D02*
D03*
Y61975D02*
D03*
X27025Y39475D02*
D03*
Y40975D02*
D03*
Y42475D02*
D03*
Y43975D02*
D03*
X21075Y59475D02*
D03*
Y57975D02*
D03*
X11525Y56225D02*
D03*
Y54725D02*
D03*
X4075Y59925D02*
D03*
Y58425D02*
D03*
X11775Y46225D02*
D03*
Y44725D02*
D03*
X63375Y63475D02*
D03*
Y61975D02*
D03*
X68725Y39475D02*
D03*
Y40975D02*
D03*
Y42475D02*
D03*
Y43975D02*
D03*
X62775Y59475D02*
D03*
Y57975D02*
D03*
X53225Y56225D02*
D03*
Y54725D02*
D03*
X45775Y59925D02*
D03*
Y58425D02*
D03*
X53475Y46225D02*
D03*
Y44725D02*
D03*
X21675Y98675D02*
D03*
Y97175D02*
D03*
X27025Y74675D02*
D03*
Y76175D02*
D03*
Y77675D02*
D03*
Y79175D02*
D03*
X21075Y94675D02*
D03*
Y93175D02*
D03*
X11525Y91425D02*
D03*
Y89925D02*
D03*
X4075Y95125D02*
D03*
Y93625D02*
D03*
X11775Y81425D02*
D03*
Y79925D02*
D03*
X63375Y98675D02*
D03*
Y97175D02*
D03*
X68725Y74675D02*
D03*
Y76175D02*
D03*
Y77675D02*
D03*
Y79175D02*
D03*
X62775Y94675D02*
D03*
Y93175D02*
D03*
X53225Y91425D02*
D03*
Y89925D02*
D03*
X45775Y95125D02*
D03*
Y93625D02*
D03*
X53475Y81425D02*
D03*
Y79925D02*
D03*
D61*
X9525Y14275D02*
D03*
X11025D02*
D03*
X9525Y16775D02*
D03*
X11025D02*
D03*
X10775Y25525D02*
D03*
X9275D02*
D03*
Y28525D02*
D03*
X10775D02*
D03*
X27275Y16275D02*
D03*
X25775D02*
D03*
X10775Y24025D02*
D03*
X9275D02*
D03*
X27275Y18275D02*
D03*
X25775D02*
D03*
X37525Y3775D02*
D03*
X39025D02*
D03*
X25825Y23425D02*
D03*
X24325D02*
D03*
X17725Y14075D02*
D03*
X16225D02*
D03*
X15525Y16775D02*
D03*
X17025D02*
D03*
X20275Y20025D02*
D03*
X18775D02*
D03*
X16775Y28275D02*
D03*
X18275D02*
D03*
X18775Y21525D02*
D03*
X20275D02*
D03*
X15525Y18275D02*
D03*
X17025D02*
D03*
X17625Y11025D02*
D03*
X19125D02*
D03*
X51225Y14275D02*
D03*
X52725D02*
D03*
X51225Y16775D02*
D03*
X52725D02*
D03*
X52475Y25525D02*
D03*
X50975D02*
D03*
Y28525D02*
D03*
X52475D02*
D03*
X68975Y16275D02*
D03*
X67475D02*
D03*
X52475Y24025D02*
D03*
X50975D02*
D03*
X68975Y18275D02*
D03*
X67475D02*
D03*
X79225Y3775D02*
D03*
X80725D02*
D03*
X67525Y23425D02*
D03*
X66025D02*
D03*
X59425Y14075D02*
D03*
X57925D02*
D03*
X57225Y16775D02*
D03*
X58725D02*
D03*
X61975Y20025D02*
D03*
X60475D02*
D03*
X58475Y28275D02*
D03*
X59975D02*
D03*
X60475Y21525D02*
D03*
X61975D02*
D03*
X57225Y18275D02*
D03*
X58725D02*
D03*
X59325Y11025D02*
D03*
X60825D02*
D03*
X9525Y49475D02*
D03*
X11025D02*
D03*
X9525Y51975D02*
D03*
X11025D02*
D03*
X10775Y60725D02*
D03*
X9275D02*
D03*
Y63725D02*
D03*
X10775D02*
D03*
X27275Y51475D02*
D03*
X25775D02*
D03*
X10775Y59225D02*
D03*
X9275D02*
D03*
X27275Y53475D02*
D03*
X25775D02*
D03*
X37525Y38975D02*
D03*
X39025D02*
D03*
X25825Y58625D02*
D03*
X24325D02*
D03*
X17725Y49275D02*
D03*
X16225D02*
D03*
X15525Y51975D02*
D03*
X17025D02*
D03*
X20275Y55225D02*
D03*
X18775D02*
D03*
X16775Y63475D02*
D03*
X18275D02*
D03*
X18775Y56725D02*
D03*
X20275D02*
D03*
X15525Y53475D02*
D03*
X17025D02*
D03*
X17625Y46225D02*
D03*
X19125D02*
D03*
X51225Y49475D02*
D03*
X52725D02*
D03*
X51225Y51975D02*
D03*
X52725D02*
D03*
X52475Y60725D02*
D03*
X50975D02*
D03*
Y63725D02*
D03*
X52475D02*
D03*
X68975Y51475D02*
D03*
X67475D02*
D03*
X52475Y59225D02*
D03*
X50975D02*
D03*
X68975Y53475D02*
D03*
X67475D02*
D03*
X79225Y38975D02*
D03*
X80725D02*
D03*
X67525Y58625D02*
D03*
X66025D02*
D03*
X59425Y49275D02*
D03*
X57925D02*
D03*
X57225Y51975D02*
D03*
X58725D02*
D03*
X61975Y55225D02*
D03*
X60475D02*
D03*
X58475Y63475D02*
D03*
X59975D02*
D03*
X60475Y56725D02*
D03*
X61975D02*
D03*
X57225Y53475D02*
D03*
X58725D02*
D03*
X59325Y46225D02*
D03*
X60825D02*
D03*
X9525Y84675D02*
D03*
X11025D02*
D03*
X9525Y87175D02*
D03*
X11025D02*
D03*
X10775Y95925D02*
D03*
X9275D02*
D03*
Y98925D02*
D03*
X10775D02*
D03*
X27275Y86675D02*
D03*
X25775D02*
D03*
X10775Y94425D02*
D03*
X9275D02*
D03*
X27275Y88675D02*
D03*
X25775D02*
D03*
X37525Y74175D02*
D03*
X39025D02*
D03*
X25825Y93825D02*
D03*
X24325D02*
D03*
X17725Y84475D02*
D03*
X16225D02*
D03*
X15525Y87175D02*
D03*
X17025D02*
D03*
X20275Y90425D02*
D03*
X18775D02*
D03*
X16775Y98675D02*
D03*
X18275D02*
D03*
X18775Y91925D02*
D03*
X20275D02*
D03*
X15525Y88675D02*
D03*
X17025D02*
D03*
X17625Y81425D02*
D03*
X19125D02*
D03*
X51225Y84675D02*
D03*
X52725D02*
D03*
X51225Y87175D02*
D03*
X52725D02*
D03*
X52475Y95925D02*
D03*
X50975D02*
D03*
Y98925D02*
D03*
X52475D02*
D03*
X68975Y86675D02*
D03*
X67475D02*
D03*
X52475Y94425D02*
D03*
X50975D02*
D03*
X68975Y88675D02*
D03*
X67475D02*
D03*
X79225Y74175D02*
D03*
X80725D02*
D03*
X67525Y93825D02*
D03*
X66025D02*
D03*
X59425Y84475D02*
D03*
X57925D02*
D03*
X57225Y87175D02*
D03*
X58725D02*
D03*
X61975Y90425D02*
D03*
X60475D02*
D03*
X58475Y98675D02*
D03*
X59975D02*
D03*
X60475Y91925D02*
D03*
X61975D02*
D03*
X57225Y88675D02*
D03*
X58725D02*
D03*
X59325Y81425D02*
D03*
X60825D02*
D03*
D62*
X9275Y22775D02*
D03*
X10615D02*
D03*
X12525Y12525D02*
D03*
X13865D02*
D03*
X22275Y3775D02*
D03*
X20575D02*
D03*
X20525Y5525D02*
D03*
X22225D02*
D03*
X23775Y7775D02*
D03*
X22435D02*
D03*
X35525Y17275D02*
D03*
X37225D02*
D03*
X35525Y14025D02*
D03*
X37225D02*
D03*
X17275Y3775D02*
D03*
X18615D02*
D03*
X16275Y12775D02*
D03*
X17615D02*
D03*
X50975Y22775D02*
D03*
X52315D02*
D03*
X54225Y12525D02*
D03*
X55565D02*
D03*
X63975Y3775D02*
D03*
X62275D02*
D03*
X62225Y5525D02*
D03*
X63925D02*
D03*
X65475Y7775D02*
D03*
X64135D02*
D03*
X77225Y17275D02*
D03*
X78925D02*
D03*
X77225Y14025D02*
D03*
X78925D02*
D03*
X58975Y3775D02*
D03*
X60315D02*
D03*
X57975Y12775D02*
D03*
X59315D02*
D03*
X9275Y57975D02*
D03*
X10615D02*
D03*
X12525Y47725D02*
D03*
X13865D02*
D03*
X22275Y38975D02*
D03*
X20575D02*
D03*
X20525Y40725D02*
D03*
X22225D02*
D03*
X23775Y42975D02*
D03*
X22435D02*
D03*
X35525Y52475D02*
D03*
X37225D02*
D03*
X35525Y49225D02*
D03*
X37225D02*
D03*
X17275Y38975D02*
D03*
X18615D02*
D03*
X16275Y47975D02*
D03*
X17615D02*
D03*
X50975Y57975D02*
D03*
X52315D02*
D03*
X54225Y47725D02*
D03*
X55565D02*
D03*
X63975Y38975D02*
D03*
X62275D02*
D03*
X62225Y40725D02*
D03*
X63925D02*
D03*
X65475Y42975D02*
D03*
X64135D02*
D03*
X77225Y52475D02*
D03*
X78925D02*
D03*
X77225Y49225D02*
D03*
X78925D02*
D03*
X58975Y38975D02*
D03*
X60315D02*
D03*
X57975Y47975D02*
D03*
X59315D02*
D03*
X9275Y93175D02*
D03*
X10615D02*
D03*
X12525Y82925D02*
D03*
X13865D02*
D03*
X22275Y74175D02*
D03*
X20575D02*
D03*
X20525Y75925D02*
D03*
X22225D02*
D03*
X23775Y78175D02*
D03*
X22435D02*
D03*
X35525Y87675D02*
D03*
X37225D02*
D03*
X35525Y84425D02*
D03*
X37225D02*
D03*
X17275Y74175D02*
D03*
X18615D02*
D03*
X16275Y83175D02*
D03*
X17615D02*
D03*
X50975Y93175D02*
D03*
X52315D02*
D03*
X54225Y82925D02*
D03*
X55565D02*
D03*
X63975Y74175D02*
D03*
X62275D02*
D03*
X62225Y75925D02*
D03*
X63925D02*
D03*
X65475Y78175D02*
D03*
X64135D02*
D03*
X77225Y87675D02*
D03*
X78925D02*
D03*
X77225Y84425D02*
D03*
X78925D02*
D03*
X58975Y74175D02*
D03*
X60315D02*
D03*
X57975Y83175D02*
D03*
X59315D02*
D03*
D63*
X25775Y34575D02*
D03*
X26575D02*
D03*
X26175Y35445D02*
D03*
X38525Y34175D02*
D03*
X39325D02*
D03*
X38925Y35045D02*
D03*
X10025Y19025D02*
D03*
X9225D02*
D03*
X9625Y18155D02*
D03*
X67475Y34575D02*
D03*
X68275D02*
D03*
X67875Y35445D02*
D03*
X80225Y34175D02*
D03*
X81025D02*
D03*
X80625Y35045D02*
D03*
X51725Y19025D02*
D03*
X50925D02*
D03*
X51325Y18155D02*
D03*
X25775Y69775D02*
D03*
X26575D02*
D03*
X26175Y70645D02*
D03*
X38525Y69375D02*
D03*
X39325D02*
D03*
X38925Y70245D02*
D03*
X10025Y54225D02*
D03*
X9225D02*
D03*
X9625Y53355D02*
D03*
X67475Y69775D02*
D03*
X68275D02*
D03*
X67875Y70645D02*
D03*
X80225Y69375D02*
D03*
X81025D02*
D03*
X80625Y70245D02*
D03*
X51725Y54225D02*
D03*
X50925D02*
D03*
X51325Y53355D02*
D03*
X25775Y104975D02*
D03*
X26575D02*
D03*
X26175Y105845D02*
D03*
X38525Y104575D02*
D03*
X39325D02*
D03*
X38925Y105445D02*
D03*
X10025Y89425D02*
D03*
X9225D02*
D03*
X9625Y88555D02*
D03*
X67475Y104975D02*
D03*
X68275D02*
D03*
X67875Y105845D02*
D03*
X80225Y104575D02*
D03*
X81025D02*
D03*
X80625Y105445D02*
D03*
X51725Y89425D02*
D03*
X50925D02*
D03*
X51325Y88555D02*
D03*
D64*
X4825Y17775D02*
D03*
Y21525D02*
D03*
X3825Y17775D02*
D03*
Y21525D02*
D03*
X46525Y17775D02*
D03*
Y21525D02*
D03*
X45525Y17775D02*
D03*
Y21525D02*
D03*
X4825Y52975D02*
D03*
Y56725D02*
D03*
X3825Y52975D02*
D03*
Y56725D02*
D03*
X46525Y52975D02*
D03*
Y56725D02*
D03*
X45525Y52975D02*
D03*
Y56725D02*
D03*
X4825Y88175D02*
D03*
Y91925D02*
D03*
X3825Y88175D02*
D03*
Y91925D02*
D03*
X46525Y88175D02*
D03*
Y91925D02*
D03*
X45525Y88175D02*
D03*
Y91925D02*
D03*
D65*
X14025Y5925D02*
D03*
X13525D02*
D03*
X14525D02*
D03*
X13025D02*
D03*
Y4025D02*
D03*
X13525D02*
D03*
X14025D02*
D03*
X14525D02*
D03*
X55725Y5925D02*
D03*
X55225D02*
D03*
X56225D02*
D03*
X54725D02*
D03*
Y4025D02*
D03*
X55225D02*
D03*
X55725D02*
D03*
X56225D02*
D03*
X14025Y41125D02*
D03*
X13525D02*
D03*
X14525D02*
D03*
X13025D02*
D03*
Y39225D02*
D03*
X13525D02*
D03*
X14025D02*
D03*
X14525D02*
D03*
X55725Y41125D02*
D03*
X55225D02*
D03*
X56225D02*
D03*
X54725D02*
D03*
Y39225D02*
D03*
X55225D02*
D03*
X55725D02*
D03*
X56225D02*
D03*
X14025Y76325D02*
D03*
X13525D02*
D03*
X14525D02*
D03*
X13025D02*
D03*
Y74425D02*
D03*
X13525D02*
D03*
X14025D02*
D03*
X14525D02*
D03*
X55725Y76325D02*
D03*
X55225D02*
D03*
X56225D02*
D03*
X54725D02*
D03*
Y74425D02*
D03*
X55225D02*
D03*
X55725D02*
D03*
X56225D02*
D03*
D66*
X10275Y9525D02*
D03*
Y8175D02*
D03*
X51975Y9525D02*
D03*
Y8175D02*
D03*
X10275Y44725D02*
D03*
Y43375D02*
D03*
X51975Y44725D02*
D03*
Y43375D02*
D03*
X10275Y79925D02*
D03*
Y78575D02*
D03*
X51975Y79925D02*
D03*
Y78575D02*
D03*
D67*
X20275Y16275D02*
D03*
Y15275D02*
D03*
Y18275D02*
D03*
Y17275D02*
D03*
X23525Y15275D02*
D03*
Y16275D02*
D03*
Y17275D02*
D03*
Y18275D02*
D03*
Y12025D02*
D03*
Y13025D02*
D03*
Y10025D02*
D03*
Y11025D02*
D03*
X20275Y13025D02*
D03*
Y12025D02*
D03*
Y11025D02*
D03*
Y10025D02*
D03*
X61975Y16275D02*
D03*
Y15275D02*
D03*
Y18275D02*
D03*
Y17275D02*
D03*
X65225Y15275D02*
D03*
Y16275D02*
D03*
Y17275D02*
D03*
Y18275D02*
D03*
Y12025D02*
D03*
Y13025D02*
D03*
Y10025D02*
D03*
Y11025D02*
D03*
X61975Y13025D02*
D03*
Y12025D02*
D03*
Y11025D02*
D03*
Y10025D02*
D03*
X20275Y51475D02*
D03*
Y50475D02*
D03*
Y53475D02*
D03*
Y52475D02*
D03*
X23525Y50475D02*
D03*
Y51475D02*
D03*
Y52475D02*
D03*
Y53475D02*
D03*
Y47225D02*
D03*
Y48225D02*
D03*
Y45225D02*
D03*
Y46225D02*
D03*
X20275Y48225D02*
D03*
Y47225D02*
D03*
Y46225D02*
D03*
Y45225D02*
D03*
X61975Y51475D02*
D03*
Y50475D02*
D03*
Y53475D02*
D03*
Y52475D02*
D03*
X65225Y50475D02*
D03*
Y51475D02*
D03*
Y52475D02*
D03*
Y53475D02*
D03*
Y47225D02*
D03*
Y48225D02*
D03*
Y45225D02*
D03*
Y46225D02*
D03*
X61975Y48225D02*
D03*
Y47225D02*
D03*
Y46225D02*
D03*
Y45225D02*
D03*
X20275Y86675D02*
D03*
Y85675D02*
D03*
Y88675D02*
D03*
Y87675D02*
D03*
X23525Y85675D02*
D03*
Y86675D02*
D03*
Y87675D02*
D03*
Y88675D02*
D03*
Y82425D02*
D03*
Y83425D02*
D03*
Y80425D02*
D03*
Y81425D02*
D03*
X20275Y83425D02*
D03*
Y82425D02*
D03*
Y81425D02*
D03*
Y80425D02*
D03*
X61975Y86675D02*
D03*
Y85675D02*
D03*
Y88675D02*
D03*
Y87675D02*
D03*
X65225Y85675D02*
D03*
Y86675D02*
D03*
Y87675D02*
D03*
Y88675D02*
D03*
Y82425D02*
D03*
Y83425D02*
D03*
Y80425D02*
D03*
Y81425D02*
D03*
X61975Y83425D02*
D03*
Y82425D02*
D03*
Y81425D02*
D03*
Y80425D02*
D03*
D68*
X32775Y15025D02*
D03*
Y13525D02*
D03*
Y14025D02*
D03*
Y14525D02*
D03*
X30925Y15025D02*
D03*
Y14025D02*
D03*
Y13525D02*
D03*
Y14525D02*
D03*
X32775Y18275D02*
D03*
Y16775D02*
D03*
Y17275D02*
D03*
Y17775D02*
D03*
X30925Y18275D02*
D03*
Y17275D02*
D03*
Y16775D02*
D03*
Y17775D02*
D03*
X74475Y15025D02*
D03*
Y13525D02*
D03*
Y14025D02*
D03*
Y14525D02*
D03*
X72625Y15025D02*
D03*
Y14025D02*
D03*
Y13525D02*
D03*
Y14525D02*
D03*
X74475Y18275D02*
D03*
Y16775D02*
D03*
Y17275D02*
D03*
Y17775D02*
D03*
X72625Y18275D02*
D03*
Y17275D02*
D03*
Y16775D02*
D03*
Y17775D02*
D03*
X32775Y50225D02*
D03*
Y48725D02*
D03*
Y49225D02*
D03*
Y49725D02*
D03*
X30925Y50225D02*
D03*
Y49225D02*
D03*
Y48725D02*
D03*
Y49725D02*
D03*
X32775Y53475D02*
D03*
Y51975D02*
D03*
Y52475D02*
D03*
Y52975D02*
D03*
X30925Y53475D02*
D03*
Y52475D02*
D03*
Y51975D02*
D03*
Y52975D02*
D03*
X74475Y50225D02*
D03*
Y48725D02*
D03*
Y49225D02*
D03*
Y49725D02*
D03*
X72625Y50225D02*
D03*
Y49225D02*
D03*
Y48725D02*
D03*
Y49725D02*
D03*
X74475Y53475D02*
D03*
Y51975D02*
D03*
Y52475D02*
D03*
Y52975D02*
D03*
X72625Y53475D02*
D03*
Y52475D02*
D03*
Y51975D02*
D03*
Y52975D02*
D03*
X32775Y85425D02*
D03*
Y83925D02*
D03*
Y84425D02*
D03*
Y84925D02*
D03*
X30925Y85425D02*
D03*
Y84425D02*
D03*
Y83925D02*
D03*
Y84925D02*
D03*
X32775Y88675D02*
D03*
Y87175D02*
D03*
Y87675D02*
D03*
Y88175D02*
D03*
X30925Y88675D02*
D03*
Y87675D02*
D03*
Y87175D02*
D03*
Y88175D02*
D03*
X74475Y85425D02*
D03*
Y83925D02*
D03*
Y84425D02*
D03*
Y84925D02*
D03*
X72625Y85425D02*
D03*
Y84425D02*
D03*
Y83925D02*
D03*
Y84925D02*
D03*
X74475Y88675D02*
D03*
Y87175D02*
D03*
Y87675D02*
D03*
Y88175D02*
D03*
X72625Y88675D02*
D03*
Y87675D02*
D03*
Y87175D02*
D03*
Y88175D02*
D03*
D69*
X12395Y26275D02*
D03*
X16155D02*
D03*
X12395Y24275D02*
D03*
Y24775D02*
D03*
Y25275D02*
D03*
X16155Y24275D02*
D03*
Y24775D02*
D03*
Y25275D02*
D03*
X12395Y23775D02*
D03*
Y23275D02*
D03*
Y22775D02*
D03*
Y22275D02*
D03*
X16155Y23775D02*
D03*
Y23275D02*
D03*
Y22775D02*
D03*
Y22275D02*
D03*
Y25775D02*
D03*
X12395D02*
D03*
X54095Y26275D02*
D03*
X57855D02*
D03*
X54095Y24275D02*
D03*
Y24775D02*
D03*
Y25275D02*
D03*
X57855Y24275D02*
D03*
Y24775D02*
D03*
Y25275D02*
D03*
X54095Y23775D02*
D03*
Y23275D02*
D03*
Y22775D02*
D03*
Y22275D02*
D03*
X57855Y23775D02*
D03*
Y23275D02*
D03*
Y22775D02*
D03*
Y22275D02*
D03*
Y25775D02*
D03*
X54095D02*
D03*
X12395Y61475D02*
D03*
X16155D02*
D03*
X12395Y59475D02*
D03*
Y59975D02*
D03*
Y60475D02*
D03*
X16155Y59475D02*
D03*
Y59975D02*
D03*
Y60475D02*
D03*
X12395Y58975D02*
D03*
Y58475D02*
D03*
Y57975D02*
D03*
Y57475D02*
D03*
X16155Y58975D02*
D03*
Y58475D02*
D03*
Y57975D02*
D03*
Y57475D02*
D03*
Y60975D02*
D03*
X12395D02*
D03*
X54095Y61475D02*
D03*
X57855D02*
D03*
X54095Y59475D02*
D03*
Y59975D02*
D03*
Y60475D02*
D03*
X57855Y59475D02*
D03*
Y59975D02*
D03*
Y60475D02*
D03*
X54095Y58975D02*
D03*
Y58475D02*
D03*
Y57975D02*
D03*
Y57475D02*
D03*
X57855Y58975D02*
D03*
Y58475D02*
D03*
Y57975D02*
D03*
Y57475D02*
D03*
Y60975D02*
D03*
X54095D02*
D03*
X12395Y96675D02*
D03*
X16155D02*
D03*
X12395Y94675D02*
D03*
Y95175D02*
D03*
Y95675D02*
D03*
X16155Y94675D02*
D03*
Y95175D02*
D03*
Y95675D02*
D03*
X12395Y94175D02*
D03*
Y93675D02*
D03*
Y93175D02*
D03*
Y92675D02*
D03*
X16155Y94175D02*
D03*
Y93675D02*
D03*
Y93175D02*
D03*
Y92675D02*
D03*
Y96175D02*
D03*
X12395D02*
D03*
X54095Y96675D02*
D03*
X57855D02*
D03*
X54095Y94675D02*
D03*
Y95175D02*
D03*
Y95675D02*
D03*
X57855Y94675D02*
D03*
Y95175D02*
D03*
Y95675D02*
D03*
X54095Y94175D02*
D03*
Y93675D02*
D03*
Y93175D02*
D03*
Y92675D02*
D03*
X57855Y94175D02*
D03*
Y93675D02*
D03*
Y93175D02*
D03*
Y92675D02*
D03*
Y96175D02*
D03*
X54095D02*
D03*
D70*
X32975Y12025D02*
D03*
Y19525D02*
D03*
X36675Y7525D02*
D03*
X30425Y24025D02*
D03*
X74675Y12025D02*
D03*
Y19525D02*
D03*
X78375Y7525D02*
D03*
X72125Y24025D02*
D03*
X32975Y47225D02*
D03*
Y54725D02*
D03*
X36675Y42725D02*
D03*
X30425Y59225D02*
D03*
X74675Y47225D02*
D03*
Y54725D02*
D03*
X78375Y42725D02*
D03*
X72125Y59225D02*
D03*
X32975Y82425D02*
D03*
Y89925D02*
D03*
X36675Y77925D02*
D03*
X30425Y94425D02*
D03*
X74675Y82425D02*
D03*
Y89925D02*
D03*
X78375Y77925D02*
D03*
X72125Y94425D02*
D03*
D71*
X14025Y14275D02*
D03*
X13025D02*
D03*
X14025Y16775D02*
D03*
X13025D02*
D03*
X14525Y7275D02*
D03*
X10775Y3525D02*
D03*
X10525Y27225D02*
D03*
X9525D02*
D03*
X19425Y25775D02*
D03*
Y26775D02*
D03*
Y24775D02*
D03*
X34775Y4525D02*
D03*
X35775D02*
D03*
X23525Y33275D02*
D03*
X24525D02*
D03*
X26525D02*
D03*
X23525Y36275D02*
D03*
X24525D02*
D03*
X26525D02*
D03*
X27525D02*
D03*
X25525Y33275D02*
D03*
Y36275D02*
D03*
X28425Y23375D02*
D03*
X27425D02*
D03*
X17775Y7525D02*
D03*
Y6525D02*
D03*
X29025Y4525D02*
D03*
X28025D02*
D03*
X29025Y8025D02*
D03*
X28025D02*
D03*
X5725Y4825D02*
D03*
X36275Y33175D02*
D03*
X37275D02*
D03*
X39275D02*
D03*
X36275Y36175D02*
D03*
X37275D02*
D03*
X39275D02*
D03*
X40275D02*
D03*
X38275Y33175D02*
D03*
Y36175D02*
D03*
X30975Y19525D02*
D03*
Y12025D02*
D03*
X55725Y14275D02*
D03*
X54725D02*
D03*
X55725Y16775D02*
D03*
X54725D02*
D03*
X56225Y7275D02*
D03*
X52475Y3525D02*
D03*
X52225Y27225D02*
D03*
X51225D02*
D03*
X61125Y25775D02*
D03*
Y26775D02*
D03*
Y24775D02*
D03*
X76475Y4525D02*
D03*
X77475D02*
D03*
X65225Y33275D02*
D03*
X66225D02*
D03*
X68225D02*
D03*
X65225Y36275D02*
D03*
X66225D02*
D03*
X68225D02*
D03*
X69225D02*
D03*
X67225Y33275D02*
D03*
Y36275D02*
D03*
X70125Y23375D02*
D03*
X69125D02*
D03*
X59475Y7525D02*
D03*
Y6525D02*
D03*
X70725Y4525D02*
D03*
X69725D02*
D03*
X70725Y8025D02*
D03*
X69725D02*
D03*
X47425Y4825D02*
D03*
X77975Y33175D02*
D03*
X78975D02*
D03*
X80975D02*
D03*
X77975Y36175D02*
D03*
X78975D02*
D03*
X80975D02*
D03*
X81975D02*
D03*
X79975Y33175D02*
D03*
Y36175D02*
D03*
X72675Y19525D02*
D03*
Y12025D02*
D03*
X14025Y49475D02*
D03*
X13025D02*
D03*
X14025Y51975D02*
D03*
X13025D02*
D03*
X14525Y42475D02*
D03*
X10775Y38725D02*
D03*
X10525Y62425D02*
D03*
X9525D02*
D03*
X19425Y60975D02*
D03*
Y61975D02*
D03*
Y59975D02*
D03*
X34775Y39725D02*
D03*
X35775D02*
D03*
X23525Y68475D02*
D03*
X24525D02*
D03*
X26525D02*
D03*
X23525Y71475D02*
D03*
X24525D02*
D03*
X26525D02*
D03*
X27525D02*
D03*
X25525Y68475D02*
D03*
Y71475D02*
D03*
X28425Y58575D02*
D03*
X27425D02*
D03*
X17775Y42725D02*
D03*
Y41725D02*
D03*
X29025Y39725D02*
D03*
X28025D02*
D03*
X29025Y43225D02*
D03*
X28025D02*
D03*
X5725Y40025D02*
D03*
X36275Y68375D02*
D03*
X37275D02*
D03*
X39275D02*
D03*
X36275Y71375D02*
D03*
X37275D02*
D03*
X39275D02*
D03*
X40275D02*
D03*
X38275Y68375D02*
D03*
Y71375D02*
D03*
X30975Y54725D02*
D03*
Y47225D02*
D03*
X55725Y49475D02*
D03*
X54725D02*
D03*
X55725Y51975D02*
D03*
X54725D02*
D03*
X56225Y42475D02*
D03*
X52475Y38725D02*
D03*
X52225Y62425D02*
D03*
X51225D02*
D03*
X61125Y60975D02*
D03*
Y61975D02*
D03*
Y59975D02*
D03*
X76475Y39725D02*
D03*
X77475D02*
D03*
X65225Y68475D02*
D03*
X66225D02*
D03*
X68225D02*
D03*
X65225Y71475D02*
D03*
X66225D02*
D03*
X68225D02*
D03*
X69225D02*
D03*
X67225Y68475D02*
D03*
Y71475D02*
D03*
X70125Y58575D02*
D03*
X69125D02*
D03*
X59475Y42725D02*
D03*
Y41725D02*
D03*
X70725Y39725D02*
D03*
X69725D02*
D03*
X70725Y43225D02*
D03*
X69725D02*
D03*
X47425Y40025D02*
D03*
X77975Y68375D02*
D03*
X78975D02*
D03*
X80975D02*
D03*
X77975Y71375D02*
D03*
X78975D02*
D03*
X80975D02*
D03*
X81975D02*
D03*
X79975Y68375D02*
D03*
Y71375D02*
D03*
X72675Y54725D02*
D03*
Y47225D02*
D03*
X14025Y84675D02*
D03*
X13025D02*
D03*
X14025Y87175D02*
D03*
X13025D02*
D03*
X14525Y77675D02*
D03*
X10775Y73925D02*
D03*
X10525Y97625D02*
D03*
X9525D02*
D03*
X19425Y96175D02*
D03*
Y97175D02*
D03*
Y95175D02*
D03*
X34775Y74925D02*
D03*
X35775D02*
D03*
X23525Y103675D02*
D03*
X24525D02*
D03*
X26525D02*
D03*
X23525Y106675D02*
D03*
X24525D02*
D03*
X26525D02*
D03*
X27525D02*
D03*
X25525Y103675D02*
D03*
Y106675D02*
D03*
X28425Y93775D02*
D03*
X27425D02*
D03*
X17775Y77925D02*
D03*
Y76925D02*
D03*
X29025Y74925D02*
D03*
X28025D02*
D03*
X29025Y78425D02*
D03*
X28025D02*
D03*
X5725Y75225D02*
D03*
X36275Y103575D02*
D03*
X37275D02*
D03*
X39275D02*
D03*
X36275Y106575D02*
D03*
X37275D02*
D03*
X39275D02*
D03*
X40275D02*
D03*
X38275Y103575D02*
D03*
Y106575D02*
D03*
X30975Y89925D02*
D03*
Y82425D02*
D03*
X55725Y84675D02*
D03*
X54725D02*
D03*
X55725Y87175D02*
D03*
X54725D02*
D03*
X56225Y77675D02*
D03*
X52475Y73925D02*
D03*
X52225Y97625D02*
D03*
X51225D02*
D03*
X61125Y96175D02*
D03*
Y97175D02*
D03*
Y95175D02*
D03*
X76475Y74925D02*
D03*
X77475D02*
D03*
X65225Y103675D02*
D03*
X66225D02*
D03*
X68225D02*
D03*
X65225Y106675D02*
D03*
X66225D02*
D03*
X68225D02*
D03*
X69225D02*
D03*
X67225Y103675D02*
D03*
Y106675D02*
D03*
X70125Y93775D02*
D03*
X69125D02*
D03*
X59475Y77925D02*
D03*
Y76925D02*
D03*
X70725Y74925D02*
D03*
X69725D02*
D03*
X70725Y78425D02*
D03*
X69725D02*
D03*
X47425Y75225D02*
D03*
X77975Y103575D02*
D03*
X78975D02*
D03*
X80975D02*
D03*
X77975Y106575D02*
D03*
X78975D02*
D03*
X80975D02*
D03*
X81975D02*
D03*
X79975Y103575D02*
D03*
Y106575D02*
D03*
X72675Y89925D02*
D03*
Y82425D02*
D03*
D72*
X15025Y30025D02*
D03*
Y10025D02*
D03*
X56725Y30025D02*
D03*
Y10025D02*
D03*
X15025Y65225D02*
D03*
Y45225D02*
D03*
X56725Y65225D02*
D03*
Y45225D02*
D03*
X15025Y100425D02*
D03*
Y80425D02*
D03*
X56725Y100425D02*
D03*
Y80425D02*
D03*
D73*
X30675Y7525D02*
D03*
X36425Y24025D02*
D03*
X72375Y7525D02*
D03*
X78125Y24025D02*
D03*
X30675Y42725D02*
D03*
X36425Y59225D02*
D03*
X72375Y42725D02*
D03*
X78125Y59225D02*
D03*
X30675Y77925D02*
D03*
X36425Y94425D02*
D03*
X72375Y77925D02*
D03*
X78125Y94425D02*
D03*
D74*
X32055Y4245D02*
D03*
X73755D02*
D03*
X32055Y39445D02*
D03*
X73755D02*
D03*
X32055Y74645D02*
D03*
X73755D02*
D03*
D75*
X27525Y33275D02*
D03*
X40275Y33175D02*
D03*
X69225Y33275D02*
D03*
X81975Y33175D02*
D03*
X27525Y68475D02*
D03*
X40275Y68375D02*
D03*
X69225Y68475D02*
D03*
X81975Y68375D02*
D03*
X27525Y103675D02*
D03*
X40275Y103575D02*
D03*
X69225Y103675D02*
D03*
X81975Y103575D02*
D03*
D76*
X32055Y35805D02*
D03*
X73755D02*
D03*
X32055Y71005D02*
D03*
X73755D02*
D03*
X32055Y106205D02*
D03*
X73755D02*
D03*
D77*
X7725Y4825D02*
D03*
X33975Y19525D02*
D03*
Y12025D02*
D03*
X49425Y4825D02*
D03*
X75675Y19525D02*
D03*
Y12025D02*
D03*
X7725Y40025D02*
D03*
X33975Y54725D02*
D03*
Y47225D02*
D03*
X49425Y40025D02*
D03*
X75675Y54725D02*
D03*
Y47225D02*
D03*
X7725Y75225D02*
D03*
X33975Y89925D02*
D03*
Y82425D02*
D03*
X49425Y75225D02*
D03*
X75675Y89925D02*
D03*
Y82425D02*
D03*
D78*
X20225Y33675D02*
D03*
X18225D02*
D03*
X14225D02*
D03*
X12225D02*
D03*
X8225D02*
D03*
X16225D02*
D03*
X10225D02*
D03*
X7025Y11225D02*
D03*
X7075Y19725D02*
D03*
Y21725D02*
D03*
Y25725D02*
D03*
Y17725D02*
D03*
Y23725D02*
D03*
X39525Y24725D02*
D03*
Y26725D02*
D03*
Y30725D02*
D03*
Y22725D02*
D03*
Y28725D02*
D03*
Y10075D02*
D03*
Y12075D02*
D03*
Y16075D02*
D03*
Y8075D02*
D03*
Y14075D02*
D03*
X34275Y29775D02*
D03*
X31275D02*
D03*
X28275D02*
D03*
X25275D02*
D03*
X32775D02*
D03*
X29775D02*
D03*
X26775D02*
D03*
X61925Y33675D02*
D03*
X59925D02*
D03*
X55925D02*
D03*
X53925D02*
D03*
X49925D02*
D03*
X57925D02*
D03*
X51925D02*
D03*
X48725Y11225D02*
D03*
X48775Y19725D02*
D03*
Y21725D02*
D03*
Y25725D02*
D03*
Y17725D02*
D03*
Y23725D02*
D03*
X81225Y24725D02*
D03*
Y26725D02*
D03*
Y30725D02*
D03*
Y22725D02*
D03*
Y28725D02*
D03*
Y10075D02*
D03*
Y12075D02*
D03*
Y16075D02*
D03*
Y8075D02*
D03*
Y14075D02*
D03*
X75975Y29775D02*
D03*
X72975D02*
D03*
X69975D02*
D03*
X66975D02*
D03*
X74475D02*
D03*
X71475D02*
D03*
X68475D02*
D03*
X20225Y68875D02*
D03*
X18225D02*
D03*
X14225D02*
D03*
X12225D02*
D03*
X8225D02*
D03*
X16225D02*
D03*
X10225D02*
D03*
X7025Y46425D02*
D03*
X7075Y54925D02*
D03*
Y56925D02*
D03*
Y60925D02*
D03*
Y52925D02*
D03*
Y58925D02*
D03*
X39525Y59925D02*
D03*
Y61925D02*
D03*
Y65925D02*
D03*
Y57925D02*
D03*
Y63925D02*
D03*
Y45275D02*
D03*
Y47275D02*
D03*
Y51275D02*
D03*
Y43275D02*
D03*
Y49275D02*
D03*
X34275Y64975D02*
D03*
X31275D02*
D03*
X28275D02*
D03*
X25275D02*
D03*
X32775D02*
D03*
X29775D02*
D03*
X26775D02*
D03*
X61925Y68875D02*
D03*
X59925D02*
D03*
X55925D02*
D03*
X53925D02*
D03*
X49925D02*
D03*
X57925D02*
D03*
X51925D02*
D03*
X48725Y46425D02*
D03*
X48775Y54925D02*
D03*
Y56925D02*
D03*
Y60925D02*
D03*
Y52925D02*
D03*
Y58925D02*
D03*
X81225Y59925D02*
D03*
Y61925D02*
D03*
Y65925D02*
D03*
Y57925D02*
D03*
Y63925D02*
D03*
Y45275D02*
D03*
Y47275D02*
D03*
Y51275D02*
D03*
Y43275D02*
D03*
Y49275D02*
D03*
X75975Y64975D02*
D03*
X72975D02*
D03*
X69975D02*
D03*
X66975D02*
D03*
X74475D02*
D03*
X71475D02*
D03*
X68475D02*
D03*
X20225Y104075D02*
D03*
X18225D02*
D03*
X14225D02*
D03*
X12225D02*
D03*
X8225D02*
D03*
X16225D02*
D03*
X10225D02*
D03*
X7025Y81625D02*
D03*
X7075Y90125D02*
D03*
Y92125D02*
D03*
Y96125D02*
D03*
Y88125D02*
D03*
Y94125D02*
D03*
X39525Y95125D02*
D03*
Y97125D02*
D03*
Y101125D02*
D03*
Y93125D02*
D03*
Y99125D02*
D03*
Y80475D02*
D03*
Y82475D02*
D03*
Y86475D02*
D03*
Y78475D02*
D03*
Y84475D02*
D03*
X34275Y100175D02*
D03*
X31275D02*
D03*
X28275D02*
D03*
X25275D02*
D03*
X32775D02*
D03*
X29775D02*
D03*
X26775D02*
D03*
X61925Y104075D02*
D03*
X59925D02*
D03*
X55925D02*
D03*
X53925D02*
D03*
X49925D02*
D03*
X57925D02*
D03*
X51925D02*
D03*
X48725Y81625D02*
D03*
X48775Y90125D02*
D03*
Y92125D02*
D03*
Y96125D02*
D03*
Y88125D02*
D03*
Y94125D02*
D03*
X81225Y95125D02*
D03*
Y97125D02*
D03*
Y101125D02*
D03*
Y93125D02*
D03*
Y99125D02*
D03*
Y80475D02*
D03*
Y82475D02*
D03*
Y86475D02*
D03*
Y78475D02*
D03*
Y84475D02*
D03*
X75975Y100175D02*
D03*
X72975D02*
D03*
X69975D02*
D03*
X66975D02*
D03*
X74475D02*
D03*
X71475D02*
D03*
X68475D02*
D03*
D79*
X6225Y33675D02*
D03*
X47925D02*
D03*
X6225Y68875D02*
D03*
X47925D02*
D03*
X6225Y104075D02*
D03*
X47925D02*
D03*
D80*
X7025Y9225D02*
D03*
X7075Y15725D02*
D03*
X39525Y20725D02*
D03*
Y6075D02*
D03*
X48725Y9225D02*
D03*
X48775Y15725D02*
D03*
X81225Y20725D02*
D03*
Y6075D02*
D03*
X7025Y44425D02*
D03*
X7075Y50925D02*
D03*
X39525Y55925D02*
D03*
Y41275D02*
D03*
X48725Y44425D02*
D03*
X48775Y50925D02*
D03*
X81225Y55925D02*
D03*
Y41275D02*
D03*
X7025Y79625D02*
D03*
X7075Y86125D02*
D03*
X39525Y91125D02*
D03*
Y76475D02*
D03*
X48725Y79625D02*
D03*
X48775Y86125D02*
D03*
X81225Y91125D02*
D03*
Y76475D02*
D03*
D81*
X35775Y29775D02*
D03*
X77475D02*
D03*
X35775Y64975D02*
D03*
X77475D02*
D03*
X35775Y100175D02*
D03*
X77475D02*
D03*
D82*
X22034Y23270D02*
D03*
X20006Y28804D02*
D03*
X25275Y15275D02*
D03*
X5275Y8275D02*
D03*
X9675Y11125D02*
D03*
X9325Y15775D02*
D03*
X11775Y17275D02*
D03*
X14775Y16025D02*
D03*
X14275Y19025D02*
D03*
X14225Y26225D02*
D03*
X18525Y10375D02*
D03*
X18775Y14825D02*
D03*
X19075Y13625D02*
D03*
X18775Y17475D02*
D03*
X17075Y20025D02*
D03*
X17675Y20925D02*
D03*
Y23125D02*
D03*
Y22075D02*
D03*
X18425Y26825D02*
D03*
X21275Y20275D02*
D03*
X24525Y4525D02*
D03*
X24775Y7775D02*
D03*
X24525Y11025D02*
D03*
X22775Y14275D02*
D03*
X24275Y13525D02*
D03*
X25275Y20475D02*
D03*
X23575Y20075D02*
D03*
X23025Y23775D02*
D03*
X23525Y24275D02*
D03*
X24025Y31025D02*
D03*
X26775Y11025D02*
D03*
X27675Y14275D02*
D03*
X33175Y9975D02*
D03*
X33775Y26275D02*
D03*
X32775Y32025D02*
D03*
X10075Y21425D02*
D03*
X9119Y12990D02*
D03*
X11175Y15625D02*
D03*
X15925Y21425D02*
D03*
X25275Y24475D02*
D03*
X4525Y10575D02*
D03*
X10675Y18025D02*
D03*
X22525Y22525D02*
D03*
X19475Y23575D02*
D03*
X31525Y33775D02*
D03*
X63734Y23270D02*
D03*
X61706Y28804D02*
D03*
X66975Y15275D02*
D03*
X46975Y8275D02*
D03*
X51375Y11125D02*
D03*
X51025Y15775D02*
D03*
X53475Y17275D02*
D03*
X56475Y16025D02*
D03*
X55975Y19025D02*
D03*
X55925Y26225D02*
D03*
X60225Y10375D02*
D03*
X60475Y14825D02*
D03*
X60775Y13625D02*
D03*
X60475Y17475D02*
D03*
X58775Y20025D02*
D03*
X59375Y20925D02*
D03*
Y23125D02*
D03*
Y22075D02*
D03*
X60125Y26825D02*
D03*
X62975Y20275D02*
D03*
X66225Y4525D02*
D03*
X66475Y7775D02*
D03*
X66225Y11025D02*
D03*
X64475Y14275D02*
D03*
X65975Y13525D02*
D03*
X66975Y20475D02*
D03*
X65275Y20075D02*
D03*
X64725Y23775D02*
D03*
X65225Y24275D02*
D03*
X65725Y31025D02*
D03*
X68475Y11025D02*
D03*
X69375Y14275D02*
D03*
X74875Y9975D02*
D03*
X75475Y26275D02*
D03*
X74475Y32025D02*
D03*
X51775Y21425D02*
D03*
X50819Y12990D02*
D03*
X52875Y15625D02*
D03*
X57625Y21425D02*
D03*
X66975Y24475D02*
D03*
X46225Y10575D02*
D03*
X52375Y18025D02*
D03*
X64225Y22525D02*
D03*
X61175Y23575D02*
D03*
X73225Y33775D02*
D03*
X22034Y58470D02*
D03*
X20006Y64004D02*
D03*
X25275Y50475D02*
D03*
X5275Y43475D02*
D03*
X9675Y46325D02*
D03*
X9325Y50975D02*
D03*
X11775Y52475D02*
D03*
X14775Y51225D02*
D03*
X14275Y54225D02*
D03*
X14225Y61425D02*
D03*
X18525Y45575D02*
D03*
X18775Y50025D02*
D03*
X19075Y48825D02*
D03*
X18775Y52675D02*
D03*
X17075Y55225D02*
D03*
X17675Y56125D02*
D03*
Y58325D02*
D03*
Y57275D02*
D03*
X18425Y62025D02*
D03*
X21275Y55475D02*
D03*
X24525Y39725D02*
D03*
X24775Y42975D02*
D03*
X24525Y46225D02*
D03*
X22775Y49475D02*
D03*
X24275Y48725D02*
D03*
X25275Y55675D02*
D03*
X23575Y55275D02*
D03*
X23025Y58975D02*
D03*
X23525Y59475D02*
D03*
X24025Y66225D02*
D03*
X26775Y46225D02*
D03*
X27675Y49475D02*
D03*
X33175Y45175D02*
D03*
X33775Y61475D02*
D03*
X32775Y67225D02*
D03*
X10075Y56625D02*
D03*
X9119Y48190D02*
D03*
X11175Y50825D02*
D03*
X15925Y56625D02*
D03*
X25275Y59675D02*
D03*
X4525Y45775D02*
D03*
X10675Y53225D02*
D03*
X22525Y57725D02*
D03*
X19475Y58775D02*
D03*
X31525Y68975D02*
D03*
X63734Y58470D02*
D03*
X61706Y64004D02*
D03*
X66975Y50475D02*
D03*
X46975Y43475D02*
D03*
X51375Y46325D02*
D03*
X51025Y50975D02*
D03*
X53475Y52475D02*
D03*
X56475Y51225D02*
D03*
X55975Y54225D02*
D03*
X55925Y61425D02*
D03*
X60225Y45575D02*
D03*
X60475Y50025D02*
D03*
X60775Y48825D02*
D03*
X60475Y52675D02*
D03*
X58775Y55225D02*
D03*
X59375Y56125D02*
D03*
Y58325D02*
D03*
Y57275D02*
D03*
X60125Y62025D02*
D03*
X62975Y55475D02*
D03*
X66225Y39725D02*
D03*
X66475Y42975D02*
D03*
X66225Y46225D02*
D03*
X64475Y49475D02*
D03*
X65975Y48725D02*
D03*
X66975Y55675D02*
D03*
X65275Y55275D02*
D03*
X64725Y58975D02*
D03*
X65225Y59475D02*
D03*
X65725Y66225D02*
D03*
X68475Y46225D02*
D03*
X69375Y49475D02*
D03*
X74875Y45175D02*
D03*
X75475Y61475D02*
D03*
X74475Y67225D02*
D03*
X51775Y56625D02*
D03*
X50819Y48190D02*
D03*
X52875Y50825D02*
D03*
X57625Y56625D02*
D03*
X66975Y59675D02*
D03*
X46225Y45775D02*
D03*
X52375Y53225D02*
D03*
X64225Y57725D02*
D03*
X61175Y58775D02*
D03*
X73225Y68975D02*
D03*
X22034Y93670D02*
D03*
X20006Y99204D02*
D03*
X25275Y85675D02*
D03*
X5275Y78675D02*
D03*
X9675Y81525D02*
D03*
X9325Y86175D02*
D03*
X11775Y87675D02*
D03*
X14775Y86425D02*
D03*
X14275Y89425D02*
D03*
X14225Y96625D02*
D03*
X18525Y80775D02*
D03*
X18775Y85225D02*
D03*
X19075Y84025D02*
D03*
X18775Y87875D02*
D03*
X17075Y90425D02*
D03*
X17675Y91325D02*
D03*
Y93525D02*
D03*
Y92475D02*
D03*
X18425Y97225D02*
D03*
X21275Y90675D02*
D03*
X24525Y74925D02*
D03*
X24775Y78175D02*
D03*
X24525Y81425D02*
D03*
X22775Y84675D02*
D03*
X24275Y83925D02*
D03*
X25275Y90875D02*
D03*
X23575Y90475D02*
D03*
X23025Y94175D02*
D03*
X23525Y94675D02*
D03*
X24025Y101425D02*
D03*
X26775Y81425D02*
D03*
X27675Y84675D02*
D03*
X33175Y80375D02*
D03*
X33775Y96675D02*
D03*
X32775Y102425D02*
D03*
X10075Y91825D02*
D03*
X9119Y83390D02*
D03*
X11175Y86025D02*
D03*
X15925Y91825D02*
D03*
X25275Y94875D02*
D03*
X4525Y80975D02*
D03*
X10675Y88425D02*
D03*
X22525Y92925D02*
D03*
X19475Y93975D02*
D03*
X31525Y104175D02*
D03*
X63734Y93670D02*
D03*
X61706Y99204D02*
D03*
X66975Y85675D02*
D03*
X46975Y78675D02*
D03*
X51375Y81525D02*
D03*
X51025Y86175D02*
D03*
X53475Y87675D02*
D03*
X56475Y86425D02*
D03*
X55975Y89425D02*
D03*
X55925Y96625D02*
D03*
X60225Y80775D02*
D03*
X60475Y85225D02*
D03*
X60775Y84025D02*
D03*
X60475Y87875D02*
D03*
X58775Y90425D02*
D03*
X59375Y91325D02*
D03*
Y93525D02*
D03*
Y92475D02*
D03*
X60125Y97225D02*
D03*
X62975Y90675D02*
D03*
X66225Y74925D02*
D03*
X66475Y78175D02*
D03*
X66225Y81425D02*
D03*
X64475Y84675D02*
D03*
X65975Y83925D02*
D03*
X66975Y90875D02*
D03*
X65275Y90475D02*
D03*
X64725Y94175D02*
D03*
X65225Y94675D02*
D03*
X65725Y101425D02*
D03*
X68475Y81425D02*
D03*
X69375Y84675D02*
D03*
X74875Y80375D02*
D03*
X75475Y96675D02*
D03*
X74475Y102425D02*
D03*
X51775Y91825D02*
D03*
X50819Y83390D02*
D03*
X52875Y86025D02*
D03*
X57625Y91825D02*
D03*
X66975Y94875D02*
D03*
X46225Y80975D02*
D03*
X52375Y88425D02*
D03*
X64225Y92925D02*
D03*
X61175Y93975D02*
D03*
X73225Y104175D02*
D03*
D83*
X29875Y9375D02*
D03*
X71575D02*
D03*
X29875Y44575D02*
D03*
X71575D02*
D03*
X29875Y79775D02*
D03*
X71575D02*
D03*
D84*
X28575Y6025D02*
D03*
X70275D02*
D03*
X28575Y41225D02*
D03*
X70275D02*
D03*
X28575Y76425D02*
D03*
X70275D02*
D03*
M02*
