G04*
G04 #@! TF.GenerationSoftware,Altium Limited,Altium Designer,18.1.9 (240)*
G04*
G04 Layer_Color=16711935*
%FSLAX24Y24*%
%MOIN*%
G70*
G01*
G75*
%ADD70C,0.0780*%
%ADD71C,0.0680*%
%ADD72C,0.2280*%
%ADD73R,0.0730X0.0730*%
%ADD74O,0.1780X0.1980*%
%ADD75R,0.0680X0.0680*%
%ADD76C,0.1680*%
%ADD77R,0.0680X0.0680*%
%ADD78C,0.1180*%
G04:AMPARAMS|DCode=79|XSize=108mil|YSize=108mil|CornerRadius=29mil|HoleSize=0mil|Usage=FLASHONLY|Rotation=270.000|XOffset=0mil|YOffset=0mil|HoleType=Round|Shape=RoundedRectangle|*
%AMROUNDEDRECTD79*
21,1,0.1080,0.0500,0,0,270.0*
21,1,0.0500,0.1080,0,0,270.0*
1,1,0.0580,-0.0250,-0.0250*
1,1,0.0580,-0.0250,0.0250*
1,1,0.0580,0.0250,0.0250*
1,1,0.0580,0.0250,-0.0250*
%
%ADD79ROUNDEDRECTD79*%
G04:AMPARAMS|DCode=80|XSize=118mil|YSize=118mil|CornerRadius=31.5mil|HoleSize=0mil|Usage=FLASHONLY|Rotation=180.000|XOffset=0mil|YOffset=0mil|HoleType=Round|Shape=RoundedRectangle|*
%AMROUNDEDRECTD80*
21,1,0.1180,0.0550,0,0,180.0*
21,1,0.0550,0.1180,0,0,180.0*
1,1,0.0630,-0.0275,0.0275*
1,1,0.0630,0.0275,0.0275*
1,1,0.0630,0.0275,-0.0275*
1,1,0.0630,-0.0275,-0.0275*
%
%ADD80ROUNDEDRECTD80*%
G04:AMPARAMS|DCode=81|XSize=118mil|YSize=118mil|CornerRadius=31.5mil|HoleSize=0mil|Usage=FLASHONLY|Rotation=270.000|XOffset=0mil|YOffset=0mil|HoleType=Round|Shape=RoundedRectangle|*
%AMROUNDEDRECTD81*
21,1,0.1180,0.0550,0,0,270.0*
21,1,0.0550,0.1180,0,0,270.0*
1,1,0.0630,-0.0275,-0.0275*
1,1,0.0630,-0.0275,0.0275*
1,1,0.0630,0.0275,0.0275*
1,1,0.0630,0.0275,-0.0275*
%
%ADD81ROUNDEDRECTD81*%
%ADD82C,0.0380*%
%ADD83C,0.0720*%
%ADD84C,0.0580*%
D70*
X32975Y12025D02*
D03*
Y19525D02*
D03*
X36675Y7525D02*
D03*
X30425Y24025D02*
D03*
X74675Y12025D02*
D03*
Y19525D02*
D03*
X78375Y7525D02*
D03*
X72125Y24025D02*
D03*
X32975Y47225D02*
D03*
Y54725D02*
D03*
X36675Y42725D02*
D03*
X30425Y59225D02*
D03*
X74675Y47225D02*
D03*
Y54725D02*
D03*
X78375Y42725D02*
D03*
X72125Y59225D02*
D03*
X32975Y82425D02*
D03*
Y89925D02*
D03*
X36675Y77925D02*
D03*
X30425Y94425D02*
D03*
X74675Y82425D02*
D03*
Y89925D02*
D03*
X78375Y77925D02*
D03*
X72125Y94425D02*
D03*
D71*
X14025Y14275D02*
D03*
X13025D02*
D03*
X14025Y16775D02*
D03*
X13025D02*
D03*
X14525Y7275D02*
D03*
X10775Y3525D02*
D03*
X10525Y27225D02*
D03*
X9525D02*
D03*
X19425Y25775D02*
D03*
Y26775D02*
D03*
Y24775D02*
D03*
X34775Y4525D02*
D03*
X35775D02*
D03*
X23525Y33275D02*
D03*
X24525D02*
D03*
X26525D02*
D03*
X23525Y36275D02*
D03*
X24525D02*
D03*
X26525D02*
D03*
X27525D02*
D03*
X25525Y33275D02*
D03*
Y36275D02*
D03*
X28425Y23375D02*
D03*
X27425D02*
D03*
X17775Y7525D02*
D03*
Y6525D02*
D03*
X29025Y4525D02*
D03*
X28025D02*
D03*
X29025Y8025D02*
D03*
X28025D02*
D03*
X5725Y4825D02*
D03*
X36275Y33175D02*
D03*
X37275D02*
D03*
X39275D02*
D03*
X36275Y36175D02*
D03*
X37275D02*
D03*
X39275D02*
D03*
X40275D02*
D03*
X38275Y33175D02*
D03*
Y36175D02*
D03*
X30975Y19525D02*
D03*
Y12025D02*
D03*
X55725Y14275D02*
D03*
X54725D02*
D03*
X55725Y16775D02*
D03*
X54725D02*
D03*
X56225Y7275D02*
D03*
X52475Y3525D02*
D03*
X52225Y27225D02*
D03*
X51225D02*
D03*
X61125Y25775D02*
D03*
Y26775D02*
D03*
Y24775D02*
D03*
X76475Y4525D02*
D03*
X77475D02*
D03*
X65225Y33275D02*
D03*
X66225D02*
D03*
X68225D02*
D03*
X65225Y36275D02*
D03*
X66225D02*
D03*
X68225D02*
D03*
X69225D02*
D03*
X67225Y33275D02*
D03*
Y36275D02*
D03*
X70125Y23375D02*
D03*
X69125D02*
D03*
X59475Y7525D02*
D03*
Y6525D02*
D03*
X70725Y4525D02*
D03*
X69725D02*
D03*
X70725Y8025D02*
D03*
X69725D02*
D03*
X47425Y4825D02*
D03*
X77975Y33175D02*
D03*
X78975D02*
D03*
X80975D02*
D03*
X77975Y36175D02*
D03*
X78975D02*
D03*
X80975D02*
D03*
X81975D02*
D03*
X79975Y33175D02*
D03*
Y36175D02*
D03*
X72675Y19525D02*
D03*
Y12025D02*
D03*
X14025Y49475D02*
D03*
X13025D02*
D03*
X14025Y51975D02*
D03*
X13025D02*
D03*
X14525Y42475D02*
D03*
X10775Y38725D02*
D03*
X10525Y62425D02*
D03*
X9525D02*
D03*
X19425Y60975D02*
D03*
Y61975D02*
D03*
Y59975D02*
D03*
X34775Y39725D02*
D03*
X35775D02*
D03*
X23525Y68475D02*
D03*
X24525D02*
D03*
X26525D02*
D03*
X23525Y71475D02*
D03*
X24525D02*
D03*
X26525D02*
D03*
X27525D02*
D03*
X25525Y68475D02*
D03*
Y71475D02*
D03*
X28425Y58575D02*
D03*
X27425D02*
D03*
X17775Y42725D02*
D03*
Y41725D02*
D03*
X29025Y39725D02*
D03*
X28025D02*
D03*
X29025Y43225D02*
D03*
X28025D02*
D03*
X5725Y40025D02*
D03*
X36275Y68375D02*
D03*
X37275D02*
D03*
X39275D02*
D03*
X36275Y71375D02*
D03*
X37275D02*
D03*
X39275D02*
D03*
X40275D02*
D03*
X38275Y68375D02*
D03*
Y71375D02*
D03*
X30975Y54725D02*
D03*
Y47225D02*
D03*
X55725Y49475D02*
D03*
X54725D02*
D03*
X55725Y51975D02*
D03*
X54725D02*
D03*
X56225Y42475D02*
D03*
X52475Y38725D02*
D03*
X52225Y62425D02*
D03*
X51225D02*
D03*
X61125Y60975D02*
D03*
Y61975D02*
D03*
Y59975D02*
D03*
X76475Y39725D02*
D03*
X77475D02*
D03*
X65225Y68475D02*
D03*
X66225D02*
D03*
X68225D02*
D03*
X65225Y71475D02*
D03*
X66225D02*
D03*
X68225D02*
D03*
X69225D02*
D03*
X67225Y68475D02*
D03*
Y71475D02*
D03*
X70125Y58575D02*
D03*
X69125D02*
D03*
X59475Y42725D02*
D03*
Y41725D02*
D03*
X70725Y39725D02*
D03*
X69725D02*
D03*
X70725Y43225D02*
D03*
X69725D02*
D03*
X47425Y40025D02*
D03*
X77975Y68375D02*
D03*
X78975D02*
D03*
X80975D02*
D03*
X77975Y71375D02*
D03*
X78975D02*
D03*
X80975D02*
D03*
X81975D02*
D03*
X79975Y68375D02*
D03*
Y71375D02*
D03*
X72675Y54725D02*
D03*
Y47225D02*
D03*
X14025Y84675D02*
D03*
X13025D02*
D03*
X14025Y87175D02*
D03*
X13025D02*
D03*
X14525Y77675D02*
D03*
X10775Y73925D02*
D03*
X10525Y97625D02*
D03*
X9525D02*
D03*
X19425Y96175D02*
D03*
Y97175D02*
D03*
Y95175D02*
D03*
X34775Y74925D02*
D03*
X35775D02*
D03*
X23525Y103675D02*
D03*
X24525D02*
D03*
X26525D02*
D03*
X23525Y106675D02*
D03*
X24525D02*
D03*
X26525D02*
D03*
X27525D02*
D03*
X25525Y103675D02*
D03*
Y106675D02*
D03*
X28425Y93775D02*
D03*
X27425D02*
D03*
X17775Y77925D02*
D03*
Y76925D02*
D03*
X29025Y74925D02*
D03*
X28025D02*
D03*
X29025Y78425D02*
D03*
X28025D02*
D03*
X5725Y75225D02*
D03*
X36275Y103575D02*
D03*
X37275D02*
D03*
X39275D02*
D03*
X36275Y106575D02*
D03*
X37275D02*
D03*
X39275D02*
D03*
X40275D02*
D03*
X38275Y103575D02*
D03*
Y106575D02*
D03*
X30975Y89925D02*
D03*
Y82425D02*
D03*
X55725Y84675D02*
D03*
X54725D02*
D03*
X55725Y87175D02*
D03*
X54725D02*
D03*
X56225Y77675D02*
D03*
X52475Y73925D02*
D03*
X52225Y97625D02*
D03*
X51225D02*
D03*
X61125Y96175D02*
D03*
Y97175D02*
D03*
Y95175D02*
D03*
X76475Y74925D02*
D03*
X77475D02*
D03*
X65225Y103675D02*
D03*
X66225D02*
D03*
X68225D02*
D03*
X65225Y106675D02*
D03*
X66225D02*
D03*
X68225D02*
D03*
X69225D02*
D03*
X67225Y103675D02*
D03*
Y106675D02*
D03*
X70125Y93775D02*
D03*
X69125D02*
D03*
X59475Y77925D02*
D03*
Y76925D02*
D03*
X70725Y74925D02*
D03*
X69725D02*
D03*
X70725Y78425D02*
D03*
X69725D02*
D03*
X47425Y75225D02*
D03*
X77975Y103575D02*
D03*
X78975D02*
D03*
X80975D02*
D03*
X77975Y106575D02*
D03*
X78975D02*
D03*
X80975D02*
D03*
X81975D02*
D03*
X79975Y103575D02*
D03*
Y106575D02*
D03*
X72675Y89925D02*
D03*
Y82425D02*
D03*
D72*
X15025Y30025D02*
D03*
Y10025D02*
D03*
X56725Y30025D02*
D03*
Y10025D02*
D03*
X15025Y65225D02*
D03*
Y45225D02*
D03*
X56725Y65225D02*
D03*
Y45225D02*
D03*
X15025Y100425D02*
D03*
Y80425D02*
D03*
X56725Y100425D02*
D03*
Y80425D02*
D03*
D73*
X30675Y7525D02*
D03*
X36425Y24025D02*
D03*
X72375Y7525D02*
D03*
X78125Y24025D02*
D03*
X30675Y42725D02*
D03*
X36425Y59225D02*
D03*
X72375Y42725D02*
D03*
X78125Y59225D02*
D03*
X30675Y77925D02*
D03*
X36425Y94425D02*
D03*
X72375Y77925D02*
D03*
X78125Y94425D02*
D03*
D74*
X32055Y4245D02*
D03*
X73755D02*
D03*
X32055Y39445D02*
D03*
X73755D02*
D03*
X32055Y74645D02*
D03*
X73755D02*
D03*
D75*
X27525Y33275D02*
D03*
X40275Y33175D02*
D03*
X69225Y33275D02*
D03*
X81975Y33175D02*
D03*
X27525Y68475D02*
D03*
X40275Y68375D02*
D03*
X69225Y68475D02*
D03*
X81975Y68375D02*
D03*
X27525Y103675D02*
D03*
X40275Y103575D02*
D03*
X69225Y103675D02*
D03*
X81975Y103575D02*
D03*
D76*
X32055Y35805D02*
D03*
X73755D02*
D03*
X32055Y71005D02*
D03*
X73755D02*
D03*
X32055Y106205D02*
D03*
X73755D02*
D03*
D77*
X7725Y4825D02*
D03*
X33975Y19525D02*
D03*
Y12025D02*
D03*
X49425Y4825D02*
D03*
X75675Y19525D02*
D03*
Y12025D02*
D03*
X7725Y40025D02*
D03*
X33975Y54725D02*
D03*
Y47225D02*
D03*
X49425Y40025D02*
D03*
X75675Y54725D02*
D03*
Y47225D02*
D03*
X7725Y75225D02*
D03*
X33975Y89925D02*
D03*
Y82425D02*
D03*
X49425Y75225D02*
D03*
X75675Y89925D02*
D03*
Y82425D02*
D03*
D78*
X20225Y33675D02*
D03*
X18225D02*
D03*
X14225D02*
D03*
X12225D02*
D03*
X8225D02*
D03*
X16225D02*
D03*
X10225D02*
D03*
X7025Y11225D02*
D03*
X7075Y19725D02*
D03*
Y21725D02*
D03*
Y25725D02*
D03*
Y17725D02*
D03*
Y23725D02*
D03*
X39525Y24725D02*
D03*
Y26725D02*
D03*
Y30725D02*
D03*
Y22725D02*
D03*
Y28725D02*
D03*
Y10075D02*
D03*
Y12075D02*
D03*
Y16075D02*
D03*
Y8075D02*
D03*
Y14075D02*
D03*
X34275Y29775D02*
D03*
X31275D02*
D03*
X28275D02*
D03*
X25275D02*
D03*
X32775D02*
D03*
X29775D02*
D03*
X26775D02*
D03*
X61925Y33675D02*
D03*
X59925D02*
D03*
X55925D02*
D03*
X53925D02*
D03*
X49925D02*
D03*
X57925D02*
D03*
X51925D02*
D03*
X48725Y11225D02*
D03*
X48775Y19725D02*
D03*
Y21725D02*
D03*
Y25725D02*
D03*
Y17725D02*
D03*
Y23725D02*
D03*
X81225Y24725D02*
D03*
Y26725D02*
D03*
Y30725D02*
D03*
Y22725D02*
D03*
Y28725D02*
D03*
Y10075D02*
D03*
Y12075D02*
D03*
Y16075D02*
D03*
Y8075D02*
D03*
Y14075D02*
D03*
X75975Y29775D02*
D03*
X72975D02*
D03*
X69975D02*
D03*
X66975D02*
D03*
X74475D02*
D03*
X71475D02*
D03*
X68475D02*
D03*
X20225Y68875D02*
D03*
X18225D02*
D03*
X14225D02*
D03*
X12225D02*
D03*
X8225D02*
D03*
X16225D02*
D03*
X10225D02*
D03*
X7025Y46425D02*
D03*
X7075Y54925D02*
D03*
Y56925D02*
D03*
Y60925D02*
D03*
Y52925D02*
D03*
Y58925D02*
D03*
X39525Y59925D02*
D03*
Y61925D02*
D03*
Y65925D02*
D03*
Y57925D02*
D03*
Y63925D02*
D03*
Y45275D02*
D03*
Y47275D02*
D03*
Y51275D02*
D03*
Y43275D02*
D03*
Y49275D02*
D03*
X34275Y64975D02*
D03*
X31275D02*
D03*
X28275D02*
D03*
X25275D02*
D03*
X32775D02*
D03*
X29775D02*
D03*
X26775D02*
D03*
X61925Y68875D02*
D03*
X59925D02*
D03*
X55925D02*
D03*
X53925D02*
D03*
X49925D02*
D03*
X57925D02*
D03*
X51925D02*
D03*
X48725Y46425D02*
D03*
X48775Y54925D02*
D03*
Y56925D02*
D03*
Y60925D02*
D03*
Y52925D02*
D03*
Y58925D02*
D03*
X81225Y59925D02*
D03*
Y61925D02*
D03*
Y65925D02*
D03*
Y57925D02*
D03*
Y63925D02*
D03*
Y45275D02*
D03*
Y47275D02*
D03*
Y51275D02*
D03*
Y43275D02*
D03*
Y49275D02*
D03*
X75975Y64975D02*
D03*
X72975D02*
D03*
X69975D02*
D03*
X66975D02*
D03*
X74475D02*
D03*
X71475D02*
D03*
X68475D02*
D03*
X20225Y104075D02*
D03*
X18225D02*
D03*
X14225D02*
D03*
X12225D02*
D03*
X8225D02*
D03*
X16225D02*
D03*
X10225D02*
D03*
X7025Y81625D02*
D03*
X7075Y90125D02*
D03*
Y92125D02*
D03*
Y96125D02*
D03*
Y88125D02*
D03*
Y94125D02*
D03*
X39525Y95125D02*
D03*
Y97125D02*
D03*
Y101125D02*
D03*
Y93125D02*
D03*
Y99125D02*
D03*
Y80475D02*
D03*
Y82475D02*
D03*
Y86475D02*
D03*
Y78475D02*
D03*
Y84475D02*
D03*
X34275Y100175D02*
D03*
X31275D02*
D03*
X28275D02*
D03*
X25275D02*
D03*
X32775D02*
D03*
X29775D02*
D03*
X26775D02*
D03*
X61925Y104075D02*
D03*
X59925D02*
D03*
X55925D02*
D03*
X53925D02*
D03*
X49925D02*
D03*
X57925D02*
D03*
X51925D02*
D03*
X48725Y81625D02*
D03*
X48775Y90125D02*
D03*
Y92125D02*
D03*
Y96125D02*
D03*
Y88125D02*
D03*
Y94125D02*
D03*
X81225Y95125D02*
D03*
Y97125D02*
D03*
Y101125D02*
D03*
Y93125D02*
D03*
Y99125D02*
D03*
Y80475D02*
D03*
Y82475D02*
D03*
Y86475D02*
D03*
Y78475D02*
D03*
Y84475D02*
D03*
X75975Y100175D02*
D03*
X72975D02*
D03*
X69975D02*
D03*
X66975D02*
D03*
X74475D02*
D03*
X71475D02*
D03*
X68475D02*
D03*
D79*
X6225Y33675D02*
D03*
X47925D02*
D03*
X6225Y68875D02*
D03*
X47925D02*
D03*
X6225Y104075D02*
D03*
X47925D02*
D03*
D80*
X7025Y9225D02*
D03*
X7075Y15725D02*
D03*
X39525Y20725D02*
D03*
Y6075D02*
D03*
X48725Y9225D02*
D03*
X48775Y15725D02*
D03*
X81225Y20725D02*
D03*
Y6075D02*
D03*
X7025Y44425D02*
D03*
X7075Y50925D02*
D03*
X39525Y55925D02*
D03*
Y41275D02*
D03*
X48725Y44425D02*
D03*
X48775Y50925D02*
D03*
X81225Y55925D02*
D03*
Y41275D02*
D03*
X7025Y79625D02*
D03*
X7075Y86125D02*
D03*
X39525Y91125D02*
D03*
Y76475D02*
D03*
X48725Y79625D02*
D03*
X48775Y86125D02*
D03*
X81225Y91125D02*
D03*
Y76475D02*
D03*
D81*
X35775Y29775D02*
D03*
X77475D02*
D03*
X35775Y64975D02*
D03*
X77475D02*
D03*
X35775Y100175D02*
D03*
X77475D02*
D03*
D82*
X22034Y23270D02*
D03*
X20006Y28804D02*
D03*
X25275Y15275D02*
D03*
X5275Y8275D02*
D03*
X9675Y11125D02*
D03*
X9325Y15775D02*
D03*
X11775Y17275D02*
D03*
X14775Y16025D02*
D03*
X14275Y19025D02*
D03*
X14225Y26225D02*
D03*
X18525Y10375D02*
D03*
X18775Y14825D02*
D03*
X19075Y13625D02*
D03*
X18775Y17475D02*
D03*
X17075Y20025D02*
D03*
X17675Y20925D02*
D03*
Y23125D02*
D03*
Y22075D02*
D03*
X18425Y26825D02*
D03*
X21275Y20275D02*
D03*
X24525Y4525D02*
D03*
X24775Y7775D02*
D03*
X24525Y11025D02*
D03*
X22775Y14275D02*
D03*
X24275Y13525D02*
D03*
X25275Y20475D02*
D03*
X23575Y20075D02*
D03*
X23025Y23775D02*
D03*
X23525Y24275D02*
D03*
X24025Y31025D02*
D03*
X26775Y11025D02*
D03*
X27675Y14275D02*
D03*
X33175Y9975D02*
D03*
X33775Y26275D02*
D03*
X32775Y32025D02*
D03*
X10075Y21425D02*
D03*
X9119Y12990D02*
D03*
X11175Y15625D02*
D03*
X15925Y21425D02*
D03*
X25275Y24475D02*
D03*
X4525Y10575D02*
D03*
X10675Y18025D02*
D03*
X22525Y22525D02*
D03*
X19475Y23575D02*
D03*
X31525Y33775D02*
D03*
X63734Y23270D02*
D03*
X61706Y28804D02*
D03*
X66975Y15275D02*
D03*
X46975Y8275D02*
D03*
X51375Y11125D02*
D03*
X51025Y15775D02*
D03*
X53475Y17275D02*
D03*
X56475Y16025D02*
D03*
X55975Y19025D02*
D03*
X55925Y26225D02*
D03*
X60225Y10375D02*
D03*
X60475Y14825D02*
D03*
X60775Y13625D02*
D03*
X60475Y17475D02*
D03*
X58775Y20025D02*
D03*
X59375Y20925D02*
D03*
Y23125D02*
D03*
Y22075D02*
D03*
X60125Y26825D02*
D03*
X62975Y20275D02*
D03*
X66225Y4525D02*
D03*
X66475Y7775D02*
D03*
X66225Y11025D02*
D03*
X64475Y14275D02*
D03*
X65975Y13525D02*
D03*
X66975Y20475D02*
D03*
X65275Y20075D02*
D03*
X64725Y23775D02*
D03*
X65225Y24275D02*
D03*
X65725Y31025D02*
D03*
X68475Y11025D02*
D03*
X69375Y14275D02*
D03*
X74875Y9975D02*
D03*
X75475Y26275D02*
D03*
X74475Y32025D02*
D03*
X51775Y21425D02*
D03*
X50819Y12990D02*
D03*
X52875Y15625D02*
D03*
X57625Y21425D02*
D03*
X66975Y24475D02*
D03*
X46225Y10575D02*
D03*
X52375Y18025D02*
D03*
X64225Y22525D02*
D03*
X61175Y23575D02*
D03*
X73225Y33775D02*
D03*
X22034Y58470D02*
D03*
X20006Y64004D02*
D03*
X25275Y50475D02*
D03*
X5275Y43475D02*
D03*
X9675Y46325D02*
D03*
X9325Y50975D02*
D03*
X11775Y52475D02*
D03*
X14775Y51225D02*
D03*
X14275Y54225D02*
D03*
X14225Y61425D02*
D03*
X18525Y45575D02*
D03*
X18775Y50025D02*
D03*
X19075Y48825D02*
D03*
X18775Y52675D02*
D03*
X17075Y55225D02*
D03*
X17675Y56125D02*
D03*
Y58325D02*
D03*
Y57275D02*
D03*
X18425Y62025D02*
D03*
X21275Y55475D02*
D03*
X24525Y39725D02*
D03*
X24775Y42975D02*
D03*
X24525Y46225D02*
D03*
X22775Y49475D02*
D03*
X24275Y48725D02*
D03*
X25275Y55675D02*
D03*
X23575Y55275D02*
D03*
X23025Y58975D02*
D03*
X23525Y59475D02*
D03*
X24025Y66225D02*
D03*
X26775Y46225D02*
D03*
X27675Y49475D02*
D03*
X33175Y45175D02*
D03*
X33775Y61475D02*
D03*
X32775Y67225D02*
D03*
X10075Y56625D02*
D03*
X9119Y48190D02*
D03*
X11175Y50825D02*
D03*
X15925Y56625D02*
D03*
X25275Y59675D02*
D03*
X4525Y45775D02*
D03*
X10675Y53225D02*
D03*
X22525Y57725D02*
D03*
X19475Y58775D02*
D03*
X31525Y68975D02*
D03*
X63734Y58470D02*
D03*
X61706Y64004D02*
D03*
X66975Y50475D02*
D03*
X46975Y43475D02*
D03*
X51375Y46325D02*
D03*
X51025Y50975D02*
D03*
X53475Y52475D02*
D03*
X56475Y51225D02*
D03*
X55975Y54225D02*
D03*
X55925Y61425D02*
D03*
X60225Y45575D02*
D03*
X60475Y50025D02*
D03*
X60775Y48825D02*
D03*
X60475Y52675D02*
D03*
X58775Y55225D02*
D03*
X59375Y56125D02*
D03*
Y58325D02*
D03*
Y57275D02*
D03*
X60125Y62025D02*
D03*
X62975Y55475D02*
D03*
X66225Y39725D02*
D03*
X66475Y42975D02*
D03*
X66225Y46225D02*
D03*
X64475Y49475D02*
D03*
X65975Y48725D02*
D03*
X66975Y55675D02*
D03*
X65275Y55275D02*
D03*
X64725Y58975D02*
D03*
X65225Y59475D02*
D03*
X65725Y66225D02*
D03*
X68475Y46225D02*
D03*
X69375Y49475D02*
D03*
X74875Y45175D02*
D03*
X75475Y61475D02*
D03*
X74475Y67225D02*
D03*
X51775Y56625D02*
D03*
X50819Y48190D02*
D03*
X52875Y50825D02*
D03*
X57625Y56625D02*
D03*
X66975Y59675D02*
D03*
X46225Y45775D02*
D03*
X52375Y53225D02*
D03*
X64225Y57725D02*
D03*
X61175Y58775D02*
D03*
X73225Y68975D02*
D03*
X22034Y93670D02*
D03*
X20006Y99204D02*
D03*
X25275Y85675D02*
D03*
X5275Y78675D02*
D03*
X9675Y81525D02*
D03*
X9325Y86175D02*
D03*
X11775Y87675D02*
D03*
X14775Y86425D02*
D03*
X14275Y89425D02*
D03*
X14225Y96625D02*
D03*
X18525Y80775D02*
D03*
X18775Y85225D02*
D03*
X19075Y84025D02*
D03*
X18775Y87875D02*
D03*
X17075Y90425D02*
D03*
X17675Y91325D02*
D03*
Y93525D02*
D03*
Y92475D02*
D03*
X18425Y97225D02*
D03*
X21275Y90675D02*
D03*
X24525Y74925D02*
D03*
X24775Y78175D02*
D03*
X24525Y81425D02*
D03*
X22775Y84675D02*
D03*
X24275Y83925D02*
D03*
X25275Y90875D02*
D03*
X23575Y90475D02*
D03*
X23025Y94175D02*
D03*
X23525Y94675D02*
D03*
X24025Y101425D02*
D03*
X26775Y81425D02*
D03*
X27675Y84675D02*
D03*
X33175Y80375D02*
D03*
X33775Y96675D02*
D03*
X32775Y102425D02*
D03*
X10075Y91825D02*
D03*
X9119Y83390D02*
D03*
X11175Y86025D02*
D03*
X15925Y91825D02*
D03*
X25275Y94875D02*
D03*
X4525Y80975D02*
D03*
X10675Y88425D02*
D03*
X22525Y92925D02*
D03*
X19475Y93975D02*
D03*
X31525Y104175D02*
D03*
X63734Y93670D02*
D03*
X61706Y99204D02*
D03*
X66975Y85675D02*
D03*
X46975Y78675D02*
D03*
X51375Y81525D02*
D03*
X51025Y86175D02*
D03*
X53475Y87675D02*
D03*
X56475Y86425D02*
D03*
X55975Y89425D02*
D03*
X55925Y96625D02*
D03*
X60225Y80775D02*
D03*
X60475Y85225D02*
D03*
X60775Y84025D02*
D03*
X60475Y87875D02*
D03*
X58775Y90425D02*
D03*
X59375Y91325D02*
D03*
Y93525D02*
D03*
Y92475D02*
D03*
X60125Y97225D02*
D03*
X62975Y90675D02*
D03*
X66225Y74925D02*
D03*
X66475Y78175D02*
D03*
X66225Y81425D02*
D03*
X64475Y84675D02*
D03*
X65975Y83925D02*
D03*
X66975Y90875D02*
D03*
X65275Y90475D02*
D03*
X64725Y94175D02*
D03*
X65225Y94675D02*
D03*
X65725Y101425D02*
D03*
X68475Y81425D02*
D03*
X69375Y84675D02*
D03*
X74875Y80375D02*
D03*
X75475Y96675D02*
D03*
X74475Y102425D02*
D03*
X51775Y91825D02*
D03*
X50819Y83390D02*
D03*
X52875Y86025D02*
D03*
X57625Y91825D02*
D03*
X66975Y94875D02*
D03*
X46225Y80975D02*
D03*
X52375Y88425D02*
D03*
X64225Y92925D02*
D03*
X61175Y93975D02*
D03*
X73225Y104175D02*
D03*
D83*
X29875Y9375D02*
D03*
X71575D02*
D03*
X29875Y44575D02*
D03*
X71575D02*
D03*
X29875Y79775D02*
D03*
X71575D02*
D03*
D84*
X28575Y6025D02*
D03*
X70275D02*
D03*
X28575Y41225D02*
D03*
X70275D02*
D03*
X28575Y76425D02*
D03*
X70275D02*
D03*
M02*
