G04*
G04 #@! TF.GenerationSoftware,Altium Limited,Altium Designer,18.1.9 (240)*
G04*
G04 Layer_Color=128*
%FSLAX24Y24*%
%MOIN*%
G70*
G01*
G75*
%ADD86C,0.0030*%
D86*
X32775Y12025D02*
X33175D01*
X32975Y11825D02*
Y12225D01*
X32775Y19525D02*
X33175D01*
X32975Y19325D02*
Y19725D01*
X13835Y14275D02*
X14215D01*
X14025Y14085D02*
Y14465D01*
X12835Y14275D02*
X13215D01*
X13025Y14085D02*
Y14465D01*
X13835Y16775D02*
X14215D01*
X14025Y16585D02*
Y16965D01*
X12835Y16775D02*
X13215D01*
X13025Y16585D02*
Y16965D01*
X14375Y7275D02*
X14675D01*
X14525Y7125D02*
Y7425D01*
X10625Y3525D02*
X10925D01*
X10775Y3375D02*
Y3675D01*
X10335Y27225D02*
X10715D01*
X10525Y27035D02*
Y27415D01*
X9335Y27225D02*
X9715D01*
X9525Y27035D02*
Y27415D01*
X14175Y30025D02*
X15875D01*
X15025Y29175D02*
Y30875D01*
X19235Y25775D02*
X19615D01*
X19425Y25585D02*
Y25965D01*
X19235Y26775D02*
X19615D01*
X19425Y26585D02*
Y26965D01*
X19235Y24775D02*
X19615D01*
X19425Y24585D02*
Y24965D01*
X34585Y4525D02*
X34965D01*
X34775Y4335D02*
Y4715D01*
X35585Y4525D02*
X35965D01*
X35775Y4335D02*
Y4715D01*
X30475Y7525D02*
X30875D01*
X30675Y7325D02*
Y7725D01*
X36475Y7525D02*
X36875D01*
X36675Y7325D02*
Y7725D01*
X31255Y4245D02*
X32855D01*
X32055Y3445D02*
Y5045D01*
X14175Y10025D02*
X15875D01*
X15025Y9175D02*
Y10875D01*
X23335Y33275D02*
X23715D01*
X23525Y33085D02*
Y33465D01*
X24335Y33275D02*
X24715D01*
X24525Y33085D02*
Y33465D01*
X26335Y33275D02*
X26715D01*
X26525Y33085D02*
Y33465D01*
X27335Y33275D02*
X27715D01*
X27525Y33085D02*
Y33465D01*
X23335Y36275D02*
X23715D01*
X23525Y36085D02*
Y36465D01*
X24335Y36275D02*
X24715D01*
X24525Y36085D02*
Y36465D01*
X26335Y36275D02*
X26715D01*
X26525Y36085D02*
Y36465D01*
X27335Y36275D02*
X27715D01*
X27525Y36085D02*
Y36465D01*
X25335Y33275D02*
X25715D01*
X25525Y33085D02*
Y33465D01*
X25335Y36275D02*
X25715D01*
X25525Y36085D02*
Y36465D01*
X28235Y23375D02*
X28615D01*
X28425Y23185D02*
Y23565D01*
X27235Y23375D02*
X27615D01*
X27425Y23185D02*
Y23565D01*
X31255Y35805D02*
X32855D01*
X32055Y35005D02*
Y36605D01*
X17585Y7525D02*
X17965D01*
X17775Y7335D02*
Y7715D01*
X17585Y6525D02*
X17965D01*
X17775Y6335D02*
Y6715D01*
X28835Y4525D02*
X29215D01*
X29025Y4335D02*
Y4715D01*
X27835Y4525D02*
X28215D01*
X28025Y4335D02*
Y4715D01*
X28835Y8025D02*
X29215D01*
X29025Y7835D02*
Y8215D01*
X27835Y8025D02*
X28215D01*
X28025Y7835D02*
Y8215D01*
X7535Y4825D02*
X7915D01*
X7725Y4635D02*
Y5015D01*
X5535Y4825D02*
X5915D01*
X5725Y4635D02*
Y5015D01*
X19925Y33675D02*
X20525D01*
X20225Y33375D02*
Y33975D01*
X17925Y33675D02*
X18525D01*
X18225Y33375D02*
Y33975D01*
X13925Y33675D02*
X14525D01*
X14225Y33375D02*
Y33975D01*
X11925Y33675D02*
X12525D01*
X12225Y33375D02*
Y33975D01*
X7925Y33675D02*
X8525D01*
X8225Y33375D02*
Y33975D01*
X5925Y33675D02*
X6525D01*
X6225Y33375D02*
Y33975D01*
X15925Y33675D02*
X16525D01*
X16225Y33375D02*
Y33975D01*
X9925Y33675D02*
X10525D01*
X10225Y33375D02*
Y33975D01*
X6745Y9225D02*
X7305D01*
X7025Y8945D02*
Y9505D01*
X6745Y11225D02*
X7305D01*
X7025Y10945D02*
Y11505D01*
X6795Y15725D02*
X7355D01*
X7075Y15445D02*
Y16005D01*
X6795Y19725D02*
X7355D01*
X7075Y19445D02*
Y20005D01*
X6795Y21725D02*
X7355D01*
X7075Y21445D02*
Y22005D01*
X6795Y25725D02*
X7355D01*
X7075Y25445D02*
Y26005D01*
X6795Y17725D02*
X7355D01*
X7075Y17445D02*
Y18005D01*
X6795Y23725D02*
X7355D01*
X7075Y23445D02*
Y24005D01*
X39245Y20725D02*
X39805D01*
X39525Y20445D02*
Y21005D01*
X39245Y24725D02*
X39805D01*
X39525Y24445D02*
Y25005D01*
X39245Y26725D02*
X39805D01*
X39525Y26445D02*
Y27005D01*
X39245Y30725D02*
X39805D01*
X39525Y30445D02*
Y31005D01*
X39245Y22725D02*
X39805D01*
X39525Y22445D02*
Y23005D01*
X39245Y28725D02*
X39805D01*
X39525Y28445D02*
Y29005D01*
X39245Y6075D02*
X39805D01*
X39525Y5795D02*
Y6355D01*
X39245Y10075D02*
X39805D01*
X39525Y9795D02*
Y10355D01*
X39245Y12075D02*
X39805D01*
X39525Y11795D02*
Y12355D01*
X39245Y16075D02*
X39805D01*
X39525Y15795D02*
Y16355D01*
X39245Y8075D02*
X39805D01*
X39525Y7795D02*
Y8355D01*
X39245Y14075D02*
X39805D01*
X39525Y13795D02*
Y14355D01*
X33940Y29775D02*
X34610D01*
X34275Y29440D02*
Y30110D01*
X30940Y29775D02*
X31610D01*
X31275Y29440D02*
Y30110D01*
X27940Y29775D02*
X28610D01*
X28275Y29440D02*
Y30110D01*
X24940Y29775D02*
X25610D01*
X25275Y29440D02*
Y30110D01*
X35440Y29775D02*
X36110D01*
X35775Y29440D02*
Y30110D01*
X32440Y29775D02*
X33110D01*
X32775Y29440D02*
Y30110D01*
X29440Y29775D02*
X30110D01*
X29775Y29440D02*
Y30110D01*
X26440Y29775D02*
X27110D01*
X26775Y29440D02*
Y30110D01*
X36225Y24025D02*
X36625D01*
X36425Y23825D02*
Y24225D01*
X30225Y24025D02*
X30625D01*
X30425Y23825D02*
Y24225D01*
X36085Y33175D02*
X36465D01*
X36275Y32985D02*
Y33365D01*
X37085Y33175D02*
X37465D01*
X37275Y32985D02*
Y33365D01*
X39085Y33175D02*
X39465D01*
X39275Y32985D02*
Y33365D01*
X40085Y33175D02*
X40465D01*
X40275Y32985D02*
Y33365D01*
X36085Y36175D02*
X36465D01*
X36275Y35985D02*
Y36365D01*
X37085Y36175D02*
X37465D01*
X37275Y35985D02*
Y36365D01*
X39085Y36175D02*
X39465D01*
X39275Y35985D02*
Y36365D01*
X40085Y36175D02*
X40465D01*
X40275Y35985D02*
Y36365D01*
X38085Y33175D02*
X38465D01*
X38275Y32985D02*
Y33365D01*
X38085Y36175D02*
X38465D01*
X38275Y35985D02*
Y36365D01*
X33785Y19525D02*
X34165D01*
X33975Y19335D02*
Y19715D01*
X30785Y19525D02*
X31165D01*
X30975Y19335D02*
Y19715D01*
X33785Y12025D02*
X34165D01*
X33975Y11835D02*
Y12215D01*
X30785Y12025D02*
X31165D01*
X30975Y11835D02*
Y12215D01*
X21959Y23270D02*
X22109D01*
X22034Y23195D02*
Y23345D01*
X19931Y28804D02*
X20081D01*
X20006Y28729D02*
Y28879D01*
X25200Y15275D02*
X25350D01*
X25275Y15200D02*
Y15350D01*
X5200Y8275D02*
X5350D01*
X5275Y8200D02*
Y8350D01*
X9600Y11125D02*
X9750D01*
X9675Y11050D02*
Y11200D01*
X9250Y15775D02*
X9400D01*
X9325Y15700D02*
Y15850D01*
X11700Y17275D02*
X11850D01*
X11775Y17200D02*
Y17350D01*
X14700Y16025D02*
X14850D01*
X14775Y15950D02*
Y16100D01*
X14200Y19025D02*
X14350D01*
X14275Y18950D02*
Y19100D01*
X14150Y26225D02*
X14300D01*
X14225Y26150D02*
Y26300D01*
X18450Y10375D02*
X18600D01*
X18525Y10300D02*
Y10450D01*
X18700Y14825D02*
X18850D01*
X18775Y14750D02*
Y14900D01*
X19000Y13625D02*
X19150D01*
X19075Y13550D02*
Y13700D01*
X18700Y17475D02*
X18850D01*
X18775Y17400D02*
Y17550D01*
X17000Y20025D02*
X17150D01*
X17075Y19950D02*
Y20100D01*
X17600Y20925D02*
X17750D01*
X17675Y20850D02*
Y21000D01*
X17600Y23125D02*
X17750D01*
X17675Y23050D02*
Y23200D01*
X17600Y22075D02*
X17750D01*
X17675Y22000D02*
Y22150D01*
X18350Y26825D02*
X18500D01*
X18425Y26750D02*
Y26900D01*
X21200Y20275D02*
X21350D01*
X21275Y20200D02*
Y20350D01*
X24450Y4525D02*
X24600D01*
X24525Y4450D02*
Y4600D01*
X24700Y7775D02*
X24850D01*
X24775Y7700D02*
Y7850D01*
X24450Y11025D02*
X24600D01*
X24525Y10950D02*
Y11100D01*
X22700Y14275D02*
X22850D01*
X22775Y14200D02*
Y14350D01*
X24200Y13525D02*
X24350D01*
X24275Y13450D02*
Y13600D01*
X25200Y20475D02*
X25350D01*
X25275Y20400D02*
Y20550D01*
X23500Y20075D02*
X23650D01*
X23575Y20000D02*
Y20150D01*
X22950Y23775D02*
X23100D01*
X23025Y23700D02*
Y23850D01*
X23450Y24275D02*
X23600D01*
X23525Y24200D02*
Y24350D01*
X23950Y31025D02*
X24100D01*
X24025Y30950D02*
Y31100D01*
X26700Y11025D02*
X26850D01*
X26775Y10950D02*
Y11100D01*
X27600Y14275D02*
X27750D01*
X27675Y14200D02*
Y14350D01*
X27025Y34450D02*
X27175D01*
X27100Y34375D02*
Y34525D01*
X27250Y34975D02*
X27400D01*
X27325Y34900D02*
Y35050D01*
X33100Y9975D02*
X33250D01*
X33175Y9900D02*
Y10050D01*
X33700Y26275D02*
X33850D01*
X33775Y26200D02*
Y26350D01*
X32700Y32025D02*
X32850D01*
X32775Y31950D02*
Y32100D01*
X10000Y21425D02*
X10150D01*
X10075Y21350D02*
Y21500D01*
X9044Y12990D02*
X9194D01*
X9119Y12915D02*
Y13065D01*
X11100Y15625D02*
X11250D01*
X11175Y15550D02*
Y15700D01*
X15850Y21425D02*
X16000D01*
X15925Y21350D02*
Y21500D01*
X25200Y24475D02*
X25350D01*
X25275Y24400D02*
Y24550D01*
X29735Y9375D02*
X30015D01*
X29875Y9235D02*
Y9515D01*
X4450Y10575D02*
X4600D01*
X4525Y10500D02*
Y10650D01*
X10600Y18025D02*
X10750D01*
X10675Y17950D02*
Y18100D01*
X28435Y6025D02*
X28715D01*
X28575Y5885D02*
Y6165D01*
X22450Y22525D02*
X22600D01*
X22525Y22450D02*
Y22600D01*
X19400Y23575D02*
X19550D01*
X19475Y23500D02*
Y23650D01*
X31450Y33775D02*
X31600D01*
X31525Y33700D02*
Y33850D01*
X74475Y12025D02*
X74875D01*
X74675Y11825D02*
Y12225D01*
X74475Y19525D02*
X74875D01*
X74675Y19325D02*
Y19725D01*
X55535Y14275D02*
X55915D01*
X55725Y14085D02*
Y14465D01*
X54535Y14275D02*
X54915D01*
X54725Y14085D02*
Y14465D01*
X55535Y16775D02*
X55915D01*
X55725Y16585D02*
Y16965D01*
X54535Y16775D02*
X54915D01*
X54725Y16585D02*
Y16965D01*
X56075Y7275D02*
X56375D01*
X56225Y7125D02*
Y7425D01*
X52325Y3525D02*
X52625D01*
X52475Y3375D02*
Y3675D01*
X52035Y27225D02*
X52415D01*
X52225Y27035D02*
Y27415D01*
X51035Y27225D02*
X51415D01*
X51225Y27035D02*
Y27415D01*
X55875Y30025D02*
X57575D01*
X56725Y29175D02*
Y30875D01*
X60935Y25775D02*
X61315D01*
X61125Y25585D02*
Y25965D01*
X60935Y26775D02*
X61315D01*
X61125Y26585D02*
Y26965D01*
X60935Y24775D02*
X61315D01*
X61125Y24585D02*
Y24965D01*
X76285Y4525D02*
X76665D01*
X76475Y4335D02*
Y4715D01*
X77285Y4525D02*
X77665D01*
X77475Y4335D02*
Y4715D01*
X72175Y7525D02*
X72575D01*
X72375Y7325D02*
Y7725D01*
X78175Y7525D02*
X78575D01*
X78375Y7325D02*
Y7725D01*
X72955Y4245D02*
X74555D01*
X73755Y3445D02*
Y5045D01*
X55875Y10025D02*
X57575D01*
X56725Y9175D02*
Y10875D01*
X65035Y33275D02*
X65415D01*
X65225Y33085D02*
Y33465D01*
X66035Y33275D02*
X66415D01*
X66225Y33085D02*
Y33465D01*
X68035Y33275D02*
X68415D01*
X68225Y33085D02*
Y33465D01*
X69035Y33275D02*
X69415D01*
X69225Y33085D02*
Y33465D01*
X65035Y36275D02*
X65415D01*
X65225Y36085D02*
Y36465D01*
X66035Y36275D02*
X66415D01*
X66225Y36085D02*
Y36465D01*
X68035Y36275D02*
X68415D01*
X68225Y36085D02*
Y36465D01*
X69035Y36275D02*
X69415D01*
X69225Y36085D02*
Y36465D01*
X67035Y33275D02*
X67415D01*
X67225Y33085D02*
Y33465D01*
X67035Y36275D02*
X67415D01*
X67225Y36085D02*
Y36465D01*
X69935Y23375D02*
X70315D01*
X70125Y23185D02*
Y23565D01*
X68935Y23375D02*
X69315D01*
X69125Y23185D02*
Y23565D01*
X72955Y35805D02*
X74555D01*
X73755Y35005D02*
Y36605D01*
X59285Y7525D02*
X59665D01*
X59475Y7335D02*
Y7715D01*
X59285Y6525D02*
X59665D01*
X59475Y6335D02*
Y6715D01*
X70535Y4525D02*
X70915D01*
X70725Y4335D02*
Y4715D01*
X69535Y4525D02*
X69915D01*
X69725Y4335D02*
Y4715D01*
X70535Y8025D02*
X70915D01*
X70725Y7835D02*
Y8215D01*
X69535Y8025D02*
X69915D01*
X69725Y7835D02*
Y8215D01*
X49235Y4825D02*
X49615D01*
X49425Y4635D02*
Y5015D01*
X47235Y4825D02*
X47615D01*
X47425Y4635D02*
Y5015D01*
X61625Y33675D02*
X62225D01*
X61925Y33375D02*
Y33975D01*
X59625Y33675D02*
X60225D01*
X59925Y33375D02*
Y33975D01*
X55625Y33675D02*
X56225D01*
X55925Y33375D02*
Y33975D01*
X53625Y33675D02*
X54225D01*
X53925Y33375D02*
Y33975D01*
X49625Y33675D02*
X50225D01*
X49925Y33375D02*
Y33975D01*
X47625Y33675D02*
X48225D01*
X47925Y33375D02*
Y33975D01*
X57625Y33675D02*
X58225D01*
X57925Y33375D02*
Y33975D01*
X51625Y33675D02*
X52225D01*
X51925Y33375D02*
Y33975D01*
X48445Y9225D02*
X49005D01*
X48725Y8945D02*
Y9505D01*
X48445Y11225D02*
X49005D01*
X48725Y10945D02*
Y11505D01*
X48495Y15725D02*
X49055D01*
X48775Y15445D02*
Y16005D01*
X48495Y19725D02*
X49055D01*
X48775Y19445D02*
Y20005D01*
X48495Y21725D02*
X49055D01*
X48775Y21445D02*
Y22005D01*
X48495Y25725D02*
X49055D01*
X48775Y25445D02*
Y26005D01*
X48495Y17725D02*
X49055D01*
X48775Y17445D02*
Y18005D01*
X48495Y23725D02*
X49055D01*
X48775Y23445D02*
Y24005D01*
X80945Y20725D02*
X81505D01*
X81225Y20445D02*
Y21005D01*
X80945Y24725D02*
X81505D01*
X81225Y24445D02*
Y25005D01*
X80945Y26725D02*
X81505D01*
X81225Y26445D02*
Y27005D01*
X80945Y30725D02*
X81505D01*
X81225Y30445D02*
Y31005D01*
X80945Y22725D02*
X81505D01*
X81225Y22445D02*
Y23005D01*
X80945Y28725D02*
X81505D01*
X81225Y28445D02*
Y29005D01*
X80945Y6075D02*
X81505D01*
X81225Y5795D02*
Y6355D01*
X80945Y10075D02*
X81505D01*
X81225Y9795D02*
Y10355D01*
X80945Y12075D02*
X81505D01*
X81225Y11795D02*
Y12355D01*
X80945Y16075D02*
X81505D01*
X81225Y15795D02*
Y16355D01*
X80945Y8075D02*
X81505D01*
X81225Y7795D02*
Y8355D01*
X80945Y14075D02*
X81505D01*
X81225Y13795D02*
Y14355D01*
X75640Y29775D02*
X76310D01*
X75975Y29440D02*
Y30110D01*
X72640Y29775D02*
X73310D01*
X72975Y29440D02*
Y30110D01*
X69640Y29775D02*
X70310D01*
X69975Y29440D02*
Y30110D01*
X66640Y29775D02*
X67310D01*
X66975Y29440D02*
Y30110D01*
X77140Y29775D02*
X77810D01*
X77475Y29440D02*
Y30110D01*
X74140Y29775D02*
X74810D01*
X74475Y29440D02*
Y30110D01*
X71140Y29775D02*
X71810D01*
X71475Y29440D02*
Y30110D01*
X68140Y29775D02*
X68810D01*
X68475Y29440D02*
Y30110D01*
X77925Y24025D02*
X78325D01*
X78125Y23825D02*
Y24225D01*
X71925Y24025D02*
X72325D01*
X72125Y23825D02*
Y24225D01*
X77785Y33175D02*
X78165D01*
X77975Y32985D02*
Y33365D01*
X78785Y33175D02*
X79165D01*
X78975Y32985D02*
Y33365D01*
X80785Y33175D02*
X81165D01*
X80975Y32985D02*
Y33365D01*
X81785Y33175D02*
X82165D01*
X81975Y32985D02*
Y33365D01*
X77785Y36175D02*
X78165D01*
X77975Y35985D02*
Y36365D01*
X78785Y36175D02*
X79165D01*
X78975Y35985D02*
Y36365D01*
X80785Y36175D02*
X81165D01*
X80975Y35985D02*
Y36365D01*
X81785Y36175D02*
X82165D01*
X81975Y35985D02*
Y36365D01*
X79785Y33175D02*
X80165D01*
X79975Y32985D02*
Y33365D01*
X79785Y36175D02*
X80165D01*
X79975Y35985D02*
Y36365D01*
X75485Y19525D02*
X75865D01*
X75675Y19335D02*
Y19715D01*
X72485Y19525D02*
X72865D01*
X72675Y19335D02*
Y19715D01*
X75485Y12025D02*
X75865D01*
X75675Y11835D02*
Y12215D01*
X72485Y12025D02*
X72865D01*
X72675Y11835D02*
Y12215D01*
X63659Y23270D02*
X63809D01*
X63734Y23195D02*
Y23345D01*
X61631Y28804D02*
X61781D01*
X61706Y28729D02*
Y28879D01*
X66900Y15275D02*
X67050D01*
X66975Y15200D02*
Y15350D01*
X46900Y8275D02*
X47050D01*
X46975Y8200D02*
Y8350D01*
X51300Y11125D02*
X51450D01*
X51375Y11050D02*
Y11200D01*
X50950Y15775D02*
X51100D01*
X51025Y15700D02*
Y15850D01*
X53400Y17275D02*
X53550D01*
X53475Y17200D02*
Y17350D01*
X56400Y16025D02*
X56550D01*
X56475Y15950D02*
Y16100D01*
X55900Y19025D02*
X56050D01*
X55975Y18950D02*
Y19100D01*
X55850Y26225D02*
X56000D01*
X55925Y26150D02*
Y26300D01*
X60150Y10375D02*
X60300D01*
X60225Y10300D02*
Y10450D01*
X60400Y14825D02*
X60550D01*
X60475Y14750D02*
Y14900D01*
X60700Y13625D02*
X60850D01*
X60775Y13550D02*
Y13700D01*
X60400Y17475D02*
X60550D01*
X60475Y17400D02*
Y17550D01*
X58700Y20025D02*
X58850D01*
X58775Y19950D02*
Y20100D01*
X59300Y20925D02*
X59450D01*
X59375Y20850D02*
Y21000D01*
X59300Y23125D02*
X59450D01*
X59375Y23050D02*
Y23200D01*
X59300Y22075D02*
X59450D01*
X59375Y22000D02*
Y22150D01*
X60050Y26825D02*
X60200D01*
X60125Y26750D02*
Y26900D01*
X62900Y20275D02*
X63050D01*
X62975Y20200D02*
Y20350D01*
X66150Y4525D02*
X66300D01*
X66225Y4450D02*
Y4600D01*
X66400Y7775D02*
X66550D01*
X66475Y7700D02*
Y7850D01*
X66150Y11025D02*
X66300D01*
X66225Y10950D02*
Y11100D01*
X64400Y14275D02*
X64550D01*
X64475Y14200D02*
Y14350D01*
X65900Y13525D02*
X66050D01*
X65975Y13450D02*
Y13600D01*
X66900Y20475D02*
X67050D01*
X66975Y20400D02*
Y20550D01*
X65200Y20075D02*
X65350D01*
X65275Y20000D02*
Y20150D01*
X64650Y23775D02*
X64800D01*
X64725Y23700D02*
Y23850D01*
X65150Y24275D02*
X65300D01*
X65225Y24200D02*
Y24350D01*
X65650Y31025D02*
X65800D01*
X65725Y30950D02*
Y31100D01*
X68400Y11025D02*
X68550D01*
X68475Y10950D02*
Y11100D01*
X69300Y14275D02*
X69450D01*
X69375Y14200D02*
Y14350D01*
X68725Y34450D02*
X68875D01*
X68800Y34375D02*
Y34525D01*
X68950Y34975D02*
X69100D01*
X69025Y34900D02*
Y35050D01*
X74800Y9975D02*
X74950D01*
X74875Y9900D02*
Y10050D01*
X75400Y26275D02*
X75550D01*
X75475Y26200D02*
Y26350D01*
X74400Y32025D02*
X74550D01*
X74475Y31950D02*
Y32100D01*
X51700Y21425D02*
X51850D01*
X51775Y21350D02*
Y21500D01*
X50744Y12990D02*
X50894D01*
X50819Y12915D02*
Y13065D01*
X52800Y15625D02*
X52950D01*
X52875Y15550D02*
Y15700D01*
X57550Y21425D02*
X57700D01*
X57625Y21350D02*
Y21500D01*
X66900Y24475D02*
X67050D01*
X66975Y24400D02*
Y24550D01*
X71435Y9375D02*
X71715D01*
X71575Y9235D02*
Y9515D01*
X46150Y10575D02*
X46300D01*
X46225Y10500D02*
Y10650D01*
X52300Y18025D02*
X52450D01*
X52375Y17950D02*
Y18100D01*
X70135Y6025D02*
X70415D01*
X70275Y5885D02*
Y6165D01*
X64150Y22525D02*
X64300D01*
X64225Y22450D02*
Y22600D01*
X61100Y23575D02*
X61250D01*
X61175Y23500D02*
Y23650D01*
X73150Y33775D02*
X73300D01*
X73225Y33700D02*
Y33850D01*
X32775Y47225D02*
X33175D01*
X32975Y47025D02*
Y47425D01*
X32775Y54725D02*
X33175D01*
X32975Y54525D02*
Y54925D01*
X13835Y49475D02*
X14215D01*
X14025Y49285D02*
Y49665D01*
X12835Y49475D02*
X13215D01*
X13025Y49285D02*
Y49665D01*
X13835Y51975D02*
X14215D01*
X14025Y51785D02*
Y52165D01*
X12835Y51975D02*
X13215D01*
X13025Y51785D02*
Y52165D01*
X14375Y42475D02*
X14675D01*
X14525Y42325D02*
Y42625D01*
X10625Y38725D02*
X10925D01*
X10775Y38575D02*
Y38875D01*
X10335Y62425D02*
X10715D01*
X10525Y62235D02*
Y62615D01*
X9335Y62425D02*
X9715D01*
X9525Y62235D02*
Y62615D01*
X14175Y65225D02*
X15875D01*
X15025Y64375D02*
Y66075D01*
X19235Y60975D02*
X19615D01*
X19425Y60785D02*
Y61165D01*
X19235Y61975D02*
X19615D01*
X19425Y61785D02*
Y62165D01*
X19235Y59975D02*
X19615D01*
X19425Y59785D02*
Y60165D01*
X34585Y39725D02*
X34965D01*
X34775Y39535D02*
Y39915D01*
X35585Y39725D02*
X35965D01*
X35775Y39535D02*
Y39915D01*
X30475Y42725D02*
X30875D01*
X30675Y42525D02*
Y42925D01*
X36475Y42725D02*
X36875D01*
X36675Y42525D02*
Y42925D01*
X31255Y39445D02*
X32855D01*
X32055Y38645D02*
Y40245D01*
X14175Y45225D02*
X15875D01*
X15025Y44375D02*
Y46075D01*
X23335Y68475D02*
X23715D01*
X23525Y68285D02*
Y68665D01*
X24335Y68475D02*
X24715D01*
X24525Y68285D02*
Y68665D01*
X26335Y68475D02*
X26715D01*
X26525Y68285D02*
Y68665D01*
X27335Y68475D02*
X27715D01*
X27525Y68285D02*
Y68665D01*
X23335Y71475D02*
X23715D01*
X23525Y71285D02*
Y71665D01*
X24335Y71475D02*
X24715D01*
X24525Y71285D02*
Y71665D01*
X26335Y71475D02*
X26715D01*
X26525Y71285D02*
Y71665D01*
X27335Y71475D02*
X27715D01*
X27525Y71285D02*
Y71665D01*
X25335Y68475D02*
X25715D01*
X25525Y68285D02*
Y68665D01*
X25335Y71475D02*
X25715D01*
X25525Y71285D02*
Y71665D01*
X28235Y58575D02*
X28615D01*
X28425Y58385D02*
Y58765D01*
X27235Y58575D02*
X27615D01*
X27425Y58385D02*
Y58765D01*
X31255Y71005D02*
X32855D01*
X32055Y70205D02*
Y71805D01*
X17585Y42725D02*
X17965D01*
X17775Y42535D02*
Y42915D01*
X17585Y41725D02*
X17965D01*
X17775Y41535D02*
Y41915D01*
X28835Y39725D02*
X29215D01*
X29025Y39535D02*
Y39915D01*
X27835Y39725D02*
X28215D01*
X28025Y39535D02*
Y39915D01*
X28835Y43225D02*
X29215D01*
X29025Y43035D02*
Y43415D01*
X27835Y43225D02*
X28215D01*
X28025Y43035D02*
Y43415D01*
X7535Y40025D02*
X7915D01*
X7725Y39835D02*
Y40215D01*
X5535Y40025D02*
X5915D01*
X5725Y39835D02*
Y40215D01*
X19925Y68875D02*
X20525D01*
X20225Y68575D02*
Y69175D01*
X17925Y68875D02*
X18525D01*
X18225Y68575D02*
Y69175D01*
X13925Y68875D02*
X14525D01*
X14225Y68575D02*
Y69175D01*
X11925Y68875D02*
X12525D01*
X12225Y68575D02*
Y69175D01*
X7925Y68875D02*
X8525D01*
X8225Y68575D02*
Y69175D01*
X5925Y68875D02*
X6525D01*
X6225Y68575D02*
Y69175D01*
X15925Y68875D02*
X16525D01*
X16225Y68575D02*
Y69175D01*
X9925Y68875D02*
X10525D01*
X10225Y68575D02*
Y69175D01*
X6745Y44425D02*
X7305D01*
X7025Y44145D02*
Y44705D01*
X6745Y46425D02*
X7305D01*
X7025Y46145D02*
Y46705D01*
X6795Y50925D02*
X7355D01*
X7075Y50645D02*
Y51205D01*
X6795Y54925D02*
X7355D01*
X7075Y54645D02*
Y55205D01*
X6795Y56925D02*
X7355D01*
X7075Y56645D02*
Y57205D01*
X6795Y60925D02*
X7355D01*
X7075Y60645D02*
Y61205D01*
X6795Y52925D02*
X7355D01*
X7075Y52645D02*
Y53205D01*
X6795Y58925D02*
X7355D01*
X7075Y58645D02*
Y59205D01*
X39245Y55925D02*
X39805D01*
X39525Y55645D02*
Y56205D01*
X39245Y59925D02*
X39805D01*
X39525Y59645D02*
Y60205D01*
X39245Y61925D02*
X39805D01*
X39525Y61645D02*
Y62205D01*
X39245Y65925D02*
X39805D01*
X39525Y65645D02*
Y66205D01*
X39245Y57925D02*
X39805D01*
X39525Y57645D02*
Y58205D01*
X39245Y63925D02*
X39805D01*
X39525Y63645D02*
Y64205D01*
X39245Y41275D02*
X39805D01*
X39525Y40995D02*
Y41555D01*
X39245Y45275D02*
X39805D01*
X39525Y44995D02*
Y45555D01*
X39245Y47275D02*
X39805D01*
X39525Y46995D02*
Y47555D01*
X39245Y51275D02*
X39805D01*
X39525Y50995D02*
Y51555D01*
X39245Y43275D02*
X39805D01*
X39525Y42995D02*
Y43555D01*
X39245Y49275D02*
X39805D01*
X39525Y48995D02*
Y49555D01*
X33940Y64975D02*
X34610D01*
X34275Y64640D02*
Y65310D01*
X30940Y64975D02*
X31610D01*
X31275Y64640D02*
Y65310D01*
X27940Y64975D02*
X28610D01*
X28275Y64640D02*
Y65310D01*
X24940Y64975D02*
X25610D01*
X25275Y64640D02*
Y65310D01*
X35440Y64975D02*
X36110D01*
X35775Y64640D02*
Y65310D01*
X32440Y64975D02*
X33110D01*
X32775Y64640D02*
Y65310D01*
X29440Y64975D02*
X30110D01*
X29775Y64640D02*
Y65310D01*
X26440Y64975D02*
X27110D01*
X26775Y64640D02*
Y65310D01*
X36225Y59225D02*
X36625D01*
X36425Y59025D02*
Y59425D01*
X30225Y59225D02*
X30625D01*
X30425Y59025D02*
Y59425D01*
X36085Y68375D02*
X36465D01*
X36275Y68185D02*
Y68565D01*
X37085Y68375D02*
X37465D01*
X37275Y68185D02*
Y68565D01*
X39085Y68375D02*
X39465D01*
X39275Y68185D02*
Y68565D01*
X40085Y68375D02*
X40465D01*
X40275Y68185D02*
Y68565D01*
X36085Y71375D02*
X36465D01*
X36275Y71185D02*
Y71565D01*
X37085Y71375D02*
X37465D01*
X37275Y71185D02*
Y71565D01*
X39085Y71375D02*
X39465D01*
X39275Y71185D02*
Y71565D01*
X40085Y71375D02*
X40465D01*
X40275Y71185D02*
Y71565D01*
X38085Y68375D02*
X38465D01*
X38275Y68185D02*
Y68565D01*
X38085Y71375D02*
X38465D01*
X38275Y71185D02*
Y71565D01*
X33785Y54725D02*
X34165D01*
X33975Y54535D02*
Y54915D01*
X30785Y54725D02*
X31165D01*
X30975Y54535D02*
Y54915D01*
X33785Y47225D02*
X34165D01*
X33975Y47035D02*
Y47415D01*
X30785Y47225D02*
X31165D01*
X30975Y47035D02*
Y47415D01*
X21959Y58470D02*
X22109D01*
X22034Y58395D02*
Y58545D01*
X19931Y64004D02*
X20081D01*
X20006Y63929D02*
Y64079D01*
X25200Y50475D02*
X25350D01*
X25275Y50400D02*
Y50550D01*
X5200Y43475D02*
X5350D01*
X5275Y43400D02*
Y43550D01*
X9600Y46325D02*
X9750D01*
X9675Y46250D02*
Y46400D01*
X9250Y50975D02*
X9400D01*
X9325Y50900D02*
Y51050D01*
X11700Y52475D02*
X11850D01*
X11775Y52400D02*
Y52550D01*
X14700Y51225D02*
X14850D01*
X14775Y51150D02*
Y51300D01*
X14200Y54225D02*
X14350D01*
X14275Y54150D02*
Y54300D01*
X14150Y61425D02*
X14300D01*
X14225Y61350D02*
Y61500D01*
X18450Y45575D02*
X18600D01*
X18525Y45500D02*
Y45650D01*
X18700Y50025D02*
X18850D01*
X18775Y49950D02*
Y50100D01*
X19000Y48825D02*
X19150D01*
X19075Y48750D02*
Y48900D01*
X18700Y52675D02*
X18850D01*
X18775Y52600D02*
Y52750D01*
X17000Y55225D02*
X17150D01*
X17075Y55150D02*
Y55300D01*
X17600Y56125D02*
X17750D01*
X17675Y56050D02*
Y56200D01*
X17600Y58325D02*
X17750D01*
X17675Y58250D02*
Y58400D01*
X17600Y57275D02*
X17750D01*
X17675Y57200D02*
Y57350D01*
X18350Y62025D02*
X18500D01*
X18425Y61950D02*
Y62100D01*
X21200Y55475D02*
X21350D01*
X21275Y55400D02*
Y55550D01*
X24450Y39725D02*
X24600D01*
X24525Y39650D02*
Y39800D01*
X24700Y42975D02*
X24850D01*
X24775Y42900D02*
Y43050D01*
X24450Y46225D02*
X24600D01*
X24525Y46150D02*
Y46300D01*
X22700Y49475D02*
X22850D01*
X22775Y49400D02*
Y49550D01*
X24200Y48725D02*
X24350D01*
X24275Y48650D02*
Y48800D01*
X25200Y55675D02*
X25350D01*
X25275Y55600D02*
Y55750D01*
X23500Y55275D02*
X23650D01*
X23575Y55200D02*
Y55350D01*
X22950Y58975D02*
X23100D01*
X23025Y58900D02*
Y59050D01*
X23450Y59475D02*
X23600D01*
X23525Y59400D02*
Y59550D01*
X23950Y66225D02*
X24100D01*
X24025Y66150D02*
Y66300D01*
X26700Y46225D02*
X26850D01*
X26775Y46150D02*
Y46300D01*
X27600Y49475D02*
X27750D01*
X27675Y49400D02*
Y49550D01*
X27025Y69650D02*
X27175D01*
X27100Y69575D02*
Y69725D01*
X27250Y70175D02*
X27400D01*
X27325Y70100D02*
Y70250D01*
X33100Y45175D02*
X33250D01*
X33175Y45100D02*
Y45250D01*
X33700Y61475D02*
X33850D01*
X33775Y61400D02*
Y61550D01*
X32700Y67225D02*
X32850D01*
X32775Y67150D02*
Y67300D01*
X10000Y56625D02*
X10150D01*
X10075Y56550D02*
Y56700D01*
X9044Y48190D02*
X9194D01*
X9119Y48115D02*
Y48265D01*
X11100Y50825D02*
X11250D01*
X11175Y50750D02*
Y50900D01*
X15850Y56625D02*
X16000D01*
X15925Y56550D02*
Y56700D01*
X25200Y59675D02*
X25350D01*
X25275Y59600D02*
Y59750D01*
X29735Y44575D02*
X30015D01*
X29875Y44435D02*
Y44715D01*
X4450Y45775D02*
X4600D01*
X4525Y45700D02*
Y45850D01*
X10600Y53225D02*
X10750D01*
X10675Y53150D02*
Y53300D01*
X28435Y41225D02*
X28715D01*
X28575Y41085D02*
Y41365D01*
X22450Y57725D02*
X22600D01*
X22525Y57650D02*
Y57800D01*
X19400Y58775D02*
X19550D01*
X19475Y58700D02*
Y58850D01*
X31450Y68975D02*
X31600D01*
X31525Y68900D02*
Y69050D01*
X74475Y47225D02*
X74875D01*
X74675Y47025D02*
Y47425D01*
X74475Y54725D02*
X74875D01*
X74675Y54525D02*
Y54925D01*
X55535Y49475D02*
X55915D01*
X55725Y49285D02*
Y49665D01*
X54535Y49475D02*
X54915D01*
X54725Y49285D02*
Y49665D01*
X55535Y51975D02*
X55915D01*
X55725Y51785D02*
Y52165D01*
X54535Y51975D02*
X54915D01*
X54725Y51785D02*
Y52165D01*
X56075Y42475D02*
X56375D01*
X56225Y42325D02*
Y42625D01*
X52325Y38725D02*
X52625D01*
X52475Y38575D02*
Y38875D01*
X52035Y62425D02*
X52415D01*
X52225Y62235D02*
Y62615D01*
X51035Y62425D02*
X51415D01*
X51225Y62235D02*
Y62615D01*
X55875Y65225D02*
X57575D01*
X56725Y64375D02*
Y66075D01*
X60935Y60975D02*
X61315D01*
X61125Y60785D02*
Y61165D01*
X60935Y61975D02*
X61315D01*
X61125Y61785D02*
Y62165D01*
X60935Y59975D02*
X61315D01*
X61125Y59785D02*
Y60165D01*
X76285Y39725D02*
X76665D01*
X76475Y39535D02*
Y39915D01*
X77285Y39725D02*
X77665D01*
X77475Y39535D02*
Y39915D01*
X72175Y42725D02*
X72575D01*
X72375Y42525D02*
Y42925D01*
X78175Y42725D02*
X78575D01*
X78375Y42525D02*
Y42925D01*
X72955Y39445D02*
X74555D01*
X73755Y38645D02*
Y40245D01*
X55875Y45225D02*
X57575D01*
X56725Y44375D02*
Y46075D01*
X65035Y68475D02*
X65415D01*
X65225Y68285D02*
Y68665D01*
X66035Y68475D02*
X66415D01*
X66225Y68285D02*
Y68665D01*
X68035Y68475D02*
X68415D01*
X68225Y68285D02*
Y68665D01*
X69035Y68475D02*
X69415D01*
X69225Y68285D02*
Y68665D01*
X65035Y71475D02*
X65415D01*
X65225Y71285D02*
Y71665D01*
X66035Y71475D02*
X66415D01*
X66225Y71285D02*
Y71665D01*
X68035Y71475D02*
X68415D01*
X68225Y71285D02*
Y71665D01*
X69035Y71475D02*
X69415D01*
X69225Y71285D02*
Y71665D01*
X67035Y68475D02*
X67415D01*
X67225Y68285D02*
Y68665D01*
X67035Y71475D02*
X67415D01*
X67225Y71285D02*
Y71665D01*
X69935Y58575D02*
X70315D01*
X70125Y58385D02*
Y58765D01*
X68935Y58575D02*
X69315D01*
X69125Y58385D02*
Y58765D01*
X72955Y71005D02*
X74555D01*
X73755Y70205D02*
Y71805D01*
X59285Y42725D02*
X59665D01*
X59475Y42535D02*
Y42915D01*
X59285Y41725D02*
X59665D01*
X59475Y41535D02*
Y41915D01*
X70535Y39725D02*
X70915D01*
X70725Y39535D02*
Y39915D01*
X69535Y39725D02*
X69915D01*
X69725Y39535D02*
Y39915D01*
X70535Y43225D02*
X70915D01*
X70725Y43035D02*
Y43415D01*
X69535Y43225D02*
X69915D01*
X69725Y43035D02*
Y43415D01*
X49235Y40025D02*
X49615D01*
X49425Y39835D02*
Y40215D01*
X47235Y40025D02*
X47615D01*
X47425Y39835D02*
Y40215D01*
X61625Y68875D02*
X62225D01*
X61925Y68575D02*
Y69175D01*
X59625Y68875D02*
X60225D01*
X59925Y68575D02*
Y69175D01*
X55625Y68875D02*
X56225D01*
X55925Y68575D02*
Y69175D01*
X53625Y68875D02*
X54225D01*
X53925Y68575D02*
Y69175D01*
X49625Y68875D02*
X50225D01*
X49925Y68575D02*
Y69175D01*
X47625Y68875D02*
X48225D01*
X47925Y68575D02*
Y69175D01*
X57625Y68875D02*
X58225D01*
X57925Y68575D02*
Y69175D01*
X51625Y68875D02*
X52225D01*
X51925Y68575D02*
Y69175D01*
X48445Y44425D02*
X49005D01*
X48725Y44145D02*
Y44705D01*
X48445Y46425D02*
X49005D01*
X48725Y46145D02*
Y46705D01*
X48495Y50925D02*
X49055D01*
X48775Y50645D02*
Y51205D01*
X48495Y54925D02*
X49055D01*
X48775Y54645D02*
Y55205D01*
X48495Y56925D02*
X49055D01*
X48775Y56645D02*
Y57205D01*
X48495Y60925D02*
X49055D01*
X48775Y60645D02*
Y61205D01*
X48495Y52925D02*
X49055D01*
X48775Y52645D02*
Y53205D01*
X48495Y58925D02*
X49055D01*
X48775Y58645D02*
Y59205D01*
X80945Y55925D02*
X81505D01*
X81225Y55645D02*
Y56205D01*
X80945Y59925D02*
X81505D01*
X81225Y59645D02*
Y60205D01*
X80945Y61925D02*
X81505D01*
X81225Y61645D02*
Y62205D01*
X80945Y65925D02*
X81505D01*
X81225Y65645D02*
Y66205D01*
X80945Y57925D02*
X81505D01*
X81225Y57645D02*
Y58205D01*
X80945Y63925D02*
X81505D01*
X81225Y63645D02*
Y64205D01*
X80945Y41275D02*
X81505D01*
X81225Y40995D02*
Y41555D01*
X80945Y45275D02*
X81505D01*
X81225Y44995D02*
Y45555D01*
X80945Y47275D02*
X81505D01*
X81225Y46995D02*
Y47555D01*
X80945Y51275D02*
X81505D01*
X81225Y50995D02*
Y51555D01*
X80945Y43275D02*
X81505D01*
X81225Y42995D02*
Y43555D01*
X80945Y49275D02*
X81505D01*
X81225Y48995D02*
Y49555D01*
X75640Y64975D02*
X76310D01*
X75975Y64640D02*
Y65310D01*
X72640Y64975D02*
X73310D01*
X72975Y64640D02*
Y65310D01*
X69640Y64975D02*
X70310D01*
X69975Y64640D02*
Y65310D01*
X66640Y64975D02*
X67310D01*
X66975Y64640D02*
Y65310D01*
X77140Y64975D02*
X77810D01*
X77475Y64640D02*
Y65310D01*
X74140Y64975D02*
X74810D01*
X74475Y64640D02*
Y65310D01*
X71140Y64975D02*
X71810D01*
X71475Y64640D02*
Y65310D01*
X68140Y64975D02*
X68810D01*
X68475Y64640D02*
Y65310D01*
X77925Y59225D02*
X78325D01*
X78125Y59025D02*
Y59425D01*
X71925Y59225D02*
X72325D01*
X72125Y59025D02*
Y59425D01*
X77785Y68375D02*
X78165D01*
X77975Y68185D02*
Y68565D01*
X78785Y68375D02*
X79165D01*
X78975Y68185D02*
Y68565D01*
X80785Y68375D02*
X81165D01*
X80975Y68185D02*
Y68565D01*
X81785Y68375D02*
X82165D01*
X81975Y68185D02*
Y68565D01*
X77785Y71375D02*
X78165D01*
X77975Y71185D02*
Y71565D01*
X78785Y71375D02*
X79165D01*
X78975Y71185D02*
Y71565D01*
X80785Y71375D02*
X81165D01*
X80975Y71185D02*
Y71565D01*
X81785Y71375D02*
X82165D01*
X81975Y71185D02*
Y71565D01*
X79785Y68375D02*
X80165D01*
X79975Y68185D02*
Y68565D01*
X79785Y71375D02*
X80165D01*
X79975Y71185D02*
Y71565D01*
X75485Y54725D02*
X75865D01*
X75675Y54535D02*
Y54915D01*
X72485Y54725D02*
X72865D01*
X72675Y54535D02*
Y54915D01*
X75485Y47225D02*
X75865D01*
X75675Y47035D02*
Y47415D01*
X72485Y47225D02*
X72865D01*
X72675Y47035D02*
Y47415D01*
X63659Y58470D02*
X63809D01*
X63734Y58395D02*
Y58545D01*
X61631Y64004D02*
X61781D01*
X61706Y63929D02*
Y64079D01*
X66900Y50475D02*
X67050D01*
X66975Y50400D02*
Y50550D01*
X46900Y43475D02*
X47050D01*
X46975Y43400D02*
Y43550D01*
X51300Y46325D02*
X51450D01*
X51375Y46250D02*
Y46400D01*
X50950Y50975D02*
X51100D01*
X51025Y50900D02*
Y51050D01*
X53400Y52475D02*
X53550D01*
X53475Y52400D02*
Y52550D01*
X56400Y51225D02*
X56550D01*
X56475Y51150D02*
Y51300D01*
X55900Y54225D02*
X56050D01*
X55975Y54150D02*
Y54300D01*
X55850Y61425D02*
X56000D01*
X55925Y61350D02*
Y61500D01*
X60150Y45575D02*
X60300D01*
X60225Y45500D02*
Y45650D01*
X60400Y50025D02*
X60550D01*
X60475Y49950D02*
Y50100D01*
X60700Y48825D02*
X60850D01*
X60775Y48750D02*
Y48900D01*
X60400Y52675D02*
X60550D01*
X60475Y52600D02*
Y52750D01*
X58700Y55225D02*
X58850D01*
X58775Y55150D02*
Y55300D01*
X59300Y56125D02*
X59450D01*
X59375Y56050D02*
Y56200D01*
X59300Y58325D02*
X59450D01*
X59375Y58250D02*
Y58400D01*
X59300Y57275D02*
X59450D01*
X59375Y57200D02*
Y57350D01*
X60050Y62025D02*
X60200D01*
X60125Y61950D02*
Y62100D01*
X62900Y55475D02*
X63050D01*
X62975Y55400D02*
Y55550D01*
X66150Y39725D02*
X66300D01*
X66225Y39650D02*
Y39800D01*
X66400Y42975D02*
X66550D01*
X66475Y42900D02*
Y43050D01*
X66150Y46225D02*
X66300D01*
X66225Y46150D02*
Y46300D01*
X64400Y49475D02*
X64550D01*
X64475Y49400D02*
Y49550D01*
X65900Y48725D02*
X66050D01*
X65975Y48650D02*
Y48800D01*
X66900Y55675D02*
X67050D01*
X66975Y55600D02*
Y55750D01*
X65200Y55275D02*
X65350D01*
X65275Y55200D02*
Y55350D01*
X64650Y58975D02*
X64800D01*
X64725Y58900D02*
Y59050D01*
X65150Y59475D02*
X65300D01*
X65225Y59400D02*
Y59550D01*
X65650Y66225D02*
X65800D01*
X65725Y66150D02*
Y66300D01*
X68400Y46225D02*
X68550D01*
X68475Y46150D02*
Y46300D01*
X69300Y49475D02*
X69450D01*
X69375Y49400D02*
Y49550D01*
X68725Y69650D02*
X68875D01*
X68800Y69575D02*
Y69725D01*
X68950Y70175D02*
X69100D01*
X69025Y70100D02*
Y70250D01*
X74800Y45175D02*
X74950D01*
X74875Y45100D02*
Y45250D01*
X75400Y61475D02*
X75550D01*
X75475Y61400D02*
Y61550D01*
X74400Y67225D02*
X74550D01*
X74475Y67150D02*
Y67300D01*
X51700Y56625D02*
X51850D01*
X51775Y56550D02*
Y56700D01*
X50744Y48190D02*
X50894D01*
X50819Y48115D02*
Y48265D01*
X52800Y50825D02*
X52950D01*
X52875Y50750D02*
Y50900D01*
X57550Y56625D02*
X57700D01*
X57625Y56550D02*
Y56700D01*
X66900Y59675D02*
X67050D01*
X66975Y59600D02*
Y59750D01*
X71435Y44575D02*
X71715D01*
X71575Y44435D02*
Y44715D01*
X46150Y45775D02*
X46300D01*
X46225Y45700D02*
Y45850D01*
X52300Y53225D02*
X52450D01*
X52375Y53150D02*
Y53300D01*
X70135Y41225D02*
X70415D01*
X70275Y41085D02*
Y41365D01*
X64150Y57725D02*
X64300D01*
X64225Y57650D02*
Y57800D01*
X61100Y58775D02*
X61250D01*
X61175Y58700D02*
Y58850D01*
X73150Y68975D02*
X73300D01*
X73225Y68900D02*
Y69050D01*
X32775Y82425D02*
X33175D01*
X32975Y82225D02*
Y82625D01*
X32775Y89925D02*
X33175D01*
X32975Y89725D02*
Y90125D01*
X13835Y84675D02*
X14215D01*
X14025Y84485D02*
Y84865D01*
X12835Y84675D02*
X13215D01*
X13025Y84485D02*
Y84865D01*
X13835Y87175D02*
X14215D01*
X14025Y86985D02*
Y87365D01*
X12835Y87175D02*
X13215D01*
X13025Y86985D02*
Y87365D01*
X14375Y77675D02*
X14675D01*
X14525Y77525D02*
Y77825D01*
X10625Y73925D02*
X10925D01*
X10775Y73775D02*
Y74075D01*
X10335Y97625D02*
X10715D01*
X10525Y97435D02*
Y97815D01*
X9335Y97625D02*
X9715D01*
X9525Y97435D02*
Y97815D01*
X14175Y100425D02*
X15875D01*
X15025Y99575D02*
Y101275D01*
X19235Y96175D02*
X19615D01*
X19425Y95985D02*
Y96365D01*
X19235Y97175D02*
X19615D01*
X19425Y96985D02*
Y97365D01*
X19235Y95175D02*
X19615D01*
X19425Y94985D02*
Y95365D01*
X34585Y74925D02*
X34965D01*
X34775Y74735D02*
Y75115D01*
X35585Y74925D02*
X35965D01*
X35775Y74735D02*
Y75115D01*
X30475Y77925D02*
X30875D01*
X30675Y77725D02*
Y78125D01*
X36475Y77925D02*
X36875D01*
X36675Y77725D02*
Y78125D01*
X31255Y74645D02*
X32855D01*
X32055Y73845D02*
Y75445D01*
X14175Y80425D02*
X15875D01*
X15025Y79575D02*
Y81275D01*
X23335Y103675D02*
X23715D01*
X23525Y103485D02*
Y103865D01*
X24335Y103675D02*
X24715D01*
X24525Y103485D02*
Y103865D01*
X26335Y103675D02*
X26715D01*
X26525Y103485D02*
Y103865D01*
X27335Y103675D02*
X27715D01*
X27525Y103485D02*
Y103865D01*
X23335Y106675D02*
X23715D01*
X23525Y106485D02*
Y106865D01*
X24335Y106675D02*
X24715D01*
X24525Y106485D02*
Y106865D01*
X26335Y106675D02*
X26715D01*
X26525Y106485D02*
Y106865D01*
X27335Y106675D02*
X27715D01*
X27525Y106485D02*
Y106865D01*
X25335Y103675D02*
X25715D01*
X25525Y103485D02*
Y103865D01*
X25335Y106675D02*
X25715D01*
X25525Y106485D02*
Y106865D01*
X28235Y93775D02*
X28615D01*
X28425Y93585D02*
Y93965D01*
X27235Y93775D02*
X27615D01*
X27425Y93585D02*
Y93965D01*
X31255Y106205D02*
X32855D01*
X32055Y105405D02*
Y107005D01*
X17585Y77925D02*
X17965D01*
X17775Y77735D02*
Y78115D01*
X17585Y76925D02*
X17965D01*
X17775Y76735D02*
Y77115D01*
X28835Y74925D02*
X29215D01*
X29025Y74735D02*
Y75115D01*
X27835Y74925D02*
X28215D01*
X28025Y74735D02*
Y75115D01*
X28835Y78425D02*
X29215D01*
X29025Y78235D02*
Y78615D01*
X27835Y78425D02*
X28215D01*
X28025Y78235D02*
Y78615D01*
X7535Y75225D02*
X7915D01*
X7725Y75035D02*
Y75415D01*
X5535Y75225D02*
X5915D01*
X5725Y75035D02*
Y75415D01*
X19925Y104075D02*
X20525D01*
X20225Y103775D02*
Y104375D01*
X17925Y104075D02*
X18525D01*
X18225Y103775D02*
Y104375D01*
X13925Y104075D02*
X14525D01*
X14225Y103775D02*
Y104375D01*
X11925Y104075D02*
X12525D01*
X12225Y103775D02*
Y104375D01*
X7925Y104075D02*
X8525D01*
X8225Y103775D02*
Y104375D01*
X5925Y104075D02*
X6525D01*
X6225Y103775D02*
Y104375D01*
X15925Y104075D02*
X16525D01*
X16225Y103775D02*
Y104375D01*
X9925Y104075D02*
X10525D01*
X10225Y103775D02*
Y104375D01*
X6745Y79625D02*
X7305D01*
X7025Y79345D02*
Y79905D01*
X6745Y81625D02*
X7305D01*
X7025Y81345D02*
Y81905D01*
X6795Y86125D02*
X7355D01*
X7075Y85845D02*
Y86405D01*
X6795Y90125D02*
X7355D01*
X7075Y89845D02*
Y90405D01*
X6795Y92125D02*
X7355D01*
X7075Y91845D02*
Y92405D01*
X6795Y96125D02*
X7355D01*
X7075Y95845D02*
Y96405D01*
X6795Y88125D02*
X7355D01*
X7075Y87845D02*
Y88405D01*
X6795Y94125D02*
X7355D01*
X7075Y93845D02*
Y94405D01*
X39245Y91125D02*
X39805D01*
X39525Y90845D02*
Y91405D01*
X39245Y95125D02*
X39805D01*
X39525Y94845D02*
Y95405D01*
X39245Y97125D02*
X39805D01*
X39525Y96845D02*
Y97405D01*
X39245Y101125D02*
X39805D01*
X39525Y100845D02*
Y101405D01*
X39245Y93125D02*
X39805D01*
X39525Y92845D02*
Y93405D01*
X39245Y99125D02*
X39805D01*
X39525Y98845D02*
Y99405D01*
X39245Y76475D02*
X39805D01*
X39525Y76195D02*
Y76755D01*
X39245Y80475D02*
X39805D01*
X39525Y80195D02*
Y80755D01*
X39245Y82475D02*
X39805D01*
X39525Y82195D02*
Y82755D01*
X39245Y86475D02*
X39805D01*
X39525Y86195D02*
Y86755D01*
X39245Y78475D02*
X39805D01*
X39525Y78195D02*
Y78755D01*
X39245Y84475D02*
X39805D01*
X39525Y84195D02*
Y84755D01*
X33940Y100175D02*
X34610D01*
X34275Y99840D02*
Y100510D01*
X30940Y100175D02*
X31610D01*
X31275Y99840D02*
Y100510D01*
X27940Y100175D02*
X28610D01*
X28275Y99840D02*
Y100510D01*
X24940Y100175D02*
X25610D01*
X25275Y99840D02*
Y100510D01*
X35440Y100175D02*
X36110D01*
X35775Y99840D02*
Y100510D01*
X32440Y100175D02*
X33110D01*
X32775Y99840D02*
Y100510D01*
X29440Y100175D02*
X30110D01*
X29775Y99840D02*
Y100510D01*
X26440Y100175D02*
X27110D01*
X26775Y99840D02*
Y100510D01*
X36225Y94425D02*
X36625D01*
X36425Y94225D02*
Y94625D01*
X30225Y94425D02*
X30625D01*
X30425Y94225D02*
Y94625D01*
X36085Y103575D02*
X36465D01*
X36275Y103385D02*
Y103765D01*
X37085Y103575D02*
X37465D01*
X37275Y103385D02*
Y103765D01*
X39085Y103575D02*
X39465D01*
X39275Y103385D02*
Y103765D01*
X40085Y103575D02*
X40465D01*
X40275Y103385D02*
Y103765D01*
X36085Y106575D02*
X36465D01*
X36275Y106385D02*
Y106765D01*
X37085Y106575D02*
X37465D01*
X37275Y106385D02*
Y106765D01*
X39085Y106575D02*
X39465D01*
X39275Y106385D02*
Y106765D01*
X40085Y106575D02*
X40465D01*
X40275Y106385D02*
Y106765D01*
X38085Y103575D02*
X38465D01*
X38275Y103385D02*
Y103765D01*
X38085Y106575D02*
X38465D01*
X38275Y106385D02*
Y106765D01*
X33785Y89925D02*
X34165D01*
X33975Y89735D02*
Y90115D01*
X30785Y89925D02*
X31165D01*
X30975Y89735D02*
Y90115D01*
X33785Y82425D02*
X34165D01*
X33975Y82235D02*
Y82615D01*
X30785Y82425D02*
X31165D01*
X30975Y82235D02*
Y82615D01*
X21959Y93670D02*
X22109D01*
X22034Y93595D02*
Y93745D01*
X19931Y99204D02*
X20081D01*
X20006Y99129D02*
Y99279D01*
X25200Y85675D02*
X25350D01*
X25275Y85600D02*
Y85750D01*
X5200Y78675D02*
X5350D01*
X5275Y78600D02*
Y78750D01*
X9600Y81525D02*
X9750D01*
X9675Y81450D02*
Y81600D01*
X9250Y86175D02*
X9400D01*
X9325Y86100D02*
Y86250D01*
X11700Y87675D02*
X11850D01*
X11775Y87600D02*
Y87750D01*
X14700Y86425D02*
X14850D01*
X14775Y86350D02*
Y86500D01*
X14200Y89425D02*
X14350D01*
X14275Y89350D02*
Y89500D01*
X14150Y96625D02*
X14300D01*
X14225Y96550D02*
Y96700D01*
X18450Y80775D02*
X18600D01*
X18525Y80700D02*
Y80850D01*
X18700Y85225D02*
X18850D01*
X18775Y85150D02*
Y85300D01*
X19000Y84025D02*
X19150D01*
X19075Y83950D02*
Y84100D01*
X18700Y87875D02*
X18850D01*
X18775Y87800D02*
Y87950D01*
X17000Y90425D02*
X17150D01*
X17075Y90350D02*
Y90500D01*
X17600Y91325D02*
X17750D01*
X17675Y91250D02*
Y91400D01*
X17600Y93525D02*
X17750D01*
X17675Y93450D02*
Y93600D01*
X17600Y92475D02*
X17750D01*
X17675Y92400D02*
Y92550D01*
X18350Y97225D02*
X18500D01*
X18425Y97150D02*
Y97300D01*
X21200Y90675D02*
X21350D01*
X21275Y90600D02*
Y90750D01*
X24450Y74925D02*
X24600D01*
X24525Y74850D02*
Y75000D01*
X24700Y78175D02*
X24850D01*
X24775Y78100D02*
Y78250D01*
X24450Y81425D02*
X24600D01*
X24525Y81350D02*
Y81500D01*
X22700Y84675D02*
X22850D01*
X22775Y84600D02*
Y84750D01*
X24200Y83925D02*
X24350D01*
X24275Y83850D02*
Y84000D01*
X25200Y90875D02*
X25350D01*
X25275Y90800D02*
Y90950D01*
X23500Y90475D02*
X23650D01*
X23575Y90400D02*
Y90550D01*
X22950Y94175D02*
X23100D01*
X23025Y94100D02*
Y94250D01*
X23450Y94675D02*
X23600D01*
X23525Y94600D02*
Y94750D01*
X23950Y101425D02*
X24100D01*
X24025Y101350D02*
Y101500D01*
X26700Y81425D02*
X26850D01*
X26775Y81350D02*
Y81500D01*
X27600Y84675D02*
X27750D01*
X27675Y84600D02*
Y84750D01*
X27025Y104850D02*
X27175D01*
X27100Y104775D02*
Y104925D01*
X27250Y105375D02*
X27400D01*
X27325Y105300D02*
Y105450D01*
X33100Y80375D02*
X33250D01*
X33175Y80300D02*
Y80450D01*
X33700Y96675D02*
X33850D01*
X33775Y96600D02*
Y96750D01*
X32700Y102425D02*
X32850D01*
X32775Y102350D02*
Y102500D01*
X10000Y91825D02*
X10150D01*
X10075Y91750D02*
Y91900D01*
X9044Y83390D02*
X9194D01*
X9119Y83315D02*
Y83465D01*
X11100Y86025D02*
X11250D01*
X11175Y85950D02*
Y86100D01*
X15850Y91825D02*
X16000D01*
X15925Y91750D02*
Y91900D01*
X25200Y94875D02*
X25350D01*
X25275Y94800D02*
Y94950D01*
X29735Y79775D02*
X30015D01*
X29875Y79635D02*
Y79915D01*
X4450Y80975D02*
X4600D01*
X4525Y80900D02*
Y81050D01*
X10600Y88425D02*
X10750D01*
X10675Y88350D02*
Y88500D01*
X28435Y76425D02*
X28715D01*
X28575Y76285D02*
Y76565D01*
X22450Y92925D02*
X22600D01*
X22525Y92850D02*
Y93000D01*
X19400Y93975D02*
X19550D01*
X19475Y93900D02*
Y94050D01*
X31450Y104175D02*
X31600D01*
X31525Y104100D02*
Y104250D01*
X74475Y82425D02*
X74875D01*
X74675Y82225D02*
Y82625D01*
X74475Y89925D02*
X74875D01*
X74675Y89725D02*
Y90125D01*
X55535Y84675D02*
X55915D01*
X55725Y84485D02*
Y84865D01*
X54535Y84675D02*
X54915D01*
X54725Y84485D02*
Y84865D01*
X55535Y87175D02*
X55915D01*
X55725Y86985D02*
Y87365D01*
X54535Y87175D02*
X54915D01*
X54725Y86985D02*
Y87365D01*
X56075Y77675D02*
X56375D01*
X56225Y77525D02*
Y77825D01*
X52325Y73925D02*
X52625D01*
X52475Y73775D02*
Y74075D01*
X52035Y97625D02*
X52415D01*
X52225Y97435D02*
Y97815D01*
X51035Y97625D02*
X51415D01*
X51225Y97435D02*
Y97815D01*
X55875Y100425D02*
X57575D01*
X56725Y99575D02*
Y101275D01*
X60935Y96175D02*
X61315D01*
X61125Y95985D02*
Y96365D01*
X60935Y97175D02*
X61315D01*
X61125Y96985D02*
Y97365D01*
X60935Y95175D02*
X61315D01*
X61125Y94985D02*
Y95365D01*
X76285Y74925D02*
X76665D01*
X76475Y74735D02*
Y75115D01*
X77285Y74925D02*
X77665D01*
X77475Y74735D02*
Y75115D01*
X72175Y77925D02*
X72575D01*
X72375Y77725D02*
Y78125D01*
X78175Y77925D02*
X78575D01*
X78375Y77725D02*
Y78125D01*
X72955Y74645D02*
X74555D01*
X73755Y73845D02*
Y75445D01*
X55875Y80425D02*
X57575D01*
X56725Y79575D02*
Y81275D01*
X65035Y103675D02*
X65415D01*
X65225Y103485D02*
Y103865D01*
X66035Y103675D02*
X66415D01*
X66225Y103485D02*
Y103865D01*
X68035Y103675D02*
X68415D01*
X68225Y103485D02*
Y103865D01*
X69035Y103675D02*
X69415D01*
X69225Y103485D02*
Y103865D01*
X65035Y106675D02*
X65415D01*
X65225Y106485D02*
Y106865D01*
X66035Y106675D02*
X66415D01*
X66225Y106485D02*
Y106865D01*
X68035Y106675D02*
X68415D01*
X68225Y106485D02*
Y106865D01*
X69035Y106675D02*
X69415D01*
X69225Y106485D02*
Y106865D01*
X67035Y103675D02*
X67415D01*
X67225Y103485D02*
Y103865D01*
X67035Y106675D02*
X67415D01*
X67225Y106485D02*
Y106865D01*
X69935Y93775D02*
X70315D01*
X70125Y93585D02*
Y93965D01*
X68935Y93775D02*
X69315D01*
X69125Y93585D02*
Y93965D01*
X72955Y106205D02*
X74555D01*
X73755Y105405D02*
Y107005D01*
X59285Y77925D02*
X59665D01*
X59475Y77735D02*
Y78115D01*
X59285Y76925D02*
X59665D01*
X59475Y76735D02*
Y77115D01*
X70535Y74925D02*
X70915D01*
X70725Y74735D02*
Y75115D01*
X69535Y74925D02*
X69915D01*
X69725Y74735D02*
Y75115D01*
X70535Y78425D02*
X70915D01*
X70725Y78235D02*
Y78615D01*
X69535Y78425D02*
X69915D01*
X69725Y78235D02*
Y78615D01*
X49235Y75225D02*
X49615D01*
X49425Y75035D02*
Y75415D01*
X47235Y75225D02*
X47615D01*
X47425Y75035D02*
Y75415D01*
X61625Y104075D02*
X62225D01*
X61925Y103775D02*
Y104375D01*
X59625Y104075D02*
X60225D01*
X59925Y103775D02*
Y104375D01*
X55625Y104075D02*
X56225D01*
X55925Y103775D02*
Y104375D01*
X53625Y104075D02*
X54225D01*
X53925Y103775D02*
Y104375D01*
X49625Y104075D02*
X50225D01*
X49925Y103775D02*
Y104375D01*
X47625Y104075D02*
X48225D01*
X47925Y103775D02*
Y104375D01*
X57625Y104075D02*
X58225D01*
X57925Y103775D02*
Y104375D01*
X51625Y104075D02*
X52225D01*
X51925Y103775D02*
Y104375D01*
X48445Y79625D02*
X49005D01*
X48725Y79345D02*
Y79905D01*
X48445Y81625D02*
X49005D01*
X48725Y81345D02*
Y81905D01*
X48495Y86125D02*
X49055D01*
X48775Y85845D02*
Y86405D01*
X48495Y90125D02*
X49055D01*
X48775Y89845D02*
Y90405D01*
X48495Y92125D02*
X49055D01*
X48775Y91845D02*
Y92405D01*
X48495Y96125D02*
X49055D01*
X48775Y95845D02*
Y96405D01*
X48495Y88125D02*
X49055D01*
X48775Y87845D02*
Y88405D01*
X48495Y94125D02*
X49055D01*
X48775Y93845D02*
Y94405D01*
X80945Y91125D02*
X81505D01*
X81225Y90845D02*
Y91405D01*
X80945Y95125D02*
X81505D01*
X81225Y94845D02*
Y95405D01*
X80945Y97125D02*
X81505D01*
X81225Y96845D02*
Y97405D01*
X80945Y101125D02*
X81505D01*
X81225Y100845D02*
Y101405D01*
X80945Y93125D02*
X81505D01*
X81225Y92845D02*
Y93405D01*
X80945Y99125D02*
X81505D01*
X81225Y98845D02*
Y99405D01*
X80945Y76475D02*
X81505D01*
X81225Y76195D02*
Y76755D01*
X80945Y80475D02*
X81505D01*
X81225Y80195D02*
Y80755D01*
X80945Y82475D02*
X81505D01*
X81225Y82195D02*
Y82755D01*
X80945Y86475D02*
X81505D01*
X81225Y86195D02*
Y86755D01*
X80945Y78475D02*
X81505D01*
X81225Y78195D02*
Y78755D01*
X80945Y84475D02*
X81505D01*
X81225Y84195D02*
Y84755D01*
X75640Y100175D02*
X76310D01*
X75975Y99840D02*
Y100510D01*
X72640Y100175D02*
X73310D01*
X72975Y99840D02*
Y100510D01*
X69640Y100175D02*
X70310D01*
X69975Y99840D02*
Y100510D01*
X66640Y100175D02*
X67310D01*
X66975Y99840D02*
Y100510D01*
X77140Y100175D02*
X77810D01*
X77475Y99840D02*
Y100510D01*
X74140Y100175D02*
X74810D01*
X74475Y99840D02*
Y100510D01*
X71140Y100175D02*
X71810D01*
X71475Y99840D02*
Y100510D01*
X68140Y100175D02*
X68810D01*
X68475Y99840D02*
Y100510D01*
X77925Y94425D02*
X78325D01*
X78125Y94225D02*
Y94625D01*
X71925Y94425D02*
X72325D01*
X72125Y94225D02*
Y94625D01*
X77785Y103575D02*
X78165D01*
X77975Y103385D02*
Y103765D01*
X78785Y103575D02*
X79165D01*
X78975Y103385D02*
Y103765D01*
X80785Y103575D02*
X81165D01*
X80975Y103385D02*
Y103765D01*
X81785Y103575D02*
X82165D01*
X81975Y103385D02*
Y103765D01*
X77785Y106575D02*
X78165D01*
X77975Y106385D02*
Y106765D01*
X78785Y106575D02*
X79165D01*
X78975Y106385D02*
Y106765D01*
X80785Y106575D02*
X81165D01*
X80975Y106385D02*
Y106765D01*
X81785Y106575D02*
X82165D01*
X81975Y106385D02*
Y106765D01*
X79785Y103575D02*
X80165D01*
X79975Y103385D02*
Y103765D01*
X79785Y106575D02*
X80165D01*
X79975Y106385D02*
Y106765D01*
X75485Y89925D02*
X75865D01*
X75675Y89735D02*
Y90115D01*
X72485Y89925D02*
X72865D01*
X72675Y89735D02*
Y90115D01*
X75485Y82425D02*
X75865D01*
X75675Y82235D02*
Y82615D01*
X72485Y82425D02*
X72865D01*
X72675Y82235D02*
Y82615D01*
X63659Y93670D02*
X63809D01*
X63734Y93595D02*
Y93745D01*
X61631Y99204D02*
X61781D01*
X61706Y99129D02*
Y99279D01*
X66900Y85675D02*
X67050D01*
X66975Y85600D02*
Y85750D01*
X46900Y78675D02*
X47050D01*
X46975Y78600D02*
Y78750D01*
X51300Y81525D02*
X51450D01*
X51375Y81450D02*
Y81600D01*
X50950Y86175D02*
X51100D01*
X51025Y86100D02*
Y86250D01*
X53400Y87675D02*
X53550D01*
X53475Y87600D02*
Y87750D01*
X56400Y86425D02*
X56550D01*
X56475Y86350D02*
Y86500D01*
X55900Y89425D02*
X56050D01*
X55975Y89350D02*
Y89500D01*
X55850Y96625D02*
X56000D01*
X55925Y96550D02*
Y96700D01*
X60150Y80775D02*
X60300D01*
X60225Y80700D02*
Y80850D01*
X60400Y85225D02*
X60550D01*
X60475Y85150D02*
Y85300D01*
X60700Y84025D02*
X60850D01*
X60775Y83950D02*
Y84100D01*
X60400Y87875D02*
X60550D01*
X60475Y87800D02*
Y87950D01*
X58700Y90425D02*
X58850D01*
X58775Y90350D02*
Y90500D01*
X59300Y91325D02*
X59450D01*
X59375Y91250D02*
Y91400D01*
X59300Y93525D02*
X59450D01*
X59375Y93450D02*
Y93600D01*
X59300Y92475D02*
X59450D01*
X59375Y92400D02*
Y92550D01*
X60050Y97225D02*
X60200D01*
X60125Y97150D02*
Y97300D01*
X62900Y90675D02*
X63050D01*
X62975Y90600D02*
Y90750D01*
X66150Y74925D02*
X66300D01*
X66225Y74850D02*
Y75000D01*
X66400Y78175D02*
X66550D01*
X66475Y78100D02*
Y78250D01*
X66150Y81425D02*
X66300D01*
X66225Y81350D02*
Y81500D01*
X64400Y84675D02*
X64550D01*
X64475Y84600D02*
Y84750D01*
X65900Y83925D02*
X66050D01*
X65975Y83850D02*
Y84000D01*
X66900Y90875D02*
X67050D01*
X66975Y90800D02*
Y90950D01*
X65200Y90475D02*
X65350D01*
X65275Y90400D02*
Y90550D01*
X64650Y94175D02*
X64800D01*
X64725Y94100D02*
Y94250D01*
X65150Y94675D02*
X65300D01*
X65225Y94600D02*
Y94750D01*
X65650Y101425D02*
X65800D01*
X65725Y101350D02*
Y101500D01*
X68400Y81425D02*
X68550D01*
X68475Y81350D02*
Y81500D01*
X69300Y84675D02*
X69450D01*
X69375Y84600D02*
Y84750D01*
X68725Y104850D02*
X68875D01*
X68800Y104775D02*
Y104925D01*
X68950Y105375D02*
X69100D01*
X69025Y105300D02*
Y105450D01*
X74800Y80375D02*
X74950D01*
X74875Y80300D02*
Y80450D01*
X75400Y96675D02*
X75550D01*
X75475Y96600D02*
Y96750D01*
X74400Y102425D02*
X74550D01*
X74475Y102350D02*
Y102500D01*
X51700Y91825D02*
X51850D01*
X51775Y91750D02*
Y91900D01*
X50744Y83390D02*
X50894D01*
X50819Y83315D02*
Y83465D01*
X52800Y86025D02*
X52950D01*
X52875Y85950D02*
Y86100D01*
X57550Y91825D02*
X57700D01*
X57625Y91750D02*
Y91900D01*
X66900Y94875D02*
X67050D01*
X66975Y94800D02*
Y94950D01*
X71435Y79775D02*
X71715D01*
X71575Y79635D02*
Y79915D01*
X46150Y80975D02*
X46300D01*
X46225Y80900D02*
Y81050D01*
X52300Y88425D02*
X52450D01*
X52375Y88350D02*
Y88500D01*
X70135Y76425D02*
X70415D01*
X70275Y76285D02*
Y76565D01*
X64150Y92925D02*
X64300D01*
X64225Y92850D02*
Y93000D01*
X61100Y93975D02*
X61250D01*
X61175Y93900D02*
Y94050D01*
X73150Y104175D02*
X73300D01*
X73225Y104100D02*
Y104250D01*
M02*
