G04*
G04 #@! TF.GenerationSoftware,Altium Limited,Altium Designer,18.1.9 (240)*
G04*
G04 Layer_Color=65535*
%FSLAX24Y24*%
%MOIN*%
G70*
G01*
G75*
%ADD28C,0.0100*%
%ADD29C,0.0080*%
%ADD37C,0.0070*%
%ADD54C,0.0050*%
G36*
X54275Y74375D02*
Y74275D01*
X54175Y74175D01*
X54125D01*
X54025Y74275D01*
X54075Y74425D01*
X54175D01*
X54275Y74375D01*
D02*
G37*
G36*
X12575D02*
Y74275D01*
X12475Y74175D01*
X12425D01*
X12325Y74275D01*
X12375Y74425D01*
X12475D01*
X12575Y74375D01*
D02*
G37*
G36*
X54275Y39175D02*
Y39075D01*
X54175Y38975D01*
X54125D01*
X54025Y39075D01*
X54075Y39225D01*
X54175D01*
X54275Y39175D01*
D02*
G37*
G36*
X12575D02*
Y39075D01*
X12475Y38975D01*
X12425D01*
X12325Y39075D01*
X12375Y39225D01*
X12475D01*
X12575Y39175D01*
D02*
G37*
G36*
X54275Y3975D02*
Y3875D01*
X54175Y3775D01*
X54125D01*
X54025Y3875D01*
X54075Y4025D01*
X54175D01*
X54275Y3975D01*
D02*
G37*
G36*
X12575D02*
Y3875D01*
X12475Y3775D01*
X12425D01*
X12325Y3875D01*
X12375Y4025D01*
X12475D01*
X12575Y3975D01*
D02*
G37*
D28*
X20945Y7552D02*
X21300D01*
X20681Y7112D02*
Y7434D01*
Y7112D02*
X20850D01*
X21400D02*
X21569D01*
Y7424D01*
X20150Y24500D02*
Y27000D01*
X19675Y24025D02*
X20150Y24500D01*
X19740Y27410D02*
X20150Y27000D01*
X18693Y26992D02*
X19110Y27410D01*
X18693Y24506D02*
Y26992D01*
X41175Y35875D02*
X42375D01*
X41175Y33925D02*
X42375D01*
X41175Y32775D02*
X42375D01*
X41175D02*
Y35875D01*
X42375Y32775D02*
Y35875D01*
X26075Y34755D02*
X26275D01*
X26775Y34855D02*
Y35255D01*
X26475D02*
X26775D01*
X25575Y34855D02*
Y35255D01*
X25875D01*
X38825Y34355D02*
X39025D01*
X39525Y34455D02*
Y34855D01*
X39225D02*
X39525D01*
X38325Y34455D02*
Y34855D01*
X38625D01*
X9525Y18845D02*
X9725D01*
X9025Y18345D02*
Y18745D01*
Y18345D02*
X9325D01*
X10225D02*
Y18745D01*
X9925Y18345D02*
X10225D01*
X9275Y27725D02*
X10775D01*
X9025Y27475D02*
X9275Y27725D01*
X9025Y26975D02*
Y27475D01*
Y26975D02*
X9275Y26725D01*
X10775D01*
X11025Y26975D01*
Y27475D01*
X10775Y27725D02*
X11025Y27475D01*
X22975Y3175D02*
Y4375D01*
X21025Y3175D02*
Y4375D01*
X19875Y3175D02*
Y4375D01*
X22975D01*
X19875Y3175D02*
X22975D01*
X19825Y4925D02*
Y6125D01*
X21775Y4925D02*
Y6125D01*
X22925Y4925D02*
Y6125D01*
X19825Y4925D02*
X22925D01*
X19825Y6125D02*
X22925D01*
X18693Y24506D02*
X19125Y24025D01*
X19675D01*
X19110Y27410D02*
X19740D01*
X34825Y16675D02*
Y17875D01*
X36775Y16675D02*
Y17875D01*
X37925Y16675D02*
Y17875D01*
X34825Y16675D02*
X37925D01*
X34825Y17875D02*
X37925D01*
X34825Y13425D02*
Y14625D01*
X36775Y13425D02*
Y14625D01*
X37925Y13425D02*
Y14625D01*
X34825Y13425D02*
X37925D01*
X34825Y14625D02*
X37925D01*
X28425Y35975D02*
X29625D01*
X28425Y34025D02*
X29625D01*
X28425Y32875D02*
X29625D01*
X28425D02*
Y35975D01*
X29625Y32875D02*
Y35975D01*
X5798Y30558D02*
Y30178D01*
X5874Y30102D01*
X6026D01*
X6102Y30178D01*
Y30558D01*
X6254Y30102D02*
X6406D01*
X6330D01*
Y30558D01*
X6254Y30482D01*
X6634Y30102D02*
X6786D01*
X6710D01*
Y30558D01*
X6634Y30482D01*
X9079Y6705D02*
X9003Y6781D01*
X8851D01*
X8775Y6705D01*
Y6401D01*
X8851Y6325D01*
X9003D01*
X9079Y6401D01*
X9231Y6325D02*
Y6781D01*
X9459D01*
X9535Y6705D01*
Y6553D01*
X9459Y6477D01*
X9231D01*
X9383D02*
X9535Y6325D01*
X9687D02*
X9839D01*
X9763D01*
Y6781D01*
X9687Y6705D01*
X7925Y32373D02*
Y31994D01*
X8001Y31918D01*
X8153D01*
X8229Y31994D01*
Y32373D01*
X8685D02*
X8533Y32298D01*
X8381Y32146D01*
Y31994D01*
X8457Y31918D01*
X8609D01*
X8685Y31994D01*
Y32070D01*
X8609Y32146D01*
X8381D01*
X11529Y7328D02*
X11453Y7404D01*
X11301D01*
X11225Y7328D01*
Y7024D01*
X11301Y6948D01*
X11453D01*
X11529Y7024D01*
X11680Y6948D02*
X11832D01*
X11756D01*
Y7404D01*
X11680Y7328D01*
X17784Y26580D02*
X17708Y26656D01*
X17556D01*
X17480Y26580D01*
Y26276D01*
X17556Y26200D01*
X17708D01*
X17784Y26276D01*
X17936Y26656D02*
X18240D01*
Y26580D01*
X17936Y26276D01*
Y26200D01*
X20681Y8636D02*
Y8256D01*
X20757Y8180D01*
X20909D01*
X20985Y8256D01*
Y8636D01*
X21441Y8180D02*
X21137D01*
X21441Y8484D01*
Y8560D01*
X21365Y8636D01*
X21213D01*
X21137Y8560D01*
X21175Y28775D02*
Y29231D01*
X21403D01*
X21479Y29155D01*
Y29003D01*
X21403Y28927D01*
X21175D01*
X21327D02*
X21479Y28775D01*
X21631D02*
X21783D01*
X21707D01*
Y29231D01*
X21631Y29155D01*
X22011D02*
X22087Y29231D01*
X22239D01*
X22315Y29155D01*
Y28851D01*
X22239Y28775D01*
X22087D01*
X22011Y28851D01*
Y29155D01*
X26625Y3225D02*
Y3681D01*
X26853D01*
X26929Y3605D01*
Y3453D01*
X26853Y3377D01*
X26625D01*
X26777D02*
X26929Y3225D01*
X27385Y3681D02*
X27233Y3605D01*
X27081Y3453D01*
Y3301D01*
X27157Y3225D01*
X27309D01*
X27385Y3301D01*
Y3377D01*
X27309Y3453D01*
X27081D01*
X26775Y9275D02*
Y9731D01*
X27003D01*
X27079Y9655D01*
Y9503D01*
X27003Y9427D01*
X26775D01*
X26927D02*
X27079Y9275D01*
X27231Y9731D02*
X27535D01*
Y9655D01*
X27231Y9351D01*
Y9275D01*
X8329Y10655D02*
X8253Y10731D01*
X8101D01*
X8025Y10655D01*
Y10351D01*
X8101Y10275D01*
X8253D01*
X8329Y10351D01*
X8785Y10731D02*
X8633Y10655D01*
X8481Y10503D01*
Y10351D01*
X8557Y10275D01*
X8709D01*
X8785Y10351D01*
Y10427D01*
X8709Y10503D01*
X8481D01*
X20560Y24820D02*
Y25276D01*
X20788D01*
X20864Y25200D01*
Y25048D01*
X20788Y24972D01*
X20560D01*
X20712D02*
X20864Y24820D01*
X21320D02*
X21016D01*
X21320Y25124D01*
Y25200D01*
X21244Y25276D01*
X21092D01*
X21016Y25200D01*
X21700Y24820D02*
Y25276D01*
X21472Y25048D01*
X21776D01*
X41584Y36460D02*
X41508Y36536D01*
X41356D01*
X41280Y36460D01*
Y36156D01*
X41356Y36080D01*
X41508D01*
X41584Y36156D01*
X41736Y36080D02*
Y36536D01*
X41964D01*
X42040Y36460D01*
Y36308D01*
X41964Y36232D01*
X41736D01*
X41888D02*
X42040Y36080D01*
X42192Y36460D02*
X42268Y36536D01*
X42420D01*
X42496Y36460D01*
Y36384D01*
X42420Y36308D01*
X42344D01*
X42420D01*
X42496Y36232D01*
Y36156D01*
X42420Y36080D01*
X42268D01*
X42192Y36156D01*
X41460Y11096D02*
Y10716D01*
X41536Y10640D01*
X41688D01*
X41764Y10716D01*
Y11096D01*
X41916Y10640D02*
X42068D01*
X41992D01*
Y11096D01*
X41916Y11020D01*
X42296D02*
X42372Y11096D01*
X42524D01*
X42600Y11020D01*
Y10944D01*
X42524Y10868D01*
X42448D01*
X42524D01*
X42600Y10792D01*
Y10716D01*
X42524Y10640D01*
X42372D01*
X42296Y10716D01*
X41440Y25776D02*
Y25396D01*
X41516Y25320D01*
X41668D01*
X41744Y25396D01*
Y25776D01*
X41896Y25320D02*
X42048D01*
X41972D01*
Y25776D01*
X41896Y25700D01*
X42580Y25320D02*
X42276D01*
X42580Y25624D01*
Y25700D01*
X42504Y25776D01*
X42352D01*
X42276Y25700D01*
X7775Y14025D02*
Y14481D01*
X8003D01*
X8079Y14405D01*
Y14253D01*
X8003Y14177D01*
X7775D01*
X7927D02*
X8079Y14025D01*
X8231D02*
X8383D01*
X8307D01*
Y14481D01*
X8231Y14405D01*
X8915Y14481D02*
X8763Y14405D01*
X8611Y14253D01*
Y14101D01*
X8687Y14025D01*
X8839D01*
X8915Y14101D01*
Y14177D01*
X8839Y14253D01*
X8611D01*
X7775Y16525D02*
Y16981D01*
X8003D01*
X8079Y16905D01*
Y16753D01*
X8003Y16677D01*
X7775D01*
X7927D02*
X8079Y16525D01*
X8231D02*
X8383D01*
X8307D01*
Y16981D01*
X8231Y16905D01*
X8611Y16981D02*
X8915D01*
Y16905D01*
X8611Y16601D01*
Y16525D01*
X8173Y22927D02*
X8100Y23000D01*
X7953D01*
X7880Y22927D01*
Y22633D01*
X7953Y22560D01*
X8100D01*
X8173Y22633D01*
X8320Y22927D02*
X8393Y23000D01*
X8540D01*
X8613Y22927D01*
Y22853D01*
X8540Y22780D01*
X8613Y22707D01*
Y22633D01*
X8540Y22560D01*
X8393D01*
X8320Y22633D01*
Y22707D01*
X8393Y22780D01*
X8320Y22853D01*
Y22927D01*
X8393Y22780D02*
X8540D01*
X7720Y25040D02*
Y25470D01*
X7935D01*
X8007Y25398D01*
Y25255D01*
X7935Y25183D01*
X7720D01*
X7863D02*
X8007Y25040D01*
X8150D02*
X8293D01*
X8221D01*
Y25470D01*
X8150Y25398D01*
X8795Y25470D02*
X8508D01*
Y25255D01*
X8651Y25327D01*
X8723D01*
X8795Y25255D01*
Y25112D01*
X8723Y25040D01*
X8580D01*
X8508Y25112D01*
X9665Y29215D02*
Y29671D01*
X9893D01*
X9969Y29595D01*
Y29443D01*
X9893Y29367D01*
X9665D01*
X9817D02*
X9969Y29215D01*
X10121Y29595D02*
X10197Y29671D01*
X10349D01*
X10425Y29595D01*
Y29519D01*
X10349Y29443D01*
X10425Y29367D01*
Y29291D01*
X10349Y29215D01*
X10197D01*
X10121Y29291D01*
Y29367D01*
X10197Y29443D01*
X10121Y29519D01*
Y29595D01*
X10197Y29443D02*
X10349D01*
X27860Y16020D02*
Y16476D01*
X28088D01*
X28164Y16400D01*
Y16248D01*
X28088Y16172D01*
X27860D01*
X28012D02*
X28164Y16020D01*
X28620Y16476D02*
X28316D01*
Y16248D01*
X28468Y16324D01*
X28544D01*
X28620Y16248D01*
Y16096D01*
X28544Y16020D01*
X28392D01*
X28316Y16096D01*
X24829Y34801D02*
Y35105D01*
X24753Y35181D01*
X24601D01*
X24525Y35105D01*
Y34801D01*
X24601Y34725D01*
X24753D01*
X24677Y34877D02*
X24829Y34725D01*
X24753D02*
X24829Y34801D01*
X24981Y35105D02*
X25057Y35181D01*
X25209D01*
X25285Y35105D01*
Y35029D01*
X25209Y34953D01*
X25133D01*
X25209D01*
X25285Y34877D01*
Y34801D01*
X25209Y34725D01*
X25057D01*
X24981Y34801D01*
X40064Y34356D02*
Y34660D01*
X39988Y34736D01*
X39836D01*
X39760Y34660D01*
Y34356D01*
X39836Y34280D01*
X39988D01*
X39912Y34432D02*
X40064Y34280D01*
X39988D02*
X40064Y34356D01*
X40520Y34280D02*
X40216D01*
X40520Y34584D01*
Y34660D01*
X40444Y34736D01*
X40292D01*
X40216Y34660D01*
X2920Y17316D02*
Y16936D01*
X2996Y16860D01*
X3148D01*
X3224Y16936D01*
Y17316D01*
X3376Y16860D02*
X3528D01*
X3452D01*
Y17316D01*
X3376Y17240D01*
X3756D02*
X3832Y17316D01*
X3984D01*
X4060Y17240D01*
Y16936D01*
X3984Y16860D01*
X3832D01*
X3756Y16936D01*
Y17240D01*
X3993Y28776D02*
Y28396D01*
X4069Y28320D01*
X4221D01*
X4297Y28396D01*
Y28776D01*
X4449Y28320D02*
X4601D01*
X4525D01*
Y28776D01*
X4449Y28700D01*
X5057Y28320D02*
Y28776D01*
X4829Y28548D01*
X5133D01*
X14975Y5781D02*
Y5401D01*
X15051Y5325D01*
X15203D01*
X15279Y5401D01*
Y5781D01*
X15431Y5325D02*
X15583D01*
X15507D01*
Y5781D01*
X15431Y5705D01*
X9884Y10520D02*
Y10140D01*
X9960Y10064D01*
X10112D01*
X10188Y10140D01*
Y10520D01*
X10340Y10444D02*
X10416Y10520D01*
X10568D01*
X10644Y10444D01*
Y10368D01*
X10568Y10292D01*
X10492D01*
X10568D01*
X10644Y10216D01*
Y10140D01*
X10568Y10064D01*
X10416D01*
X10340Y10140D01*
X11119Y21528D02*
Y21983D01*
X11347D01*
X11423Y21907D01*
Y21755D01*
X11347Y21679D01*
X11119D01*
X11271D02*
X11423Y21528D01*
X11879D02*
X11575D01*
X11879Y21831D01*
Y21907D01*
X11803Y21983D01*
X11651D01*
X11575Y21907D01*
X11443Y12705D02*
X11367Y12781D01*
X11215D01*
X11139Y12705D01*
Y12401D01*
X11215Y12325D01*
X11367D01*
X11443Y12401D01*
X11595D02*
X11671Y12325D01*
X11823D01*
X11899Y12401D01*
Y12705D01*
X11823Y12781D01*
X11671D01*
X11595Y12705D01*
Y12629D01*
X11671Y12553D01*
X11899D01*
X8329Y18351D02*
Y18655D01*
X8253Y18731D01*
X8101D01*
X8025Y18655D01*
Y18351D01*
X8101Y18275D01*
X8253D01*
X8177Y18427D02*
X8329Y18275D01*
X8253D02*
X8329Y18351D01*
X8481Y18275D02*
X8633D01*
X8557D01*
Y18731D01*
X8481Y18655D01*
X7720Y24120D02*
Y24550D01*
X7935D01*
X8007Y24478D01*
Y24335D01*
X7935Y24263D01*
X7720D01*
X7863D02*
X8007Y24120D01*
X8150D02*
X8293D01*
X8221D01*
Y24550D01*
X8150Y24478D01*
X8508D02*
X8580Y24550D01*
X8723D01*
X8795Y24478D01*
Y24407D01*
X8723Y24335D01*
X8651D01*
X8723D01*
X8795Y24263D01*
Y24192D01*
X8723Y24120D01*
X8580D01*
X8508Y24192D01*
X8079Y27431D02*
X7927D01*
X8003D01*
Y27051D01*
X7927Y26975D01*
X7851D01*
X7775Y27051D01*
X8231Y27431D02*
X8535D01*
X8383D01*
Y26975D01*
X8687D02*
X8839D01*
X8763D01*
Y27431D01*
X8687Y27355D01*
X23325Y3981D02*
Y3525D01*
X23553D01*
X23629Y3601D01*
Y3905D01*
X23553Y3981D01*
X23325D01*
X24085Y3525D02*
X23781D01*
X24085Y3829D01*
Y3905D01*
X24009Y3981D01*
X23857D01*
X23781Y3905D01*
X23164Y5791D02*
Y5335D01*
X23392D01*
X23468Y5411D01*
Y5715D01*
X23392Y5791D01*
X23164D01*
X23620Y5335D02*
X23772D01*
X23696D01*
Y5791D01*
X23620Y5715D01*
X23104Y7027D02*
X23028Y7103D01*
X22876D01*
X22800Y7027D01*
Y6723D01*
X22876Y6647D01*
X23028D01*
X23104Y6723D01*
X23560Y7103D02*
X23256D01*
Y6875D01*
X23408Y6951D01*
X23484D01*
X23560Y6875D01*
Y6723D01*
X23484Y6647D01*
X23332D01*
X23256Y6723D01*
X23260Y19556D02*
Y19176D01*
X23336Y19100D01*
X23488D01*
X23564Y19176D01*
Y19556D01*
X23716Y19176D02*
X23792Y19100D01*
X23944D01*
X24020Y19176D01*
Y19480D01*
X23944Y19556D01*
X23792D01*
X23716Y19480D01*
Y19404D01*
X23792Y19328D01*
X24020D01*
X27800Y18060D02*
Y18516D01*
X28028D01*
X28104Y18440D01*
Y18288D01*
X28028Y18212D01*
X27800D01*
X27952D02*
X28104Y18060D01*
X28484D02*
Y18516D01*
X28256Y18288D01*
X28560D01*
X19130Y28146D02*
X19434Y27690D01*
Y28146D02*
X19130Y27690D01*
X19586D02*
X19738D01*
X19662D01*
Y28146D01*
X19586Y28070D01*
X39775Y3275D02*
Y3731D01*
X40003D01*
X40079Y3655D01*
Y3503D01*
X40003Y3427D01*
X39775D01*
X39927D02*
X40079Y3275D01*
X40535D02*
X40231D01*
X40535Y3579D01*
Y3655D01*
X40459Y3731D01*
X40307D01*
X40231Y3655D01*
X40687D02*
X40763Y3731D01*
X40915D01*
X40991Y3655D01*
Y3351D01*
X40915Y3275D01*
X40763D01*
X40687Y3351D01*
Y3655D01*
X34825Y18634D02*
Y18178D01*
X35053D01*
X35129Y18254D01*
Y18558D01*
X35053Y18634D01*
X34825D01*
X35281Y18254D02*
X35357Y18178D01*
X35509D01*
X35585Y18254D01*
Y18558D01*
X35509Y18634D01*
X35357D01*
X35281Y18558D01*
Y18482D01*
X35357Y18406D01*
X35585D01*
X34825Y15381D02*
Y14925D01*
X35053D01*
X35129Y15001D01*
Y15305D01*
X35053Y15381D01*
X34825D01*
X35281Y15305D02*
X35357Y15381D01*
X35509D01*
X35585Y15305D01*
Y15229D01*
X35509Y15153D01*
X35585Y15077D01*
Y15001D01*
X35509Y14925D01*
X35357D01*
X35281Y15001D01*
Y15077D01*
X35357Y15153D01*
X35281Y15229D01*
Y15305D01*
X35357Y15153D02*
X35509D01*
X31468Y15856D02*
Y15476D01*
X31544Y15400D01*
X31695D01*
X31771Y15476D01*
Y15856D01*
X32227D02*
X31923D01*
Y15628D01*
X32075Y15704D01*
X32151D01*
X32227Y15628D01*
Y15476D01*
X32151Y15400D01*
X31999D01*
X31923Y15476D01*
X31468Y19156D02*
Y18776D01*
X31544Y18700D01*
X31695D01*
X31771Y18776D01*
Y19156D01*
X31923Y19080D02*
X31999Y19156D01*
X32151D01*
X32227Y19080D01*
Y19004D01*
X32151Y18928D01*
X32227Y18852D01*
Y18776D01*
X32151Y18700D01*
X31999D01*
X31923Y18776D01*
Y18852D01*
X31999Y18928D01*
X31923Y19004D01*
Y19080D01*
X31999Y18928D02*
X32151D01*
X3525Y25225D02*
Y25681D01*
X3753D01*
X3829Y25605D01*
Y25453D01*
X3753Y25377D01*
X3525D01*
X3677D02*
X3829Y25225D01*
X4285D02*
X3981D01*
X4285Y25529D01*
Y25605D01*
X4209Y25681D01*
X4057D01*
X3981Y25605D01*
X4741Y25681D02*
X4437D01*
Y25453D01*
X4589Y25529D01*
X4665D01*
X4741Y25453D01*
Y25301D01*
X4665Y25225D01*
X4513D01*
X4437Y25301D01*
X13936Y27149D02*
Y26769D01*
X14012Y26693D01*
X14164D01*
X14240Y26769D01*
Y27149D01*
X14620Y26693D02*
Y27149D01*
X14392Y26921D01*
X14696D01*
X10525Y11325D02*
Y11781D01*
X10753D01*
X10829Y11705D01*
Y11553D01*
X10753Y11477D01*
X10525D01*
X10677D02*
X10829Y11325D01*
X10981D02*
X11133D01*
X11057D01*
Y11781D01*
X10981Y11705D01*
X24275Y13231D02*
Y12851D01*
X24351Y12775D01*
X24503D01*
X24579Y12851D01*
Y13231D01*
X24731D02*
X25035D01*
Y13155D01*
X24731Y12851D01*
Y12775D01*
X24400Y22240D02*
Y22696D01*
X24628D01*
X24704Y22620D01*
Y22468D01*
X24628Y22392D01*
X24400D01*
X24552D02*
X24704Y22240D01*
X25160D02*
X24856D01*
X25160Y22544D01*
Y22620D01*
X25084Y22696D01*
X24932D01*
X24856Y22620D01*
X25616Y22240D02*
X25312D01*
X25616Y22544D01*
Y22620D01*
X25540Y22696D01*
X25388D01*
X25312Y22620D01*
X14475Y13825D02*
Y14281D01*
X14703D01*
X14779Y14205D01*
Y14053D01*
X14703Y13977D01*
X14475D01*
X14627D02*
X14779Y13825D01*
X14931D02*
X15083D01*
X15007D01*
Y14281D01*
X14931Y14205D01*
X15615Y13825D02*
X15311D01*
X15615Y14129D01*
Y14205D01*
X15539Y14281D01*
X15387D01*
X15311Y14205D01*
X17525Y16525D02*
Y16981D01*
X17753D01*
X17829Y16905D01*
Y16753D01*
X17753Y16677D01*
X17525D01*
X17677D02*
X17829Y16525D01*
X17981D02*
X18133D01*
X18057D01*
Y16981D01*
X17981Y16905D01*
X18361Y16601D02*
X18437Y16525D01*
X18589D01*
X18665Y16601D01*
Y16905D01*
X18589Y16981D01*
X18437D01*
X18361Y16905D01*
Y16829D01*
X18437Y16753D01*
X18665D01*
X17275Y19775D02*
Y20231D01*
X17503D01*
X17579Y20155D01*
Y20003D01*
X17503Y19927D01*
X17275D01*
X17427D02*
X17579Y19775D01*
X17731Y20155D02*
X17807Y20231D01*
X17959D01*
X18035Y20155D01*
Y20079D01*
X17959Y20003D01*
X17883D01*
X17959D01*
X18035Y19927D01*
Y19851D01*
X17959Y19775D01*
X17807D01*
X17731Y19851D01*
X15140Y27820D02*
Y28276D01*
X15368D01*
X15444Y28200D01*
Y28048D01*
X15368Y27972D01*
X15140D01*
X15292D02*
X15444Y27820D01*
X15596D02*
X15748D01*
X15672D01*
Y28276D01*
X15596Y28200D01*
X16204Y27820D02*
Y28276D01*
X15976Y28048D01*
X16280D01*
X16229Y3905D02*
X16153Y3981D01*
X16001D01*
X15925Y3905D01*
Y3601D01*
X16001Y3525D01*
X16153D01*
X16229Y3601D01*
X16609Y3525D02*
Y3981D01*
X16381Y3753D01*
X16685D01*
X17275Y21275D02*
Y21731D01*
X17503D01*
X17579Y21655D01*
Y21503D01*
X17503Y21427D01*
X17275D01*
X17427D02*
X17579Y21275D01*
X17731Y21351D02*
X17807Y21275D01*
X17959D01*
X18035Y21351D01*
Y21655D01*
X17959Y21731D01*
X17807D01*
X17731Y21655D01*
Y21579D01*
X17807Y21503D01*
X18035D01*
X17525Y18025D02*
Y18481D01*
X17753D01*
X17829Y18405D01*
Y18253D01*
X17753Y18177D01*
X17525D01*
X17677D02*
X17829Y18025D01*
X17981D02*
X18133D01*
X18057D01*
Y18481D01*
X17981Y18405D01*
X18361D02*
X18437Y18481D01*
X18589D01*
X18665Y18405D01*
Y18329D01*
X18589Y18253D01*
X18665Y18177D01*
Y18101D01*
X18589Y18025D01*
X18437D01*
X18361Y18101D01*
Y18177D01*
X18437Y18253D01*
X18361Y18329D01*
Y18405D01*
X18437Y18253D02*
X18589D01*
X14829Y12905D02*
X14753Y12981D01*
X14601D01*
X14525Y12905D01*
Y12601D01*
X14601Y12525D01*
X14753D01*
X14829Y12601D01*
X14981Y12525D02*
X15133D01*
X15057D01*
Y12981D01*
X14981Y12905D01*
X15361D02*
X15437Y12981D01*
X15589D01*
X15665Y12905D01*
Y12601D01*
X15589Y12525D01*
X15437D01*
X15361Y12601D01*
Y12905D01*
X17300Y9800D02*
Y10256D01*
X17528D01*
X17604Y10180D01*
Y10028D01*
X17528Y9952D01*
X17300D01*
X17452D02*
X17604Y9800D01*
X17756D02*
X17908D01*
X17832D01*
Y10256D01*
X17756Y10180D01*
X18136Y9800D02*
X18288D01*
X18212D01*
Y10256D01*
X18136Y10180D01*
X28764Y36580D02*
X28688Y36656D01*
X28536D01*
X28460Y36580D01*
Y36276D01*
X28536Y36200D01*
X28688D01*
X28764Y36276D01*
X28916Y36200D02*
Y36656D01*
X29144D01*
X29220Y36580D01*
Y36428D01*
X29144Y36352D01*
X28916D01*
X29068D02*
X29220Y36200D01*
X29676D02*
X29372D01*
X29676Y36504D01*
Y36580D01*
X29600Y36656D01*
X29448D01*
X29372Y36580D01*
X62645Y7552D02*
X63000D01*
X62381Y7112D02*
Y7434D01*
Y7112D02*
X62550D01*
X63100D02*
X63269D01*
Y7424D01*
X61850Y24500D02*
Y27000D01*
X61375Y24025D02*
X61850Y24500D01*
X61440Y27410D02*
X61850Y27000D01*
X60392Y26992D02*
X60810Y27410D01*
X60392Y24506D02*
Y26992D01*
X82875Y35875D02*
X84075D01*
X82875Y33925D02*
X84075D01*
X82875Y32775D02*
X84075D01*
X82875D02*
Y35875D01*
X84075Y32775D02*
Y35875D01*
X67775Y34755D02*
X67975D01*
X68475Y34855D02*
Y35255D01*
X68175D02*
X68475D01*
X67275Y34855D02*
Y35255D01*
X67575D01*
X80525Y34355D02*
X80725D01*
X81225Y34455D02*
Y34855D01*
X80925D02*
X81225D01*
X80025Y34455D02*
Y34855D01*
X80325D01*
X51225Y18845D02*
X51425D01*
X50725Y18345D02*
Y18745D01*
Y18345D02*
X51025D01*
X51925D02*
Y18745D01*
X51625Y18345D02*
X51925D01*
X50975Y27725D02*
X52475D01*
X50725Y27475D02*
X50975Y27725D01*
X50725Y26975D02*
Y27475D01*
Y26975D02*
X50975Y26725D01*
X52475D01*
X52725Y26975D01*
Y27475D01*
X52475Y27725D02*
X52725Y27475D01*
X64675Y3175D02*
Y4375D01*
X62725Y3175D02*
Y4375D01*
X61575Y3175D02*
Y4375D01*
X64675D01*
X61575Y3175D02*
X64675D01*
X61525Y4925D02*
Y6125D01*
X63475Y4925D02*
Y6125D01*
X64625Y4925D02*
Y6125D01*
X61525Y4925D02*
X64625D01*
X61525Y6125D02*
X64625D01*
X60392Y24506D02*
X60825Y24025D01*
X61375D01*
X60810Y27410D02*
X61440D01*
X76525Y16675D02*
Y17875D01*
X78475Y16675D02*
Y17875D01*
X79625Y16675D02*
Y17875D01*
X76525Y16675D02*
X79625D01*
X76525Y17875D02*
X79625D01*
X76525Y13425D02*
Y14625D01*
X78475Y13425D02*
Y14625D01*
X79625Y13425D02*
Y14625D01*
X76525Y13425D02*
X79625D01*
X76525Y14625D02*
X79625D01*
X70125Y35975D02*
X71325D01*
X70125Y34025D02*
X71325D01*
X70125Y32875D02*
X71325D01*
X70125D02*
Y35975D01*
X71325Y32875D02*
Y35975D01*
X47498Y30558D02*
Y30178D01*
X47574Y30102D01*
X47726D01*
X47802Y30178D01*
Y30558D01*
X47954Y30102D02*
X48106D01*
X48030D01*
Y30558D01*
X47954Y30482D01*
X48334Y30102D02*
X48486D01*
X48410D01*
Y30558D01*
X48334Y30482D01*
X50779Y6705D02*
X50703Y6781D01*
X50551D01*
X50475Y6705D01*
Y6401D01*
X50551Y6325D01*
X50703D01*
X50779Y6401D01*
X50931Y6325D02*
Y6781D01*
X51159D01*
X51235Y6705D01*
Y6553D01*
X51159Y6477D01*
X50931D01*
X51083D02*
X51235Y6325D01*
X51387D02*
X51539D01*
X51463D01*
Y6781D01*
X51387Y6705D01*
X49625Y32373D02*
Y31994D01*
X49701Y31918D01*
X49853D01*
X49929Y31994D01*
Y32373D01*
X50385D02*
X50233Y32298D01*
X50081Y32146D01*
Y31994D01*
X50157Y31918D01*
X50309D01*
X50385Y31994D01*
Y32070D01*
X50309Y32146D01*
X50081D01*
X53229Y7328D02*
X53153Y7404D01*
X53001D01*
X52925Y7328D01*
Y7024D01*
X53001Y6948D01*
X53153D01*
X53229Y7024D01*
X53380Y6948D02*
X53532D01*
X53456D01*
Y7404D01*
X53380Y7328D01*
X59484Y26580D02*
X59408Y26656D01*
X59256D01*
X59180Y26580D01*
Y26276D01*
X59256Y26200D01*
X59408D01*
X59484Y26276D01*
X59636Y26656D02*
X59940D01*
Y26580D01*
X59636Y26276D01*
Y26200D01*
X62381Y8636D02*
Y8256D01*
X62457Y8180D01*
X62609D01*
X62685Y8256D01*
Y8636D01*
X63141Y8180D02*
X62837D01*
X63141Y8484D01*
Y8560D01*
X63065Y8636D01*
X62913D01*
X62837Y8560D01*
X62875Y28775D02*
Y29231D01*
X63103D01*
X63179Y29155D01*
Y29003D01*
X63103Y28927D01*
X62875D01*
X63027D02*
X63179Y28775D01*
X63331D02*
X63483D01*
X63407D01*
Y29231D01*
X63331Y29155D01*
X63711D02*
X63787Y29231D01*
X63939D01*
X64015Y29155D01*
Y28851D01*
X63939Y28775D01*
X63787D01*
X63711Y28851D01*
Y29155D01*
X68325Y3225D02*
Y3681D01*
X68553D01*
X68629Y3605D01*
Y3453D01*
X68553Y3377D01*
X68325D01*
X68477D02*
X68629Y3225D01*
X69085Y3681D02*
X68933Y3605D01*
X68781Y3453D01*
Y3301D01*
X68857Y3225D01*
X69009D01*
X69085Y3301D01*
Y3377D01*
X69009Y3453D01*
X68781D01*
X68475Y9275D02*
Y9731D01*
X68703D01*
X68779Y9655D01*
Y9503D01*
X68703Y9427D01*
X68475D01*
X68627D02*
X68779Y9275D01*
X68931Y9731D02*
X69235D01*
Y9655D01*
X68931Y9351D01*
Y9275D01*
X50029Y10655D02*
X49953Y10731D01*
X49801D01*
X49725Y10655D01*
Y10351D01*
X49801Y10275D01*
X49953D01*
X50029Y10351D01*
X50485Y10731D02*
X50333Y10655D01*
X50181Y10503D01*
Y10351D01*
X50257Y10275D01*
X50409D01*
X50485Y10351D01*
Y10427D01*
X50409Y10503D01*
X50181D01*
X62260Y24820D02*
Y25276D01*
X62488D01*
X62564Y25200D01*
Y25048D01*
X62488Y24972D01*
X62260D01*
X62412D02*
X62564Y24820D01*
X63020D02*
X62716D01*
X63020Y25124D01*
Y25200D01*
X62944Y25276D01*
X62792D01*
X62716Y25200D01*
X63400Y24820D02*
Y25276D01*
X63172Y25048D01*
X63476D01*
X83284Y36460D02*
X83208Y36536D01*
X83056D01*
X82980Y36460D01*
Y36156D01*
X83056Y36080D01*
X83208D01*
X83284Y36156D01*
X83436Y36080D02*
Y36536D01*
X83664D01*
X83740Y36460D01*
Y36308D01*
X83664Y36232D01*
X83436D01*
X83588D02*
X83740Y36080D01*
X83892Y36460D02*
X83968Y36536D01*
X84120D01*
X84196Y36460D01*
Y36384D01*
X84120Y36308D01*
X84044D01*
X84120D01*
X84196Y36232D01*
Y36156D01*
X84120Y36080D01*
X83968D01*
X83892Y36156D01*
X83160Y11096D02*
Y10716D01*
X83236Y10640D01*
X83388D01*
X83464Y10716D01*
Y11096D01*
X83616Y10640D02*
X83768D01*
X83692D01*
Y11096D01*
X83616Y11020D01*
X83996D02*
X84072Y11096D01*
X84224D01*
X84300Y11020D01*
Y10944D01*
X84224Y10868D01*
X84148D01*
X84224D01*
X84300Y10792D01*
Y10716D01*
X84224Y10640D01*
X84072D01*
X83996Y10716D01*
X83140Y25776D02*
Y25396D01*
X83216Y25320D01*
X83368D01*
X83444Y25396D01*
Y25776D01*
X83596Y25320D02*
X83748D01*
X83672D01*
Y25776D01*
X83596Y25700D01*
X84280Y25320D02*
X83976D01*
X84280Y25624D01*
Y25700D01*
X84204Y25776D01*
X84052D01*
X83976Y25700D01*
X49475Y14025D02*
Y14481D01*
X49703D01*
X49779Y14405D01*
Y14253D01*
X49703Y14177D01*
X49475D01*
X49627D02*
X49779Y14025D01*
X49931D02*
X50083D01*
X50007D01*
Y14481D01*
X49931Y14405D01*
X50615Y14481D02*
X50463Y14405D01*
X50311Y14253D01*
Y14101D01*
X50387Y14025D01*
X50539D01*
X50615Y14101D01*
Y14177D01*
X50539Y14253D01*
X50311D01*
X49475Y16525D02*
Y16981D01*
X49703D01*
X49779Y16905D01*
Y16753D01*
X49703Y16677D01*
X49475D01*
X49627D02*
X49779Y16525D01*
X49931D02*
X50083D01*
X50007D01*
Y16981D01*
X49931Y16905D01*
X50311Y16981D02*
X50615D01*
Y16905D01*
X50311Y16601D01*
Y16525D01*
X49873Y22927D02*
X49800Y23000D01*
X49653D01*
X49580Y22927D01*
Y22633D01*
X49653Y22560D01*
X49800D01*
X49873Y22633D01*
X50020Y22927D02*
X50093Y23000D01*
X50240D01*
X50313Y22927D01*
Y22853D01*
X50240Y22780D01*
X50313Y22707D01*
Y22633D01*
X50240Y22560D01*
X50093D01*
X50020Y22633D01*
Y22707D01*
X50093Y22780D01*
X50020Y22853D01*
Y22927D01*
X50093Y22780D02*
X50240D01*
X49420Y25040D02*
Y25470D01*
X49635D01*
X49707Y25398D01*
Y25255D01*
X49635Y25183D01*
X49420D01*
X49563D02*
X49707Y25040D01*
X49850D02*
X49993D01*
X49921D01*
Y25470D01*
X49850Y25398D01*
X50495Y25470D02*
X50208D01*
Y25255D01*
X50351Y25327D01*
X50423D01*
X50495Y25255D01*
Y25112D01*
X50423Y25040D01*
X50280D01*
X50208Y25112D01*
X51365Y29215D02*
Y29671D01*
X51593D01*
X51669Y29595D01*
Y29443D01*
X51593Y29367D01*
X51365D01*
X51517D02*
X51669Y29215D01*
X51821Y29595D02*
X51897Y29671D01*
X52049D01*
X52125Y29595D01*
Y29519D01*
X52049Y29443D01*
X52125Y29367D01*
Y29291D01*
X52049Y29215D01*
X51897D01*
X51821Y29291D01*
Y29367D01*
X51897Y29443D01*
X51821Y29519D01*
Y29595D01*
X51897Y29443D02*
X52049D01*
X69560Y16020D02*
Y16476D01*
X69788D01*
X69864Y16400D01*
Y16248D01*
X69788Y16172D01*
X69560D01*
X69712D02*
X69864Y16020D01*
X70320Y16476D02*
X70016D01*
Y16248D01*
X70168Y16324D01*
X70244D01*
X70320Y16248D01*
Y16096D01*
X70244Y16020D01*
X70092D01*
X70016Y16096D01*
X66529Y34801D02*
Y35105D01*
X66453Y35181D01*
X66301D01*
X66225Y35105D01*
Y34801D01*
X66301Y34725D01*
X66453D01*
X66377Y34877D02*
X66529Y34725D01*
X66453D02*
X66529Y34801D01*
X66681Y35105D02*
X66757Y35181D01*
X66909D01*
X66985Y35105D01*
Y35029D01*
X66909Y34953D01*
X66833D01*
X66909D01*
X66985Y34877D01*
Y34801D01*
X66909Y34725D01*
X66757D01*
X66681Y34801D01*
X81764Y34356D02*
Y34660D01*
X81688Y34736D01*
X81536D01*
X81460Y34660D01*
Y34356D01*
X81536Y34280D01*
X81688D01*
X81612Y34432D02*
X81764Y34280D01*
X81688D02*
X81764Y34356D01*
X82220Y34280D02*
X81916D01*
X82220Y34584D01*
Y34660D01*
X82144Y34736D01*
X81992D01*
X81916Y34660D01*
X44620Y17316D02*
Y16936D01*
X44696Y16860D01*
X44848D01*
X44924Y16936D01*
Y17316D01*
X45076Y16860D02*
X45228D01*
X45152D01*
Y17316D01*
X45076Y17240D01*
X45456D02*
X45532Y17316D01*
X45684D01*
X45760Y17240D01*
Y16936D01*
X45684Y16860D01*
X45532D01*
X45456Y16936D01*
Y17240D01*
X45693Y28776D02*
Y28396D01*
X45769Y28320D01*
X45921D01*
X45997Y28396D01*
Y28776D01*
X46149Y28320D02*
X46301D01*
X46225D01*
Y28776D01*
X46149Y28700D01*
X46757Y28320D02*
Y28776D01*
X46529Y28548D01*
X46833D01*
X56675Y5781D02*
Y5401D01*
X56751Y5325D01*
X56903D01*
X56979Y5401D01*
Y5781D01*
X57131Y5325D02*
X57283D01*
X57207D01*
Y5781D01*
X57131Y5705D01*
X51584Y10520D02*
Y10140D01*
X51660Y10064D01*
X51812D01*
X51888Y10140D01*
Y10520D01*
X52040Y10444D02*
X52116Y10520D01*
X52268D01*
X52344Y10444D01*
Y10368D01*
X52268Y10292D01*
X52192D01*
X52268D01*
X52344Y10216D01*
Y10140D01*
X52268Y10064D01*
X52116D01*
X52040Y10140D01*
X52819Y21528D02*
Y21983D01*
X53047D01*
X53123Y21907D01*
Y21755D01*
X53047Y21679D01*
X52819D01*
X52971D02*
X53123Y21528D01*
X53579D02*
X53275D01*
X53579Y21831D01*
Y21907D01*
X53503Y21983D01*
X53351D01*
X53275Y21907D01*
X53143Y12705D02*
X53067Y12781D01*
X52915D01*
X52839Y12705D01*
Y12401D01*
X52915Y12325D01*
X53067D01*
X53143Y12401D01*
X53295D02*
X53371Y12325D01*
X53523D01*
X53599Y12401D01*
Y12705D01*
X53523Y12781D01*
X53371D01*
X53295Y12705D01*
Y12629D01*
X53371Y12553D01*
X53599D01*
X50029Y18351D02*
Y18655D01*
X49953Y18731D01*
X49801D01*
X49725Y18655D01*
Y18351D01*
X49801Y18275D01*
X49953D01*
X49877Y18427D02*
X50029Y18275D01*
X49953D02*
X50029Y18351D01*
X50181Y18275D02*
X50333D01*
X50257D01*
Y18731D01*
X50181Y18655D01*
X49420Y24120D02*
Y24550D01*
X49635D01*
X49707Y24478D01*
Y24335D01*
X49635Y24263D01*
X49420D01*
X49563D02*
X49707Y24120D01*
X49850D02*
X49993D01*
X49921D01*
Y24550D01*
X49850Y24478D01*
X50208D02*
X50280Y24550D01*
X50423D01*
X50495Y24478D01*
Y24407D01*
X50423Y24335D01*
X50351D01*
X50423D01*
X50495Y24263D01*
Y24192D01*
X50423Y24120D01*
X50280D01*
X50208Y24192D01*
X49779Y27431D02*
X49627D01*
X49703D01*
Y27051D01*
X49627Y26975D01*
X49551D01*
X49475Y27051D01*
X49931Y27431D02*
X50235D01*
X50083D01*
Y26975D01*
X50387D02*
X50539D01*
X50463D01*
Y27431D01*
X50387Y27355D01*
X65025Y3981D02*
Y3525D01*
X65253D01*
X65329Y3601D01*
Y3905D01*
X65253Y3981D01*
X65025D01*
X65785Y3525D02*
X65481D01*
X65785Y3829D01*
Y3905D01*
X65709Y3981D01*
X65557D01*
X65481Y3905D01*
X64864Y5791D02*
Y5335D01*
X65092D01*
X65168Y5411D01*
Y5715D01*
X65092Y5791D01*
X64864D01*
X65320Y5335D02*
X65472D01*
X65396D01*
Y5791D01*
X65320Y5715D01*
X64804Y7027D02*
X64728Y7103D01*
X64576D01*
X64500Y7027D01*
Y6723D01*
X64576Y6647D01*
X64728D01*
X64804Y6723D01*
X65260Y7103D02*
X64956D01*
Y6875D01*
X65108Y6951D01*
X65184D01*
X65260Y6875D01*
Y6723D01*
X65184Y6647D01*
X65032D01*
X64956Y6723D01*
X64960Y19556D02*
Y19176D01*
X65036Y19100D01*
X65188D01*
X65264Y19176D01*
Y19556D01*
X65416Y19176D02*
X65492Y19100D01*
X65644D01*
X65720Y19176D01*
Y19480D01*
X65644Y19556D01*
X65492D01*
X65416Y19480D01*
Y19404D01*
X65492Y19328D01*
X65720D01*
X69500Y18060D02*
Y18516D01*
X69728D01*
X69804Y18440D01*
Y18288D01*
X69728Y18212D01*
X69500D01*
X69652D02*
X69804Y18060D01*
X70184D02*
Y18516D01*
X69956Y18288D01*
X70260D01*
X60830Y28146D02*
X61134Y27690D01*
Y28146D02*
X60830Y27690D01*
X61286D02*
X61438D01*
X61362D01*
Y28146D01*
X61286Y28070D01*
X81475Y3275D02*
Y3731D01*
X81703D01*
X81779Y3655D01*
Y3503D01*
X81703Y3427D01*
X81475D01*
X81627D02*
X81779Y3275D01*
X82235D02*
X81931D01*
X82235Y3579D01*
Y3655D01*
X82159Y3731D01*
X82007D01*
X81931Y3655D01*
X82387D02*
X82463Y3731D01*
X82615D01*
X82691Y3655D01*
Y3351D01*
X82615Y3275D01*
X82463D01*
X82387Y3351D01*
Y3655D01*
X76525Y18634D02*
Y18178D01*
X76753D01*
X76829Y18254D01*
Y18558D01*
X76753Y18634D01*
X76525D01*
X76981Y18254D02*
X77057Y18178D01*
X77209D01*
X77285Y18254D01*
Y18558D01*
X77209Y18634D01*
X77057D01*
X76981Y18558D01*
Y18482D01*
X77057Y18406D01*
X77285D01*
X76525Y15381D02*
Y14925D01*
X76753D01*
X76829Y15001D01*
Y15305D01*
X76753Y15381D01*
X76525D01*
X76981Y15305D02*
X77057Y15381D01*
X77209D01*
X77285Y15305D01*
Y15229D01*
X77209Y15153D01*
X77285Y15077D01*
Y15001D01*
X77209Y14925D01*
X77057D01*
X76981Y15001D01*
Y15077D01*
X77057Y15153D01*
X76981Y15229D01*
Y15305D01*
X77057Y15153D02*
X77209D01*
X73168Y15856D02*
Y15476D01*
X73244Y15400D01*
X73396D01*
X73471Y15476D01*
Y15856D01*
X73927D02*
X73623D01*
Y15628D01*
X73775Y15704D01*
X73851D01*
X73927Y15628D01*
Y15476D01*
X73851Y15400D01*
X73699D01*
X73623Y15476D01*
X73168Y19156D02*
Y18776D01*
X73244Y18700D01*
X73396D01*
X73471Y18776D01*
Y19156D01*
X73623Y19080D02*
X73699Y19156D01*
X73851D01*
X73927Y19080D01*
Y19004D01*
X73851Y18928D01*
X73927Y18852D01*
Y18776D01*
X73851Y18700D01*
X73699D01*
X73623Y18776D01*
Y18852D01*
X73699Y18928D01*
X73623Y19004D01*
Y19080D01*
X73699Y18928D02*
X73851D01*
X45225Y25225D02*
Y25681D01*
X45453D01*
X45529Y25605D01*
Y25453D01*
X45453Y25377D01*
X45225D01*
X45377D02*
X45529Y25225D01*
X45985D02*
X45681D01*
X45985Y25529D01*
Y25605D01*
X45909Y25681D01*
X45757D01*
X45681Y25605D01*
X46441Y25681D02*
X46137D01*
Y25453D01*
X46289Y25529D01*
X46365D01*
X46441Y25453D01*
Y25301D01*
X46365Y25225D01*
X46213D01*
X46137Y25301D01*
X55636Y27149D02*
Y26769D01*
X55712Y26693D01*
X55864D01*
X55940Y26769D01*
Y27149D01*
X56320Y26693D02*
Y27149D01*
X56092Y26921D01*
X56396D01*
X52225Y11325D02*
Y11781D01*
X52453D01*
X52529Y11705D01*
Y11553D01*
X52453Y11477D01*
X52225D01*
X52377D02*
X52529Y11325D01*
X52681D02*
X52833D01*
X52757D01*
Y11781D01*
X52681Y11705D01*
X65975Y13231D02*
Y12851D01*
X66051Y12775D01*
X66203D01*
X66279Y12851D01*
Y13231D01*
X66431D02*
X66735D01*
Y13155D01*
X66431Y12851D01*
Y12775D01*
X66100Y22240D02*
Y22696D01*
X66328D01*
X66404Y22620D01*
Y22468D01*
X66328Y22392D01*
X66100D01*
X66252D02*
X66404Y22240D01*
X66860D02*
X66556D01*
X66860Y22544D01*
Y22620D01*
X66784Y22696D01*
X66632D01*
X66556Y22620D01*
X67316Y22240D02*
X67012D01*
X67316Y22544D01*
Y22620D01*
X67240Y22696D01*
X67088D01*
X67012Y22620D01*
X56175Y13825D02*
Y14281D01*
X56403D01*
X56479Y14205D01*
Y14053D01*
X56403Y13977D01*
X56175D01*
X56327D02*
X56479Y13825D01*
X56631D02*
X56783D01*
X56707D01*
Y14281D01*
X56631Y14205D01*
X57315Y13825D02*
X57011D01*
X57315Y14129D01*
Y14205D01*
X57239Y14281D01*
X57087D01*
X57011Y14205D01*
X59225Y16525D02*
Y16981D01*
X59453D01*
X59529Y16905D01*
Y16753D01*
X59453Y16677D01*
X59225D01*
X59377D02*
X59529Y16525D01*
X59681D02*
X59833D01*
X59757D01*
Y16981D01*
X59681Y16905D01*
X60061Y16601D02*
X60137Y16525D01*
X60289D01*
X60365Y16601D01*
Y16905D01*
X60289Y16981D01*
X60137D01*
X60061Y16905D01*
Y16829D01*
X60137Y16753D01*
X60365D01*
X58975Y19775D02*
Y20231D01*
X59203D01*
X59279Y20155D01*
Y20003D01*
X59203Y19927D01*
X58975D01*
X59127D02*
X59279Y19775D01*
X59431Y20155D02*
X59507Y20231D01*
X59659D01*
X59735Y20155D01*
Y20079D01*
X59659Y20003D01*
X59583D01*
X59659D01*
X59735Y19927D01*
Y19851D01*
X59659Y19775D01*
X59507D01*
X59431Y19851D01*
X56840Y27820D02*
Y28276D01*
X57068D01*
X57144Y28200D01*
Y28048D01*
X57068Y27972D01*
X56840D01*
X56992D02*
X57144Y27820D01*
X57296D02*
X57448D01*
X57372D01*
Y28276D01*
X57296Y28200D01*
X57904Y27820D02*
Y28276D01*
X57676Y28048D01*
X57980D01*
X57929Y3905D02*
X57853Y3981D01*
X57701D01*
X57625Y3905D01*
Y3601D01*
X57701Y3525D01*
X57853D01*
X57929Y3601D01*
X58309Y3525D02*
Y3981D01*
X58081Y3753D01*
X58385D01*
X58975Y21275D02*
Y21731D01*
X59203D01*
X59279Y21655D01*
Y21503D01*
X59203Y21427D01*
X58975D01*
X59127D02*
X59279Y21275D01*
X59431Y21351D02*
X59507Y21275D01*
X59659D01*
X59735Y21351D01*
Y21655D01*
X59659Y21731D01*
X59507D01*
X59431Y21655D01*
Y21579D01*
X59507Y21503D01*
X59735D01*
X59225Y18025D02*
Y18481D01*
X59453D01*
X59529Y18405D01*
Y18253D01*
X59453Y18177D01*
X59225D01*
X59377D02*
X59529Y18025D01*
X59681D02*
X59833D01*
X59757D01*
Y18481D01*
X59681Y18405D01*
X60061D02*
X60137Y18481D01*
X60289D01*
X60365Y18405D01*
Y18329D01*
X60289Y18253D01*
X60365Y18177D01*
Y18101D01*
X60289Y18025D01*
X60137D01*
X60061Y18101D01*
Y18177D01*
X60137Y18253D01*
X60061Y18329D01*
Y18405D01*
X60137Y18253D02*
X60289D01*
X56529Y12905D02*
X56453Y12981D01*
X56301D01*
X56225Y12905D01*
Y12601D01*
X56301Y12525D01*
X56453D01*
X56529Y12601D01*
X56681Y12525D02*
X56833D01*
X56757D01*
Y12981D01*
X56681Y12905D01*
X57061D02*
X57137Y12981D01*
X57289D01*
X57365Y12905D01*
Y12601D01*
X57289Y12525D01*
X57137D01*
X57061Y12601D01*
Y12905D01*
X59000Y9800D02*
Y10256D01*
X59228D01*
X59304Y10180D01*
Y10028D01*
X59228Y9952D01*
X59000D01*
X59152D02*
X59304Y9800D01*
X59456D02*
X59608D01*
X59532D01*
Y10256D01*
X59456Y10180D01*
X59836Y9800D02*
X59988D01*
X59912D01*
Y10256D01*
X59836Y10180D01*
X70464Y36580D02*
X70388Y36656D01*
X70236D01*
X70160Y36580D01*
Y36276D01*
X70236Y36200D01*
X70388D01*
X70464Y36276D01*
X70616Y36200D02*
Y36656D01*
X70844D01*
X70920Y36580D01*
Y36428D01*
X70844Y36352D01*
X70616D01*
X70768D02*
X70920Y36200D01*
X71376D02*
X71072D01*
X71376Y36504D01*
Y36580D01*
X71300Y36656D01*
X71148D01*
X71072Y36580D01*
X20945Y42752D02*
X21300D01*
X20681Y42312D02*
Y42634D01*
Y42312D02*
X20850D01*
X21400D02*
X21569D01*
Y42624D01*
X20150Y59700D02*
Y62200D01*
X19675Y59225D02*
X20150Y59700D01*
X19740Y62610D02*
X20150Y62200D01*
X18693Y62193D02*
X19110Y62610D01*
X18693Y59706D02*
Y62193D01*
X41175Y71075D02*
X42375D01*
X41175Y69125D02*
X42375D01*
X41175Y67975D02*
X42375D01*
X41175D02*
Y71075D01*
X42375Y67975D02*
Y71075D01*
X26075Y69955D02*
X26275D01*
X26775Y70055D02*
Y70455D01*
X26475D02*
X26775D01*
X25575Y70055D02*
Y70455D01*
X25875D01*
X38825Y69555D02*
X39025D01*
X39525Y69655D02*
Y70055D01*
X39225D02*
X39525D01*
X38325Y69655D02*
Y70055D01*
X38625D01*
X9525Y54045D02*
X9725D01*
X9025Y53545D02*
Y53945D01*
Y53545D02*
X9325D01*
X10225D02*
Y53945D01*
X9925Y53545D02*
X10225D01*
X9275Y62925D02*
X10775D01*
X9025Y62675D02*
X9275Y62925D01*
X9025Y62175D02*
Y62675D01*
Y62175D02*
X9275Y61925D01*
X10775D01*
X11025Y62175D01*
Y62675D01*
X10775Y62925D02*
X11025Y62675D01*
X22975Y38375D02*
Y39575D01*
X21025Y38375D02*
Y39575D01*
X19875Y38375D02*
Y39575D01*
X22975D01*
X19875Y38375D02*
X22975D01*
X19825Y40125D02*
Y41325D01*
X21775Y40125D02*
Y41325D01*
X22925Y40125D02*
Y41325D01*
X19825Y40125D02*
X22925D01*
X19825Y41325D02*
X22925D01*
X18693Y59706D02*
X19125Y59225D01*
X19675D01*
X19110Y62610D02*
X19740D01*
X34825Y51875D02*
Y53075D01*
X36775Y51875D02*
Y53075D01*
X37925Y51875D02*
Y53075D01*
X34825Y51875D02*
X37925D01*
X34825Y53075D02*
X37925D01*
X34825Y48625D02*
Y49825D01*
X36775Y48625D02*
Y49825D01*
X37925Y48625D02*
Y49825D01*
X34825Y48625D02*
X37925D01*
X34825Y49825D02*
X37925D01*
X28425Y71175D02*
X29625D01*
X28425Y69225D02*
X29625D01*
X28425Y68075D02*
X29625D01*
X28425D02*
Y71175D01*
X29625Y68075D02*
Y71175D01*
X5798Y65758D02*
Y65378D01*
X5874Y65302D01*
X6026D01*
X6102Y65378D01*
Y65758D01*
X6254Y65302D02*
X6406D01*
X6330D01*
Y65758D01*
X6254Y65682D01*
X6634Y65302D02*
X6786D01*
X6710D01*
Y65758D01*
X6634Y65682D01*
X9079Y41905D02*
X9003Y41981D01*
X8851D01*
X8775Y41905D01*
Y41601D01*
X8851Y41525D01*
X9003D01*
X9079Y41601D01*
X9231Y41525D02*
Y41981D01*
X9459D01*
X9535Y41905D01*
Y41753D01*
X9459Y41677D01*
X9231D01*
X9383D02*
X9535Y41525D01*
X9687D02*
X9839D01*
X9763D01*
Y41981D01*
X9687Y41905D01*
X7925Y67573D02*
Y67194D01*
X8001Y67118D01*
X8153D01*
X8229Y67194D01*
Y67573D01*
X8685D02*
X8533Y67498D01*
X8381Y67346D01*
Y67194D01*
X8457Y67118D01*
X8609D01*
X8685Y67194D01*
Y67270D01*
X8609Y67346D01*
X8381D01*
X11529Y42528D02*
X11453Y42604D01*
X11301D01*
X11225Y42528D01*
Y42224D01*
X11301Y42148D01*
X11453D01*
X11529Y42224D01*
X11680Y42148D02*
X11832D01*
X11756D01*
Y42604D01*
X11680Y42528D01*
X17784Y61780D02*
X17708Y61856D01*
X17556D01*
X17480Y61780D01*
Y61476D01*
X17556Y61400D01*
X17708D01*
X17784Y61476D01*
X17936Y61856D02*
X18240D01*
Y61780D01*
X17936Y61476D01*
Y61400D01*
X20681Y43836D02*
Y43456D01*
X20757Y43380D01*
X20909D01*
X20985Y43456D01*
Y43836D01*
X21441Y43380D02*
X21137D01*
X21441Y43684D01*
Y43760D01*
X21365Y43836D01*
X21213D01*
X21137Y43760D01*
X21175Y63975D02*
Y64431D01*
X21403D01*
X21479Y64355D01*
Y64203D01*
X21403Y64127D01*
X21175D01*
X21327D02*
X21479Y63975D01*
X21631D02*
X21783D01*
X21707D01*
Y64431D01*
X21631Y64355D01*
X22011D02*
X22087Y64431D01*
X22239D01*
X22315Y64355D01*
Y64051D01*
X22239Y63975D01*
X22087D01*
X22011Y64051D01*
Y64355D01*
X26625Y38425D02*
Y38881D01*
X26853D01*
X26929Y38805D01*
Y38653D01*
X26853Y38577D01*
X26625D01*
X26777D02*
X26929Y38425D01*
X27385Y38881D02*
X27233Y38805D01*
X27081Y38653D01*
Y38501D01*
X27157Y38425D01*
X27309D01*
X27385Y38501D01*
Y38577D01*
X27309Y38653D01*
X27081D01*
X26775Y44475D02*
Y44931D01*
X27003D01*
X27079Y44855D01*
Y44703D01*
X27003Y44627D01*
X26775D01*
X26927D02*
X27079Y44475D01*
X27231Y44931D02*
X27535D01*
Y44855D01*
X27231Y44551D01*
Y44475D01*
X8329Y45855D02*
X8253Y45931D01*
X8101D01*
X8025Y45855D01*
Y45551D01*
X8101Y45475D01*
X8253D01*
X8329Y45551D01*
X8785Y45931D02*
X8633Y45855D01*
X8481Y45703D01*
Y45551D01*
X8557Y45475D01*
X8709D01*
X8785Y45551D01*
Y45627D01*
X8709Y45703D01*
X8481D01*
X20560Y60020D02*
Y60476D01*
X20788D01*
X20864Y60400D01*
Y60248D01*
X20788Y60172D01*
X20560D01*
X20712D02*
X20864Y60020D01*
X21320D02*
X21016D01*
X21320Y60324D01*
Y60400D01*
X21244Y60476D01*
X21092D01*
X21016Y60400D01*
X21700Y60020D02*
Y60476D01*
X21472Y60248D01*
X21776D01*
X41584Y71660D02*
X41508Y71736D01*
X41356D01*
X41280Y71660D01*
Y71356D01*
X41356Y71280D01*
X41508D01*
X41584Y71356D01*
X41736Y71280D02*
Y71736D01*
X41964D01*
X42040Y71660D01*
Y71508D01*
X41964Y71432D01*
X41736D01*
X41888D02*
X42040Y71280D01*
X42192Y71660D02*
X42268Y71736D01*
X42420D01*
X42496Y71660D01*
Y71584D01*
X42420Y71508D01*
X42344D01*
X42420D01*
X42496Y71432D01*
Y71356D01*
X42420Y71280D01*
X42268D01*
X42192Y71356D01*
X41460Y46296D02*
Y45916D01*
X41536Y45840D01*
X41688D01*
X41764Y45916D01*
Y46296D01*
X41916Y45840D02*
X42068D01*
X41992D01*
Y46296D01*
X41916Y46220D01*
X42296D02*
X42372Y46296D01*
X42524D01*
X42600Y46220D01*
Y46144D01*
X42524Y46068D01*
X42448D01*
X42524D01*
X42600Y45992D01*
Y45916D01*
X42524Y45840D01*
X42372D01*
X42296Y45916D01*
X41440Y60976D02*
Y60596D01*
X41516Y60520D01*
X41668D01*
X41744Y60596D01*
Y60976D01*
X41896Y60520D02*
X42048D01*
X41972D01*
Y60976D01*
X41896Y60900D01*
X42580Y60520D02*
X42276D01*
X42580Y60824D01*
Y60900D01*
X42504Y60976D01*
X42352D01*
X42276Y60900D01*
X7775Y49225D02*
Y49681D01*
X8003D01*
X8079Y49605D01*
Y49453D01*
X8003Y49377D01*
X7775D01*
X7927D02*
X8079Y49225D01*
X8231D02*
X8383D01*
X8307D01*
Y49681D01*
X8231Y49605D01*
X8915Y49681D02*
X8763Y49605D01*
X8611Y49453D01*
Y49301D01*
X8687Y49225D01*
X8839D01*
X8915Y49301D01*
Y49377D01*
X8839Y49453D01*
X8611D01*
X7775Y51725D02*
Y52181D01*
X8003D01*
X8079Y52105D01*
Y51953D01*
X8003Y51877D01*
X7775D01*
X7927D02*
X8079Y51725D01*
X8231D02*
X8383D01*
X8307D01*
Y52181D01*
X8231Y52105D01*
X8611Y52181D02*
X8915D01*
Y52105D01*
X8611Y51801D01*
Y51725D01*
X8173Y58127D02*
X8100Y58200D01*
X7953D01*
X7880Y58127D01*
Y57833D01*
X7953Y57760D01*
X8100D01*
X8173Y57833D01*
X8320Y58127D02*
X8393Y58200D01*
X8540D01*
X8613Y58127D01*
Y58053D01*
X8540Y57980D01*
X8613Y57907D01*
Y57833D01*
X8540Y57760D01*
X8393D01*
X8320Y57833D01*
Y57907D01*
X8393Y57980D01*
X8320Y58053D01*
Y58127D01*
X8393Y57980D02*
X8540D01*
X7720Y60240D02*
Y60670D01*
X7935D01*
X8007Y60598D01*
Y60455D01*
X7935Y60383D01*
X7720D01*
X7863D02*
X8007Y60240D01*
X8150D02*
X8293D01*
X8221D01*
Y60670D01*
X8150Y60598D01*
X8795Y60670D02*
X8508D01*
Y60455D01*
X8651Y60527D01*
X8723D01*
X8795Y60455D01*
Y60312D01*
X8723Y60240D01*
X8580D01*
X8508Y60312D01*
X9665Y64415D02*
Y64871D01*
X9893D01*
X9969Y64795D01*
Y64643D01*
X9893Y64567D01*
X9665D01*
X9817D02*
X9969Y64415D01*
X10121Y64795D02*
X10197Y64871D01*
X10349D01*
X10425Y64795D01*
Y64719D01*
X10349Y64643D01*
X10425Y64567D01*
Y64491D01*
X10349Y64415D01*
X10197D01*
X10121Y64491D01*
Y64567D01*
X10197Y64643D01*
X10121Y64719D01*
Y64795D01*
X10197Y64643D02*
X10349D01*
X27860Y51220D02*
Y51676D01*
X28088D01*
X28164Y51600D01*
Y51448D01*
X28088Y51372D01*
X27860D01*
X28012D02*
X28164Y51220D01*
X28620Y51676D02*
X28316D01*
Y51448D01*
X28468Y51524D01*
X28544D01*
X28620Y51448D01*
Y51296D01*
X28544Y51220D01*
X28392D01*
X28316Y51296D01*
X24829Y70001D02*
Y70305D01*
X24753Y70381D01*
X24601D01*
X24525Y70305D01*
Y70001D01*
X24601Y69925D01*
X24753D01*
X24677Y70077D02*
X24829Y69925D01*
X24753D02*
X24829Y70001D01*
X24981Y70305D02*
X25057Y70381D01*
X25209D01*
X25285Y70305D01*
Y70229D01*
X25209Y70153D01*
X25133D01*
X25209D01*
X25285Y70077D01*
Y70001D01*
X25209Y69925D01*
X25057D01*
X24981Y70001D01*
X40064Y69556D02*
Y69860D01*
X39988Y69936D01*
X39836D01*
X39760Y69860D01*
Y69556D01*
X39836Y69480D01*
X39988D01*
X39912Y69632D02*
X40064Y69480D01*
X39988D02*
X40064Y69556D01*
X40520Y69480D02*
X40216D01*
X40520Y69784D01*
Y69860D01*
X40444Y69936D01*
X40292D01*
X40216Y69860D01*
X2920Y52516D02*
Y52136D01*
X2996Y52060D01*
X3148D01*
X3224Y52136D01*
Y52516D01*
X3376Y52060D02*
X3528D01*
X3452D01*
Y52516D01*
X3376Y52440D01*
X3756D02*
X3832Y52516D01*
X3984D01*
X4060Y52440D01*
Y52136D01*
X3984Y52060D01*
X3832D01*
X3756Y52136D01*
Y52440D01*
X3993Y63976D02*
Y63596D01*
X4069Y63520D01*
X4221D01*
X4297Y63596D01*
Y63976D01*
X4449Y63520D02*
X4601D01*
X4525D01*
Y63976D01*
X4449Y63900D01*
X5057Y63520D02*
Y63976D01*
X4829Y63748D01*
X5133D01*
X14975Y40981D02*
Y40601D01*
X15051Y40525D01*
X15203D01*
X15279Y40601D01*
Y40981D01*
X15431Y40525D02*
X15583D01*
X15507D01*
Y40981D01*
X15431Y40905D01*
X9884Y45720D02*
Y45340D01*
X9960Y45264D01*
X10112D01*
X10188Y45340D01*
Y45720D01*
X10340Y45644D02*
X10416Y45720D01*
X10568D01*
X10644Y45644D01*
Y45568D01*
X10568Y45492D01*
X10492D01*
X10568D01*
X10644Y45416D01*
Y45340D01*
X10568Y45264D01*
X10416D01*
X10340Y45340D01*
X11119Y56727D02*
Y57183D01*
X11347D01*
X11423Y57107D01*
Y56955D01*
X11347Y56879D01*
X11119D01*
X11271D02*
X11423Y56727D01*
X11879D02*
X11575D01*
X11879Y57031D01*
Y57107D01*
X11803Y57183D01*
X11651D01*
X11575Y57107D01*
X11443Y47905D02*
X11367Y47981D01*
X11215D01*
X11139Y47905D01*
Y47601D01*
X11215Y47525D01*
X11367D01*
X11443Y47601D01*
X11595D02*
X11671Y47525D01*
X11823D01*
X11899Y47601D01*
Y47905D01*
X11823Y47981D01*
X11671D01*
X11595Y47905D01*
Y47829D01*
X11671Y47753D01*
X11899D01*
X8329Y53551D02*
Y53855D01*
X8253Y53931D01*
X8101D01*
X8025Y53855D01*
Y53551D01*
X8101Y53475D01*
X8253D01*
X8177Y53627D02*
X8329Y53475D01*
X8253D02*
X8329Y53551D01*
X8481Y53475D02*
X8633D01*
X8557D01*
Y53931D01*
X8481Y53855D01*
X7720Y59320D02*
Y59750D01*
X7935D01*
X8007Y59678D01*
Y59535D01*
X7935Y59463D01*
X7720D01*
X7863D02*
X8007Y59320D01*
X8150D02*
X8293D01*
X8221D01*
Y59750D01*
X8150Y59678D01*
X8508D02*
X8580Y59750D01*
X8723D01*
X8795Y59678D01*
Y59607D01*
X8723Y59535D01*
X8651D01*
X8723D01*
X8795Y59463D01*
Y59392D01*
X8723Y59320D01*
X8580D01*
X8508Y59392D01*
X8079Y62631D02*
X7927D01*
X8003D01*
Y62251D01*
X7927Y62175D01*
X7851D01*
X7775Y62251D01*
X8231Y62631D02*
X8535D01*
X8383D01*
Y62175D01*
X8687D02*
X8839D01*
X8763D01*
Y62631D01*
X8687Y62555D01*
X23325Y39181D02*
Y38725D01*
X23553D01*
X23629Y38801D01*
Y39105D01*
X23553Y39181D01*
X23325D01*
X24085Y38725D02*
X23781D01*
X24085Y39029D01*
Y39105D01*
X24009Y39181D01*
X23857D01*
X23781Y39105D01*
X23164Y40991D02*
Y40535D01*
X23392D01*
X23468Y40611D01*
Y40915D01*
X23392Y40991D01*
X23164D01*
X23620Y40535D02*
X23772D01*
X23696D01*
Y40991D01*
X23620Y40915D01*
X23104Y42227D02*
X23028Y42303D01*
X22876D01*
X22800Y42227D01*
Y41923D01*
X22876Y41847D01*
X23028D01*
X23104Y41923D01*
X23560Y42303D02*
X23256D01*
Y42075D01*
X23408Y42151D01*
X23484D01*
X23560Y42075D01*
Y41923D01*
X23484Y41847D01*
X23332D01*
X23256Y41923D01*
X23260Y54756D02*
Y54376D01*
X23336Y54300D01*
X23488D01*
X23564Y54376D01*
Y54756D01*
X23716Y54376D02*
X23792Y54300D01*
X23944D01*
X24020Y54376D01*
Y54680D01*
X23944Y54756D01*
X23792D01*
X23716Y54680D01*
Y54604D01*
X23792Y54528D01*
X24020D01*
X27800Y53260D02*
Y53716D01*
X28028D01*
X28104Y53640D01*
Y53488D01*
X28028Y53412D01*
X27800D01*
X27952D02*
X28104Y53260D01*
X28484D02*
Y53716D01*
X28256Y53488D01*
X28560D01*
X19130Y63346D02*
X19434Y62890D01*
Y63346D02*
X19130Y62890D01*
X19586D02*
X19738D01*
X19662D01*
Y63346D01*
X19586Y63270D01*
X39775Y38475D02*
Y38931D01*
X40003D01*
X40079Y38855D01*
Y38703D01*
X40003Y38627D01*
X39775D01*
X39927D02*
X40079Y38475D01*
X40535D02*
X40231D01*
X40535Y38779D01*
Y38855D01*
X40459Y38931D01*
X40307D01*
X40231Y38855D01*
X40687D02*
X40763Y38931D01*
X40915D01*
X40991Y38855D01*
Y38551D01*
X40915Y38475D01*
X40763D01*
X40687Y38551D01*
Y38855D01*
X34825Y53834D02*
Y53378D01*
X35053D01*
X35129Y53454D01*
Y53758D01*
X35053Y53834D01*
X34825D01*
X35281Y53454D02*
X35357Y53378D01*
X35509D01*
X35585Y53454D01*
Y53758D01*
X35509Y53834D01*
X35357D01*
X35281Y53758D01*
Y53682D01*
X35357Y53606D01*
X35585D01*
X34825Y50581D02*
Y50125D01*
X35053D01*
X35129Y50201D01*
Y50505D01*
X35053Y50581D01*
X34825D01*
X35281Y50505D02*
X35357Y50581D01*
X35509D01*
X35585Y50505D01*
Y50429D01*
X35509Y50353D01*
X35585Y50277D01*
Y50201D01*
X35509Y50125D01*
X35357D01*
X35281Y50201D01*
Y50277D01*
X35357Y50353D01*
X35281Y50429D01*
Y50505D01*
X35357Y50353D02*
X35509D01*
X31468Y51056D02*
Y50676D01*
X31544Y50600D01*
X31695D01*
X31771Y50676D01*
Y51056D01*
X32227D02*
X31923D01*
Y50828D01*
X32075Y50904D01*
X32151D01*
X32227Y50828D01*
Y50676D01*
X32151Y50600D01*
X31999D01*
X31923Y50676D01*
X31468Y54356D02*
Y53976D01*
X31544Y53900D01*
X31695D01*
X31771Y53976D01*
Y54356D01*
X31923Y54280D02*
X31999Y54356D01*
X32151D01*
X32227Y54280D01*
Y54204D01*
X32151Y54128D01*
X32227Y54052D01*
Y53976D01*
X32151Y53900D01*
X31999D01*
X31923Y53976D01*
Y54052D01*
X31999Y54128D01*
X31923Y54204D01*
Y54280D01*
X31999Y54128D02*
X32151D01*
X3525Y60425D02*
Y60881D01*
X3753D01*
X3829Y60805D01*
Y60653D01*
X3753Y60577D01*
X3525D01*
X3677D02*
X3829Y60425D01*
X4285D02*
X3981D01*
X4285Y60729D01*
Y60805D01*
X4209Y60881D01*
X4057D01*
X3981Y60805D01*
X4741Y60881D02*
X4437D01*
Y60653D01*
X4589Y60729D01*
X4665D01*
X4741Y60653D01*
Y60501D01*
X4665Y60425D01*
X4513D01*
X4437Y60501D01*
X13936Y62349D02*
Y61969D01*
X14012Y61893D01*
X14164D01*
X14240Y61969D01*
Y62349D01*
X14620Y61893D02*
Y62349D01*
X14392Y62121D01*
X14696D01*
X10525Y46525D02*
Y46981D01*
X10753D01*
X10829Y46905D01*
Y46753D01*
X10753Y46677D01*
X10525D01*
X10677D02*
X10829Y46525D01*
X10981D02*
X11133D01*
X11057D01*
Y46981D01*
X10981Y46905D01*
X24275Y48431D02*
Y48051D01*
X24351Y47975D01*
X24503D01*
X24579Y48051D01*
Y48431D01*
X24731D02*
X25035D01*
Y48355D01*
X24731Y48051D01*
Y47975D01*
X24400Y57440D02*
Y57896D01*
X24628D01*
X24704Y57820D01*
Y57668D01*
X24628Y57592D01*
X24400D01*
X24552D02*
X24704Y57440D01*
X25160D02*
X24856D01*
X25160Y57744D01*
Y57820D01*
X25084Y57896D01*
X24932D01*
X24856Y57820D01*
X25616Y57440D02*
X25312D01*
X25616Y57744D01*
Y57820D01*
X25540Y57896D01*
X25388D01*
X25312Y57820D01*
X14475Y49025D02*
Y49481D01*
X14703D01*
X14779Y49405D01*
Y49253D01*
X14703Y49177D01*
X14475D01*
X14627D02*
X14779Y49025D01*
X14931D02*
X15083D01*
X15007D01*
Y49481D01*
X14931Y49405D01*
X15615Y49025D02*
X15311D01*
X15615Y49329D01*
Y49405D01*
X15539Y49481D01*
X15387D01*
X15311Y49405D01*
X17525Y51725D02*
Y52181D01*
X17753D01*
X17829Y52105D01*
Y51953D01*
X17753Y51877D01*
X17525D01*
X17677D02*
X17829Y51725D01*
X17981D02*
X18133D01*
X18057D01*
Y52181D01*
X17981Y52105D01*
X18361Y51801D02*
X18437Y51725D01*
X18589D01*
X18665Y51801D01*
Y52105D01*
X18589Y52181D01*
X18437D01*
X18361Y52105D01*
Y52029D01*
X18437Y51953D01*
X18665D01*
X17275Y54975D02*
Y55431D01*
X17503D01*
X17579Y55355D01*
Y55203D01*
X17503Y55127D01*
X17275D01*
X17427D02*
X17579Y54975D01*
X17731Y55355D02*
X17807Y55431D01*
X17959D01*
X18035Y55355D01*
Y55279D01*
X17959Y55203D01*
X17883D01*
X17959D01*
X18035Y55127D01*
Y55051D01*
X17959Y54975D01*
X17807D01*
X17731Y55051D01*
X15140Y63020D02*
Y63476D01*
X15368D01*
X15444Y63400D01*
Y63248D01*
X15368Y63172D01*
X15140D01*
X15292D02*
X15444Y63020D01*
X15596D02*
X15748D01*
X15672D01*
Y63476D01*
X15596Y63400D01*
X16204Y63020D02*
Y63476D01*
X15976Y63248D01*
X16280D01*
X16229Y39105D02*
X16153Y39181D01*
X16001D01*
X15925Y39105D01*
Y38801D01*
X16001Y38725D01*
X16153D01*
X16229Y38801D01*
X16609Y38725D02*
Y39181D01*
X16381Y38953D01*
X16685D01*
X17275Y56475D02*
Y56931D01*
X17503D01*
X17579Y56855D01*
Y56703D01*
X17503Y56627D01*
X17275D01*
X17427D02*
X17579Y56475D01*
X17731Y56551D02*
X17807Y56475D01*
X17959D01*
X18035Y56551D01*
Y56855D01*
X17959Y56931D01*
X17807D01*
X17731Y56855D01*
Y56779D01*
X17807Y56703D01*
X18035D01*
X17525Y53225D02*
Y53681D01*
X17753D01*
X17829Y53605D01*
Y53453D01*
X17753Y53377D01*
X17525D01*
X17677D02*
X17829Y53225D01*
X17981D02*
X18133D01*
X18057D01*
Y53681D01*
X17981Y53605D01*
X18361D02*
X18437Y53681D01*
X18589D01*
X18665Y53605D01*
Y53529D01*
X18589Y53453D01*
X18665Y53377D01*
Y53301D01*
X18589Y53225D01*
X18437D01*
X18361Y53301D01*
Y53377D01*
X18437Y53453D01*
X18361Y53529D01*
Y53605D01*
X18437Y53453D02*
X18589D01*
X14829Y48105D02*
X14753Y48181D01*
X14601D01*
X14525Y48105D01*
Y47801D01*
X14601Y47725D01*
X14753D01*
X14829Y47801D01*
X14981Y47725D02*
X15133D01*
X15057D01*
Y48181D01*
X14981Y48105D01*
X15361D02*
X15437Y48181D01*
X15589D01*
X15665Y48105D01*
Y47801D01*
X15589Y47725D01*
X15437D01*
X15361Y47801D01*
Y48105D01*
X17300Y45000D02*
Y45456D01*
X17528D01*
X17604Y45380D01*
Y45228D01*
X17528Y45152D01*
X17300D01*
X17452D02*
X17604Y45000D01*
X17756D02*
X17908D01*
X17832D01*
Y45456D01*
X17756Y45380D01*
X18136Y45000D02*
X18288D01*
X18212D01*
Y45456D01*
X18136Y45380D01*
X28764Y71780D02*
X28688Y71856D01*
X28536D01*
X28460Y71780D01*
Y71476D01*
X28536Y71400D01*
X28688D01*
X28764Y71476D01*
X28916Y71400D02*
Y71856D01*
X29144D01*
X29220Y71780D01*
Y71628D01*
X29144Y71552D01*
X28916D01*
X29068D02*
X29220Y71400D01*
X29676D02*
X29372D01*
X29676Y71704D01*
Y71780D01*
X29600Y71856D01*
X29448D01*
X29372Y71780D01*
X62645Y42752D02*
X63000D01*
X62381Y42312D02*
Y42634D01*
Y42312D02*
X62550D01*
X63100D02*
X63269D01*
Y42624D01*
X61850Y59700D02*
Y62200D01*
X61375Y59225D02*
X61850Y59700D01*
X61440Y62610D02*
X61850Y62200D01*
X60392Y62193D02*
X60810Y62610D01*
X60392Y59706D02*
Y62193D01*
X82875Y71075D02*
X84075D01*
X82875Y69125D02*
X84075D01*
X82875Y67975D02*
X84075D01*
X82875D02*
Y71075D01*
X84075Y67975D02*
Y71075D01*
X67775Y69955D02*
X67975D01*
X68475Y70055D02*
Y70455D01*
X68175D02*
X68475D01*
X67275Y70055D02*
Y70455D01*
X67575D01*
X80525Y69555D02*
X80725D01*
X81225Y69655D02*
Y70055D01*
X80925D02*
X81225D01*
X80025Y69655D02*
Y70055D01*
X80325D01*
X51225Y54045D02*
X51425D01*
X50725Y53545D02*
Y53945D01*
Y53545D02*
X51025D01*
X51925D02*
Y53945D01*
X51625Y53545D02*
X51925D01*
X50975Y62925D02*
X52475D01*
X50725Y62675D02*
X50975Y62925D01*
X50725Y62175D02*
Y62675D01*
Y62175D02*
X50975Y61925D01*
X52475D01*
X52725Y62175D01*
Y62675D01*
X52475Y62925D02*
X52725Y62675D01*
X64675Y38375D02*
Y39575D01*
X62725Y38375D02*
Y39575D01*
X61575Y38375D02*
Y39575D01*
X64675D01*
X61575Y38375D02*
X64675D01*
X61525Y40125D02*
Y41325D01*
X63475Y40125D02*
Y41325D01*
X64625Y40125D02*
Y41325D01*
X61525Y40125D02*
X64625D01*
X61525Y41325D02*
X64625D01*
X60392Y59706D02*
X60825Y59225D01*
X61375D01*
X60810Y62610D02*
X61440D01*
X76525Y51875D02*
Y53075D01*
X78475Y51875D02*
Y53075D01*
X79625Y51875D02*
Y53075D01*
X76525Y51875D02*
X79625D01*
X76525Y53075D02*
X79625D01*
X76525Y48625D02*
Y49825D01*
X78475Y48625D02*
Y49825D01*
X79625Y48625D02*
Y49825D01*
X76525Y48625D02*
X79625D01*
X76525Y49825D02*
X79625D01*
X70125Y71175D02*
X71325D01*
X70125Y69225D02*
X71325D01*
X70125Y68075D02*
X71325D01*
X70125D02*
Y71175D01*
X71325Y68075D02*
Y71175D01*
X47498Y65758D02*
Y65378D01*
X47574Y65302D01*
X47726D01*
X47802Y65378D01*
Y65758D01*
X47954Y65302D02*
X48106D01*
X48030D01*
Y65758D01*
X47954Y65682D01*
X48334Y65302D02*
X48486D01*
X48410D01*
Y65758D01*
X48334Y65682D01*
X50779Y41905D02*
X50703Y41981D01*
X50551D01*
X50475Y41905D01*
Y41601D01*
X50551Y41525D01*
X50703D01*
X50779Y41601D01*
X50931Y41525D02*
Y41981D01*
X51159D01*
X51235Y41905D01*
Y41753D01*
X51159Y41677D01*
X50931D01*
X51083D02*
X51235Y41525D01*
X51387D02*
X51539D01*
X51463D01*
Y41981D01*
X51387Y41905D01*
X49625Y67573D02*
Y67194D01*
X49701Y67118D01*
X49853D01*
X49929Y67194D01*
Y67573D01*
X50385D02*
X50233Y67498D01*
X50081Y67346D01*
Y67194D01*
X50157Y67118D01*
X50309D01*
X50385Y67194D01*
Y67270D01*
X50309Y67346D01*
X50081D01*
X53229Y42528D02*
X53153Y42604D01*
X53001D01*
X52925Y42528D01*
Y42224D01*
X53001Y42148D01*
X53153D01*
X53229Y42224D01*
X53380Y42148D02*
X53532D01*
X53456D01*
Y42604D01*
X53380Y42528D01*
X59484Y61780D02*
X59408Y61856D01*
X59256D01*
X59180Y61780D01*
Y61476D01*
X59256Y61400D01*
X59408D01*
X59484Y61476D01*
X59636Y61856D02*
X59940D01*
Y61780D01*
X59636Y61476D01*
Y61400D01*
X62381Y43836D02*
Y43456D01*
X62457Y43380D01*
X62609D01*
X62685Y43456D01*
Y43836D01*
X63141Y43380D02*
X62837D01*
X63141Y43684D01*
Y43760D01*
X63065Y43836D01*
X62913D01*
X62837Y43760D01*
X62875Y63975D02*
Y64431D01*
X63103D01*
X63179Y64355D01*
Y64203D01*
X63103Y64127D01*
X62875D01*
X63027D02*
X63179Y63975D01*
X63331D02*
X63483D01*
X63407D01*
Y64431D01*
X63331Y64355D01*
X63711D02*
X63787Y64431D01*
X63939D01*
X64015Y64355D01*
Y64051D01*
X63939Y63975D01*
X63787D01*
X63711Y64051D01*
Y64355D01*
X68325Y38425D02*
Y38881D01*
X68553D01*
X68629Y38805D01*
Y38653D01*
X68553Y38577D01*
X68325D01*
X68477D02*
X68629Y38425D01*
X69085Y38881D02*
X68933Y38805D01*
X68781Y38653D01*
Y38501D01*
X68857Y38425D01*
X69009D01*
X69085Y38501D01*
Y38577D01*
X69009Y38653D01*
X68781D01*
X68475Y44475D02*
Y44931D01*
X68703D01*
X68779Y44855D01*
Y44703D01*
X68703Y44627D01*
X68475D01*
X68627D02*
X68779Y44475D01*
X68931Y44931D02*
X69235D01*
Y44855D01*
X68931Y44551D01*
Y44475D01*
X50029Y45855D02*
X49953Y45931D01*
X49801D01*
X49725Y45855D01*
Y45551D01*
X49801Y45475D01*
X49953D01*
X50029Y45551D01*
X50485Y45931D02*
X50333Y45855D01*
X50181Y45703D01*
Y45551D01*
X50257Y45475D01*
X50409D01*
X50485Y45551D01*
Y45627D01*
X50409Y45703D01*
X50181D01*
X62260Y60020D02*
Y60476D01*
X62488D01*
X62564Y60400D01*
Y60248D01*
X62488Y60172D01*
X62260D01*
X62412D02*
X62564Y60020D01*
X63020D02*
X62716D01*
X63020Y60324D01*
Y60400D01*
X62944Y60476D01*
X62792D01*
X62716Y60400D01*
X63400Y60020D02*
Y60476D01*
X63172Y60248D01*
X63476D01*
X83284Y71660D02*
X83208Y71736D01*
X83056D01*
X82980Y71660D01*
Y71356D01*
X83056Y71280D01*
X83208D01*
X83284Y71356D01*
X83436Y71280D02*
Y71736D01*
X83664D01*
X83740Y71660D01*
Y71508D01*
X83664Y71432D01*
X83436D01*
X83588D02*
X83740Y71280D01*
X83892Y71660D02*
X83968Y71736D01*
X84120D01*
X84196Y71660D01*
Y71584D01*
X84120Y71508D01*
X84044D01*
X84120D01*
X84196Y71432D01*
Y71356D01*
X84120Y71280D01*
X83968D01*
X83892Y71356D01*
X83160Y46296D02*
Y45916D01*
X83236Y45840D01*
X83388D01*
X83464Y45916D01*
Y46296D01*
X83616Y45840D02*
X83768D01*
X83692D01*
Y46296D01*
X83616Y46220D01*
X83996D02*
X84072Y46296D01*
X84224D01*
X84300Y46220D01*
Y46144D01*
X84224Y46068D01*
X84148D01*
X84224D01*
X84300Y45992D01*
Y45916D01*
X84224Y45840D01*
X84072D01*
X83996Y45916D01*
X83140Y60976D02*
Y60596D01*
X83216Y60520D01*
X83368D01*
X83444Y60596D01*
Y60976D01*
X83596Y60520D02*
X83748D01*
X83672D01*
Y60976D01*
X83596Y60900D01*
X84280Y60520D02*
X83976D01*
X84280Y60824D01*
Y60900D01*
X84204Y60976D01*
X84052D01*
X83976Y60900D01*
X49475Y49225D02*
Y49681D01*
X49703D01*
X49779Y49605D01*
Y49453D01*
X49703Y49377D01*
X49475D01*
X49627D02*
X49779Y49225D01*
X49931D02*
X50083D01*
X50007D01*
Y49681D01*
X49931Y49605D01*
X50615Y49681D02*
X50463Y49605D01*
X50311Y49453D01*
Y49301D01*
X50387Y49225D01*
X50539D01*
X50615Y49301D01*
Y49377D01*
X50539Y49453D01*
X50311D01*
X49475Y51725D02*
Y52181D01*
X49703D01*
X49779Y52105D01*
Y51953D01*
X49703Y51877D01*
X49475D01*
X49627D02*
X49779Y51725D01*
X49931D02*
X50083D01*
X50007D01*
Y52181D01*
X49931Y52105D01*
X50311Y52181D02*
X50615D01*
Y52105D01*
X50311Y51801D01*
Y51725D01*
X49873Y58127D02*
X49800Y58200D01*
X49653D01*
X49580Y58127D01*
Y57833D01*
X49653Y57760D01*
X49800D01*
X49873Y57833D01*
X50020Y58127D02*
X50093Y58200D01*
X50240D01*
X50313Y58127D01*
Y58053D01*
X50240Y57980D01*
X50313Y57907D01*
Y57833D01*
X50240Y57760D01*
X50093D01*
X50020Y57833D01*
Y57907D01*
X50093Y57980D01*
X50020Y58053D01*
Y58127D01*
X50093Y57980D02*
X50240D01*
X49420Y60240D02*
Y60670D01*
X49635D01*
X49707Y60598D01*
Y60455D01*
X49635Y60383D01*
X49420D01*
X49563D02*
X49707Y60240D01*
X49850D02*
X49993D01*
X49921D01*
Y60670D01*
X49850Y60598D01*
X50495Y60670D02*
X50208D01*
Y60455D01*
X50351Y60527D01*
X50423D01*
X50495Y60455D01*
Y60312D01*
X50423Y60240D01*
X50280D01*
X50208Y60312D01*
X51365Y64415D02*
Y64871D01*
X51593D01*
X51669Y64795D01*
Y64643D01*
X51593Y64567D01*
X51365D01*
X51517D02*
X51669Y64415D01*
X51821Y64795D02*
X51897Y64871D01*
X52049D01*
X52125Y64795D01*
Y64719D01*
X52049Y64643D01*
X52125Y64567D01*
Y64491D01*
X52049Y64415D01*
X51897D01*
X51821Y64491D01*
Y64567D01*
X51897Y64643D01*
X51821Y64719D01*
Y64795D01*
X51897Y64643D02*
X52049D01*
X69560Y51220D02*
Y51676D01*
X69788D01*
X69864Y51600D01*
Y51448D01*
X69788Y51372D01*
X69560D01*
X69712D02*
X69864Y51220D01*
X70320Y51676D02*
X70016D01*
Y51448D01*
X70168Y51524D01*
X70244D01*
X70320Y51448D01*
Y51296D01*
X70244Y51220D01*
X70092D01*
X70016Y51296D01*
X66529Y70001D02*
Y70305D01*
X66453Y70381D01*
X66301D01*
X66225Y70305D01*
Y70001D01*
X66301Y69925D01*
X66453D01*
X66377Y70077D02*
X66529Y69925D01*
X66453D02*
X66529Y70001D01*
X66681Y70305D02*
X66757Y70381D01*
X66909D01*
X66985Y70305D01*
Y70229D01*
X66909Y70153D01*
X66833D01*
X66909D01*
X66985Y70077D01*
Y70001D01*
X66909Y69925D01*
X66757D01*
X66681Y70001D01*
X81764Y69556D02*
Y69860D01*
X81688Y69936D01*
X81536D01*
X81460Y69860D01*
Y69556D01*
X81536Y69480D01*
X81688D01*
X81612Y69632D02*
X81764Y69480D01*
X81688D02*
X81764Y69556D01*
X82220Y69480D02*
X81916D01*
X82220Y69784D01*
Y69860D01*
X82144Y69936D01*
X81992D01*
X81916Y69860D01*
X44620Y52516D02*
Y52136D01*
X44696Y52060D01*
X44848D01*
X44924Y52136D01*
Y52516D01*
X45076Y52060D02*
X45228D01*
X45152D01*
Y52516D01*
X45076Y52440D01*
X45456D02*
X45532Y52516D01*
X45684D01*
X45760Y52440D01*
Y52136D01*
X45684Y52060D01*
X45532D01*
X45456Y52136D01*
Y52440D01*
X45693Y63976D02*
Y63596D01*
X45769Y63520D01*
X45921D01*
X45997Y63596D01*
Y63976D01*
X46149Y63520D02*
X46301D01*
X46225D01*
Y63976D01*
X46149Y63900D01*
X46757Y63520D02*
Y63976D01*
X46529Y63748D01*
X46833D01*
X56675Y40981D02*
Y40601D01*
X56751Y40525D01*
X56903D01*
X56979Y40601D01*
Y40981D01*
X57131Y40525D02*
X57283D01*
X57207D01*
Y40981D01*
X57131Y40905D01*
X51584Y45720D02*
Y45340D01*
X51660Y45264D01*
X51812D01*
X51888Y45340D01*
Y45720D01*
X52040Y45644D02*
X52116Y45720D01*
X52268D01*
X52344Y45644D01*
Y45568D01*
X52268Y45492D01*
X52192D01*
X52268D01*
X52344Y45416D01*
Y45340D01*
X52268Y45264D01*
X52116D01*
X52040Y45340D01*
X52819Y56727D02*
Y57183D01*
X53047D01*
X53123Y57107D01*
Y56955D01*
X53047Y56879D01*
X52819D01*
X52971D02*
X53123Y56727D01*
X53579D02*
X53275D01*
X53579Y57031D01*
Y57107D01*
X53503Y57183D01*
X53351D01*
X53275Y57107D01*
X53143Y47905D02*
X53067Y47981D01*
X52915D01*
X52839Y47905D01*
Y47601D01*
X52915Y47525D01*
X53067D01*
X53143Y47601D01*
X53295D02*
X53371Y47525D01*
X53523D01*
X53599Y47601D01*
Y47905D01*
X53523Y47981D01*
X53371D01*
X53295Y47905D01*
Y47829D01*
X53371Y47753D01*
X53599D01*
X50029Y53551D02*
Y53855D01*
X49953Y53931D01*
X49801D01*
X49725Y53855D01*
Y53551D01*
X49801Y53475D01*
X49953D01*
X49877Y53627D02*
X50029Y53475D01*
X49953D02*
X50029Y53551D01*
X50181Y53475D02*
X50333D01*
X50257D01*
Y53931D01*
X50181Y53855D01*
X49420Y59320D02*
Y59750D01*
X49635D01*
X49707Y59678D01*
Y59535D01*
X49635Y59463D01*
X49420D01*
X49563D02*
X49707Y59320D01*
X49850D02*
X49993D01*
X49921D01*
Y59750D01*
X49850Y59678D01*
X50208D02*
X50280Y59750D01*
X50423D01*
X50495Y59678D01*
Y59607D01*
X50423Y59535D01*
X50351D01*
X50423D01*
X50495Y59463D01*
Y59392D01*
X50423Y59320D01*
X50280D01*
X50208Y59392D01*
X49779Y62631D02*
X49627D01*
X49703D01*
Y62251D01*
X49627Y62175D01*
X49551D01*
X49475Y62251D01*
X49931Y62631D02*
X50235D01*
X50083D01*
Y62175D01*
X50387D02*
X50539D01*
X50463D01*
Y62631D01*
X50387Y62555D01*
X65025Y39181D02*
Y38725D01*
X65253D01*
X65329Y38801D01*
Y39105D01*
X65253Y39181D01*
X65025D01*
X65785Y38725D02*
X65481D01*
X65785Y39029D01*
Y39105D01*
X65709Y39181D01*
X65557D01*
X65481Y39105D01*
X64864Y40991D02*
Y40535D01*
X65092D01*
X65168Y40611D01*
Y40915D01*
X65092Y40991D01*
X64864D01*
X65320Y40535D02*
X65472D01*
X65396D01*
Y40991D01*
X65320Y40915D01*
X64804Y42227D02*
X64728Y42303D01*
X64576D01*
X64500Y42227D01*
Y41923D01*
X64576Y41847D01*
X64728D01*
X64804Y41923D01*
X65260Y42303D02*
X64956D01*
Y42075D01*
X65108Y42151D01*
X65184D01*
X65260Y42075D01*
Y41923D01*
X65184Y41847D01*
X65032D01*
X64956Y41923D01*
X64960Y54756D02*
Y54376D01*
X65036Y54300D01*
X65188D01*
X65264Y54376D01*
Y54756D01*
X65416Y54376D02*
X65492Y54300D01*
X65644D01*
X65720Y54376D01*
Y54680D01*
X65644Y54756D01*
X65492D01*
X65416Y54680D01*
Y54604D01*
X65492Y54528D01*
X65720D01*
X69500Y53260D02*
Y53716D01*
X69728D01*
X69804Y53640D01*
Y53488D01*
X69728Y53412D01*
X69500D01*
X69652D02*
X69804Y53260D01*
X70184D02*
Y53716D01*
X69956Y53488D01*
X70260D01*
X60830Y63346D02*
X61134Y62890D01*
Y63346D02*
X60830Y62890D01*
X61286D02*
X61438D01*
X61362D01*
Y63346D01*
X61286Y63270D01*
X81475Y38475D02*
Y38931D01*
X81703D01*
X81779Y38855D01*
Y38703D01*
X81703Y38627D01*
X81475D01*
X81627D02*
X81779Y38475D01*
X82235D02*
X81931D01*
X82235Y38779D01*
Y38855D01*
X82159Y38931D01*
X82007D01*
X81931Y38855D01*
X82387D02*
X82463Y38931D01*
X82615D01*
X82691Y38855D01*
Y38551D01*
X82615Y38475D01*
X82463D01*
X82387Y38551D01*
Y38855D01*
X76525Y53834D02*
Y53378D01*
X76753D01*
X76829Y53454D01*
Y53758D01*
X76753Y53834D01*
X76525D01*
X76981Y53454D02*
X77057Y53378D01*
X77209D01*
X77285Y53454D01*
Y53758D01*
X77209Y53834D01*
X77057D01*
X76981Y53758D01*
Y53682D01*
X77057Y53606D01*
X77285D01*
X76525Y50581D02*
Y50125D01*
X76753D01*
X76829Y50201D01*
Y50505D01*
X76753Y50581D01*
X76525D01*
X76981Y50505D02*
X77057Y50581D01*
X77209D01*
X77285Y50505D01*
Y50429D01*
X77209Y50353D01*
X77285Y50277D01*
Y50201D01*
X77209Y50125D01*
X77057D01*
X76981Y50201D01*
Y50277D01*
X77057Y50353D01*
X76981Y50429D01*
Y50505D01*
X77057Y50353D02*
X77209D01*
X73168Y51056D02*
Y50676D01*
X73244Y50600D01*
X73396D01*
X73471Y50676D01*
Y51056D01*
X73927D02*
X73623D01*
Y50828D01*
X73775Y50904D01*
X73851D01*
X73927Y50828D01*
Y50676D01*
X73851Y50600D01*
X73699D01*
X73623Y50676D01*
X73168Y54356D02*
Y53976D01*
X73244Y53900D01*
X73396D01*
X73471Y53976D01*
Y54356D01*
X73623Y54280D02*
X73699Y54356D01*
X73851D01*
X73927Y54280D01*
Y54204D01*
X73851Y54128D01*
X73927Y54052D01*
Y53976D01*
X73851Y53900D01*
X73699D01*
X73623Y53976D01*
Y54052D01*
X73699Y54128D01*
X73623Y54204D01*
Y54280D01*
X73699Y54128D02*
X73851D01*
X45225Y60425D02*
Y60881D01*
X45453D01*
X45529Y60805D01*
Y60653D01*
X45453Y60577D01*
X45225D01*
X45377D02*
X45529Y60425D01*
X45985D02*
X45681D01*
X45985Y60729D01*
Y60805D01*
X45909Y60881D01*
X45757D01*
X45681Y60805D01*
X46441Y60881D02*
X46137D01*
Y60653D01*
X46289Y60729D01*
X46365D01*
X46441Y60653D01*
Y60501D01*
X46365Y60425D01*
X46213D01*
X46137Y60501D01*
X55636Y62349D02*
Y61969D01*
X55712Y61893D01*
X55864D01*
X55940Y61969D01*
Y62349D01*
X56320Y61893D02*
Y62349D01*
X56092Y62121D01*
X56396D01*
X52225Y46525D02*
Y46981D01*
X52453D01*
X52529Y46905D01*
Y46753D01*
X52453Y46677D01*
X52225D01*
X52377D02*
X52529Y46525D01*
X52681D02*
X52833D01*
X52757D01*
Y46981D01*
X52681Y46905D01*
X65975Y48431D02*
Y48051D01*
X66051Y47975D01*
X66203D01*
X66279Y48051D01*
Y48431D01*
X66431D02*
X66735D01*
Y48355D01*
X66431Y48051D01*
Y47975D01*
X66100Y57440D02*
Y57896D01*
X66328D01*
X66404Y57820D01*
Y57668D01*
X66328Y57592D01*
X66100D01*
X66252D02*
X66404Y57440D01*
X66860D02*
X66556D01*
X66860Y57744D01*
Y57820D01*
X66784Y57896D01*
X66632D01*
X66556Y57820D01*
X67316Y57440D02*
X67012D01*
X67316Y57744D01*
Y57820D01*
X67240Y57896D01*
X67088D01*
X67012Y57820D01*
X56175Y49025D02*
Y49481D01*
X56403D01*
X56479Y49405D01*
Y49253D01*
X56403Y49177D01*
X56175D01*
X56327D02*
X56479Y49025D01*
X56631D02*
X56783D01*
X56707D01*
Y49481D01*
X56631Y49405D01*
X57315Y49025D02*
X57011D01*
X57315Y49329D01*
Y49405D01*
X57239Y49481D01*
X57087D01*
X57011Y49405D01*
X59225Y51725D02*
Y52181D01*
X59453D01*
X59529Y52105D01*
Y51953D01*
X59453Y51877D01*
X59225D01*
X59377D02*
X59529Y51725D01*
X59681D02*
X59833D01*
X59757D01*
Y52181D01*
X59681Y52105D01*
X60061Y51801D02*
X60137Y51725D01*
X60289D01*
X60365Y51801D01*
Y52105D01*
X60289Y52181D01*
X60137D01*
X60061Y52105D01*
Y52029D01*
X60137Y51953D01*
X60365D01*
X58975Y54975D02*
Y55431D01*
X59203D01*
X59279Y55355D01*
Y55203D01*
X59203Y55127D01*
X58975D01*
X59127D02*
X59279Y54975D01*
X59431Y55355D02*
X59507Y55431D01*
X59659D01*
X59735Y55355D01*
Y55279D01*
X59659Y55203D01*
X59583D01*
X59659D01*
X59735Y55127D01*
Y55051D01*
X59659Y54975D01*
X59507D01*
X59431Y55051D01*
X56840Y63020D02*
Y63476D01*
X57068D01*
X57144Y63400D01*
Y63248D01*
X57068Y63172D01*
X56840D01*
X56992D02*
X57144Y63020D01*
X57296D02*
X57448D01*
X57372D01*
Y63476D01*
X57296Y63400D01*
X57904Y63020D02*
Y63476D01*
X57676Y63248D01*
X57980D01*
X57929Y39105D02*
X57853Y39181D01*
X57701D01*
X57625Y39105D01*
Y38801D01*
X57701Y38725D01*
X57853D01*
X57929Y38801D01*
X58309Y38725D02*
Y39181D01*
X58081Y38953D01*
X58385D01*
X58975Y56475D02*
Y56931D01*
X59203D01*
X59279Y56855D01*
Y56703D01*
X59203Y56627D01*
X58975D01*
X59127D02*
X59279Y56475D01*
X59431Y56551D02*
X59507Y56475D01*
X59659D01*
X59735Y56551D01*
Y56855D01*
X59659Y56931D01*
X59507D01*
X59431Y56855D01*
Y56779D01*
X59507Y56703D01*
X59735D01*
X59225Y53225D02*
Y53681D01*
X59453D01*
X59529Y53605D01*
Y53453D01*
X59453Y53377D01*
X59225D01*
X59377D02*
X59529Y53225D01*
X59681D02*
X59833D01*
X59757D01*
Y53681D01*
X59681Y53605D01*
X60061D02*
X60137Y53681D01*
X60289D01*
X60365Y53605D01*
Y53529D01*
X60289Y53453D01*
X60365Y53377D01*
Y53301D01*
X60289Y53225D01*
X60137D01*
X60061Y53301D01*
Y53377D01*
X60137Y53453D01*
X60061Y53529D01*
Y53605D01*
X60137Y53453D02*
X60289D01*
X56529Y48105D02*
X56453Y48181D01*
X56301D01*
X56225Y48105D01*
Y47801D01*
X56301Y47725D01*
X56453D01*
X56529Y47801D01*
X56681Y47725D02*
X56833D01*
X56757D01*
Y48181D01*
X56681Y48105D01*
X57061D02*
X57137Y48181D01*
X57289D01*
X57365Y48105D01*
Y47801D01*
X57289Y47725D01*
X57137D01*
X57061Y47801D01*
Y48105D01*
X59000Y45000D02*
Y45456D01*
X59228D01*
X59304Y45380D01*
Y45228D01*
X59228Y45152D01*
X59000D01*
X59152D02*
X59304Y45000D01*
X59456D02*
X59608D01*
X59532D01*
Y45456D01*
X59456Y45380D01*
X59836Y45000D02*
X59988D01*
X59912D01*
Y45456D01*
X59836Y45380D01*
X70464Y71780D02*
X70388Y71856D01*
X70236D01*
X70160Y71780D01*
Y71476D01*
X70236Y71400D01*
X70388D01*
X70464Y71476D01*
X70616Y71400D02*
Y71856D01*
X70844D01*
X70920Y71780D01*
Y71628D01*
X70844Y71552D01*
X70616D01*
X70768D02*
X70920Y71400D01*
X71376D02*
X71072D01*
X71376Y71704D01*
Y71780D01*
X71300Y71856D01*
X71148D01*
X71072Y71780D01*
X20945Y77952D02*
X21300D01*
X20681Y77512D02*
Y77834D01*
Y77512D02*
X20850D01*
X21400D02*
X21569D01*
Y77824D01*
X20150Y94900D02*
Y97400D01*
X19675Y94425D02*
X20150Y94900D01*
X19740Y97810D02*
X20150Y97400D01*
X18693Y97393D02*
X19110Y97810D01*
X18693Y94906D02*
Y97393D01*
X41175Y106275D02*
X42375D01*
X41175Y104325D02*
X42375D01*
X41175Y103175D02*
X42375D01*
X41175D02*
Y106275D01*
X42375Y103175D02*
Y106275D01*
X26075Y105155D02*
X26275D01*
X26775Y105255D02*
Y105655D01*
X26475D02*
X26775D01*
X25575Y105255D02*
Y105655D01*
X25875D01*
X38825Y104755D02*
X39025D01*
X39525Y104855D02*
Y105255D01*
X39225D02*
X39525D01*
X38325Y104855D02*
Y105255D01*
X38625D01*
X9525Y89245D02*
X9725D01*
X9025Y88745D02*
Y89145D01*
Y88745D02*
X9325D01*
X10225D02*
Y89145D01*
X9925Y88745D02*
X10225D01*
X9275Y98125D02*
X10775D01*
X9025Y97875D02*
X9275Y98125D01*
X9025Y97375D02*
Y97875D01*
Y97375D02*
X9275Y97125D01*
X10775D01*
X11025Y97375D01*
Y97875D01*
X10775Y98125D02*
X11025Y97875D01*
X22975Y73575D02*
Y74775D01*
X21025Y73575D02*
Y74775D01*
X19875Y73575D02*
Y74775D01*
X22975D01*
X19875Y73575D02*
X22975D01*
X19825Y75325D02*
Y76525D01*
X21775Y75325D02*
Y76525D01*
X22925Y75325D02*
Y76525D01*
X19825Y75325D02*
X22925D01*
X19825Y76525D02*
X22925D01*
X18693Y94906D02*
X19125Y94425D01*
X19675D01*
X19110Y97810D02*
X19740D01*
X34825Y87075D02*
Y88275D01*
X36775Y87075D02*
Y88275D01*
X37925Y87075D02*
Y88275D01*
X34825Y87075D02*
X37925D01*
X34825Y88275D02*
X37925D01*
X34825Y83825D02*
Y85025D01*
X36775Y83825D02*
Y85025D01*
X37925Y83825D02*
Y85025D01*
X34825Y83825D02*
X37925D01*
X34825Y85025D02*
X37925D01*
X28425Y106375D02*
X29625D01*
X28425Y104425D02*
X29625D01*
X28425Y103275D02*
X29625D01*
X28425D02*
Y106375D01*
X29625Y103275D02*
Y106375D01*
X5798Y100958D02*
Y100578D01*
X5874Y100502D01*
X6026D01*
X6102Y100578D01*
Y100958D01*
X6254Y100502D02*
X6406D01*
X6330D01*
Y100958D01*
X6254Y100882D01*
X6634Y100502D02*
X6786D01*
X6710D01*
Y100958D01*
X6634Y100882D01*
X9079Y77105D02*
X9003Y77181D01*
X8851D01*
X8775Y77105D01*
Y76801D01*
X8851Y76725D01*
X9003D01*
X9079Y76801D01*
X9231Y76725D02*
Y77181D01*
X9459D01*
X9535Y77105D01*
Y76953D01*
X9459Y76877D01*
X9231D01*
X9383D02*
X9535Y76725D01*
X9687D02*
X9839D01*
X9763D01*
Y77181D01*
X9687Y77105D01*
X7925Y102774D02*
Y102394D01*
X8001Y102318D01*
X8153D01*
X8229Y102394D01*
Y102774D01*
X8685D02*
X8533Y102698D01*
X8381Y102546D01*
Y102394D01*
X8457Y102318D01*
X8609D01*
X8685Y102394D01*
Y102470D01*
X8609Y102546D01*
X8381D01*
X11529Y77728D02*
X11453Y77804D01*
X11301D01*
X11225Y77728D01*
Y77424D01*
X11301Y77348D01*
X11453D01*
X11529Y77424D01*
X11680Y77348D02*
X11832D01*
X11756D01*
Y77804D01*
X11680Y77728D01*
X17784Y96980D02*
X17708Y97056D01*
X17556D01*
X17480Y96980D01*
Y96676D01*
X17556Y96600D01*
X17708D01*
X17784Y96676D01*
X17936Y97056D02*
X18240D01*
Y96980D01*
X17936Y96676D01*
Y96600D01*
X20681Y79036D02*
Y78656D01*
X20757Y78580D01*
X20909D01*
X20985Y78656D01*
Y79036D01*
X21441Y78580D02*
X21137D01*
X21441Y78884D01*
Y78960D01*
X21365Y79036D01*
X21213D01*
X21137Y78960D01*
X21175Y99175D02*
Y99631D01*
X21403D01*
X21479Y99555D01*
Y99403D01*
X21403Y99327D01*
X21175D01*
X21327D02*
X21479Y99175D01*
X21631D02*
X21783D01*
X21707D01*
Y99631D01*
X21631Y99555D01*
X22011D02*
X22087Y99631D01*
X22239D01*
X22315Y99555D01*
Y99251D01*
X22239Y99175D01*
X22087D01*
X22011Y99251D01*
Y99555D01*
X26625Y73625D02*
Y74081D01*
X26853D01*
X26929Y74005D01*
Y73853D01*
X26853Y73777D01*
X26625D01*
X26777D02*
X26929Y73625D01*
X27385Y74081D02*
X27233Y74005D01*
X27081Y73853D01*
Y73701D01*
X27157Y73625D01*
X27309D01*
X27385Y73701D01*
Y73777D01*
X27309Y73853D01*
X27081D01*
X26775Y79675D02*
Y80131D01*
X27003D01*
X27079Y80055D01*
Y79903D01*
X27003Y79827D01*
X26775D01*
X26927D02*
X27079Y79675D01*
X27231Y80131D02*
X27535D01*
Y80055D01*
X27231Y79751D01*
Y79675D01*
X8329Y81055D02*
X8253Y81131D01*
X8101D01*
X8025Y81055D01*
Y80751D01*
X8101Y80675D01*
X8253D01*
X8329Y80751D01*
X8785Y81131D02*
X8633Y81055D01*
X8481Y80903D01*
Y80751D01*
X8557Y80675D01*
X8709D01*
X8785Y80751D01*
Y80827D01*
X8709Y80903D01*
X8481D01*
X20560Y95220D02*
Y95676D01*
X20788D01*
X20864Y95600D01*
Y95448D01*
X20788Y95372D01*
X20560D01*
X20712D02*
X20864Y95220D01*
X21320D02*
X21016D01*
X21320Y95524D01*
Y95600D01*
X21244Y95676D01*
X21092D01*
X21016Y95600D01*
X21700Y95220D02*
Y95676D01*
X21472Y95448D01*
X21776D01*
X41584Y106860D02*
X41508Y106936D01*
X41356D01*
X41280Y106860D01*
Y106556D01*
X41356Y106480D01*
X41508D01*
X41584Y106556D01*
X41736Y106480D02*
Y106936D01*
X41964D01*
X42040Y106860D01*
Y106708D01*
X41964Y106632D01*
X41736D01*
X41888D02*
X42040Y106480D01*
X42192Y106860D02*
X42268Y106936D01*
X42420D01*
X42496Y106860D01*
Y106784D01*
X42420Y106708D01*
X42344D01*
X42420D01*
X42496Y106632D01*
Y106556D01*
X42420Y106480D01*
X42268D01*
X42192Y106556D01*
X41460Y81496D02*
Y81116D01*
X41536Y81040D01*
X41688D01*
X41764Y81116D01*
Y81496D01*
X41916Y81040D02*
X42068D01*
X41992D01*
Y81496D01*
X41916Y81420D01*
X42296D02*
X42372Y81496D01*
X42524D01*
X42600Y81420D01*
Y81344D01*
X42524Y81268D01*
X42448D01*
X42524D01*
X42600Y81192D01*
Y81116D01*
X42524Y81040D01*
X42372D01*
X42296Y81116D01*
X41440Y96176D02*
Y95796D01*
X41516Y95720D01*
X41668D01*
X41744Y95796D01*
Y96176D01*
X41896Y95720D02*
X42048D01*
X41972D01*
Y96176D01*
X41896Y96100D01*
X42580Y95720D02*
X42276D01*
X42580Y96024D01*
Y96100D01*
X42504Y96176D01*
X42352D01*
X42276Y96100D01*
X7775Y84425D02*
Y84881D01*
X8003D01*
X8079Y84805D01*
Y84653D01*
X8003Y84577D01*
X7775D01*
X7927D02*
X8079Y84425D01*
X8231D02*
X8383D01*
X8307D01*
Y84881D01*
X8231Y84805D01*
X8915Y84881D02*
X8763Y84805D01*
X8611Y84653D01*
Y84501D01*
X8687Y84425D01*
X8839D01*
X8915Y84501D01*
Y84577D01*
X8839Y84653D01*
X8611D01*
X7775Y86925D02*
Y87381D01*
X8003D01*
X8079Y87305D01*
Y87153D01*
X8003Y87077D01*
X7775D01*
X7927D02*
X8079Y86925D01*
X8231D02*
X8383D01*
X8307D01*
Y87381D01*
X8231Y87305D01*
X8611Y87381D02*
X8915D01*
Y87305D01*
X8611Y87001D01*
Y86925D01*
X8173Y93327D02*
X8100Y93400D01*
X7953D01*
X7880Y93327D01*
Y93033D01*
X7953Y92960D01*
X8100D01*
X8173Y93033D01*
X8320Y93327D02*
X8393Y93400D01*
X8540D01*
X8613Y93327D01*
Y93253D01*
X8540Y93180D01*
X8613Y93107D01*
Y93033D01*
X8540Y92960D01*
X8393D01*
X8320Y93033D01*
Y93107D01*
X8393Y93180D01*
X8320Y93253D01*
Y93327D01*
X8393Y93180D02*
X8540D01*
X7720Y95440D02*
Y95870D01*
X7935D01*
X8007Y95798D01*
Y95655D01*
X7935Y95583D01*
X7720D01*
X7863D02*
X8007Y95440D01*
X8150D02*
X8293D01*
X8221D01*
Y95870D01*
X8150Y95798D01*
X8795Y95870D02*
X8508D01*
Y95655D01*
X8651Y95727D01*
X8723D01*
X8795Y95655D01*
Y95512D01*
X8723Y95440D01*
X8580D01*
X8508Y95512D01*
X9665Y99615D02*
Y100071D01*
X9893D01*
X9969Y99995D01*
Y99843D01*
X9893Y99767D01*
X9665D01*
X9817D02*
X9969Y99615D01*
X10121Y99995D02*
X10197Y100071D01*
X10349D01*
X10425Y99995D01*
Y99919D01*
X10349Y99843D01*
X10425Y99767D01*
Y99691D01*
X10349Y99615D01*
X10197D01*
X10121Y99691D01*
Y99767D01*
X10197Y99843D01*
X10121Y99919D01*
Y99995D01*
X10197Y99843D02*
X10349D01*
X27860Y86420D02*
Y86876D01*
X28088D01*
X28164Y86800D01*
Y86648D01*
X28088Y86572D01*
X27860D01*
X28012D02*
X28164Y86420D01*
X28620Y86876D02*
X28316D01*
Y86648D01*
X28468Y86724D01*
X28544D01*
X28620Y86648D01*
Y86496D01*
X28544Y86420D01*
X28392D01*
X28316Y86496D01*
X24829Y105201D02*
Y105505D01*
X24753Y105581D01*
X24601D01*
X24525Y105505D01*
Y105201D01*
X24601Y105125D01*
X24753D01*
X24677Y105277D02*
X24829Y105125D01*
X24753D02*
X24829Y105201D01*
X24981Y105505D02*
X25057Y105581D01*
X25209D01*
X25285Y105505D01*
Y105429D01*
X25209Y105353D01*
X25133D01*
X25209D01*
X25285Y105277D01*
Y105201D01*
X25209Y105125D01*
X25057D01*
X24981Y105201D01*
X40064Y104756D02*
Y105060D01*
X39988Y105136D01*
X39836D01*
X39760Y105060D01*
Y104756D01*
X39836Y104680D01*
X39988D01*
X39912Y104832D02*
X40064Y104680D01*
X39988D02*
X40064Y104756D01*
X40520Y104680D02*
X40216D01*
X40520Y104984D01*
Y105060D01*
X40444Y105136D01*
X40292D01*
X40216Y105060D01*
X2920Y87716D02*
Y87336D01*
X2996Y87260D01*
X3148D01*
X3224Y87336D01*
Y87716D01*
X3376Y87260D02*
X3528D01*
X3452D01*
Y87716D01*
X3376Y87640D01*
X3756D02*
X3832Y87716D01*
X3984D01*
X4060Y87640D01*
Y87336D01*
X3984Y87260D01*
X3832D01*
X3756Y87336D01*
Y87640D01*
X3993Y99176D02*
Y98796D01*
X4069Y98720D01*
X4221D01*
X4297Y98796D01*
Y99176D01*
X4449Y98720D02*
X4601D01*
X4525D01*
Y99176D01*
X4449Y99100D01*
X5057Y98720D02*
Y99176D01*
X4829Y98948D01*
X5133D01*
X14975Y76181D02*
Y75801D01*
X15051Y75725D01*
X15203D01*
X15279Y75801D01*
Y76181D01*
X15431Y75725D02*
X15583D01*
X15507D01*
Y76181D01*
X15431Y76105D01*
X9884Y80920D02*
Y80540D01*
X9960Y80464D01*
X10112D01*
X10188Y80540D01*
Y80920D01*
X10340Y80844D02*
X10416Y80920D01*
X10568D01*
X10644Y80844D01*
Y80768D01*
X10568Y80692D01*
X10492D01*
X10568D01*
X10644Y80616D01*
Y80540D01*
X10568Y80464D01*
X10416D01*
X10340Y80540D01*
X11119Y91927D02*
Y92383D01*
X11347D01*
X11423Y92307D01*
Y92155D01*
X11347Y92079D01*
X11119D01*
X11271D02*
X11423Y91927D01*
X11879D02*
X11575D01*
X11879Y92231D01*
Y92307D01*
X11803Y92383D01*
X11651D01*
X11575Y92307D01*
X11443Y83105D02*
X11367Y83181D01*
X11215D01*
X11139Y83105D01*
Y82801D01*
X11215Y82725D01*
X11367D01*
X11443Y82801D01*
X11595D02*
X11671Y82725D01*
X11823D01*
X11899Y82801D01*
Y83105D01*
X11823Y83181D01*
X11671D01*
X11595Y83105D01*
Y83029D01*
X11671Y82953D01*
X11899D01*
X8329Y88751D02*
Y89055D01*
X8253Y89131D01*
X8101D01*
X8025Y89055D01*
Y88751D01*
X8101Y88675D01*
X8253D01*
X8177Y88827D02*
X8329Y88675D01*
X8253D02*
X8329Y88751D01*
X8481Y88675D02*
X8633D01*
X8557D01*
Y89131D01*
X8481Y89055D01*
X7720Y94520D02*
Y94950D01*
X7935D01*
X8007Y94878D01*
Y94735D01*
X7935Y94663D01*
X7720D01*
X7863D02*
X8007Y94520D01*
X8150D02*
X8293D01*
X8221D01*
Y94950D01*
X8150Y94878D01*
X8508D02*
X8580Y94950D01*
X8723D01*
X8795Y94878D01*
Y94807D01*
X8723Y94735D01*
X8651D01*
X8723D01*
X8795Y94663D01*
Y94592D01*
X8723Y94520D01*
X8580D01*
X8508Y94592D01*
X8079Y97831D02*
X7927D01*
X8003D01*
Y97451D01*
X7927Y97375D01*
X7851D01*
X7775Y97451D01*
X8231Y97831D02*
X8535D01*
X8383D01*
Y97375D01*
X8687D02*
X8839D01*
X8763D01*
Y97831D01*
X8687Y97755D01*
X23325Y74381D02*
Y73925D01*
X23553D01*
X23629Y74001D01*
Y74305D01*
X23553Y74381D01*
X23325D01*
X24085Y73925D02*
X23781D01*
X24085Y74229D01*
Y74305D01*
X24009Y74381D01*
X23857D01*
X23781Y74305D01*
X23164Y76191D02*
Y75735D01*
X23392D01*
X23468Y75811D01*
Y76115D01*
X23392Y76191D01*
X23164D01*
X23620Y75735D02*
X23772D01*
X23696D01*
Y76191D01*
X23620Y76115D01*
X23104Y77427D02*
X23028Y77503D01*
X22876D01*
X22800Y77427D01*
Y77123D01*
X22876Y77047D01*
X23028D01*
X23104Y77123D01*
X23560Y77503D02*
X23256D01*
Y77275D01*
X23408Y77351D01*
X23484D01*
X23560Y77275D01*
Y77123D01*
X23484Y77047D01*
X23332D01*
X23256Y77123D01*
X23260Y89956D02*
Y89576D01*
X23336Y89500D01*
X23488D01*
X23564Y89576D01*
Y89956D01*
X23716Y89576D02*
X23792Y89500D01*
X23944D01*
X24020Y89576D01*
Y89880D01*
X23944Y89956D01*
X23792D01*
X23716Y89880D01*
Y89804D01*
X23792Y89728D01*
X24020D01*
X27800Y88460D02*
Y88916D01*
X28028D01*
X28104Y88840D01*
Y88688D01*
X28028Y88612D01*
X27800D01*
X27952D02*
X28104Y88460D01*
X28484D02*
Y88916D01*
X28256Y88688D01*
X28560D01*
X19130Y98546D02*
X19434Y98090D01*
Y98546D02*
X19130Y98090D01*
X19586D02*
X19738D01*
X19662D01*
Y98546D01*
X19586Y98470D01*
X39775Y73675D02*
Y74131D01*
X40003D01*
X40079Y74055D01*
Y73903D01*
X40003Y73827D01*
X39775D01*
X39927D02*
X40079Y73675D01*
X40535D02*
X40231D01*
X40535Y73979D01*
Y74055D01*
X40459Y74131D01*
X40307D01*
X40231Y74055D01*
X40687D02*
X40763Y74131D01*
X40915D01*
X40991Y74055D01*
Y73751D01*
X40915Y73675D01*
X40763D01*
X40687Y73751D01*
Y74055D01*
X34825Y89034D02*
Y88578D01*
X35053D01*
X35129Y88654D01*
Y88958D01*
X35053Y89034D01*
X34825D01*
X35281Y88654D02*
X35357Y88578D01*
X35509D01*
X35585Y88654D01*
Y88958D01*
X35509Y89034D01*
X35357D01*
X35281Y88958D01*
Y88882D01*
X35357Y88806D01*
X35585D01*
X34825Y85781D02*
Y85325D01*
X35053D01*
X35129Y85401D01*
Y85705D01*
X35053Y85781D01*
X34825D01*
X35281Y85705D02*
X35357Y85781D01*
X35509D01*
X35585Y85705D01*
Y85629D01*
X35509Y85553D01*
X35585Y85477D01*
Y85401D01*
X35509Y85325D01*
X35357D01*
X35281Y85401D01*
Y85477D01*
X35357Y85553D01*
X35281Y85629D01*
Y85705D01*
X35357Y85553D02*
X35509D01*
X31468Y86256D02*
Y85876D01*
X31544Y85800D01*
X31695D01*
X31771Y85876D01*
Y86256D01*
X32227D02*
X31923D01*
Y86028D01*
X32075Y86104D01*
X32151D01*
X32227Y86028D01*
Y85876D01*
X32151Y85800D01*
X31999D01*
X31923Y85876D01*
X31468Y89556D02*
Y89176D01*
X31544Y89100D01*
X31695D01*
X31771Y89176D01*
Y89556D01*
X31923Y89480D02*
X31999Y89556D01*
X32151D01*
X32227Y89480D01*
Y89404D01*
X32151Y89328D01*
X32227Y89252D01*
Y89176D01*
X32151Y89100D01*
X31999D01*
X31923Y89176D01*
Y89252D01*
X31999Y89328D01*
X31923Y89404D01*
Y89480D01*
X31999Y89328D02*
X32151D01*
X3525Y95625D02*
Y96081D01*
X3753D01*
X3829Y96005D01*
Y95853D01*
X3753Y95777D01*
X3525D01*
X3677D02*
X3829Y95625D01*
X4285D02*
X3981D01*
X4285Y95929D01*
Y96005D01*
X4209Y96081D01*
X4057D01*
X3981Y96005D01*
X4741Y96081D02*
X4437D01*
Y95853D01*
X4589Y95929D01*
X4665D01*
X4741Y95853D01*
Y95701D01*
X4665Y95625D01*
X4513D01*
X4437Y95701D01*
X13936Y97549D02*
Y97169D01*
X14012Y97093D01*
X14164D01*
X14240Y97169D01*
Y97549D01*
X14620Y97093D02*
Y97549D01*
X14392Y97321D01*
X14696D01*
X10525Y81725D02*
Y82181D01*
X10753D01*
X10829Y82105D01*
Y81953D01*
X10753Y81877D01*
X10525D01*
X10677D02*
X10829Y81725D01*
X10981D02*
X11133D01*
X11057D01*
Y82181D01*
X10981Y82105D01*
X24275Y83631D02*
Y83251D01*
X24351Y83175D01*
X24503D01*
X24579Y83251D01*
Y83631D01*
X24731D02*
X25035D01*
Y83555D01*
X24731Y83251D01*
Y83175D01*
X24400Y92640D02*
Y93096D01*
X24628D01*
X24704Y93020D01*
Y92868D01*
X24628Y92792D01*
X24400D01*
X24552D02*
X24704Y92640D01*
X25160D02*
X24856D01*
X25160Y92944D01*
Y93020D01*
X25084Y93096D01*
X24932D01*
X24856Y93020D01*
X25616Y92640D02*
X25312D01*
X25616Y92944D01*
Y93020D01*
X25540Y93096D01*
X25388D01*
X25312Y93020D01*
X14475Y84225D02*
Y84681D01*
X14703D01*
X14779Y84605D01*
Y84453D01*
X14703Y84377D01*
X14475D01*
X14627D02*
X14779Y84225D01*
X14931D02*
X15083D01*
X15007D01*
Y84681D01*
X14931Y84605D01*
X15615Y84225D02*
X15311D01*
X15615Y84529D01*
Y84605D01*
X15539Y84681D01*
X15387D01*
X15311Y84605D01*
X17525Y86925D02*
Y87381D01*
X17753D01*
X17829Y87305D01*
Y87153D01*
X17753Y87077D01*
X17525D01*
X17677D02*
X17829Y86925D01*
X17981D02*
X18133D01*
X18057D01*
Y87381D01*
X17981Y87305D01*
X18361Y87001D02*
X18437Y86925D01*
X18589D01*
X18665Y87001D01*
Y87305D01*
X18589Y87381D01*
X18437D01*
X18361Y87305D01*
Y87229D01*
X18437Y87153D01*
X18665D01*
X17275Y90175D02*
Y90631D01*
X17503D01*
X17579Y90555D01*
Y90403D01*
X17503Y90327D01*
X17275D01*
X17427D02*
X17579Y90175D01*
X17731Y90555D02*
X17807Y90631D01*
X17959D01*
X18035Y90555D01*
Y90479D01*
X17959Y90403D01*
X17883D01*
X17959D01*
X18035Y90327D01*
Y90251D01*
X17959Y90175D01*
X17807D01*
X17731Y90251D01*
X15140Y98220D02*
Y98676D01*
X15368D01*
X15444Y98600D01*
Y98448D01*
X15368Y98372D01*
X15140D01*
X15292D02*
X15444Y98220D01*
X15596D02*
X15748D01*
X15672D01*
Y98676D01*
X15596Y98600D01*
X16204Y98220D02*
Y98676D01*
X15976Y98448D01*
X16280D01*
X16229Y74305D02*
X16153Y74381D01*
X16001D01*
X15925Y74305D01*
Y74001D01*
X16001Y73925D01*
X16153D01*
X16229Y74001D01*
X16609Y73925D02*
Y74381D01*
X16381Y74153D01*
X16685D01*
X17275Y91675D02*
Y92131D01*
X17503D01*
X17579Y92055D01*
Y91903D01*
X17503Y91827D01*
X17275D01*
X17427D02*
X17579Y91675D01*
X17731Y91751D02*
X17807Y91675D01*
X17959D01*
X18035Y91751D01*
Y92055D01*
X17959Y92131D01*
X17807D01*
X17731Y92055D01*
Y91979D01*
X17807Y91903D01*
X18035D01*
X17525Y88425D02*
Y88881D01*
X17753D01*
X17829Y88805D01*
Y88653D01*
X17753Y88577D01*
X17525D01*
X17677D02*
X17829Y88425D01*
X17981D02*
X18133D01*
X18057D01*
Y88881D01*
X17981Y88805D01*
X18361D02*
X18437Y88881D01*
X18589D01*
X18665Y88805D01*
Y88729D01*
X18589Y88653D01*
X18665Y88577D01*
Y88501D01*
X18589Y88425D01*
X18437D01*
X18361Y88501D01*
Y88577D01*
X18437Y88653D01*
X18361Y88729D01*
Y88805D01*
X18437Y88653D02*
X18589D01*
X14829Y83305D02*
X14753Y83381D01*
X14601D01*
X14525Y83305D01*
Y83001D01*
X14601Y82925D01*
X14753D01*
X14829Y83001D01*
X14981Y82925D02*
X15133D01*
X15057D01*
Y83381D01*
X14981Y83305D01*
X15361D02*
X15437Y83381D01*
X15589D01*
X15665Y83305D01*
Y83001D01*
X15589Y82925D01*
X15437D01*
X15361Y83001D01*
Y83305D01*
X17300Y80200D02*
Y80656D01*
X17528D01*
X17604Y80580D01*
Y80428D01*
X17528Y80352D01*
X17300D01*
X17452D02*
X17604Y80200D01*
X17756D02*
X17908D01*
X17832D01*
Y80656D01*
X17756Y80580D01*
X18136Y80200D02*
X18288D01*
X18212D01*
Y80656D01*
X18136Y80580D01*
X28764Y106980D02*
X28688Y107056D01*
X28536D01*
X28460Y106980D01*
Y106676D01*
X28536Y106600D01*
X28688D01*
X28764Y106676D01*
X28916Y106600D02*
Y107056D01*
X29144D01*
X29220Y106980D01*
Y106828D01*
X29144Y106752D01*
X28916D01*
X29068D02*
X29220Y106600D01*
X29676D02*
X29372D01*
X29676Y106904D01*
Y106980D01*
X29600Y107056D01*
X29448D01*
X29372Y106980D01*
X62645Y77952D02*
X63000D01*
X62381Y77512D02*
Y77834D01*
Y77512D02*
X62550D01*
X63100D02*
X63269D01*
Y77824D01*
X61850Y94900D02*
Y97400D01*
X61375Y94425D02*
X61850Y94900D01*
X61440Y97810D02*
X61850Y97400D01*
X60392Y97393D02*
X60810Y97810D01*
X60392Y94906D02*
Y97393D01*
X82875Y106275D02*
X84075D01*
X82875Y104325D02*
X84075D01*
X82875Y103175D02*
X84075D01*
X82875D02*
Y106275D01*
X84075Y103175D02*
Y106275D01*
X67775Y105155D02*
X67975D01*
X68475Y105255D02*
Y105655D01*
X68175D02*
X68475D01*
X67275Y105255D02*
Y105655D01*
X67575D01*
X80525Y104755D02*
X80725D01*
X81225Y104855D02*
Y105255D01*
X80925D02*
X81225D01*
X80025Y104855D02*
Y105255D01*
X80325D01*
X51225Y89245D02*
X51425D01*
X50725Y88745D02*
Y89145D01*
Y88745D02*
X51025D01*
X51925D02*
Y89145D01*
X51625Y88745D02*
X51925D01*
X50975Y98125D02*
X52475D01*
X50725Y97875D02*
X50975Y98125D01*
X50725Y97375D02*
Y97875D01*
Y97375D02*
X50975Y97125D01*
X52475D01*
X52725Y97375D01*
Y97875D01*
X52475Y98125D02*
X52725Y97875D01*
X64675Y73575D02*
Y74775D01*
X62725Y73575D02*
Y74775D01*
X61575Y73575D02*
Y74775D01*
X64675D01*
X61575Y73575D02*
X64675D01*
X61525Y75325D02*
Y76525D01*
X63475Y75325D02*
Y76525D01*
X64625Y75325D02*
Y76525D01*
X61525Y75325D02*
X64625D01*
X61525Y76525D02*
X64625D01*
X60392Y94906D02*
X60825Y94425D01*
X61375D01*
X60810Y97810D02*
X61440D01*
X76525Y87075D02*
Y88275D01*
X78475Y87075D02*
Y88275D01*
X79625Y87075D02*
Y88275D01*
X76525Y87075D02*
X79625D01*
X76525Y88275D02*
X79625D01*
X76525Y83825D02*
Y85025D01*
X78475Y83825D02*
Y85025D01*
X79625Y83825D02*
Y85025D01*
X76525Y83825D02*
X79625D01*
X76525Y85025D02*
X79625D01*
X70125Y106375D02*
X71325D01*
X70125Y104425D02*
X71325D01*
X70125Y103275D02*
X71325D01*
X70125D02*
Y106375D01*
X71325Y103275D02*
Y106375D01*
X47498Y100958D02*
Y100578D01*
X47574Y100502D01*
X47726D01*
X47802Y100578D01*
Y100958D01*
X47954Y100502D02*
X48106D01*
X48030D01*
Y100958D01*
X47954Y100882D01*
X48334Y100502D02*
X48486D01*
X48410D01*
Y100958D01*
X48334Y100882D01*
X50779Y77105D02*
X50703Y77181D01*
X50551D01*
X50475Y77105D01*
Y76801D01*
X50551Y76725D01*
X50703D01*
X50779Y76801D01*
X50931Y76725D02*
Y77181D01*
X51159D01*
X51235Y77105D01*
Y76953D01*
X51159Y76877D01*
X50931D01*
X51083D02*
X51235Y76725D01*
X51387D02*
X51539D01*
X51463D01*
Y77181D01*
X51387Y77105D01*
X49625Y102774D02*
Y102394D01*
X49701Y102318D01*
X49853D01*
X49929Y102394D01*
Y102774D01*
X50385D02*
X50233Y102698D01*
X50081Y102546D01*
Y102394D01*
X50157Y102318D01*
X50309D01*
X50385Y102394D01*
Y102470D01*
X50309Y102546D01*
X50081D01*
X53229Y77728D02*
X53153Y77804D01*
X53001D01*
X52925Y77728D01*
Y77424D01*
X53001Y77348D01*
X53153D01*
X53229Y77424D01*
X53380Y77348D02*
X53532D01*
X53456D01*
Y77804D01*
X53380Y77728D01*
X59484Y96980D02*
X59408Y97056D01*
X59256D01*
X59180Y96980D01*
Y96676D01*
X59256Y96600D01*
X59408D01*
X59484Y96676D01*
X59636Y97056D02*
X59940D01*
Y96980D01*
X59636Y96676D01*
Y96600D01*
X62381Y79036D02*
Y78656D01*
X62457Y78580D01*
X62609D01*
X62685Y78656D01*
Y79036D01*
X63141Y78580D02*
X62837D01*
X63141Y78884D01*
Y78960D01*
X63065Y79036D01*
X62913D01*
X62837Y78960D01*
X62875Y99175D02*
Y99631D01*
X63103D01*
X63179Y99555D01*
Y99403D01*
X63103Y99327D01*
X62875D01*
X63027D02*
X63179Y99175D01*
X63331D02*
X63483D01*
X63407D01*
Y99631D01*
X63331Y99555D01*
X63711D02*
X63787Y99631D01*
X63939D01*
X64015Y99555D01*
Y99251D01*
X63939Y99175D01*
X63787D01*
X63711Y99251D01*
Y99555D01*
X68325Y73625D02*
Y74081D01*
X68553D01*
X68629Y74005D01*
Y73853D01*
X68553Y73777D01*
X68325D01*
X68477D02*
X68629Y73625D01*
X69085Y74081D02*
X68933Y74005D01*
X68781Y73853D01*
Y73701D01*
X68857Y73625D01*
X69009D01*
X69085Y73701D01*
Y73777D01*
X69009Y73853D01*
X68781D01*
X68475Y79675D02*
Y80131D01*
X68703D01*
X68779Y80055D01*
Y79903D01*
X68703Y79827D01*
X68475D01*
X68627D02*
X68779Y79675D01*
X68931Y80131D02*
X69235D01*
Y80055D01*
X68931Y79751D01*
Y79675D01*
X50029Y81055D02*
X49953Y81131D01*
X49801D01*
X49725Y81055D01*
Y80751D01*
X49801Y80675D01*
X49953D01*
X50029Y80751D01*
X50485Y81131D02*
X50333Y81055D01*
X50181Y80903D01*
Y80751D01*
X50257Y80675D01*
X50409D01*
X50485Y80751D01*
Y80827D01*
X50409Y80903D01*
X50181D01*
X62260Y95220D02*
Y95676D01*
X62488D01*
X62564Y95600D01*
Y95448D01*
X62488Y95372D01*
X62260D01*
X62412D02*
X62564Y95220D01*
X63020D02*
X62716D01*
X63020Y95524D01*
Y95600D01*
X62944Y95676D01*
X62792D01*
X62716Y95600D01*
X63400Y95220D02*
Y95676D01*
X63172Y95448D01*
X63476D01*
X83284Y106860D02*
X83208Y106936D01*
X83056D01*
X82980Y106860D01*
Y106556D01*
X83056Y106480D01*
X83208D01*
X83284Y106556D01*
X83436Y106480D02*
Y106936D01*
X83664D01*
X83740Y106860D01*
Y106708D01*
X83664Y106632D01*
X83436D01*
X83588D02*
X83740Y106480D01*
X83892Y106860D02*
X83968Y106936D01*
X84120D01*
X84196Y106860D01*
Y106784D01*
X84120Y106708D01*
X84044D01*
X84120D01*
X84196Y106632D01*
Y106556D01*
X84120Y106480D01*
X83968D01*
X83892Y106556D01*
X83160Y81496D02*
Y81116D01*
X83236Y81040D01*
X83388D01*
X83464Y81116D01*
Y81496D01*
X83616Y81040D02*
X83768D01*
X83692D01*
Y81496D01*
X83616Y81420D01*
X83996D02*
X84072Y81496D01*
X84224D01*
X84300Y81420D01*
Y81344D01*
X84224Y81268D01*
X84148D01*
X84224D01*
X84300Y81192D01*
Y81116D01*
X84224Y81040D01*
X84072D01*
X83996Y81116D01*
X83140Y96176D02*
Y95796D01*
X83216Y95720D01*
X83368D01*
X83444Y95796D01*
Y96176D01*
X83596Y95720D02*
X83748D01*
X83672D01*
Y96176D01*
X83596Y96100D01*
X84280Y95720D02*
X83976D01*
X84280Y96024D01*
Y96100D01*
X84204Y96176D01*
X84052D01*
X83976Y96100D01*
X49475Y84425D02*
Y84881D01*
X49703D01*
X49779Y84805D01*
Y84653D01*
X49703Y84577D01*
X49475D01*
X49627D02*
X49779Y84425D01*
X49931D02*
X50083D01*
X50007D01*
Y84881D01*
X49931Y84805D01*
X50615Y84881D02*
X50463Y84805D01*
X50311Y84653D01*
Y84501D01*
X50387Y84425D01*
X50539D01*
X50615Y84501D01*
Y84577D01*
X50539Y84653D01*
X50311D01*
X49475Y86925D02*
Y87381D01*
X49703D01*
X49779Y87305D01*
Y87153D01*
X49703Y87077D01*
X49475D01*
X49627D02*
X49779Y86925D01*
X49931D02*
X50083D01*
X50007D01*
Y87381D01*
X49931Y87305D01*
X50311Y87381D02*
X50615D01*
Y87305D01*
X50311Y87001D01*
Y86925D01*
X49873Y93327D02*
X49800Y93400D01*
X49653D01*
X49580Y93327D01*
Y93033D01*
X49653Y92960D01*
X49800D01*
X49873Y93033D01*
X50020Y93327D02*
X50093Y93400D01*
X50240D01*
X50313Y93327D01*
Y93253D01*
X50240Y93180D01*
X50313Y93107D01*
Y93033D01*
X50240Y92960D01*
X50093D01*
X50020Y93033D01*
Y93107D01*
X50093Y93180D01*
X50020Y93253D01*
Y93327D01*
X50093Y93180D02*
X50240D01*
X49420Y95440D02*
Y95870D01*
X49635D01*
X49707Y95798D01*
Y95655D01*
X49635Y95583D01*
X49420D01*
X49563D02*
X49707Y95440D01*
X49850D02*
X49993D01*
X49921D01*
Y95870D01*
X49850Y95798D01*
X50495Y95870D02*
X50208D01*
Y95655D01*
X50351Y95727D01*
X50423D01*
X50495Y95655D01*
Y95512D01*
X50423Y95440D01*
X50280D01*
X50208Y95512D01*
X51365Y99615D02*
Y100071D01*
X51593D01*
X51669Y99995D01*
Y99843D01*
X51593Y99767D01*
X51365D01*
X51517D02*
X51669Y99615D01*
X51821Y99995D02*
X51897Y100071D01*
X52049D01*
X52125Y99995D01*
Y99919D01*
X52049Y99843D01*
X52125Y99767D01*
Y99691D01*
X52049Y99615D01*
X51897D01*
X51821Y99691D01*
Y99767D01*
X51897Y99843D01*
X51821Y99919D01*
Y99995D01*
X51897Y99843D02*
X52049D01*
X69560Y86420D02*
Y86876D01*
X69788D01*
X69864Y86800D01*
Y86648D01*
X69788Y86572D01*
X69560D01*
X69712D02*
X69864Y86420D01*
X70320Y86876D02*
X70016D01*
Y86648D01*
X70168Y86724D01*
X70244D01*
X70320Y86648D01*
Y86496D01*
X70244Y86420D01*
X70092D01*
X70016Y86496D01*
X66529Y105201D02*
Y105505D01*
X66453Y105581D01*
X66301D01*
X66225Y105505D01*
Y105201D01*
X66301Y105125D01*
X66453D01*
X66377Y105277D02*
X66529Y105125D01*
X66453D02*
X66529Y105201D01*
X66681Y105505D02*
X66757Y105581D01*
X66909D01*
X66985Y105505D01*
Y105429D01*
X66909Y105353D01*
X66833D01*
X66909D01*
X66985Y105277D01*
Y105201D01*
X66909Y105125D01*
X66757D01*
X66681Y105201D01*
X81764Y104756D02*
Y105060D01*
X81688Y105136D01*
X81536D01*
X81460Y105060D01*
Y104756D01*
X81536Y104680D01*
X81688D01*
X81612Y104832D02*
X81764Y104680D01*
X81688D02*
X81764Y104756D01*
X82220Y104680D02*
X81916D01*
X82220Y104984D01*
Y105060D01*
X82144Y105136D01*
X81992D01*
X81916Y105060D01*
X44620Y87716D02*
Y87336D01*
X44696Y87260D01*
X44848D01*
X44924Y87336D01*
Y87716D01*
X45076Y87260D02*
X45228D01*
X45152D01*
Y87716D01*
X45076Y87640D01*
X45456D02*
X45532Y87716D01*
X45684D01*
X45760Y87640D01*
Y87336D01*
X45684Y87260D01*
X45532D01*
X45456Y87336D01*
Y87640D01*
X45693Y99176D02*
Y98796D01*
X45769Y98720D01*
X45921D01*
X45997Y98796D01*
Y99176D01*
X46149Y98720D02*
X46301D01*
X46225D01*
Y99176D01*
X46149Y99100D01*
X46757Y98720D02*
Y99176D01*
X46529Y98948D01*
X46833D01*
X56675Y76181D02*
Y75801D01*
X56751Y75725D01*
X56903D01*
X56979Y75801D01*
Y76181D01*
X57131Y75725D02*
X57283D01*
X57207D01*
Y76181D01*
X57131Y76105D01*
X51584Y80920D02*
Y80540D01*
X51660Y80464D01*
X51812D01*
X51888Y80540D01*
Y80920D01*
X52040Y80844D02*
X52116Y80920D01*
X52268D01*
X52344Y80844D01*
Y80768D01*
X52268Y80692D01*
X52192D01*
X52268D01*
X52344Y80616D01*
Y80540D01*
X52268Y80464D01*
X52116D01*
X52040Y80540D01*
X52819Y91927D02*
Y92383D01*
X53047D01*
X53123Y92307D01*
Y92155D01*
X53047Y92079D01*
X52819D01*
X52971D02*
X53123Y91927D01*
X53579D02*
X53275D01*
X53579Y92231D01*
Y92307D01*
X53503Y92383D01*
X53351D01*
X53275Y92307D01*
X53143Y83105D02*
X53067Y83181D01*
X52915D01*
X52839Y83105D01*
Y82801D01*
X52915Y82725D01*
X53067D01*
X53143Y82801D01*
X53295D02*
X53371Y82725D01*
X53523D01*
X53599Y82801D01*
Y83105D01*
X53523Y83181D01*
X53371D01*
X53295Y83105D01*
Y83029D01*
X53371Y82953D01*
X53599D01*
X50029Y88751D02*
Y89055D01*
X49953Y89131D01*
X49801D01*
X49725Y89055D01*
Y88751D01*
X49801Y88675D01*
X49953D01*
X49877Y88827D02*
X50029Y88675D01*
X49953D02*
X50029Y88751D01*
X50181Y88675D02*
X50333D01*
X50257D01*
Y89131D01*
X50181Y89055D01*
X49420Y94520D02*
Y94950D01*
X49635D01*
X49707Y94878D01*
Y94735D01*
X49635Y94663D01*
X49420D01*
X49563D02*
X49707Y94520D01*
X49850D02*
X49993D01*
X49921D01*
Y94950D01*
X49850Y94878D01*
X50208D02*
X50280Y94950D01*
X50423D01*
X50495Y94878D01*
Y94807D01*
X50423Y94735D01*
X50351D01*
X50423D01*
X50495Y94663D01*
Y94592D01*
X50423Y94520D01*
X50280D01*
X50208Y94592D01*
X49779Y97831D02*
X49627D01*
X49703D01*
Y97451D01*
X49627Y97375D01*
X49551D01*
X49475Y97451D01*
X49931Y97831D02*
X50235D01*
X50083D01*
Y97375D01*
X50387D02*
X50539D01*
X50463D01*
Y97831D01*
X50387Y97755D01*
X65025Y74381D02*
Y73925D01*
X65253D01*
X65329Y74001D01*
Y74305D01*
X65253Y74381D01*
X65025D01*
X65785Y73925D02*
X65481D01*
X65785Y74229D01*
Y74305D01*
X65709Y74381D01*
X65557D01*
X65481Y74305D01*
X64864Y76191D02*
Y75735D01*
X65092D01*
X65168Y75811D01*
Y76115D01*
X65092Y76191D01*
X64864D01*
X65320Y75735D02*
X65472D01*
X65396D01*
Y76191D01*
X65320Y76115D01*
X64804Y77427D02*
X64728Y77503D01*
X64576D01*
X64500Y77427D01*
Y77123D01*
X64576Y77047D01*
X64728D01*
X64804Y77123D01*
X65260Y77503D02*
X64956D01*
Y77275D01*
X65108Y77351D01*
X65184D01*
X65260Y77275D01*
Y77123D01*
X65184Y77047D01*
X65032D01*
X64956Y77123D01*
X64960Y89956D02*
Y89576D01*
X65036Y89500D01*
X65188D01*
X65264Y89576D01*
Y89956D01*
X65416Y89576D02*
X65492Y89500D01*
X65644D01*
X65720Y89576D01*
Y89880D01*
X65644Y89956D01*
X65492D01*
X65416Y89880D01*
Y89804D01*
X65492Y89728D01*
X65720D01*
X69500Y88460D02*
Y88916D01*
X69728D01*
X69804Y88840D01*
Y88688D01*
X69728Y88612D01*
X69500D01*
X69652D02*
X69804Y88460D01*
X70184D02*
Y88916D01*
X69956Y88688D01*
X70260D01*
X60830Y98546D02*
X61134Y98090D01*
Y98546D02*
X60830Y98090D01*
X61286D02*
X61438D01*
X61362D01*
Y98546D01*
X61286Y98470D01*
X81475Y73675D02*
Y74131D01*
X81703D01*
X81779Y74055D01*
Y73903D01*
X81703Y73827D01*
X81475D01*
X81627D02*
X81779Y73675D01*
X82235D02*
X81931D01*
X82235Y73979D01*
Y74055D01*
X82159Y74131D01*
X82007D01*
X81931Y74055D01*
X82387D02*
X82463Y74131D01*
X82615D01*
X82691Y74055D01*
Y73751D01*
X82615Y73675D01*
X82463D01*
X82387Y73751D01*
Y74055D01*
X76525Y89034D02*
Y88578D01*
X76753D01*
X76829Y88654D01*
Y88958D01*
X76753Y89034D01*
X76525D01*
X76981Y88654D02*
X77057Y88578D01*
X77209D01*
X77285Y88654D01*
Y88958D01*
X77209Y89034D01*
X77057D01*
X76981Y88958D01*
Y88882D01*
X77057Y88806D01*
X77285D01*
X76525Y85781D02*
Y85325D01*
X76753D01*
X76829Y85401D01*
Y85705D01*
X76753Y85781D01*
X76525D01*
X76981Y85705D02*
X77057Y85781D01*
X77209D01*
X77285Y85705D01*
Y85629D01*
X77209Y85553D01*
X77285Y85477D01*
Y85401D01*
X77209Y85325D01*
X77057D01*
X76981Y85401D01*
Y85477D01*
X77057Y85553D01*
X76981Y85629D01*
Y85705D01*
X77057Y85553D02*
X77209D01*
X73168Y86256D02*
Y85876D01*
X73244Y85800D01*
X73396D01*
X73471Y85876D01*
Y86256D01*
X73927D02*
X73623D01*
Y86028D01*
X73775Y86104D01*
X73851D01*
X73927Y86028D01*
Y85876D01*
X73851Y85800D01*
X73699D01*
X73623Y85876D01*
X73168Y89556D02*
Y89176D01*
X73244Y89100D01*
X73396D01*
X73471Y89176D01*
Y89556D01*
X73623Y89480D02*
X73699Y89556D01*
X73851D01*
X73927Y89480D01*
Y89404D01*
X73851Y89328D01*
X73927Y89252D01*
Y89176D01*
X73851Y89100D01*
X73699D01*
X73623Y89176D01*
Y89252D01*
X73699Y89328D01*
X73623Y89404D01*
Y89480D01*
X73699Y89328D02*
X73851D01*
X45225Y95625D02*
Y96081D01*
X45453D01*
X45529Y96005D01*
Y95853D01*
X45453Y95777D01*
X45225D01*
X45377D02*
X45529Y95625D01*
X45985D02*
X45681D01*
X45985Y95929D01*
Y96005D01*
X45909Y96081D01*
X45757D01*
X45681Y96005D01*
X46441Y96081D02*
X46137D01*
Y95853D01*
X46289Y95929D01*
X46365D01*
X46441Y95853D01*
Y95701D01*
X46365Y95625D01*
X46213D01*
X46137Y95701D01*
X55636Y97549D02*
Y97169D01*
X55712Y97093D01*
X55864D01*
X55940Y97169D01*
Y97549D01*
X56320Y97093D02*
Y97549D01*
X56092Y97321D01*
X56396D01*
X52225Y81725D02*
Y82181D01*
X52453D01*
X52529Y82105D01*
Y81953D01*
X52453Y81877D01*
X52225D01*
X52377D02*
X52529Y81725D01*
X52681D02*
X52833D01*
X52757D01*
Y82181D01*
X52681Y82105D01*
X65975Y83631D02*
Y83251D01*
X66051Y83175D01*
X66203D01*
X66279Y83251D01*
Y83631D01*
X66431D02*
X66735D01*
Y83555D01*
X66431Y83251D01*
Y83175D01*
X66100Y92640D02*
Y93096D01*
X66328D01*
X66404Y93020D01*
Y92868D01*
X66328Y92792D01*
X66100D01*
X66252D02*
X66404Y92640D01*
X66860D02*
X66556D01*
X66860Y92944D01*
Y93020D01*
X66784Y93096D01*
X66632D01*
X66556Y93020D01*
X67316Y92640D02*
X67012D01*
X67316Y92944D01*
Y93020D01*
X67240Y93096D01*
X67088D01*
X67012Y93020D01*
X56175Y84225D02*
Y84681D01*
X56403D01*
X56479Y84605D01*
Y84453D01*
X56403Y84377D01*
X56175D01*
X56327D02*
X56479Y84225D01*
X56631D02*
X56783D01*
X56707D01*
Y84681D01*
X56631Y84605D01*
X57315Y84225D02*
X57011D01*
X57315Y84529D01*
Y84605D01*
X57239Y84681D01*
X57087D01*
X57011Y84605D01*
X59225Y86925D02*
Y87381D01*
X59453D01*
X59529Y87305D01*
Y87153D01*
X59453Y87077D01*
X59225D01*
X59377D02*
X59529Y86925D01*
X59681D02*
X59833D01*
X59757D01*
Y87381D01*
X59681Y87305D01*
X60061Y87001D02*
X60137Y86925D01*
X60289D01*
X60365Y87001D01*
Y87305D01*
X60289Y87381D01*
X60137D01*
X60061Y87305D01*
Y87229D01*
X60137Y87153D01*
X60365D01*
X58975Y90175D02*
Y90631D01*
X59203D01*
X59279Y90555D01*
Y90403D01*
X59203Y90327D01*
X58975D01*
X59127D02*
X59279Y90175D01*
X59431Y90555D02*
X59507Y90631D01*
X59659D01*
X59735Y90555D01*
Y90479D01*
X59659Y90403D01*
X59583D01*
X59659D01*
X59735Y90327D01*
Y90251D01*
X59659Y90175D01*
X59507D01*
X59431Y90251D01*
X56840Y98220D02*
Y98676D01*
X57068D01*
X57144Y98600D01*
Y98448D01*
X57068Y98372D01*
X56840D01*
X56992D02*
X57144Y98220D01*
X57296D02*
X57448D01*
X57372D01*
Y98676D01*
X57296Y98600D01*
X57904Y98220D02*
Y98676D01*
X57676Y98448D01*
X57980D01*
X57929Y74305D02*
X57853Y74381D01*
X57701D01*
X57625Y74305D01*
Y74001D01*
X57701Y73925D01*
X57853D01*
X57929Y74001D01*
X58309Y73925D02*
Y74381D01*
X58081Y74153D01*
X58385D01*
X58975Y91675D02*
Y92131D01*
X59203D01*
X59279Y92055D01*
Y91903D01*
X59203Y91827D01*
X58975D01*
X59127D02*
X59279Y91675D01*
X59431Y91751D02*
X59507Y91675D01*
X59659D01*
X59735Y91751D01*
Y92055D01*
X59659Y92131D01*
X59507D01*
X59431Y92055D01*
Y91979D01*
X59507Y91903D01*
X59735D01*
X59225Y88425D02*
Y88881D01*
X59453D01*
X59529Y88805D01*
Y88653D01*
X59453Y88577D01*
X59225D01*
X59377D02*
X59529Y88425D01*
X59681D02*
X59833D01*
X59757D01*
Y88881D01*
X59681Y88805D01*
X60061D02*
X60137Y88881D01*
X60289D01*
X60365Y88805D01*
Y88729D01*
X60289Y88653D01*
X60365Y88577D01*
Y88501D01*
X60289Y88425D01*
X60137D01*
X60061Y88501D01*
Y88577D01*
X60137Y88653D01*
X60061Y88729D01*
Y88805D01*
X60137Y88653D02*
X60289D01*
X56529Y83305D02*
X56453Y83381D01*
X56301D01*
X56225Y83305D01*
Y83001D01*
X56301Y82925D01*
X56453D01*
X56529Y83001D01*
X56681Y82925D02*
X56833D01*
X56757D01*
Y83381D01*
X56681Y83305D01*
X57061D02*
X57137Y83381D01*
X57289D01*
X57365Y83305D01*
Y83001D01*
X57289Y82925D01*
X57137D01*
X57061Y83001D01*
Y83305D01*
X59000Y80200D02*
Y80656D01*
X59228D01*
X59304Y80580D01*
Y80428D01*
X59228Y80352D01*
X59000D01*
X59152D02*
X59304Y80200D01*
X59456D02*
X59608D01*
X59532D01*
Y80656D01*
X59456Y80580D01*
X59836Y80200D02*
X59988D01*
X59912D01*
Y80656D01*
X59836Y80580D01*
X70464Y106980D02*
X70388Y107056D01*
X70236D01*
X70160Y106980D01*
Y106676D01*
X70236Y106600D01*
X70388D01*
X70464Y106676D01*
X70616Y106600D02*
Y107056D01*
X70844D01*
X70920Y106980D01*
Y106828D01*
X70844Y106752D01*
X70616D01*
X70768D02*
X70920Y106600D01*
X71376D02*
X71072D01*
X71376Y106904D01*
Y106980D01*
X71300Y107056D01*
X71148D01*
X71072Y106980D01*
D29*
X14475Y22005D02*
G03*
X14075Y22005I-200J0D01*
G01*
X8825Y5325D02*
X9775D01*
Y8525D02*
X10725D01*
X12955Y26545D02*
X15595D01*
X12955Y22005D02*
Y26545D01*
Y22005D02*
X14075D01*
X15595D02*
Y26545D01*
X14475Y22005D02*
X15595D01*
X11308Y27450D02*
Y27075D01*
X11183Y27450D02*
X11433D01*
X11478Y27218D02*
X11692D01*
Y27254D01*
X11674Y27289D01*
X11656Y27307D01*
X11620Y27325D01*
X11567D01*
X11531Y27307D01*
X11495Y27271D01*
X11478Y27218D01*
Y27182D01*
X11495Y27129D01*
X11531Y27093D01*
X11567Y27075D01*
X11620D01*
X11656Y27093D01*
X11692Y27129D01*
X11969Y27271D02*
X11951Y27307D01*
X11897Y27325D01*
X11844D01*
X11790Y27307D01*
X11772Y27271D01*
X11790Y27236D01*
X11826Y27218D01*
X11915Y27200D01*
X11951Y27182D01*
X11969Y27146D01*
Y27129D01*
X11951Y27093D01*
X11897Y27075D01*
X11844D01*
X11790Y27093D01*
X11772Y27129D01*
X12101Y27450D02*
Y27146D01*
X12119Y27093D01*
X12154Y27075D01*
X12190D01*
X12047Y27325D02*
X12172D01*
X56175Y22005D02*
G03*
X55775Y22005I-200J0D01*
G01*
X50525Y5325D02*
X51475D01*
Y8525D02*
X52425D01*
X54655Y26545D02*
X57295D01*
X54655Y22005D02*
Y26545D01*
Y22005D02*
X55775D01*
X57295D02*
Y26545D01*
X56175Y22005D02*
X57295D01*
X53008Y27450D02*
Y27075D01*
X52883Y27450D02*
X53133D01*
X53178Y27218D02*
X53392D01*
Y27254D01*
X53374Y27289D01*
X53356Y27307D01*
X53320Y27325D01*
X53267D01*
X53231Y27307D01*
X53195Y27271D01*
X53178Y27218D01*
Y27182D01*
X53195Y27129D01*
X53231Y27093D01*
X53267Y27075D01*
X53320D01*
X53356Y27093D01*
X53392Y27129D01*
X53669Y27271D02*
X53651Y27307D01*
X53597Y27325D01*
X53544D01*
X53490Y27307D01*
X53472Y27271D01*
X53490Y27236D01*
X53526Y27218D01*
X53615Y27200D01*
X53651Y27182D01*
X53669Y27146D01*
Y27129D01*
X53651Y27093D01*
X53597Y27075D01*
X53544D01*
X53490Y27093D01*
X53472Y27129D01*
X53801Y27450D02*
Y27146D01*
X53819Y27093D01*
X53854Y27075D01*
X53890D01*
X53747Y27325D02*
X53872D01*
X14475Y57205D02*
G03*
X14075Y57205I-200J0D01*
G01*
X8825Y40525D02*
X9775D01*
Y43725D02*
X10725D01*
X12955Y61745D02*
X15595D01*
X12955Y57205D02*
Y61745D01*
Y57205D02*
X14075D01*
X15595D02*
Y61745D01*
X14475Y57205D02*
X15595D01*
X11308Y62650D02*
Y62275D01*
X11183Y62650D02*
X11433D01*
X11478Y62418D02*
X11692D01*
Y62454D01*
X11674Y62489D01*
X11656Y62507D01*
X11620Y62525D01*
X11567D01*
X11531Y62507D01*
X11495Y62471D01*
X11478Y62418D01*
Y62382D01*
X11495Y62329D01*
X11531Y62293D01*
X11567Y62275D01*
X11620D01*
X11656Y62293D01*
X11692Y62329D01*
X11969Y62471D02*
X11951Y62507D01*
X11897Y62525D01*
X11844D01*
X11790Y62507D01*
X11772Y62471D01*
X11790Y62436D01*
X11826Y62418D01*
X11915Y62400D01*
X11951Y62382D01*
X11969Y62346D01*
Y62329D01*
X11951Y62293D01*
X11897Y62275D01*
X11844D01*
X11790Y62293D01*
X11772Y62329D01*
X12101Y62650D02*
Y62346D01*
X12119Y62293D01*
X12154Y62275D01*
X12190D01*
X12047Y62525D02*
X12172D01*
X56175Y57205D02*
G03*
X55775Y57205I-200J0D01*
G01*
X50525Y40525D02*
X51475D01*
Y43725D02*
X52425D01*
X54655Y61745D02*
X57295D01*
X54655Y57205D02*
Y61745D01*
Y57205D02*
X55775D01*
X57295D02*
Y61745D01*
X56175Y57205D02*
X57295D01*
X53008Y62650D02*
Y62275D01*
X52883Y62650D02*
X53133D01*
X53178Y62418D02*
X53392D01*
Y62454D01*
X53374Y62489D01*
X53356Y62507D01*
X53320Y62525D01*
X53267D01*
X53231Y62507D01*
X53195Y62471D01*
X53178Y62418D01*
Y62382D01*
X53195Y62329D01*
X53231Y62293D01*
X53267Y62275D01*
X53320D01*
X53356Y62293D01*
X53392Y62329D01*
X53669Y62471D02*
X53651Y62507D01*
X53597Y62525D01*
X53544D01*
X53490Y62507D01*
X53472Y62471D01*
X53490Y62436D01*
X53526Y62418D01*
X53615Y62400D01*
X53651Y62382D01*
X53669Y62346D01*
Y62329D01*
X53651Y62293D01*
X53597Y62275D01*
X53544D01*
X53490Y62293D01*
X53472Y62329D01*
X53801Y62650D02*
Y62346D01*
X53819Y62293D01*
X53854Y62275D01*
X53890D01*
X53747Y62525D02*
X53872D01*
X14475Y92405D02*
G03*
X14075Y92405I-200J0D01*
G01*
X8825Y75725D02*
X9775D01*
Y78925D02*
X10725D01*
X12955Y96945D02*
X15595D01*
X12955Y92405D02*
Y96945D01*
Y92405D02*
X14075D01*
X15595D02*
Y96945D01*
X14475Y92405D02*
X15595D01*
X11308Y97850D02*
Y97475D01*
X11183Y97850D02*
X11433D01*
X11478Y97618D02*
X11692D01*
Y97654D01*
X11674Y97689D01*
X11656Y97707D01*
X11620Y97725D01*
X11567D01*
X11531Y97707D01*
X11495Y97671D01*
X11478Y97618D01*
Y97582D01*
X11495Y97529D01*
X11531Y97493D01*
X11567Y97475D01*
X11620D01*
X11656Y97493D01*
X11692Y97529D01*
X11969Y97671D02*
X11951Y97707D01*
X11897Y97725D01*
X11844D01*
X11790Y97707D01*
X11772Y97671D01*
X11790Y97636D01*
X11826Y97618D01*
X11915Y97600D01*
X11951Y97582D01*
X11969Y97546D01*
Y97529D01*
X11951Y97493D01*
X11897Y97475D01*
X11844D01*
X11790Y97493D01*
X11772Y97529D01*
X12101Y97850D02*
Y97546D01*
X12119Y97493D01*
X12154Y97475D01*
X12190D01*
X12047Y97725D02*
X12172D01*
X56175Y92405D02*
G03*
X55775Y92405I-200J0D01*
G01*
X50525Y75725D02*
X51475D01*
Y78925D02*
X52425D01*
X54655Y96945D02*
X57295D01*
X54655Y92405D02*
Y96945D01*
Y92405D02*
X55775D01*
X57295D02*
Y96945D01*
X56175Y92405D02*
X57295D01*
X53008Y97850D02*
Y97475D01*
X52883Y97850D02*
X53133D01*
X53178Y97618D02*
X53392D01*
Y97654D01*
X53374Y97689D01*
X53356Y97707D01*
X53320Y97725D01*
X53267D01*
X53231Y97707D01*
X53195Y97671D01*
X53178Y97618D01*
Y97582D01*
X53195Y97529D01*
X53231Y97493D01*
X53267Y97475D01*
X53320D01*
X53356Y97493D01*
X53392Y97529D01*
X53669Y97671D02*
X53651Y97707D01*
X53597Y97725D01*
X53544D01*
X53490Y97707D01*
X53472Y97671D01*
X53490Y97636D01*
X53526Y97618D01*
X53615Y97600D01*
X53651Y97582D01*
X53669Y97546D01*
Y97529D01*
X53651Y97493D01*
X53597Y97475D01*
X53544D01*
X53490Y97493D01*
X53472Y97529D01*
X53801Y97850D02*
Y97546D01*
X53819Y97493D01*
X53854Y97475D01*
X53890D01*
X53747Y97725D02*
X53872D01*
D37*
X3200Y19425D02*
G03*
X3200Y20025I0J300D01*
G01*
X3175Y18375D02*
Y19425D01*
X3200Y18375D02*
X5450D01*
X3200Y21025D02*
X5450D01*
X5475Y18375D02*
Y21025D01*
X3175Y20025D02*
Y21025D01*
X44900Y19425D02*
G03*
X44900Y20025I0J300D01*
G01*
X44875Y18375D02*
Y19425D01*
X44900Y18375D02*
X47150D01*
X44900Y21025D02*
X47150D01*
X47175Y18375D02*
Y21025D01*
X44875Y20025D02*
Y21025D01*
X3200Y54625D02*
G03*
X3200Y55225I0J300D01*
G01*
X3175Y53575D02*
Y54625D01*
X3200Y53575D02*
X5450D01*
X3200Y56225D02*
X5450D01*
X5475Y53575D02*
Y56225D01*
X3175Y55225D02*
Y56225D01*
X44900Y54625D02*
G03*
X44900Y55225I0J300D01*
G01*
X44875Y53575D02*
Y54625D01*
X44900Y53575D02*
X47150D01*
X44900Y56225D02*
X47150D01*
X47175Y53575D02*
Y56225D01*
X44875Y55225D02*
Y56225D01*
X3200Y89825D02*
G03*
X3200Y90425I0J300D01*
G01*
X3175Y88775D02*
Y89825D01*
X3200Y88775D02*
X5450D01*
X3200Y91425D02*
X5450D01*
X5475Y88775D02*
Y91425D01*
X3175Y90425D02*
Y91425D01*
X44900Y89825D02*
G03*
X44900Y90425I0J300D01*
G01*
X44875Y88775D02*
Y89825D01*
X44900Y88775D02*
X47150D01*
X44900Y91425D02*
X47150D01*
X47175Y88775D02*
Y91425D01*
X44875Y90425D02*
Y91425D01*
D54*
X12318Y3905D02*
G03*
X12582Y3905I132J0D01*
G01*
Y3895D02*
G03*
X12318Y3895I-132J0D01*
G01*
X21200Y18900D02*
G03*
X22600Y18900I700J0D01*
G01*
X32232Y12900D02*
G03*
X31468Y12900I-382J0D01*
G01*
X32232Y16150D02*
G03*
X31468Y16150I-382J0D01*
G01*
X22600Y9400D02*
G03*
X21200Y9400I-700J0D01*
G01*
X5250Y28925D02*
Y29925D01*
X7350Y28925D02*
Y29925D01*
X5275Y28925D02*
X7325D01*
X5275Y29925D02*
X7325D01*
X8775Y6050D02*
X9775D01*
X8775Y3950D02*
X9775D01*
X8775Y3975D02*
Y6025D01*
X9775Y3975D02*
Y6025D01*
X7775Y31750D02*
X8775D01*
X7775Y29650D02*
X8775D01*
X7775Y29675D02*
Y31725D01*
X8775Y29675D02*
Y31725D01*
X11025Y4525D02*
X12025D01*
X11025Y6825D02*
X12025D01*
Y4525D02*
Y6825D01*
X11025Y4525D02*
Y6825D01*
X17275Y23775D02*
X18275D01*
X17275Y26075D02*
X18275D01*
Y23775D02*
Y26075D01*
X17275Y23775D02*
Y26075D01*
X21125Y26400D02*
Y28650D01*
X22225Y26400D02*
Y28650D01*
X21125D02*
X22225D01*
X21125Y26400D02*
X22225D01*
X27575Y3900D02*
Y6150D01*
X26475Y3900D02*
Y6150D01*
Y3900D02*
X27575D01*
X26475Y6150D02*
X27575D01*
Y6900D02*
Y9150D01*
X26475Y6900D02*
Y9150D01*
Y6900D02*
X27575D01*
X26475Y9150D02*
X27575D01*
X8025Y7775D02*
X9025D01*
X8025Y10075D02*
X9025D01*
Y7775D02*
Y10075D01*
X8025Y7775D02*
Y10075D01*
X20525Y22400D02*
Y24650D01*
X21625Y22400D02*
Y24650D01*
X20525D02*
X21625D01*
X20525Y22400D02*
X21625D01*
X41525Y8350D02*
X42525D01*
X41525Y10450D02*
X42525Y10450D01*
Y10425D02*
X42525Y8375D01*
X41525D02*
X41525Y10425D01*
Y23000D02*
X42525D01*
X41525Y25100D02*
X42525Y25100D01*
Y25075D02*
X42525Y23025D01*
X41525D02*
X41525Y25075D01*
X9150Y13725D02*
X11400D01*
X9150Y14825D02*
X11400D01*
X9150Y13725D02*
Y14825D01*
X11400Y13725D02*
Y14825D01*
X9150Y16225D02*
X11400D01*
X9150Y17325D02*
X11400D01*
X9150Y16225D02*
Y17325D01*
X11400Y16225D02*
Y17325D01*
X8775Y22275D02*
Y23275D01*
X11075Y22275D02*
Y23275D01*
X8775Y22275D02*
X11075D01*
X8775Y23275D02*
X11075D01*
X8900Y26075D02*
X11150D01*
X8900Y24975D02*
X11150D01*
Y26075D01*
X8900Y24975D02*
Y26075D01*
Y27975D02*
X11150D01*
X8900Y29075D02*
X11150D01*
X8900Y27975D02*
Y29075D01*
X11150Y27975D02*
Y29075D01*
X25400Y16825D02*
X27650D01*
X25400Y15725D02*
X27650D01*
Y16825D01*
X25400Y15725D02*
Y16825D01*
X4025Y26050D02*
X5025D01*
X4025Y28150D02*
X5025D01*
Y26075D02*
Y28125D01*
X4025Y26075D02*
Y28125D01*
X14725Y4275D02*
Y5875D01*
X12725Y4275D02*
X14725D01*
X12725D02*
Y5875D01*
X14725D01*
X9775Y7800D02*
X10775D01*
X9775Y9900D02*
X10775D01*
Y7825D02*
Y9875D01*
X9775Y7825D02*
Y9875D01*
X10975Y19150D02*
Y21400D01*
X12075Y19150D02*
Y21400D01*
X10975D02*
X12075D01*
X10975Y19150D02*
X12075D01*
X12025Y12025D02*
Y13025D01*
X14325Y12025D02*
Y13025D01*
X12025Y12025D02*
X14325D01*
X12025Y13025D02*
X14325D01*
X8900Y24575D02*
X11150D01*
X8900Y23475D02*
X11150D01*
Y24575D01*
X8900Y23475D02*
Y24575D01*
X24275Y7275D02*
Y8275D01*
X21975Y7275D02*
Y8275D01*
X24275D01*
X21975Y7275D02*
X24275D01*
X19775Y18900D02*
X21200D01*
X22600D02*
X24025D01*
X19775Y14650D02*
Y18900D01*
X24025Y14650D02*
Y18900D01*
X19775Y14650D02*
X24025D01*
X25400Y18825D02*
X27650D01*
X25400Y17725D02*
X27650D01*
Y18825D01*
X25400Y17725D02*
Y18825D01*
X37150Y3225D02*
X39400D01*
X37150Y4325D02*
X39400D01*
X37150Y3225D02*
Y4325D01*
X39400Y3225D02*
Y4325D01*
X32225Y12900D02*
X33275D01*
Y15275D01*
X30325Y12900D02*
Y15275D01*
Y15300D02*
X33275D01*
X30325Y12900D02*
X31475D01*
X32225Y16150D02*
X33275D01*
Y18525D01*
X30325Y16150D02*
Y18525D01*
Y18550D02*
X33275D01*
X30325Y16150D02*
X31475D01*
X3525Y22850D02*
Y25100D01*
X4625Y22850D02*
Y25100D01*
X3525D02*
X4625D01*
X3525Y22850D02*
X4625D01*
X11225Y9150D02*
Y11400D01*
X12325Y9150D02*
Y11400D01*
X11225D02*
X12325D01*
X11225Y9150D02*
X12325D01*
X22600Y9400D02*
X24025D01*
X19775D02*
X21200D01*
X24025D02*
Y13650D01*
X19775Y9400D02*
Y13650D01*
X24025D01*
X23950Y23975D02*
X26200D01*
X23950Y22875D02*
X26200D01*
Y23975D01*
X23950Y22875D02*
Y23975D01*
X15850Y14625D02*
X18100D01*
X15850Y13525D02*
X18100D01*
Y14625D01*
X15850Y13525D02*
Y14625D01*
X15150Y16225D02*
X17400D01*
X15150Y17325D02*
X17400D01*
X15150Y16225D02*
Y17325D01*
X17400Y16225D02*
Y17325D01*
X18400Y20575D02*
X20650D01*
X18400Y19475D02*
X20650D01*
Y20575D01*
X18400Y19475D02*
Y20575D01*
X16400Y27725D02*
X18650D01*
X16400Y28825D02*
X18650D01*
X16400Y27725D02*
Y28825D01*
X18650Y27725D02*
Y28825D01*
X16775Y3275D02*
Y4275D01*
X19075Y3275D02*
Y4275D01*
X16775Y3275D02*
X19075D01*
X16775Y4275D02*
X19075D01*
X18400Y20975D02*
X20650D01*
X18400Y22075D02*
X20650D01*
X18400Y20975D02*
Y22075D01*
X20650Y20975D02*
Y22075D01*
X15150Y17725D02*
X17400D01*
X15150Y18825D02*
X17400D01*
X15150Y17725D02*
Y18825D01*
X17400Y17725D02*
Y18825D01*
X15775Y12275D02*
Y13275D01*
X18075Y12275D02*
Y13275D01*
X15775Y12275D02*
X18075D01*
X15775Y13275D02*
X18075D01*
X17250Y10475D02*
X19500D01*
X17250Y11575D02*
X19500D01*
X17250Y10475D02*
Y11575D01*
X19500Y10475D02*
Y11575D01*
X54018Y3905D02*
G03*
X54282Y3905I132J0D01*
G01*
Y3895D02*
G03*
X54018Y3895I-132J0D01*
G01*
X62900Y18900D02*
G03*
X64300Y18900I700J0D01*
G01*
X73932Y12900D02*
G03*
X73168Y12900I-382J0D01*
G01*
X73932Y16150D02*
G03*
X73168Y16150I-382J0D01*
G01*
X64300Y9400D02*
G03*
X62900Y9400I-700J0D01*
G01*
X46950Y28925D02*
Y29925D01*
X49050Y28925D02*
Y29925D01*
X46975Y28925D02*
X49025D01*
X46975Y29925D02*
X49025D01*
X50475Y6050D02*
X51475D01*
X50475Y3950D02*
X51475D01*
X50475Y3975D02*
Y6025D01*
X51475Y3975D02*
Y6025D01*
X49475Y31750D02*
X50475D01*
X49475Y29650D02*
X50475D01*
X49475Y29675D02*
Y31725D01*
X50475Y29675D02*
Y31725D01*
X52725Y4525D02*
X53725D01*
X52725Y6825D02*
X53725D01*
Y4525D02*
Y6825D01*
X52725Y4525D02*
Y6825D01*
X58975Y23775D02*
X59975D01*
X58975Y26075D02*
X59975D01*
Y23775D02*
Y26075D01*
X58975Y23775D02*
Y26075D01*
X62825Y26400D02*
Y28650D01*
X63925Y26400D02*
Y28650D01*
X62825D02*
X63925D01*
X62825Y26400D02*
X63925D01*
X69275Y3900D02*
Y6150D01*
X68175Y3900D02*
Y6150D01*
Y3900D02*
X69275D01*
X68175Y6150D02*
X69275D01*
Y6900D02*
Y9150D01*
X68175Y6900D02*
Y9150D01*
Y6900D02*
X69275D01*
X68175Y9150D02*
X69275D01*
X49725Y7775D02*
X50725D01*
X49725Y10075D02*
X50725D01*
Y7775D02*
Y10075D01*
X49725Y7775D02*
Y10075D01*
X62225Y22400D02*
Y24650D01*
X63325Y22400D02*
Y24650D01*
X62225D02*
X63325D01*
X62225Y22400D02*
X63325D01*
X83225Y8350D02*
X84225D01*
X83225Y10450D02*
X84225Y10450D01*
Y10425D02*
X84225Y8375D01*
X83225D02*
X83225Y10425D01*
Y23000D02*
X84225D01*
X83225Y25100D02*
X84225Y25100D01*
Y25075D02*
X84225Y23025D01*
X83225D02*
X83225Y25075D01*
X50850Y13725D02*
X53100D01*
X50850Y14825D02*
X53100D01*
X50850Y13725D02*
Y14825D01*
X53100Y13725D02*
Y14825D01*
X50850Y16225D02*
X53100D01*
X50850Y17325D02*
X53100D01*
X50850Y16225D02*
Y17325D01*
X53100Y16225D02*
Y17325D01*
X50475Y22275D02*
Y23275D01*
X52775Y22275D02*
Y23275D01*
X50475Y22275D02*
X52775D01*
X50475Y23275D02*
X52775D01*
X50600Y26075D02*
X52850D01*
X50600Y24975D02*
X52850D01*
Y26075D01*
X50600Y24975D02*
Y26075D01*
Y27975D02*
X52850D01*
X50600Y29075D02*
X52850D01*
X50600Y27975D02*
Y29075D01*
X52850Y27975D02*
Y29075D01*
X67100Y16825D02*
X69350D01*
X67100Y15725D02*
X69350D01*
Y16825D01*
X67100Y15725D02*
Y16825D01*
X45725Y26050D02*
X46725D01*
X45725Y28150D02*
X46725D01*
Y26075D02*
Y28125D01*
X45725Y26075D02*
Y28125D01*
X56425Y4275D02*
Y5875D01*
X54425Y4275D02*
X56425D01*
X54425D02*
Y5875D01*
X56425D01*
X51475Y7800D02*
X52475D01*
X51475Y9900D02*
X52475D01*
Y7825D02*
Y9875D01*
X51475Y7825D02*
Y9875D01*
X52675Y19150D02*
Y21400D01*
X53775Y19150D02*
Y21400D01*
X52675D02*
X53775D01*
X52675Y19150D02*
X53775D01*
X53725Y12025D02*
Y13025D01*
X56025Y12025D02*
Y13025D01*
X53725Y12025D02*
X56025D01*
X53725Y13025D02*
X56025D01*
X50600Y24575D02*
X52850D01*
X50600Y23475D02*
X52850D01*
Y24575D01*
X50600Y23475D02*
Y24575D01*
X65975Y7275D02*
Y8275D01*
X63675Y7275D02*
Y8275D01*
X65975D01*
X63675Y7275D02*
X65975D01*
X61475Y18900D02*
X62900D01*
X64300D02*
X65725D01*
X61475Y14650D02*
Y18900D01*
X65725Y14650D02*
Y18900D01*
X61475Y14650D02*
X65725D01*
X67100Y18825D02*
X69350D01*
X67100Y17725D02*
X69350D01*
Y18825D01*
X67100Y17725D02*
Y18825D01*
X78850Y3225D02*
X81100D01*
X78850Y4325D02*
X81100D01*
X78850Y3225D02*
Y4325D01*
X81100Y3225D02*
Y4325D01*
X73925Y12900D02*
X74975D01*
Y15275D01*
X72025Y12900D02*
Y15275D01*
Y15300D02*
X74975D01*
X72025Y12900D02*
X73175D01*
X73925Y16150D02*
X74975D01*
Y18525D01*
X72025Y16150D02*
Y18525D01*
Y18550D02*
X74975D01*
X72025Y16150D02*
X73175D01*
X45225Y22850D02*
Y25100D01*
X46325Y22850D02*
Y25100D01*
X45225D02*
X46325D01*
X45225Y22850D02*
X46325D01*
X52925Y9150D02*
Y11400D01*
X54025Y9150D02*
Y11400D01*
X52925D02*
X54025D01*
X52925Y9150D02*
X54025D01*
X64300Y9400D02*
X65725D01*
X61475D02*
X62900D01*
X65725D02*
Y13650D01*
X61475Y9400D02*
Y13650D01*
X65725D01*
X65650Y23975D02*
X67900D01*
X65650Y22875D02*
X67900D01*
Y23975D01*
X65650Y22875D02*
Y23975D01*
X57550Y14625D02*
X59800D01*
X57550Y13525D02*
X59800D01*
Y14625D01*
X57550Y13525D02*
Y14625D01*
X56850Y16225D02*
X59100D01*
X56850Y17325D02*
X59100D01*
X56850Y16225D02*
Y17325D01*
X59100Y16225D02*
Y17325D01*
X60100Y20575D02*
X62350D01*
X60100Y19475D02*
X62350D01*
Y20575D01*
X60100Y19475D02*
Y20575D01*
X58100Y27725D02*
X60350D01*
X58100Y28825D02*
X60350D01*
X58100Y27725D02*
Y28825D01*
X60350Y27725D02*
Y28825D01*
X58475Y3275D02*
Y4275D01*
X60775Y3275D02*
Y4275D01*
X58475Y3275D02*
X60775D01*
X58475Y4275D02*
X60775D01*
X60100Y20975D02*
X62350D01*
X60100Y22075D02*
X62350D01*
X60100Y20975D02*
Y22075D01*
X62350Y20975D02*
Y22075D01*
X56850Y17725D02*
X59100D01*
X56850Y18825D02*
X59100D01*
X56850Y17725D02*
Y18825D01*
X59100Y17725D02*
Y18825D01*
X57475Y12275D02*
Y13275D01*
X59775Y12275D02*
Y13275D01*
X57475Y12275D02*
X59775D01*
X57475Y13275D02*
X59775D01*
X58950Y10475D02*
X61200D01*
X58950Y11575D02*
X61200D01*
X58950Y10475D02*
Y11575D01*
X61200Y10475D02*
Y11575D01*
X12318Y39105D02*
G03*
X12582Y39105I132J0D01*
G01*
Y39095D02*
G03*
X12318Y39095I-132J0D01*
G01*
X21200Y54100D02*
G03*
X22600Y54100I700J0D01*
G01*
X32232Y48100D02*
G03*
X31468Y48100I-382J0D01*
G01*
X32232Y51350D02*
G03*
X31468Y51350I-382J0D01*
G01*
X22600Y44600D02*
G03*
X21200Y44600I-700J0D01*
G01*
X5250Y64125D02*
Y65125D01*
X7350Y64125D02*
Y65125D01*
X5275Y64125D02*
X7325D01*
X5275Y65125D02*
X7325D01*
X8775Y41250D02*
X9775D01*
X8775Y39150D02*
X9775D01*
X8775Y39175D02*
Y41225D01*
X9775Y39175D02*
Y41225D01*
X7775Y66950D02*
X8775D01*
X7775Y64850D02*
X8775D01*
X7775Y64875D02*
Y66925D01*
X8775Y64875D02*
Y66925D01*
X11025Y39725D02*
X12025D01*
X11025Y42025D02*
X12025D01*
Y39725D02*
Y42025D01*
X11025Y39725D02*
Y42025D01*
X17275Y58975D02*
X18275D01*
X17275Y61275D02*
X18275D01*
Y58975D02*
Y61275D01*
X17275Y58975D02*
Y61275D01*
X21125Y61600D02*
Y63850D01*
X22225Y61600D02*
Y63850D01*
X21125D02*
X22225D01*
X21125Y61600D02*
X22225D01*
X27575Y39100D02*
Y41350D01*
X26475Y39100D02*
Y41350D01*
Y39100D02*
X27575D01*
X26475Y41350D02*
X27575D01*
Y42100D02*
Y44350D01*
X26475Y42100D02*
Y44350D01*
Y42100D02*
X27575D01*
X26475Y44350D02*
X27575D01*
X8025Y42975D02*
X9025D01*
X8025Y45275D02*
X9025D01*
Y42975D02*
Y45275D01*
X8025Y42975D02*
Y45275D01*
X20525Y57600D02*
Y59850D01*
X21625Y57600D02*
Y59850D01*
X20525D02*
X21625D01*
X20525Y57600D02*
X21625D01*
X41525Y43550D02*
X42525D01*
X41525Y45650D02*
X42525Y45650D01*
Y45625D02*
X42525Y43575D01*
X41525D02*
X41525Y45625D01*
Y58200D02*
X42525D01*
X41525Y60300D02*
X42525Y60300D01*
Y60275D02*
X42525Y58225D01*
X41525D02*
X41525Y60275D01*
X9150Y48925D02*
X11400D01*
X9150Y50025D02*
X11400D01*
X9150Y48925D02*
Y50025D01*
X11400Y48925D02*
Y50025D01*
X9150Y51425D02*
X11400D01*
X9150Y52525D02*
X11400D01*
X9150Y51425D02*
Y52525D01*
X11400Y51425D02*
Y52525D01*
X8775Y57475D02*
Y58475D01*
X11075Y57475D02*
Y58475D01*
X8775Y57475D02*
X11075D01*
X8775Y58475D02*
X11075D01*
X8900Y61275D02*
X11150D01*
X8900Y60175D02*
X11150D01*
Y61275D01*
X8900Y60175D02*
Y61275D01*
Y63175D02*
X11150D01*
X8900Y64275D02*
X11150D01*
X8900Y63175D02*
Y64275D01*
X11150Y63175D02*
Y64275D01*
X25400Y52025D02*
X27650D01*
X25400Y50925D02*
X27650D01*
Y52025D01*
X25400Y50925D02*
Y52025D01*
X4025Y61250D02*
X5025D01*
X4025Y63350D02*
X5025D01*
Y61275D02*
Y63325D01*
X4025Y61275D02*
Y63325D01*
X14725Y39475D02*
Y41075D01*
X12725Y39475D02*
X14725D01*
X12725D02*
Y41075D01*
X14725D01*
X9775Y43000D02*
X10775D01*
X9775Y45100D02*
X10775D01*
Y43025D02*
Y45075D01*
X9775Y43025D02*
Y45075D01*
X10975Y54350D02*
Y56600D01*
X12075Y54350D02*
Y56600D01*
X10975D02*
X12075D01*
X10975Y54350D02*
X12075D01*
X12025Y47225D02*
Y48225D01*
X14325Y47225D02*
Y48225D01*
X12025Y47225D02*
X14325D01*
X12025Y48225D02*
X14325D01*
X8900Y59775D02*
X11150D01*
X8900Y58675D02*
X11150D01*
Y59775D01*
X8900Y58675D02*
Y59775D01*
X24275Y42475D02*
Y43475D01*
X21975Y42475D02*
Y43475D01*
X24275D01*
X21975Y42475D02*
X24275D01*
X19775Y54100D02*
X21200D01*
X22600D02*
X24025D01*
X19775Y49850D02*
Y54100D01*
X24025Y49850D02*
Y54100D01*
X19775Y49850D02*
X24025D01*
X25400Y54025D02*
X27650D01*
X25400Y52925D02*
X27650D01*
Y54025D01*
X25400Y52925D02*
Y54025D01*
X37150Y38425D02*
X39400D01*
X37150Y39525D02*
X39400D01*
X37150Y38425D02*
Y39525D01*
X39400Y38425D02*
Y39525D01*
X32225Y48100D02*
X33275D01*
Y50475D01*
X30325Y48100D02*
Y50475D01*
Y50500D02*
X33275D01*
X30325Y48100D02*
X31475D01*
X32225Y51350D02*
X33275D01*
Y53725D01*
X30325Y51350D02*
Y53725D01*
Y53750D02*
X33275D01*
X30325Y51350D02*
X31475D01*
X3525Y58050D02*
Y60300D01*
X4625Y58050D02*
Y60300D01*
X3525D02*
X4625D01*
X3525Y58050D02*
X4625D01*
X11225Y44350D02*
Y46600D01*
X12325Y44350D02*
Y46600D01*
X11225D02*
X12325D01*
X11225Y44350D02*
X12325D01*
X22600Y44600D02*
X24025D01*
X19775D02*
X21200D01*
X24025D02*
Y48850D01*
X19775Y44600D02*
Y48850D01*
X24025D01*
X23950Y59175D02*
X26200D01*
X23950Y58075D02*
X26200D01*
Y59175D01*
X23950Y58075D02*
Y59175D01*
X15850Y49825D02*
X18100D01*
X15850Y48725D02*
X18100D01*
Y49825D01*
X15850Y48725D02*
Y49825D01*
X15150Y51425D02*
X17400D01*
X15150Y52525D02*
X17400D01*
X15150Y51425D02*
Y52525D01*
X17400Y51425D02*
Y52525D01*
X18400Y55775D02*
X20650D01*
X18400Y54675D02*
X20650D01*
Y55775D01*
X18400Y54675D02*
Y55775D01*
X16400Y62925D02*
X18650D01*
X16400Y64025D02*
X18650D01*
X16400Y62925D02*
Y64025D01*
X18650Y62925D02*
Y64025D01*
X16775Y38475D02*
Y39475D01*
X19075Y38475D02*
Y39475D01*
X16775Y38475D02*
X19075D01*
X16775Y39475D02*
X19075D01*
X18400Y56175D02*
X20650D01*
X18400Y57275D02*
X20650D01*
X18400Y56175D02*
Y57275D01*
X20650Y56175D02*
Y57275D01*
X15150Y52925D02*
X17400D01*
X15150Y54025D02*
X17400D01*
X15150Y52925D02*
Y54025D01*
X17400Y52925D02*
Y54025D01*
X15775Y47475D02*
Y48475D01*
X18075Y47475D02*
Y48475D01*
X15775Y47475D02*
X18075D01*
X15775Y48475D02*
X18075D01*
X17250Y45675D02*
X19500D01*
X17250Y46775D02*
X19500D01*
X17250Y45675D02*
Y46775D01*
X19500Y45675D02*
Y46775D01*
X54018Y39105D02*
G03*
X54282Y39105I132J0D01*
G01*
Y39095D02*
G03*
X54018Y39095I-132J0D01*
G01*
X62900Y54100D02*
G03*
X64300Y54100I700J0D01*
G01*
X73932Y48100D02*
G03*
X73168Y48100I-382J0D01*
G01*
X73932Y51350D02*
G03*
X73168Y51350I-382J0D01*
G01*
X64300Y44600D02*
G03*
X62900Y44600I-700J0D01*
G01*
X46950Y64125D02*
Y65125D01*
X49050Y64125D02*
Y65125D01*
X46975Y64125D02*
X49025D01*
X46975Y65125D02*
X49025D01*
X50475Y41250D02*
X51475D01*
X50475Y39150D02*
X51475D01*
X50475Y39175D02*
Y41225D01*
X51475Y39175D02*
Y41225D01*
X49475Y66950D02*
X50475D01*
X49475Y64850D02*
X50475D01*
X49475Y64875D02*
Y66925D01*
X50475Y64875D02*
Y66925D01*
X52725Y39725D02*
X53725D01*
X52725Y42025D02*
X53725D01*
Y39725D02*
Y42025D01*
X52725Y39725D02*
Y42025D01*
X58975Y58975D02*
X59975D01*
X58975Y61275D02*
X59975D01*
Y58975D02*
Y61275D01*
X58975Y58975D02*
Y61275D01*
X62825Y61600D02*
Y63850D01*
X63925Y61600D02*
Y63850D01*
X62825D02*
X63925D01*
X62825Y61600D02*
X63925D01*
X69275Y39100D02*
Y41350D01*
X68175Y39100D02*
Y41350D01*
Y39100D02*
X69275D01*
X68175Y41350D02*
X69275D01*
Y42100D02*
Y44350D01*
X68175Y42100D02*
Y44350D01*
Y42100D02*
X69275D01*
X68175Y44350D02*
X69275D01*
X49725Y42975D02*
X50725D01*
X49725Y45275D02*
X50725D01*
Y42975D02*
Y45275D01*
X49725Y42975D02*
Y45275D01*
X62225Y57600D02*
Y59850D01*
X63325Y57600D02*
Y59850D01*
X62225D02*
X63325D01*
X62225Y57600D02*
X63325D01*
X83225Y43550D02*
X84225D01*
X83225Y45650D02*
X84225Y45650D01*
Y45625D02*
X84225Y43575D01*
X83225D02*
X83225Y45625D01*
Y58200D02*
X84225D01*
X83225Y60300D02*
X84225Y60300D01*
Y60275D02*
X84225Y58225D01*
X83225D02*
X83225Y60275D01*
X50850Y48925D02*
X53100D01*
X50850Y50025D02*
X53100D01*
X50850Y48925D02*
Y50025D01*
X53100Y48925D02*
Y50025D01*
X50850Y51425D02*
X53100D01*
X50850Y52525D02*
X53100D01*
X50850Y51425D02*
Y52525D01*
X53100Y51425D02*
Y52525D01*
X50475Y57475D02*
Y58475D01*
X52775Y57475D02*
Y58475D01*
X50475Y57475D02*
X52775D01*
X50475Y58475D02*
X52775D01*
X50600Y61275D02*
X52850D01*
X50600Y60175D02*
X52850D01*
Y61275D01*
X50600Y60175D02*
Y61275D01*
Y63175D02*
X52850D01*
X50600Y64275D02*
X52850D01*
X50600Y63175D02*
Y64275D01*
X52850Y63175D02*
Y64275D01*
X67100Y52025D02*
X69350D01*
X67100Y50925D02*
X69350D01*
Y52025D01*
X67100Y50925D02*
Y52025D01*
X45725Y61250D02*
X46725D01*
X45725Y63350D02*
X46725D01*
Y61275D02*
Y63325D01*
X45725Y61275D02*
Y63325D01*
X56425Y39475D02*
Y41075D01*
X54425Y39475D02*
X56425D01*
X54425D02*
Y41075D01*
X56425D01*
X51475Y43000D02*
X52475D01*
X51475Y45100D02*
X52475D01*
Y43025D02*
Y45075D01*
X51475Y43025D02*
Y45075D01*
X52675Y54350D02*
Y56600D01*
X53775Y54350D02*
Y56600D01*
X52675D02*
X53775D01*
X52675Y54350D02*
X53775D01*
X53725Y47225D02*
Y48225D01*
X56025Y47225D02*
Y48225D01*
X53725Y47225D02*
X56025D01*
X53725Y48225D02*
X56025D01*
X50600Y59775D02*
X52850D01*
X50600Y58675D02*
X52850D01*
Y59775D01*
X50600Y58675D02*
Y59775D01*
X65975Y42475D02*
Y43475D01*
X63675Y42475D02*
Y43475D01*
X65975D01*
X63675Y42475D02*
X65975D01*
X61475Y54100D02*
X62900D01*
X64300D02*
X65725D01*
X61475Y49850D02*
Y54100D01*
X65725Y49850D02*
Y54100D01*
X61475Y49850D02*
X65725D01*
X67100Y54025D02*
X69350D01*
X67100Y52925D02*
X69350D01*
Y54025D01*
X67100Y52925D02*
Y54025D01*
X78850Y38425D02*
X81100D01*
X78850Y39525D02*
X81100D01*
X78850Y38425D02*
Y39525D01*
X81100Y38425D02*
Y39525D01*
X73925Y48100D02*
X74975D01*
Y50475D01*
X72025Y48100D02*
Y50475D01*
Y50500D02*
X74975D01*
X72025Y48100D02*
X73175D01*
X73925Y51350D02*
X74975D01*
Y53725D01*
X72025Y51350D02*
Y53725D01*
Y53750D02*
X74975D01*
X72025Y51350D02*
X73175D01*
X45225Y58050D02*
Y60300D01*
X46325Y58050D02*
Y60300D01*
X45225D02*
X46325D01*
X45225Y58050D02*
X46325D01*
X52925Y44350D02*
Y46600D01*
X54025Y44350D02*
Y46600D01*
X52925D02*
X54025D01*
X52925Y44350D02*
X54025D01*
X64300Y44600D02*
X65725D01*
X61475D02*
X62900D01*
X65725D02*
Y48850D01*
X61475Y44600D02*
Y48850D01*
X65725D01*
X65650Y59175D02*
X67900D01*
X65650Y58075D02*
X67900D01*
Y59175D01*
X65650Y58075D02*
Y59175D01*
X57550Y49825D02*
X59800D01*
X57550Y48725D02*
X59800D01*
Y49825D01*
X57550Y48725D02*
Y49825D01*
X56850Y51425D02*
X59100D01*
X56850Y52525D02*
X59100D01*
X56850Y51425D02*
Y52525D01*
X59100Y51425D02*
Y52525D01*
X60100Y55775D02*
X62350D01*
X60100Y54675D02*
X62350D01*
Y55775D01*
X60100Y54675D02*
Y55775D01*
X58100Y62925D02*
X60350D01*
X58100Y64025D02*
X60350D01*
X58100Y62925D02*
Y64025D01*
X60350Y62925D02*
Y64025D01*
X58475Y38475D02*
Y39475D01*
X60775Y38475D02*
Y39475D01*
X58475Y38475D02*
X60775D01*
X58475Y39475D02*
X60775D01*
X60100Y56175D02*
X62350D01*
X60100Y57275D02*
X62350D01*
X60100Y56175D02*
Y57275D01*
X62350Y56175D02*
Y57275D01*
X56850Y52925D02*
X59100D01*
X56850Y54025D02*
X59100D01*
X56850Y52925D02*
Y54025D01*
X59100Y52925D02*
Y54025D01*
X57475Y47475D02*
Y48475D01*
X59775Y47475D02*
Y48475D01*
X57475Y47475D02*
X59775D01*
X57475Y48475D02*
X59775D01*
X58950Y45675D02*
X61200D01*
X58950Y46775D02*
X61200D01*
X58950Y45675D02*
Y46775D01*
X61200Y45675D02*
Y46775D01*
X12318Y74305D02*
G03*
X12582Y74305I132J0D01*
G01*
Y74295D02*
G03*
X12318Y74295I-132J0D01*
G01*
X21200Y89300D02*
G03*
X22600Y89300I700J0D01*
G01*
X32232Y83300D02*
G03*
X31468Y83300I-382J0D01*
G01*
X32232Y86550D02*
G03*
X31468Y86550I-382J0D01*
G01*
X22600Y79800D02*
G03*
X21200Y79800I-700J0D01*
G01*
X5250Y99325D02*
Y100325D01*
X7350Y99325D02*
Y100325D01*
X5275Y99325D02*
X7325D01*
X5275Y100325D02*
X7325D01*
X8775Y76450D02*
X9775D01*
X8775Y74350D02*
X9775D01*
X8775Y74375D02*
Y76425D01*
X9775Y74375D02*
Y76425D01*
X7775Y102150D02*
X8775D01*
X7775Y100050D02*
X8775D01*
X7775Y100075D02*
Y102125D01*
X8775Y100075D02*
Y102125D01*
X11025Y74925D02*
X12025D01*
X11025Y77225D02*
X12025D01*
Y74925D02*
Y77225D01*
X11025Y74925D02*
Y77225D01*
X17275Y94175D02*
X18275D01*
X17275Y96475D02*
X18275D01*
Y94175D02*
Y96475D01*
X17275Y94175D02*
Y96475D01*
X21125Y96800D02*
Y99050D01*
X22225Y96800D02*
Y99050D01*
X21125D02*
X22225D01*
X21125Y96800D02*
X22225D01*
X27575Y74300D02*
Y76550D01*
X26475Y74300D02*
Y76550D01*
Y74300D02*
X27575D01*
X26475Y76550D02*
X27575D01*
Y77300D02*
Y79550D01*
X26475Y77300D02*
Y79550D01*
Y77300D02*
X27575D01*
X26475Y79550D02*
X27575D01*
X8025Y78175D02*
X9025D01*
X8025Y80475D02*
X9025D01*
Y78175D02*
Y80475D01*
X8025Y78175D02*
Y80475D01*
X20525Y92800D02*
Y95050D01*
X21625Y92800D02*
Y95050D01*
X20525D02*
X21625D01*
X20525Y92800D02*
X21625D01*
X41525Y78750D02*
X42525D01*
X41525Y80850D02*
X42525Y80850D01*
Y80825D02*
X42525Y78775D01*
X41525D02*
X41525Y80825D01*
Y93400D02*
X42525D01*
X41525Y95500D02*
X42525Y95500D01*
Y95475D02*
X42525Y93425D01*
X41525D02*
X41525Y95475D01*
X9150Y84125D02*
X11400D01*
X9150Y85225D02*
X11400D01*
X9150Y84125D02*
Y85225D01*
X11400Y84125D02*
Y85225D01*
X9150Y86625D02*
X11400D01*
X9150Y87725D02*
X11400D01*
X9150Y86625D02*
Y87725D01*
X11400Y86625D02*
Y87725D01*
X8775Y92675D02*
Y93675D01*
X11075Y92675D02*
Y93675D01*
X8775Y92675D02*
X11075D01*
X8775Y93675D02*
X11075D01*
X8900Y96475D02*
X11150D01*
X8900Y95375D02*
X11150D01*
Y96475D01*
X8900Y95375D02*
Y96475D01*
Y98375D02*
X11150D01*
X8900Y99475D02*
X11150D01*
X8900Y98375D02*
Y99475D01*
X11150Y98375D02*
Y99475D01*
X25400Y87225D02*
X27650D01*
X25400Y86125D02*
X27650D01*
Y87225D01*
X25400Y86125D02*
Y87225D01*
X4025Y96450D02*
X5025D01*
X4025Y98550D02*
X5025D01*
Y96475D02*
Y98525D01*
X4025Y96475D02*
Y98525D01*
X14725Y74675D02*
Y76275D01*
X12725Y74675D02*
X14725D01*
X12725D02*
Y76275D01*
X14725D01*
X9775Y78200D02*
X10775D01*
X9775Y80300D02*
X10775D01*
Y78225D02*
Y80275D01*
X9775Y78225D02*
Y80275D01*
X10975Y89550D02*
Y91800D01*
X12075Y89550D02*
Y91800D01*
X10975D02*
X12075D01*
X10975Y89550D02*
X12075D01*
X12025Y82425D02*
Y83425D01*
X14325Y82425D02*
Y83425D01*
X12025Y82425D02*
X14325D01*
X12025Y83425D02*
X14325D01*
X8900Y94975D02*
X11150D01*
X8900Y93875D02*
X11150D01*
Y94975D01*
X8900Y93875D02*
Y94975D01*
X24275Y77675D02*
Y78675D01*
X21975Y77675D02*
Y78675D01*
X24275D01*
X21975Y77675D02*
X24275D01*
X19775Y89300D02*
X21200D01*
X22600D02*
X24025D01*
X19775Y85050D02*
Y89300D01*
X24025Y85050D02*
Y89300D01*
X19775Y85050D02*
X24025D01*
X25400Y89225D02*
X27650D01*
X25400Y88125D02*
X27650D01*
Y89225D01*
X25400Y88125D02*
Y89225D01*
X37150Y73625D02*
X39400D01*
X37150Y74725D02*
X39400D01*
X37150Y73625D02*
Y74725D01*
X39400Y73625D02*
Y74725D01*
X32225Y83300D02*
X33275D01*
Y85675D01*
X30325Y83300D02*
Y85675D01*
Y85700D02*
X33275D01*
X30325Y83300D02*
X31475D01*
X32225Y86550D02*
X33275D01*
Y88925D01*
X30325Y86550D02*
Y88925D01*
Y88950D02*
X33275D01*
X30325Y86550D02*
X31475D01*
X3525Y93250D02*
Y95500D01*
X4625Y93250D02*
Y95500D01*
X3525D02*
X4625D01*
X3525Y93250D02*
X4625D01*
X11225Y79550D02*
Y81800D01*
X12325Y79550D02*
Y81800D01*
X11225D02*
X12325D01*
X11225Y79550D02*
X12325D01*
X22600Y79800D02*
X24025D01*
X19775D02*
X21200D01*
X24025D02*
Y84050D01*
X19775Y79800D02*
Y84050D01*
X24025D01*
X23950Y94375D02*
X26200D01*
X23950Y93275D02*
X26200D01*
Y94375D01*
X23950Y93275D02*
Y94375D01*
X15850Y85025D02*
X18100D01*
X15850Y83925D02*
X18100D01*
Y85025D01*
X15850Y83925D02*
Y85025D01*
X15150Y86625D02*
X17400D01*
X15150Y87725D02*
X17400D01*
X15150Y86625D02*
Y87725D01*
X17400Y86625D02*
Y87725D01*
X18400Y90975D02*
X20650D01*
X18400Y89875D02*
X20650D01*
Y90975D01*
X18400Y89875D02*
Y90975D01*
X16400Y98125D02*
X18650D01*
X16400Y99225D02*
X18650D01*
X16400Y98125D02*
Y99225D01*
X18650Y98125D02*
Y99225D01*
X16775Y73675D02*
Y74675D01*
X19075Y73675D02*
Y74675D01*
X16775Y73675D02*
X19075D01*
X16775Y74675D02*
X19075D01*
X18400Y91375D02*
X20650D01*
X18400Y92475D02*
X20650D01*
X18400Y91375D02*
Y92475D01*
X20650Y91375D02*
Y92475D01*
X15150Y88125D02*
X17400D01*
X15150Y89225D02*
X17400D01*
X15150Y88125D02*
Y89225D01*
X17400Y88125D02*
Y89225D01*
X15775Y82675D02*
Y83675D01*
X18075Y82675D02*
Y83675D01*
X15775Y82675D02*
X18075D01*
X15775Y83675D02*
X18075D01*
X17250Y80875D02*
X19500D01*
X17250Y81975D02*
X19500D01*
X17250Y80875D02*
Y81975D01*
X19500Y80875D02*
Y81975D01*
X54018Y74305D02*
G03*
X54282Y74305I132J0D01*
G01*
Y74295D02*
G03*
X54018Y74295I-132J0D01*
G01*
X62900Y89300D02*
G03*
X64300Y89300I700J0D01*
G01*
X73932Y83300D02*
G03*
X73168Y83300I-382J0D01*
G01*
X73932Y86550D02*
G03*
X73168Y86550I-382J0D01*
G01*
X64300Y79800D02*
G03*
X62900Y79800I-700J0D01*
G01*
X46950Y99325D02*
Y100325D01*
X49050Y99325D02*
Y100325D01*
X46975Y99325D02*
X49025D01*
X46975Y100325D02*
X49025D01*
X50475Y76450D02*
X51475D01*
X50475Y74350D02*
X51475D01*
X50475Y74375D02*
Y76425D01*
X51475Y74375D02*
Y76425D01*
X49475Y102150D02*
X50475D01*
X49475Y100050D02*
X50475D01*
X49475Y100075D02*
Y102125D01*
X50475Y100075D02*
Y102125D01*
X52725Y74925D02*
X53725D01*
X52725Y77225D02*
X53725D01*
Y74925D02*
Y77225D01*
X52725Y74925D02*
Y77225D01*
X58975Y94175D02*
X59975D01*
X58975Y96475D02*
X59975D01*
Y94175D02*
Y96475D01*
X58975Y94175D02*
Y96475D01*
X62825Y96800D02*
Y99050D01*
X63925Y96800D02*
Y99050D01*
X62825D02*
X63925D01*
X62825Y96800D02*
X63925D01*
X69275Y74300D02*
Y76550D01*
X68175Y74300D02*
Y76550D01*
Y74300D02*
X69275D01*
X68175Y76550D02*
X69275D01*
Y77300D02*
Y79550D01*
X68175Y77300D02*
Y79550D01*
Y77300D02*
X69275D01*
X68175Y79550D02*
X69275D01*
X49725Y78175D02*
X50725D01*
X49725Y80475D02*
X50725D01*
Y78175D02*
Y80475D01*
X49725Y78175D02*
Y80475D01*
X62225Y92800D02*
Y95050D01*
X63325Y92800D02*
Y95050D01*
X62225D02*
X63325D01*
X62225Y92800D02*
X63325D01*
X83225Y78750D02*
X84225D01*
X83225Y80850D02*
X84225Y80850D01*
Y80825D02*
X84225Y78775D01*
X83225D02*
X83225Y80825D01*
Y93400D02*
X84225D01*
X83225Y95500D02*
X84225Y95500D01*
Y95475D02*
X84225Y93425D01*
X83225D02*
X83225Y95475D01*
X50850Y84125D02*
X53100D01*
X50850Y85225D02*
X53100D01*
X50850Y84125D02*
Y85225D01*
X53100Y84125D02*
Y85225D01*
X50850Y86625D02*
X53100D01*
X50850Y87725D02*
X53100D01*
X50850Y86625D02*
Y87725D01*
X53100Y86625D02*
Y87725D01*
X50475Y92675D02*
Y93675D01*
X52775Y92675D02*
Y93675D01*
X50475Y92675D02*
X52775D01*
X50475Y93675D02*
X52775D01*
X50600Y96475D02*
X52850D01*
X50600Y95375D02*
X52850D01*
Y96475D01*
X50600Y95375D02*
Y96475D01*
Y98375D02*
X52850D01*
X50600Y99475D02*
X52850D01*
X50600Y98375D02*
Y99475D01*
X52850Y98375D02*
Y99475D01*
X67100Y87225D02*
X69350D01*
X67100Y86125D02*
X69350D01*
Y87225D01*
X67100Y86125D02*
Y87225D01*
X45725Y96450D02*
X46725D01*
X45725Y98550D02*
X46725D01*
Y96475D02*
Y98525D01*
X45725Y96475D02*
Y98525D01*
X56425Y74675D02*
Y76275D01*
X54425Y74675D02*
X56425D01*
X54425D02*
Y76275D01*
X56425D01*
X51475Y78200D02*
X52475D01*
X51475Y80300D02*
X52475D01*
Y78225D02*
Y80275D01*
X51475Y78225D02*
Y80275D01*
X52675Y89550D02*
Y91800D01*
X53775Y89550D02*
Y91800D01*
X52675D02*
X53775D01*
X52675Y89550D02*
X53775D01*
X53725Y82425D02*
Y83425D01*
X56025Y82425D02*
Y83425D01*
X53725Y82425D02*
X56025D01*
X53725Y83425D02*
X56025D01*
X50600Y94975D02*
X52850D01*
X50600Y93875D02*
X52850D01*
Y94975D01*
X50600Y93875D02*
Y94975D01*
X65975Y77675D02*
Y78675D01*
X63675Y77675D02*
Y78675D01*
X65975D01*
X63675Y77675D02*
X65975D01*
X61475Y89300D02*
X62900D01*
X64300D02*
X65725D01*
X61475Y85050D02*
Y89300D01*
X65725Y85050D02*
Y89300D01*
X61475Y85050D02*
X65725D01*
X67100Y89225D02*
X69350D01*
X67100Y88125D02*
X69350D01*
Y89225D01*
X67100Y88125D02*
Y89225D01*
X78850Y73625D02*
X81100D01*
X78850Y74725D02*
X81100D01*
X78850Y73625D02*
Y74725D01*
X81100Y73625D02*
Y74725D01*
X73925Y83300D02*
X74975D01*
Y85675D01*
X72025Y83300D02*
Y85675D01*
Y85700D02*
X74975D01*
X72025Y83300D02*
X73175D01*
X73925Y86550D02*
X74975D01*
Y88925D01*
X72025Y86550D02*
Y88925D01*
Y88950D02*
X74975D01*
X72025Y86550D02*
X73175D01*
X45225Y93250D02*
Y95500D01*
X46325Y93250D02*
Y95500D01*
X45225D02*
X46325D01*
X45225Y93250D02*
X46325D01*
X52925Y79550D02*
Y81800D01*
X54025Y79550D02*
Y81800D01*
X52925D02*
X54025D01*
X52925Y79550D02*
X54025D01*
X64300Y79800D02*
X65725D01*
X61475D02*
X62900D01*
X65725D02*
Y84050D01*
X61475Y79800D02*
Y84050D01*
X65725D01*
X65650Y94375D02*
X67900D01*
X65650Y93275D02*
X67900D01*
Y94375D01*
X65650Y93275D02*
Y94375D01*
X57550Y85025D02*
X59800D01*
X57550Y83925D02*
X59800D01*
Y85025D01*
X57550Y83925D02*
Y85025D01*
X56850Y86625D02*
X59100D01*
X56850Y87725D02*
X59100D01*
X56850Y86625D02*
Y87725D01*
X59100Y86625D02*
Y87725D01*
X60100Y90975D02*
X62350D01*
X60100Y89875D02*
X62350D01*
Y90975D01*
X60100Y89875D02*
Y90975D01*
X58100Y98125D02*
X60350D01*
X58100Y99225D02*
X60350D01*
X58100Y98125D02*
Y99225D01*
X60350Y98125D02*
Y99225D01*
X58475Y73675D02*
Y74675D01*
X60775Y73675D02*
Y74675D01*
X58475Y73675D02*
X60775D01*
X58475Y74675D02*
X60775D01*
X60100Y91375D02*
X62350D01*
X60100Y92475D02*
X62350D01*
X60100Y91375D02*
Y92475D01*
X62350Y91375D02*
Y92475D01*
X56850Y88125D02*
X59100D01*
X56850Y89225D02*
X59100D01*
X56850Y88125D02*
Y89225D01*
X59100Y88125D02*
Y89225D01*
X57475Y82675D02*
Y83675D01*
X59775Y82675D02*
Y83675D01*
X57475Y82675D02*
X59775D01*
X57475Y83675D02*
X59775D01*
X58950Y80875D02*
X61200D01*
X58950Y81975D02*
X61200D01*
X58950Y80875D02*
Y81975D01*
X61200Y80875D02*
Y81975D01*
M02*
