G04*
G04 #@! TF.GenerationSoftware,Altium Limited,Altium Designer,18.1.9 (240)*
G04*
G04 Layer_Color=16711935*
%FSLAX24Y24*%
%MOIN*%
G70*
G01*
G75*
%ADD28C,0.0100*%
%ADD33C,0.0200*%
%ADD85C,0.0010*%
D28*
X0Y110450D02*
X46550D01*
D33*
X0Y0D02*
Y110400D01*
Y0D02*
X88245D01*
Y110450D01*
X0D02*
X88245D01*
D85*
X44049Y2500D02*
Y37550D01*
X44016Y2500D02*
X44049D01*
X2500D02*
X44016D01*
X2500D02*
Y37550D01*
X2500D02*
X44050D01*
X85749Y2500D02*
Y37550D01*
X85716Y2500D02*
X85749D01*
X44200D02*
X85716D01*
X44200D02*
Y37550D01*
X44200D02*
X85750D01*
X44049Y37700D02*
Y72750D01*
X44016Y37700D02*
X44049D01*
X2500D02*
X44016D01*
X2500D02*
Y72750D01*
X2500D02*
X44050D01*
X85749Y37700D02*
Y72750D01*
X85716Y37700D02*
X85749D01*
X44200D02*
X85716D01*
X44200D02*
Y72750D01*
X44200D02*
X85750D01*
X44049Y72900D02*
Y107950D01*
X44016Y72900D02*
X44049D01*
X2500D02*
X44016D01*
X2500D02*
Y107950D01*
X2500D02*
X44050D01*
X85749Y72900D02*
Y107950D01*
X85716Y72900D02*
X85749D01*
X44200D02*
X85716D01*
X44200D02*
Y107950D01*
X44200D02*
X85750D01*
M02*
