M48
;Layer_Color=9474304
;FILE_FORMAT=2:4
INCH,LZ
;TYPE=PLATED
T1F00S00C0.0150
T2F00S00C0.0280
T3F00S00C0.0300
T4F00S00C0.0380
T5F00S00C0.0400
T6F00S00C0.0560
T7F00S00C0.0600
T8F00S00C0.0670
T9F00S00C0.1700
;TYPE=NON_PLATED
T10F00S00C0.1600
%
T01
X024525Y004525
X066225
X068475Y011025
X069375Y014275
X074875Y009975
X066225Y011025
X065975Y013525
X064475Y014275
X066975Y015275
Y020475
X065275Y020075
X062975Y020275
X059375Y020925
X058775Y020025
X055975Y019025
X056475Y016025
X052875Y015625
X053475Y017275
X060475Y017475
Y014825
X060775Y013625
X060225Y010375
X066475Y007775
X051375Y011125
X050819Y01299
X051025Y015775
X052375Y018025
X046225Y010575
X046975Y008275
X033175Y009975
X026775Y011025
X024525
X024275Y013525
X022775Y014275
X025275Y015275
X027675Y014275
X025275Y020475
X023575Y020075
X021275Y020275
X024775Y007775
X018525Y010375
X019075Y013625
X018775Y014825
Y017475
X017075Y020025
X017675Y020925
X014275Y019025
X014775Y016025
X011175Y015625
X009325Y015775
X009119Y01299
X009675Y011125
X010675Y018025
X011775Y017275
X004525Y010575
X005275Y008275
X010075Y021425
X015925
X017675Y022075
Y023125
X019475Y023575
X018425Y026825
X020006Y028804
X014225Y026225
X022034Y02327
X022525Y022525
X023025Y023775
X023525Y024275
X025275Y024475
X024025Y031025
X0271Y03445
X027325Y034975
X031525Y033775
X032775Y032025
X033775Y026275
X051775Y021425
X057625
X059375Y022075
Y023125
X061175Y023575
X063734Y02327
X064225Y022525
X064725Y023775
X065225Y024275
X066975Y024475
X065725Y031025
X061706Y028804
X060125Y026825
X055925Y026225
X075475Y026275
X074475Y032025
X073225Y033775
X0688Y03445
X069025Y034975
X068475Y046225
X069375Y049475
X074875Y045175
X066225Y046225
X065975Y048725
X064475Y049475
X066975Y050475
X060475Y050025
X060775Y048825
X060225Y045575
X066475Y042975
X066225Y039725
X056475Y051225
X052875Y050825
X053475Y052475
X051025Y050975
X050819Y04819
X051375Y046325
X046225Y045775
X046975Y043475
X033175Y045175
X026775Y046225
X024525
X024275Y048725
X022775Y049475
X025275Y050475
X027675Y049475
X024775Y042975
X024525Y039725
X018525Y045575
X019075Y048825
X018775Y050025
X014775Y051225
X011175Y050825
X009325Y050975
X009119Y04819
X009675Y046325
X011775Y052475
X004525Y045775
X005275Y043475
X010675Y053225
X010075Y056625
X015925
X017675Y056125
Y057275
Y058325
X019475Y058775
X018425Y062025
X020006Y064004
X014225Y061425
X014275Y054225
X017075Y055225
X018775Y052675
X021275Y055475
X023575Y055275
X025275Y055675
Y059675
X023525Y059475
X023025Y058975
X022034Y05847
X022525Y057725
X024025Y066225
X032775Y067225
X033775Y061475
X051775Y056625
X052375Y053225
X055975Y054225
X058775Y055225
X059375Y056125
Y057275
Y058325
X061175Y058775
X063734Y05847
X064225Y057725
X064725Y058975
X065225Y059475
X066975Y059675
Y055675
X065275Y055275
X062975Y055475
X060475Y052675
X057625Y056625
X055925Y061425
X060125Y062025
X061706Y064004
X065725Y066225
X074475Y067225
X075475Y061475
X073225Y068975
X0688Y06965
X069025Y070175
X068475Y081425
X074875Y080375
X066225Y081425
X066475Y078175
X066225Y074925
X060225Y080775
X051375Y081525
X050819Y08339
X046225Y080975
X046975Y078675
X033175Y080375
X026775Y081425
X024525
X024775Y078175
X024525Y074925
X027325Y070175
X0271Y06965
X031525Y068975
X018525Y080775
X009675Y081525
X009119Y08339
X004525Y080975
X005275Y078675
X009325Y086175
X011175Y086025
X011775Y087675
X010675Y088425
X010075Y091825
X015925
X017675Y091325
Y092475
Y093525
X019475Y093975
X018425Y097225
X020006Y099204
X014225Y096625
X014275Y089425
X014775Y086425
X018775Y085225
X019075Y084025
X018775Y087875
X017075Y090425
X021275Y090675
X023575Y090475
X025275Y090875
Y094875
X023525Y094675
X023025Y094175
X022034Y09367
X022525Y092925
X022775Y084675
X024275Y083925
X025275Y085675
X027675Y084675
X033775Y096675
X051775Y091825
X052375Y088425
X051025Y086175
X052875Y086025
X053475Y087675
X056475Y086425
X055975Y089425
X058775Y090425
X059375Y091325
Y092475
Y093525
X061175Y093975
X063734Y09367
X064225Y092925
X064725Y094175
X065225Y094675
X066975Y094875
Y090875
X065275Y090475
X062975Y090675
X060475Y087875
Y085225
X060775Y084025
X064475Y084675
X065975Y083925
X066975Y085675
X057625Y091825
X055925Y096625
X060125Y097225
X061706Y099204
X075475Y096675
X069375Y084675
X0688Y10485
X069025Y105375
X073225Y104175
X074475Y102425
X065725Y101425
X032775Y102425
X031525Y104175
X0271Y10485
X027325Y105375
X024025Y101425
T02
X070275Y006025
X071575Y009375
X029875
X028575Y006025
X070275Y041225
X071575Y044575
X029875
X028575Y041225
X070275Y076425
X071575Y079775
X029875
X028575Y076425
T03
X010775Y003525
X052475
X056225Y007275
X014525
X056225Y042475
X052475Y038725
X014525Y042475
X010775Y038725
X056225Y077675
X052475Y073925
X014525Y077675
X010775Y073925
T04
X005725Y004825
X007725
X028025Y004525
X029025
X034775
X035775
X047425Y004825
X049425
X069725Y004525
X070725
X076475
X077475
X075675Y012025
X072675
X070725Y008025
X069725
X072675Y019525
X075675
X055725Y016775
X054725
Y014275
X055725
X059475Y007525
Y006525
X033975Y012025
X030975
X029025Y008025
X028025
X030975Y019525
X033975
X014025Y016775
X013025
Y014275
X014025
X017775Y007525
Y006525
X019425Y024775
Y025775
Y026775
X010525Y027225
X009525
X023525Y033275
X024525
X025525
X026525
X027525
Y036275
X026525
X025525
X024525
X023525
X036275Y036175
Y033175
X028425Y023375
X027425
X037275Y033175
X038275
X039275
X040275
Y036175
X039275
X038275
X037275
X051225Y027225
X052225
X061125Y026775
Y025775
Y024775
X065225Y033275
X066225
X067225
Y036275
X066225
X065225
X068225
X069225
Y033275
X068225
X077975Y033175
X078975
X079975
X080975
X081975
Y036175
X080975
X079975
X078975
X077975
X070125Y023375
X069125
X069725Y039725
X070725
Y043225
X069725
X072675Y047225
X075675
X076475Y039725
X077475
X059475Y041725
Y042725
X055725Y049475
X054725
Y051975
X055725
X049425Y040025
X047425
X035775Y039725
X034775
X029025
X028025
Y043225
X029025
X030975Y047225
X033975
X017775Y042725
Y041725
X014025Y049475
X013025
Y051975
X014025
X007725Y040025
X005725
X009525Y062425
X010525
X019425Y061975
Y060975
Y059975
X027425Y058575
X028425
X030975Y054725
X033975
X051225Y062425
X052225
X061125Y061975
Y060975
Y059975
X069125Y058575
X070125
X072675Y054725
X075675
X077975Y068375
X078975
X079975
X080975
X081975
Y071375
X080975
X079975
X078975
X077975
X077475Y074925
X076475
X070725
X069725
Y078425
X070725
X072675Y082425
X075675
X069225Y071475
X068225
Y068475
X069225
X067225
X066225
X065225
Y071475
X066225
X067225
X059475Y076925
Y077925
X049425Y075225
X047425
X040275Y071375
X039275
X038275
X037275
Y068375
X038275
X039275
X040275
X036275
Y071375
X035775Y074925
X034775
X029025
X028025
Y078425
X029025
X030975Y082425
X033975
X027525Y071475
X026525
X025525
X024525
X023525
Y068475
X024525
X025525
X026525
X027525
X017775Y076925
Y077925
X007725Y075225
X005725
X013025Y084675
X014025
Y087175
X013025
X010525Y097625
X009525
X019425Y097175
Y096175
Y095175
X027425Y093775
X028425
X030975Y089925
X033975
X051225Y097625
X052225
X061125Y097175
Y096175
Y095175
X055725Y087175
X054725
Y084675
X055725
X072675Y089925
X075675
X070125Y093775
X069125
X069225Y103675
X068225
Y106675
X069225
X077975Y106575
X078975
X079975
X080975
X081975
Y103575
X080975
X079975
X078975
X077975
X067225Y103675
X066225
X065225
Y106675
X066225
X067225
X040275Y106575
X039275
X038275
X037275
Y103575
X038275
X039275
X040275
X036275
Y106575
X027525Y106675
X026525
X025525
X024525
X023525
Y103675
X024525
X025525
X026525
X027525
T05
X072375Y007525
X078375
X074675Y012025
Y019525
X032975
Y012025
X030675Y007525
X036675
X036425Y024025
X030425
X072125
X078125
X078375Y042725
X072375
X074675Y047225
X032975
X030675Y042725
X036675
X032975Y054725
X030425Y059225
X036425
X072125
X078125
X074675Y054725
X072375Y077925
X078375
X074675Y082425
X032975
X030675Y077925
X036675
X032975Y089925
X030425Y094425
X036425
X072125
X078125
X074675Y089925
T06
X081225Y006075
Y008075
Y010075
Y012075
Y014075
Y016075
Y020725
X048775Y019725
Y017725
Y015725
X048725Y011225
Y009225
X039525Y010075
Y012075
Y014075
Y016075
Y020725
Y008075
Y006075
X007025Y009225
Y011225
X007075Y015725
Y017725
Y019725
Y021725
Y023725
Y025725
X039525Y024725
Y026725
Y028725
Y030725
Y022725
X048775Y021725
Y023725
Y025725
X081225Y024725
Y026725
Y028725
Y030725
Y022725
Y041275
Y043275
Y045275
Y047275
Y049275
Y051275
X048775Y050925
X048725Y046425
Y044425
X039525Y045275
Y047275
Y049275
Y051275
Y043275
Y041275
X007025Y044425
Y046425
X007075Y050925
Y052925
Y054925
Y056925
Y058925
Y060925
X039525Y059925
Y061925
Y063925
Y065925
Y057925
Y055925
X048775Y054925
Y056925
Y058925
Y060925
Y052925
X081225Y055925
Y057925
Y059925
Y061925
Y063925
Y065925
Y076475
Y078475
Y080475
Y082475
X048725Y081625
Y079625
X039525Y080475
Y082475
Y078475
Y076475
X007025Y079625
Y081625
X007075Y086125
Y088125
Y090125
Y092125
Y094125
Y096125
X039525Y095125
Y097125
Y099125
Y093125
Y091125
Y086475
Y084475
X048775Y086125
Y088125
Y090125
Y092125
Y094125
Y096125
X081225Y095125
Y097125
Y099125
Y093125
Y091125
Y086475
Y084475
Y101125
X039525
T07
X006225Y033675
X008225
X010225
X012225
X014225
X016225
X018225
X020225
X047925
X049925
X051925
X053925
X055925
X057925
X059925
X061925
Y068875
X059925
X057925
X055925
X053925
X051925
X049925
X047925
X020225
X018225
X016225
X014225
X012225
X010225
X008225
X006225
X053925Y104075
X055925
X057925
X059925
X061925
X051925
X049925
X047925
X020225
X018225
X016225
X014225
X012225
X010225
X008225
X006225
T08
X025275Y029775
X026775
X028275
X029775
X031275
X032775
X034275
X035775
X066975
X068475
X069975
X071475
X072975
X074475
X075975
X077475
X035775Y064975
X034275
X032775
X031275
X029775
X028275
X026775
X025275
X066975
X068475
X069975
X071475
X072975
X074475
X075975
X077475
Y100175
X075975
X074475
X072975
X071475
X069975
X068475
X066975
X035775
X034275
X032775
X031275
X029775
X028275
X026775
X025275
T09
X056725Y010025
X015025
Y030025
X056725
Y045225
X015025
Y065225
X056725
Y080425
X015025
X056725Y100425
X015025
T10
X032055Y004245
X073755
X032055Y035805
X073755
Y039445
X032055
X073755Y071005
Y074645
X032055
Y071005
X073755Y106205
X032055
M30
